<svg width="140" height="130" viewBox="0 0 140 130" fill="none" xmlns="http://www.w3.org/2000/svg">
<path d="M0 39H140V120C140 125.523 135.523 130 130 130H10C4.47716 130 0 125.523 0 120V39Z" fill="#735EF4"/>
<rect x="0.5" y="0.5" width="139" height="129" rx="9.5" stroke="#735EF4"/>
<path d="M45.9922 84L53.1406 70.0312V69.9141H44.8203V67.0312H56.7969V69.9609L49.6484 84H45.9922ZM64.7996 84.2344C60.5574 84.2344 57.9792 81.0703 57.9792 75.5156C57.9792 69.9609 60.5574 66.7969 64.7996 66.7969C69.0417 66.7969 71.6199 69.9844 71.6199 75.5156C71.6199 81.0938 69.0417 84.2344 64.7996 84.2344ZM64.7996 81.3281C66.7683 81.3281 68.0339 79.4297 68.0105 75.5156C68.0105 71.6484 66.7683 69.6797 64.7996 69.6797C62.8308 69.6797 61.5886 71.6484 61.5886 75.5156C61.5652 79.4297 62.8308 81.3281 64.7996 81.3281ZM77.9585 75.5156C75.4272 75.5156 74.0444 73.6641 74.0444 70.9922C74.0444 68.2969 75.4741 66.4453 77.9585 66.4453C80.5132 66.4453 81.8491 68.2969 81.8726 70.9922C81.8491 73.6875 80.4663 75.5156 77.9585 75.5156ZM77.9585 73.4297C78.9663 73.4297 79.4585 72.4453 79.4819 70.9922C79.4585 69.5391 79.0132 68.5312 77.9585 68.5312C76.9507 68.5312 76.4351 69.5625 76.4351 70.9922C76.4351 72.4453 76.9741 73.4297 77.9585 73.4297ZM89.396 84.5625C86.8882 84.5625 85.5054 82.7109 85.5054 80.0391C85.5054 77.3438 86.9351 75.4922 89.396 75.4922C91.9507 75.4922 93.3101 77.3438 93.3335 80.0391C93.3101 82.7344 91.9272 84.5625 89.396 84.5625ZM89.396 82.4766C90.4272 82.4766 90.9194 81.5156 90.9429 80.0391C90.9194 78.5859 90.4741 77.5781 89.396 77.6016C88.4116 77.6016 87.896 78.6094 87.896 80.0391C87.896 81.5156 88.4351 82.4766 89.396 82.4766ZM76.4819 84L88.1538 67.0312H90.7788L79.1069 84H76.4819Z" fill="white"/>
<path d="M62.8535 108.729C62.8535 110.178 63.8516 111.6 65.8066 112.174L65.041 113.391C63.6533 112.967 62.6621 112.078 62.1152 110.957C61.5615 112.167 60.5498 113.124 59.1211 113.596L58.3555 112.393C60.2969 111.791 61.3359 110.301 61.3359 108.729V108.619H58.752V107.416H61.3359V105.939H62.8672V107.416H65.4375V108.619H62.8535V108.729ZM68.1582 105.857V109.576H69.8809V110.834H68.1582V115.004H66.6406V105.857H68.1582ZM68.6504 116.74V117.971H60.2422V114.197H61.7598V116.74H68.6504ZM75.2382 107.635C75.2245 109.316 76.2089 110.848 78.1503 111.463L77.33 112.652C75.9833 112.181 75.0399 111.285 74.5135 110.109C73.9667 111.456 72.9344 112.516 71.4374 113.035L70.6307 111.805C72.6815 111.135 73.7069 109.48 73.7069 107.703V106.527H75.2382V107.635ZM81.0624 105.857V113.131H79.5448V109.494H77.0839V108.25H79.5448V105.857H81.0624ZM76.8788 113.459C79.5038 113.459 81.1034 114.334 81.1034 115.838C81.1034 117.342 79.5038 118.203 76.8788 118.203C74.2675 118.203 72.6678 117.342 72.6815 115.838C72.6678 114.334 74.2675 113.459 76.8788 113.459ZM76.8788 114.635C75.1561 114.635 74.1854 115.059 74.1854 115.838C74.1854 116.59 75.1561 117.014 76.8788 117.014C78.6014 117.014 79.5858 116.59 79.5858 115.838C79.5858 115.059 78.6014 114.635 76.8788 114.635Z" fill="white"/>
</svg>
