<svg width="902" height="510" viewBox="0 0 902 510" fill="none" xmlns="http://www.w3.org/2000/svg">
<path d="M51.0586 1.21143V28.1255H46.2344V22.5903H34.7578V18.6294H46.2344V13.0942H35.2402C32.2949 20.4067 25.4648 25.561 15.6133 28.3794L13.6836 24.6216C24.4492 21.5493 30.7461 15.7603 31.6094 8.42236H16.0195V4.46143H36.8398C36.8398 6.13721 36.6621 7.76221 36.3574 9.28564H46.2344V1.21143H51.0586ZM20.7422 37.52C20.7422 32.0103 26.7344 28.6587 36.0781 28.6333C45.2949 28.6587 51.3379 32.0103 51.3633 37.52C51.3379 43.0552 45.2949 46.4575 36.0781 46.4575C26.7344 46.4575 20.7422 43.0552 20.7422 37.52ZM25.5156 37.52C25.5156 40.7192 29.5781 42.5728 36.0781 42.5981C42.4512 42.5728 46.5137 40.7192 46.5391 37.52C46.5137 34.27 42.4512 32.4165 36.0781 32.4419C29.5781 32.4165 25.5156 34.27 25.5156 37.52Z" fill="white"/>
<path d="M98.126 1.16064V46.6606H93.5049V1.16064H98.126ZM58.4151 34.1177C64.8643 30.2329 68.1397 21.9556 68.1651 13.856V10.1997H59.7861V6.28955H80.6065V10.1997H72.7861V13.856C72.7861 21.6255 75.9346 29.4204 82.333 33.1021L79.4385 36.6567C75.0967 34.0669 72.126 29.4204 70.5264 23.936C68.9014 29.8774 65.8037 34.9556 61.3604 37.7231L58.4151 34.1177ZM77.2549 21.2192V17.2583H84.3135V2.12549H88.8838V44.3755H84.3135V21.2192H77.2549Z" fill="white"/>
<path d="M155.444 16.1919V20.1021H123.909V3.39502H128.784V16.1919H155.444ZM118.73 30.1567V26.2466H160.218V30.1567H149.858V46.6606H144.983V30.1567H133.964V46.6606H129.14V30.1567H118.73Z" fill="white"/>
<path d="M187.785 7.60986C187.785 15.0239 195.682 22.0317 204.441 23.606L202.207 27.6177C194.92 26.0435 188.242 21.27 185.297 14.8716C182.301 21.2446 175.623 25.9927 168.336 27.6177L166.203 23.606C174.836 21.981 182.682 15.0239 182.707 7.60986V4.15674H187.785V7.60986ZM164.68 40.6685V36.6567H206.32V40.6685H164.68Z" fill="white"/>
<path d="M247.446 14.4653V18.3247H216.114V2.78564H220.888V14.4653H247.446ZM210.579 27.9224V24.063H252.22V27.9224H210.579ZM215.759 45.5942V32.2388H220.583V41.6333H247.751V45.5942H215.759Z" fill="white"/>
<path d="M283.386 41.3794H302.378V38.1294H283.386V41.3794ZM270.03 20.2544C278.663 20.2798 289.911 20.2798 299.788 19.0356L300.093 23.606C296.538 24.2153 292.882 24.6216 289.276 24.9009V30.3091H283.386V33.2544H302.378V29.3442H308.776V46.5083H276.987V29.3442H282.827V25.2563C278.536 25.4087 274.448 25.4341 270.792 25.4341L270.03 20.2544ZM271.655 13.5005C278.993 12.0024 282.319 8.06689 282.37 3.85205V1.97314H289.023V3.85205C288.997 7.76221 292.374 11.4692 299.534 12.8403L296.792 17.7153C291.485 16.6489 287.804 14.186 285.747 10.8853C283.741 14.5161 280.009 17.2583 274.499 18.4263L271.655 13.5005ZM302.327 27.4653V0.855957H308.776V27.4653H302.327Z" fill="white"/>
<path d="M355.996 0.805176V47.0161H349.902V0.805176H355.996ZM315.371 32.8481C324.715 27.313 328.828 20.5845 329.717 11.52H317.91V6.28955H336.141C336.141 10.7075 335.658 14.8208 334.541 18.6294H340.102V1.8208H346.145V44.9849H340.102V23.7583H332.535C329.895 29.0396 325.604 33.6099 319.027 37.4185L315.371 32.8481Z" fill="white"/>
<path d="M371.63 38.5864L367.263 53.0591H361.88L364.419 38.5864H371.63Z" fill="white"/>
<path d="M405.386 9.89502C405.386 14.8716 408.56 19.8989 414.476 22.1333L411.937 25.8403C407.696 24.2153 404.726 21.1177 403.101 17.3853C401.425 21.6001 398.327 25.2563 393.909 27.1606L391.269 23.4028C397.413 20.7368 400.714 14.9478 400.714 9.89502V4.00439H405.386V9.89502ZM399.648 38.3325C399.597 33.1528 405.513 30.0806 415.034 30.0552C424.53 30.0806 430.497 33.1528 430.523 38.3325C430.497 43.5122 424.53 46.5845 415.034 46.5591C405.513 46.5845 399.597 43.5122 399.648 38.3325ZM404.421 38.3325C404.37 41.2271 408.407 42.9028 415.034 42.8521C421.636 42.9028 425.673 41.2271 425.698 38.3325C425.673 35.4126 421.636 33.7368 415.034 33.7622C408.407 33.7368 404.37 35.4126 404.421 38.3325ZM415.898 27.77V2.02393H420.366V13.0435H425.698V1.21143H430.269V29.1919H425.698V17.0044H420.366V27.77H415.898Z" fill="white"/>
<path d="M473.172 1.16064V12.3833H479.774V16.4458H473.172V27.77H468.348V1.16064H473.172ZM437.168 23.6567C448.086 20.7876 454.561 15.0239 455.399 7.86377H439.352V3.95361H460.578C460.553 15.6587 452.656 23.8853 439.149 27.3638L437.168 23.6567ZM443.109 33.6606V29.7505H473.172V46.6606H468.348V33.6606H443.109Z" fill="white"/>
<path d="M524.861 24.9263V28.7856H483.372V24.9263H524.861ZM487.841 11.7739C487.816 6.06104 494.189 2.65869 504.091 2.68408C513.943 2.65869 520.316 6.06104 520.341 11.7739C520.316 17.5122 513.943 20.9907 504.091 21.0161C494.189 20.9907 487.816 17.5122 487.841 11.7739ZM488.603 45.6958V32.4927H493.478V41.7856H520.189V45.6958H488.603ZM492.818 11.7739C492.792 15.1509 497.109 17.0552 504.091 17.0552C511.048 17.0552 515.39 15.1509 515.364 11.7739C515.39 8.52393 511.048 6.54346 504.091 6.54346C497.109 6.54346 492.792 8.52393 492.818 11.7739Z" fill="white"/>
<path d="M567.503 3.75049C567.503 15.9888 559.48 23.7075 545.82 26.856L543.179 21.7271C553.995 19.5435 559.632 14.5923 560.521 8.93018H545.667V3.75049H567.503ZM549.374 46.3052V41.1255H555.366V32.8481H549.78V27.8208H581.519V32.8481H575.933V41.1255H581.976V46.3052H549.374ZM561.663 41.1255H569.585V32.8481H561.663V41.1255ZM574.46 25.688V0.855957H580.96V25.688H574.46Z" fill="white"/>
<path d="M628.383 0.805176V47.0161H622.289V0.805176H628.383ZM587.758 32.8481C597.102 27.313 601.215 20.5845 602.104 11.52H590.297V6.28955H608.528C608.528 10.7075 608.045 14.8208 606.928 18.6294H612.488V1.8208H618.531V44.9849H612.488V23.7583H604.922C602.281 29.0396 597.99 33.6099 591.414 37.4185L587.758 32.8481Z" fill="white"/>
<path d="M644.017 38.5864L639.65 53.0591H634.267L636.806 38.5864H644.017Z" fill="white"/>
<path d="M678.687 4.41064C685.872 4.38525 691.052 8.82861 691.077 15.2271C691.052 21.6255 685.872 26.0688 678.687 26.0942C671.527 26.0688 666.271 21.6255 666.296 15.2271C666.271 8.82861 671.527 4.38525 678.687 4.41064ZM664.112 32.9497C672.39 32.9497 683.866 32.8735 693.82 31.4263L694.175 34.9302C683.892 36.9106 672.847 36.9614 664.722 36.9614L664.112 32.9497ZM671.07 15.2271C671.019 19.2642 674.269 21.8794 678.687 21.8794C683.105 21.8794 686.355 19.2642 686.355 15.2271C686.355 11.2407 683.105 8.57471 678.687 8.57471C674.269 8.57471 671.019 11.2407 671.07 15.2271ZM696.663 46.7622V1.16064H701.487V46.7622H696.663Z" fill="white"/>
<path d="M747.742 1.21143V34.981H742.918V24.52H731.289V20.5591H742.918V14.313H731.924C728.699 21.397 721.869 26.729 712.602 29.6489L710.52 25.8403C720.879 22.4888 727.76 16.3188 728.725 8.57471H712.856V4.71533H733.981C733.981 6.6958 733.727 8.6001 733.295 10.4028H742.918V1.21143H747.742ZM718.442 45.6958V31.6294H723.317V41.7856H748.91V45.6958H718.442Z" fill="white"/>
<path d="M797.247 24.9263V28.7856H755.759V24.9263H797.247ZM760.228 11.7739C760.202 6.06104 766.575 2.65869 776.478 2.68408C786.329 2.65869 792.702 6.06104 792.728 11.7739C792.702 17.5122 786.329 20.9907 776.478 21.0161C766.575 20.9907 760.202 17.5122 760.228 11.7739ZM760.99 45.6958V32.4927H765.865V41.7856H792.575V45.6958H760.99ZM765.204 11.7739C765.179 15.1509 769.495 17.0552 776.478 17.0552C783.435 17.0552 787.777 15.1509 787.751 11.7739C787.777 8.52393 783.435 6.54346 776.478 6.54346C769.495 6.54346 765.179 8.52393 765.204 11.7739Z" fill="white"/>
<path d="M851.417 0.805176V12.1802H857.663V17.6138H851.417V28.6841H844.917V0.805176H851.417ZM814.753 10.0981V4.96924H825.265V0.55127H831.714V4.96924H842.175V10.0981H814.753ZM816.988 19.7974C816.988 14.9224 821.659 11.52 828.464 11.52C835.193 11.52 839.839 14.9224 839.839 19.7974C839.839 24.7993 835.193 28.1509 828.464 28.1763C821.659 28.1509 816.988 24.7993 816.988 19.7974ZM821.202 46.5083V30.7153H851.417V46.5083H821.202ZM823.335 19.7974C823.31 22.1587 825.366 23.3774 828.464 23.4028C831.587 23.3774 833.695 22.1587 833.695 19.7974C833.695 17.5884 831.587 16.3696 828.464 16.395C825.366 16.3696 823.31 17.5884 823.335 19.7974ZM827.601 41.3286H845.019V35.7935H827.601V41.3286Z" fill="white"/>
<path d="M872.078 6.08643C872.028 17.6392 870.91 27.9731 865.02 37.1138L859.992 34.4731C864.74 27.2876 866.162 20.2544 866.467 11.3169H861.516V6.08643H872.078ZM870.453 36.7075C875.633 28.8364 876.674 20.686 876.903 11.3169H873.399V6.08643H882.438C882.438 10.1489 882.336 14.186 881.981 18.1216H885.942V1.8208H892.035V44.9849H885.942V23.3521H881.321C880.356 29.0142 878.604 34.4478 875.379 39.4497L870.453 36.7075ZM894.93 47.0161V0.805176H901.125V47.0161H894.93Z" fill="white"/>
<rect x="0.601562" y="149.059" width="360" height="360" rx="60" fill="#552FE9"/>
<path d="M242.963 299.7C243.203 297.806 243.327 295.875 243.327 293.916C243.327 268.668 222.792 248.2 197.46 248.2C180.911 248.2 166.408 256.936 158.342 270.034C153.206 268.089 147.634 267.024 141.813 267.024C116.109 267.024 95.2722 287.793 95.2722 313.413C95.2722 316.093 95.5004 318.721 95.9383 321.277C77.7472 327.102 64.582 344.104 64.582 364.171C64.582 388.711 84.2708 408.668 108.762 409.204V409.215H296.613L278.632 393.097C273.972 388.92 274.061 381.651 277.591 376.484C282.998 368.569 286.158 359.006 286.158 348.708C286.158 323.573 267.33 302.821 242.963 299.7Z" fill="#F5F5F9"/>
<path d="M749.151 402.649C749.151 416.183 762.966 420.976 804.978 420.976C846.707 420.976 860.241 416.183 860.241 402.649C860.241 389.115 846.707 384.322 804.978 384.322C762.966 384.322 749.151 389.115 749.151 402.649ZM776.782 267.593V216.277C776.782 210.356 780.166 206.973 786.087 206.973H805.542C811.463 206.973 814.846 210.356 814.846 216.277V261.108C814.846 280.281 822.459 290.713 836.839 292.123C842.76 292.687 845.579 295.506 845.579 301.146V321.164C845.579 327.085 842.478 330.187 836.839 330.187C816.82 330.187 802.722 320.037 796.801 301.709C791.444 319.755 779.602 330.187 764.094 330.187C748.587 330.187 736.745 319.755 731.388 301.709C725.466 320.037 711.369 330.187 691.35 330.187C685.711 330.187 682.609 327.085 682.609 321.164V301.146C682.609 295.506 685.429 292.687 691.35 292.123C705.73 290.713 713.342 280.281 713.342 261.108V216.277C713.342 210.356 716.726 206.973 722.647 206.973H742.102C748.023 206.973 751.406 210.356 751.406 216.277V269.003C751.406 284.792 755.354 292.123 764.094 292.123C772.835 292.123 776.782 284.792 776.782 267.593ZM708.549 402.649C708.549 365.713 740.128 347.668 804.978 347.668C869.545 347.668 901.124 365.713 901.124 402.649C901.124 439.585 869.545 457.631 804.978 457.631C740.128 457.631 708.549 439.585 708.549 402.649ZM856.857 209.228C856.857 203.589 859.959 200.488 865.598 200.488H886.181C891.82 200.488 894.921 203.589 894.921 209.228V328.777C894.921 334.416 891.82 337.518 886.181 337.518H865.598C859.959 337.518 856.857 334.416 856.857 328.777V209.228Z" fill="white"/>
<path d="M633.372 386.297C625.759 386.86 621.248 389.962 621.248 398.139V433.947C621.248 439.868 618.147 443.251 612.226 443.251H589.669C583.748 443.251 580.365 439.868 580.365 433.947V403.214C580.365 396.447 583.748 390.808 588.823 388.552C571.06 388.834 543.147 388.834 534.688 388.834C526.511 388.834 522.564 393.063 522.564 400.676V433.947C522.564 439.868 519.463 443.251 513.542 443.251H490.985C485.064 443.251 481.681 439.868 481.681 433.947V402.932C481.681 396.165 485.064 390.244 490.139 387.706C475.196 387.142 462.508 385.733 451.512 384.041C445.027 383.195 442.207 380.375 442.207 375.018V354.154C442.207 348.233 445.59 344.849 451.512 345.695C475.76 348.797 512.978 350.488 552.451 350.488C596.436 350.488 636.474 348.515 653.955 345.695C659.876 344.567 663.541 348.233 663.541 354.154V375.018C663.541 380.094 660.722 383.195 654.237 384.041C648.034 384.887 640.703 385.733 633.372 386.297ZM465.609 265.902C465.609 246.729 466.173 229.248 467.301 215.432C467.865 209.793 471.248 206.691 477.733 206.691H500.008C505.647 206.691 508.466 209.793 508.184 215.996C507.339 228.684 506.493 243.345 506.493 263.364C506.493 283.383 515.233 291.278 537.79 291.278C569.65 291.278 608.56 289.022 636.756 284.793C642.395 283.947 645.778 287.048 646.342 292.969L648.598 313.834C649.162 319.191 646.06 322.011 640.139 322.857C612.508 326.804 573.598 329.342 536.662 329.342C488.166 329.342 465.609 309.605 465.609 265.902Z" fill="white"/>
</svg>
