<svg width="140" height="130" viewBox="0 0 140 130" fill="none" xmlns="http://www.w3.org/2000/svg">
<path d="M0 91H140V120C140 125.523 135.523 130 130 130H10C4.47716 130 0 125.523 0 120V91Z" fill="#D7D7FD"/>
<rect x="0.5" y="0.5" width="139" height="129" rx="9.5" stroke="#B9B6FC"/>
<path d="M50.6172 84.2344C46.8906 84.2344 44.2188 82.1719 44.1484 79.2188H47.7109C47.7812 80.4844 49 81.3281 50.6406 81.3281C52.3281 81.3281 53.5469 80.3672 53.5234 79.0078C53.5469 77.625 52.3047 76.6406 50.3125 76.6406H48.7422V74.0391H50.3125C51.9766 74.0391 53.1484 73.125 53.1484 71.7891C53.1484 70.5 52.1641 69.6094 50.6641 69.6094C49.1641 69.6094 47.9219 70.4531 47.875 71.7422H44.5C44.5469 68.8125 47.1953 66.7969 50.6641 66.7969C54.2031 66.7969 56.5703 68.8828 56.5469 71.5781C56.5703 73.4766 55.2344 74.8359 53.3359 75.1641V75.3047C55.8203 75.6094 57.2031 77.1328 57.1797 79.2422C57.2031 82.1484 54.4375 84.2344 50.6172 84.2344ZM65.698 84.2344C61.4558 84.2344 58.8777 81.0703 58.8777 75.5156C58.8777 69.9609 61.4558 66.7969 65.698 66.7969C69.9402 66.7969 72.5183 69.9844 72.5183 75.5156C72.5183 81.0938 69.9402 84.2344 65.698 84.2344ZM65.698 81.3281C67.6667 81.3281 68.9324 79.4297 68.9089 75.5156C68.9089 71.6484 67.6667 69.6797 65.698 69.6797C63.7292 69.6797 62.4871 71.6484 62.4871 75.5156C62.4636 79.4297 63.7292 81.3281 65.698 81.3281ZM78.8569 75.5156C76.3257 75.5156 74.9429 73.6641 74.9429 70.9922C74.9429 68.2969 76.3726 66.4453 78.8569 66.4453C81.4116 66.4453 82.7476 68.2969 82.771 70.9922C82.7476 73.6875 81.3647 75.5156 78.8569 75.5156ZM78.8569 73.4297C79.8647 73.4297 80.3569 72.4453 80.3804 70.9922C80.3569 69.5391 79.9116 68.5312 78.8569 68.5312C77.8491 68.5312 77.3335 69.5625 77.3335 70.9922C77.3335 72.4453 77.8726 73.4297 78.8569 73.4297ZM90.2944 84.5625C87.7866 84.5625 86.4038 82.7109 86.4038 80.0391C86.4038 77.3438 87.8335 75.4922 90.2944 75.4922C92.8491 75.4922 94.2085 77.3438 94.2319 80.0391C94.2085 82.7344 92.8257 84.5625 90.2944 84.5625ZM90.2944 82.4766C91.3257 82.4766 91.8179 81.5156 91.8413 80.0391C91.8179 78.5859 91.3726 77.5781 90.2944 77.6016C89.3101 77.6016 88.7944 78.6094 88.7944 80.0391C88.7944 81.5156 89.3335 82.4766 90.2944 82.4766ZM77.3804 84L89.0522 67.0312H91.6772L80.0054 84H77.3804Z" fill="#735EF4"/>
<path d="M68.1582 105.871V109.439H69.8809V110.697H68.1582V114.963H66.6406V105.871H68.1582ZM68.6504 116.74V117.971H60.2422V114.047H61.7598V116.74H68.6504ZM60.3379 106.746V108.633H63.2227V106.746H64.7266V112.953H58.834V106.746H60.3379ZM60.3379 111.75H63.2227V109.809H60.3379V111.75ZM81.3495 105.857V118.217H79.9003V111.914H78.5057V117.588H77.1112V106.09H78.5057V110.697H79.9003V105.857H81.3495ZM75.7167 107.32V108.551H72.6268V114.047C73.9735 114.033 75.0809 113.965 76.3319 113.732L76.4413 114.977C74.951 115.277 73.6522 115.318 71.9296 115.332H71.0956V107.32H75.7167Z" fill="#735EF4"/>
</svg>
