<svg width="360" height="288" viewBox="0 0 360 288" fill="none" xmlns="http://www.w3.org/2000/svg">
<g filter="url(#filter0_b_948_11991)">
<rect width="360" height="288" fill="black" fill-opacity="0.4"/>
<g filter="url(#filter1_d_948_11991)">
<path d="M77.4759 130.059V130.934H71.3783V130.059H73.9076V128.322H74.974V130.059H77.4759ZM71.8158 134.516C71.8158 132.902 72.9164 131.761 74.4271 131.754C75.9583 131.761 77.0521 132.902 77.0658 134.516C77.0521 136.149 75.9583 137.298 74.4271 137.305C72.9164 137.298 71.8158 136.149 71.8158 134.516ZM72.7728 134.516C72.7728 135.596 73.4632 136.368 74.4271 136.361C75.3978 136.368 76.1087 135.596 76.1087 134.516C76.1087 133.449 75.3978 132.67 74.4271 132.656C73.4632 132.67 72.7728 133.449 72.7728 134.516ZM78.1048 139.506V128.254H79.1165V133.08H80.7298V127.953H81.7552V140.107H80.7298V133.969H79.1165V139.506H78.1048ZM93.2238 127.953V131.125H95.0422V132.027H93.2238V135.213H92.1438V127.953H93.2238ZM84.2688 134.215V128.883H89.6692V129.771H85.3215V133.34C87.7824 133.326 89.1975 133.251 90.8313 132.916L90.9406 133.805C89.2385 134.146 87.7824 134.215 85.2121 134.215H84.2688ZM85.2805 137.756C85.2873 136.3 86.8322 135.452 89.3137 135.445C91.7951 135.452 93.3195 136.3 93.3195 137.756C93.3195 139.232 91.7951 140.08 89.3137 140.08C86.8322 140.08 85.2873 139.232 85.2805 137.756ZM86.3332 137.756C86.3401 138.658 87.4817 139.212 89.3137 139.219C91.132 139.212 92.2873 138.658 92.2805 137.756C92.2873 136.86 91.132 136.32 89.3137 136.334C87.4817 136.32 86.3401 136.86 86.3332 137.756ZM109.503 132.068V132.957H101.136V128.582H102.229V132.068H109.503ZM99.7275 135.609V134.721H110.802V135.609H107.917V140.107H106.851V135.609H103.692V140.107H102.626V135.609H99.7275ZM118.087 129.744C118.094 131.829 120.472 133.682 122.585 134.078L122.093 134.98C120.254 134.557 118.326 133.251 117.54 131.467C116.747 133.251 114.826 134.55 112.987 134.98L112.495 134.078C114.6 133.675 116.959 131.836 116.966 129.744V128.814H118.087V129.744ZM112.03 138.453V137.564H123.159V138.453H112.03ZM129.077 129.307V133.504H125.782V136.211C127.183 136.197 128.509 136.156 130.13 135.869L130.212 136.758C128.482 137.065 127.088 137.106 125.55 137.113H124.743V132.615H128.051V130.195H124.716V129.307H129.077ZM129.665 133.217V132.342H131.223V128.254H132.235V139.465H131.223V133.217H129.665ZM133.698 140.107V127.953H134.723V140.107H133.698ZM146.712 127.953V140.135H145.645V133.436H143.075V132.547H145.645V127.953H146.712ZM137.196 137.195V129.074H142.87V129.963H138.276V132.492H142.337V133.367H138.276V136.307C140.504 136.3 141.94 136.238 143.608 135.938L143.731 136.826C141.961 137.113 140.477 137.195 138.126 137.195H137.196ZM159.356 127.953V140.107H158.317V127.953H159.356ZM149.088 133.203C149.095 130.619 150.121 128.985 151.7 128.979C153.176 128.985 154.174 130.407 154.311 132.697H155.883V128.213H156.909V139.492H155.883V133.586H154.318C154.215 135.951 153.197 137.435 151.7 137.428C150.121 137.435 149.095 135.787 149.088 133.203ZM150.1 133.203C150.086 135.172 150.715 136.416 151.7 136.402C152.691 136.416 153.32 135.172 153.313 133.203C153.32 131.228 152.691 129.99 151.7 129.99C150.715 129.99 150.086 131.228 150.1 133.203ZM90.256 147.953V152.766H92.2931V153.668H90.256V160.135H89.1896V147.953H90.256ZM81.383 157.086V149.143H87.0568V150.031H82.4494V156.184C84.6505 156.177 86.2023 156.081 88.0138 155.746L88.1505 156.676C86.2433 157.018 84.6505 157.086 82.34 157.086H81.383ZM104.268 154.693V155.582H93.1387V154.693H104.268ZM94.5469 149.238V148.377H102.832V151.371H95.6543V152.725H103.092V153.572H94.5879V150.564H101.752V149.238H94.5469ZM94.6153 159.848V156.539H95.6953V158.945H103.092V159.848H94.6153ZM119.193 147.953V160.135H118.113V147.953H119.193ZM109.623 153.135C109.63 150.551 110.915 148.903 112.726 148.896C114.531 148.903 115.837 150.551 115.83 153.135C115.837 155.726 114.531 157.366 112.726 157.359C110.915 157.366 109.63 155.726 109.623 153.135ZM110.662 153.135C110.662 155.11 111.51 156.409 112.726 156.402C113.95 156.409 114.791 155.11 114.791 153.135C114.791 151.159 113.95 149.86 112.726 149.854C111.51 149.86 110.662 151.159 110.662 153.135ZM132.548 153.969V154.857H121.474V153.969H124.222V152.253C123.252 151.877 122.705 151.262 122.705 150.441C122.705 149.013 124.345 148.192 127.011 148.186C129.657 148.192 131.297 149.013 131.304 150.441C131.297 151.255 130.757 151.87 129.8 152.253V153.969H132.548ZM122.814 157.934C122.807 156.546 124.373 155.78 127.011 155.787C129.616 155.78 131.181 156.546 131.195 157.934C131.181 159.321 129.616 160.08 127.011 160.08C124.373 160.08 122.807 159.321 122.814 157.934ZM123.812 150.441C123.805 151.33 125.022 151.843 127.011 151.85C128.98 151.843 130.204 151.33 130.211 150.441C130.204 149.566 128.98 149.033 127.011 149.033C125.022 149.033 123.805 149.566 123.812 150.441ZM123.908 157.934C123.894 158.761 125.063 159.253 127.011 159.246C128.939 159.253 130.108 158.761 130.115 157.934C130.108 157.106 128.939 156.621 127.011 156.607C125.063 156.621 123.894 157.106 123.908 157.934ZM125.289 153.969H128.734V152.54C128.221 152.636 127.647 152.684 127.011 152.684C126.376 152.684 125.801 152.636 125.289 152.547V153.969ZM137.892 151.686C137.878 153.634 139.287 155.78 141.05 156.621L140.435 157.469C139.068 156.799 137.913 155.363 137.366 153.716C136.805 155.5 135.588 157.072 134.228 157.77L133.572 156.922C135.322 156.067 136.826 153.757 136.839 151.686V150.1H134.009V149.211H140.626V150.1H137.892V151.686ZM142.117 160.107V147.953H143.183V152.875H145.22V153.791H143.183V160.107H142.117ZM157.167 153.066V153.928H146.079V153.066H157.167ZM147.419 155.855V155.021H155.732V157.838H148.513V159.096H156.101V159.971H147.447V157.031H154.679V155.855H147.419ZM147.556 152.068V148.377H155.718V149.238H148.636V151.193H155.841V152.068H147.556ZM162.361 148.842C164.268 148.849 165.621 150.011 165.628 151.699C165.621 153.395 164.268 154.55 162.361 154.557C160.44 154.55 159.073 153.395 159.079 151.699C159.073 150.011 160.44 148.849 162.361 148.842ZM158.45 156.539C160.693 156.546 163.789 156.525 166.476 156.129L166.558 156.922C163.776 157.441 160.788 157.455 158.601 157.455L158.45 156.539ZM160.132 151.699C160.125 152.834 161.062 153.613 162.361 153.613C163.646 153.613 164.582 152.834 164.575 151.699C164.582 150.571 163.646 149.785 162.361 149.785C161.062 149.785 160.125 150.571 160.132 151.699ZM167.282 160.135V147.953H168.349V160.135H167.282ZM178.024 150.373C178.031 151.72 178.968 153.08 180.526 153.668L179.966 154.488C178.797 154.037 177.956 153.169 177.519 152.123C177.074 153.278 176.199 154.311 175.003 154.83L174.415 153.996C176.015 153.299 176.992 151.727 176.999 150.373V148.719H178.024V150.373ZM176.63 157.92C176.616 156.546 178.175 155.739 180.704 155.746C183.22 155.739 184.785 156.546 184.792 157.92C184.785 159.28 183.22 160.08 180.704 160.08C178.175 160.08 176.616 159.28 176.63 157.92ZM177.696 157.92C177.683 158.747 178.838 159.253 180.704 159.246C182.55 159.253 183.712 158.747 183.726 157.92C183.712 157.079 182.55 156.573 180.704 156.566C178.838 156.573 177.683 157.079 177.696 157.92ZM181.073 155.09V148.199H182.085V151.234H183.698V147.967H184.724V155.473H183.698V152.123H182.085V155.09H181.073ZM196.206 147.953V151.043H198.038V151.959H196.206V155.09H195.14V147.953H196.206ZM186.69 154.119C189.671 153.312 191.51 151.686 191.728 149.621H187.237V148.732H192.87C192.863 151.809 190.717 154.003 187.128 154.953L186.69 154.119ZM188.249 156.525V155.65H196.206V160.107H195.14V156.525H188.249ZM204.544 148.172C207.244 148.172 208.83 148.917 208.837 150.264C208.83 151.645 207.244 152.39 204.544 152.396C201.83 152.39 200.237 151.645 200.237 150.264C200.237 148.917 201.83 148.172 204.544 148.172ZM199.007 154.092V153.217H210.081V154.092H199.007ZM200.346 155.965V155.145H208.659V157.865H201.44V159.123H209.028V159.971H200.374V157.072H207.606V155.965H200.346ZM201.358 150.264C201.344 151.111 202.527 151.576 204.544 151.576C206.56 151.576 207.736 151.111 207.743 150.264C207.736 149.464 206.56 148.985 204.544 148.979C202.527 148.985 201.344 149.464 201.358 150.264ZM224.788 151.221V152.082H216.502V148.432H224.665V149.32H217.583V151.221H224.788ZM215.026 153.955V153.066H226.1V153.955H221.083V155.172H224.678V157.879H217.459V159.109H225.047V159.971H216.393V157.086H223.625V155.992H216.366V155.172H220.03V153.955H215.026ZM237.391 147.953V160.135H236.325V153.531H233.959V152.629H236.325V147.953H237.391ZM227.752 149.977V149.088H233.221V153.34H228.86V156.293C230.958 156.293 232.476 156.225 234.246 155.896L234.328 156.799C232.503 157.127 230.924 157.202 228.723 157.209H227.793V152.451H232.182V149.977H227.752ZM250.76 157.66V158.549H239.631V157.66H244.635V155.035H240.944V148.814H242.024V151.016H248.34V148.814H249.393V155.035H245.688V157.66H250.76ZM242.024 154.16H248.34V151.891H242.024V154.16ZM255.543 151.412C255.543 153.347 256.486 155.432 258.1 156.389L257.484 157.223C256.309 156.512 255.468 155.213 255.044 153.729C254.6 155.35 253.697 156.744 252.481 157.482L251.797 156.676C253.479 155.691 254.504 153.538 254.504 151.453V149.102H255.543V151.412ZM256.76 153.23V152.314H258.824V148.213H259.836V159.492H258.824V153.23H256.76ZM261.313 160.107V147.953H262.352V160.107H261.313ZM275.365 157.646V158.549H264.236V157.646H266.998V154.372C265.959 153.832 265.33 152.957 265.33 151.85C265.33 149.97 267.176 148.732 269.773 148.719C272.371 148.732 274.217 149.97 274.217 151.85C274.217 152.937 273.608 153.798 272.603 154.338V157.646H275.365ZM266.369 151.85C266.362 153.21 267.777 154.119 269.773 154.119C271.749 154.119 273.178 153.21 273.178 151.85C273.178 150.489 271.749 149.594 269.773 149.607C267.777 149.594 266.362 150.489 266.369 151.85ZM268.051 157.646H271.523V154.755C270.997 154.892 270.409 154.967 269.773 154.967C269.151 154.967 268.57 154.898 268.051 154.762V157.646ZM278.508 149.102L278.412 156.211H277.264L277.168 149.102H278.508ZM276.963 158.193C276.949 157.715 277.359 157.318 277.838 157.318C278.323 157.318 278.72 157.715 278.713 158.193C278.72 158.679 278.323 159.075 277.838 159.082C277.359 159.075 276.949 158.679 276.963 158.193Z" fill="white"/>
<path d="M175.485 127.857V140.217H174.022V133.969H172.654V139.588H171.233V128.09H172.654V132.725H174.022V127.857H175.485ZM165.408 137.141V129.279H166.94V135.801C168.006 135.78 169.168 135.685 170.467 135.432L170.617 136.758C168.949 137.052 167.534 137.141 166.229 137.141H165.408ZM184.559 130.154C184.565 131.487 185.345 132.834 186.965 133.449L186.158 134.611C185.058 134.194 184.292 133.401 183.848 132.444C183.396 133.545 182.59 134.488 181.414 134.98L180.594 133.818C182.296 133.066 183.089 131.521 183.096 130.154V128.623H184.559V130.154ZM182.863 137.92C182.856 136.498 184.497 135.65 187.102 135.65C189.685 135.65 191.333 136.498 191.34 137.92C191.333 139.349 189.685 140.203 187.102 140.203C184.497 140.203 182.856 139.349 182.863 137.92ZM184.381 137.92C184.374 138.651 185.386 139.048 187.102 139.041C188.79 139.048 189.802 138.651 189.809 137.92C189.802 137.195 188.79 136.799 187.102 136.799C185.386 136.799 184.374 137.195 184.381 137.92ZM187.17 135.062V128.104H188.592V130.988H189.822V127.871H191.271V135.445H189.822V132.232H188.592V135.062H187.17ZM202.754 127.857V130.838H204.476V132.109H202.754V135.062H201.236V127.857H202.754ZM192.883 133.832C195.767 133.087 197.415 131.61 197.675 129.812H193.498V128.582H199.308C199.302 131.822 197.196 134.058 193.512 134.994L192.883 133.832ZM194.523 136.799V135.582H202.754V140.217H201.236V136.799H194.523ZM210.927 128.049C213.744 128.056 215.378 128.801 215.384 130.168C215.378 131.549 213.744 132.294 210.927 132.301C208.118 132.294 206.47 131.549 206.47 130.168C206.47 128.801 208.118 128.056 210.927 128.049ZM205.308 134.174V132.957H216.574V134.174H205.308ZM206.634 136.129V135.008H215.166V138.029H208.138V138.945H215.508V140.107H206.648V136.949H213.675V136.129H206.634ZM208.07 130.168C208.063 130.852 209.048 131.166 210.927 131.166C212.835 131.166 213.812 130.852 213.812 130.168C213.812 129.532 212.835 129.17 210.927 129.17C209.048 129.17 208.063 129.532 208.07 130.168ZM227.48 128.896V131.193H229.968V127.871H231.486V136.867H229.968V132.41H227.48V134.762H221.669V128.896H227.48ZM223.187 133.559H225.976V130.1H223.187V133.559ZM223.378 139.971V136.02H224.896V138.74H231.8V139.971H223.378ZM243.802 127.857V140.23H242.284V133.477H239.906V132.232H242.284V127.857H243.802ZM233.275 136.676C235.25 135.739 236.419 133.401 236.433 131.139V130.318H233.781V129.074H240.63V130.318H237.978V131.139C237.978 133.278 239.133 135.534 241.122 136.402L240.22 137.619C238.784 136.936 237.759 135.562 237.219 133.928C236.679 135.671 235.626 137.141 234.191 137.865L233.275 136.676ZM259.015 127.871V130.551H260.751V131.809H259.015V134.83H257.497V127.871H259.015ZM249.8 134.078V128.473H251.331V132.827C252.91 132.807 254.585 132.663 256.39 132.314L256.567 133.559C254.517 133.969 252.616 134.078 250.825 134.078H249.8ZM251.017 140.053V135.432H259.015V140.053H251.017ZM252.507 138.85H257.524V136.621H252.507V138.85ZM271.837 127.871V136.84H270.306V127.871H271.837ZM261.761 134.324C264.598 133.49 266.307 131.945 266.587 130.031H262.444V128.787H268.241C268.227 132.082 266.054 134.44 262.349 135.541L261.761 134.324ZM263.647 139.971V136.074H265.179V138.74H272.124V139.971H263.647ZM288.048 129.184V130.414H277.958V129.184H282.264V127.83H283.768V129.184H288.048ZM277.397 137.086V135.842H288.69V137.086H283.768V140.23H282.264V137.086H277.397ZM278.833 133.066C278.833 131.713 280.405 130.975 283.016 130.975C285.628 130.975 287.2 131.713 287.2 133.066C287.2 134.413 285.628 135.158 283.016 135.158C280.405 135.158 278.833 134.413 278.833 133.066ZM280.419 133.066C280.412 133.702 281.307 134.03 283.016 134.023C284.718 134.03 285.621 133.702 285.628 133.066C285.621 132.438 284.718 132.109 283.016 132.109C281.307 132.109 280.412 132.438 280.419 133.066Z" fill="#FED363"/>
</g>
</g>
<defs>
<filter id="filter0_b_948_11991" x="-8" y="-8" width="376" height="304" filterUnits="userSpaceOnUse" color-interpolation-filters="sRGB">
<feFlood flood-opacity="0" result="BackgroundImageFix"/>
<feGaussianBlur in="BackgroundImageFix" stdDeviation="4"/>
<feComposite in2="SourceAlpha" operator="in" result="effect1_backgroundBlur_948_11991"/>
<feBlend mode="normal" in="SourceGraphic" in2="effect1_backgroundBlur_948_11991" result="shape"/>
</filter>
<filter id="filter1_d_948_11991" x="63.3779" y="119.83" width="233.312" height="48.3047" filterUnits="userSpaceOnUse" color-interpolation-filters="sRGB">
<feFlood flood-opacity="0" result="BackgroundImageFix"/>
<feColorMatrix in="SourceAlpha" type="matrix" values="0 0 0 0 0 0 0 0 0 0 0 0 0 0 0 0 0 0 127 0" result="hardAlpha"/>
<feOffset/>
<feGaussianBlur stdDeviation="4"/>
<feComposite in2="hardAlpha" operator="out"/>
<feColorMatrix type="matrix" values="0 0 0 0 0 0 0 0 0 0 0 0 0 0 0 0 0 0 0.25 0"/>
<feBlend mode="normal" in2="BackgroundImageFix" result="effect1_dropShadow_948_11991"/>
<feBlend mode="normal" in="SourceGraphic" in2="effect1_dropShadow_948_11991" result="shape"/>
</filter>
</defs>
</svg>
