<svg width="20" height="20" viewBox="0 0 20 20" fill="none" xmlns="http://www.w3.org/2000/svg">
<g id="Icon">
<path fill-rule="evenodd" clip-rule="evenodd" d="M11.6763 2.31618C11.2488 0.561152 8.75121 0.561152 8.3237 2.31618C8.25987 2.5799 8.13468 2.82483 7.95831 3.03103C7.78194 3.23723 7.55938 3.39887 7.30874 3.50281C7.0581 3.60675 6.78646 3.65005 6.51592 3.62918C6.24538 3.6083 5.9836 3.52385 5.75187 3.3827C4.20832 2.44218 2.44201 4.20846 3.38254 5.75198C3.99006 6.74875 3.45117 8.04927 2.31713 8.3249C0.560955 8.75128 0.560955 11.2499 2.31713 11.6752C2.58093 11.7391 2.8259 11.8644 3.03211 12.0409C3.23831 12.2174 3.39991 12.4401 3.50375 12.6909C3.6076 12.9417 3.65074 13.2134 3.62968 13.484C3.60862 13.7546 3.52394 14.0164 3.38254 14.2481C2.44201 15.7916 4.20832 17.5579 5.75187 16.6174C5.98356 16.476 6.24536 16.3913 6.51597 16.3703C6.78658 16.3492 7.05834 16.3924 7.30912 16.4962C7.5599 16.6 7.7826 16.7616 7.95911 16.9678C8.13561 17.174 8.26091 17.419 8.32482 17.6828C8.75121 19.4389 11.2499 19.4389 11.6752 17.6828C11.7393 17.4191 11.8647 17.1743 12.0413 16.9683C12.2178 16.7622 12.4405 16.6007 12.6912 16.4969C12.9419 16.3931 13.2135 16.3499 13.4841 16.3709C13.7546 16.3918 14.0164 16.4763 14.2481 16.6174C15.7917 17.5579 17.558 15.7916 16.6175 14.2481C16.4763 14.0164 16.3918 13.7546 16.3709 13.4841C16.35 13.2135 16.3932 12.9419 16.497 12.6912C16.6008 12.4405 16.7623 12.2178 16.9683 12.0413C17.1744 11.8647 17.4192 11.7393 17.6829 11.6752C19.439 11.2488 19.439 8.75015 17.6829 8.3249C17.4191 8.26099 17.1741 8.13569 16.9679 7.95919C16.7617 7.78269 16.6001 7.55998 16.4962 7.30921C16.3924 7.05843 16.3493 6.78668 16.3703 6.51608C16.3914 6.24547 16.4761 5.98367 16.6175 5.75198C17.558 4.20846 15.7917 2.44218 14.2481 3.3827C14.0164 3.52409 13.7546 3.60876 13.484 3.62983C13.2134 3.65089 12.9417 3.60774 12.6909 3.5039C12.4401 3.40006 12.2174 3.23846 12.0409 3.03226C11.8644 2.82607 11.7391 2.5811 11.6752 2.3173L11.6763 2.31618Z" stroke="#212121" stroke-width="1.4"/>
<path d="M12 9.99991C12 11.1045 11.1046 11.9999 10 11.9999C8.89543 11.9999 8 11.1045 8 9.99991C8 8.89534 8.89543 7.99991 10 7.99991C11.1046 7.99991 12 8.89534 12 9.99991Z" stroke="#212121" stroke-width="1.4"/>
</g>
</svg>
