<svg width="40" height="40" viewBox="0 0 40 40" fill="none" xmlns="http://www.w3.org/2000/svg">
<g filter="url(#filter0_bi_1680_4524)">
<path d="M9.56505 15.6519H4.34766V38.2605H9.56505V15.6519Z" fill="#7E37F9"/>
</g>
<g filter="url(#filter1_bi_1680_4524)">
<path d="M18.2623 10.0891H13.0449V38.2601H18.2623V10.0891Z" fill="#7E37F9"/>
</g>
<g filter="url(#filter2_bi_1680_4524)">
<path d="M26.9576 10.0895H21.7402V38.2604H26.9576V10.0895Z" fill="#7E37F9"/>
</g>
<g filter="url(#filter3_bi_1680_4524)">
<path d="M35.651 15.6519H30.4336V38.2605H35.651V15.6519Z" fill="#7E37F9"/>
</g>
<g filter="url(#filter4_bi_1680_4524)">
<path d="M39.547 11.4102L20.4165 0.975388C20.2888 0.905673 20.1455 0.869141 20 0.869141C19.8545 0.869141 19.7112 0.905673 19.5835 0.975388L0.453043 11.4102C0.315911 11.485 0.20147 11.5954 0.121749 11.7297C0.0420276 11.8641 -2.88999e-05 12.0174 1.48996e-08 12.1736V17.391C1.48996e-08 17.6217 0.0916146 17.8428 0.25469 18.0059C0.417765 18.169 0.638942 18.2606 0.869565 18.2606H39.1304C39.3611 18.2606 39.5822 18.169 39.7453 18.0059C39.9084 17.8428 40 17.6217 40 17.391V12.1736C40 12.0174 39.958 11.8641 39.8783 11.7297C39.7985 11.5954 39.6841 11.485 39.547 11.4102Z" fill="url(#paint0_linear_1680_4524)" fill-opacity="0.2"/>
<path d="M20.2514 1.27808L20.2514 1.27811L39.3818 11.7129C39.3818 11.7129 39.3818 11.7129 39.3818 11.7129C39.4646 11.7581 39.5336 11.8247 39.5817 11.9057C39.6298 11.9868 39.6552 12.0793 39.6552 12.1736V17.391C39.6552 17.5302 39.5999 17.6637 39.5015 17.7621C39.4031 17.8605 39.2696 17.9158 39.1304 17.9158H0.869565C0.730395 17.9158 0.596927 17.8605 0.498521 17.7621C0.400113 17.6637 0.344828 17.5302 0.344828 17.391L0.344828 12.1736L0.344828 12.1736C0.34481 12.0793 0.370189 11.9868 0.418297 11.9057C0.466395 11.8247 0.535436 11.758 0.618165 11.7129C0.618182 11.7129 0.618198 11.7129 0.618215 11.7129L19.7486 1.27811L19.7486 1.27808C19.8257 1.23601 19.9122 1.21397 20 1.21397C20.0878 1.21397 20.1742 1.23601 20.2514 1.27808Z" stroke="url(#paint1_linear_1680_4524)" stroke-opacity="0.1" stroke-width="0.689655"/>
</g>
<g filter="url(#filter5_bi_1680_4524)">
<path d="M39.1304 35.6518H0.869565C0.638942 35.6518 0.417765 35.7434 0.25469 35.9065C0.0916146 36.0696 0 36.2907 0 36.5214V38.2605C0 38.4911 0.0916146 38.7123 0.25469 38.8754C0.417765 39.0384 0.638942 39.1301 0.869565 39.1301H39.1304C39.3611 39.1301 39.5822 39.0384 39.7453 38.8754C39.9084 38.7123 40 38.4911 40 38.2605V36.5214C40 36.2907 39.9084 36.0696 39.7453 35.9065C39.5822 35.7434 39.3611 35.6518 39.1304 35.6518Z" fill="url(#paint2_linear_1680_4524)" fill-opacity="0.2"/>
<path d="M39.1304 35.9966H0.869565C0.730395 35.9966 0.596927 36.0519 0.49852 36.1503C0.400112 36.2487 0.344828 36.3822 0.344828 36.5214V38.2605C0.344828 38.3997 0.400112 38.5331 0.49852 38.6315M39.1304 35.9966L0.49852 38.6315M39.1304 35.9966C39.2696 35.9966 39.4031 36.0519 39.5015 36.1503L39.7453 35.9065M39.1304 35.9966L39.7453 35.9065M0.49852 38.6315C0.596926 38.7299 0.730395 38.7852 0.869565 38.7852H39.1304C39.2696 38.7852 39.4031 38.7299 39.5015 38.6315L39.7453 38.8754L39.5015 38.6315C39.5999 38.5331 39.6552 38.3997 39.6552 38.2605V36.5214C39.6552 36.3822 39.5999 36.2487 39.5015 36.1503L39.7453 35.9065M0.49852 38.6315L39.7453 35.9065" stroke="url(#paint3_linear_1680_4524)" stroke-opacity="0.1" stroke-width="0.689655"/>
</g>
<g filter="url(#filter6_i_1680_4524)">
<path d="M19.9997 13.9125C21.9207 13.9125 23.478 12.3552 23.478 10.4342C23.478 8.5132 21.9207 6.95593 19.9997 6.95593C18.0788 6.95593 16.5215 8.5132 16.5215 10.4342C16.5215 12.3552 18.0788 13.9125 19.9997 13.9125Z" fill="#7E37F9"/>
</g>
<defs>
<filter id="filter0_bi_1680_4524" x="-9.44544" y="1.85876" width="32.8035" height="50.1949" filterUnits="userSpaceOnUse" color-interpolation-filters="sRGB">
<feFlood flood-opacity="0" result="BackgroundImageFix"/>
<feGaussianBlur in="BackgroundImageFix" stdDeviation="6.89655"/>
<feComposite in2="SourceAlpha" operator="in" result="effect1_backgroundBlur_1680_4524"/>
<feBlend mode="normal" in="SourceGraphic" in2="effect1_backgroundBlur_1680_4524" result="shape"/>
<feColorMatrix in="SourceAlpha" type="matrix" values="0 0 0 0 0 0 0 0 0 0 0 0 0 0 0 0 0 0 127 0" result="hardAlpha"/>
<feOffset dy="4.5977"/>
<feGaussianBlur stdDeviation="3.44828"/>
<feComposite in2="hardAlpha" operator="arithmetic" k2="-1" k3="1"/>
<feColorMatrix type="matrix" values="0 0 0 0 1 0 0 0 0 1 0 0 0 0 1 0 0 0 0.4 0"/>
<feBlend mode="normal" in2="shape" result="effect2_innerShadow_1680_4524"/>
</filter>
<filter id="filter1_bi_1680_4524" x="-0.748178" y="-3.70399" width="32.8035" height="55.7572" filterUnits="userSpaceOnUse" color-interpolation-filters="sRGB">
<feFlood flood-opacity="0" result="BackgroundImageFix"/>
<feGaussianBlur in="BackgroundImageFix" stdDeviation="6.89655"/>
<feComposite in2="SourceAlpha" operator="in" result="effect1_backgroundBlur_1680_4524"/>
<feBlend mode="normal" in="SourceGraphic" in2="effect1_backgroundBlur_1680_4524" result="shape"/>
<feColorMatrix in="SourceAlpha" type="matrix" values="0 0 0 0 0 0 0 0 0 0 0 0 0 0 0 0 0 0 127 0" result="hardAlpha"/>
<feOffset dy="4.5977"/>
<feGaussianBlur stdDeviation="3.44828"/>
<feComposite in2="hardAlpha" operator="arithmetic" k2="-1" k3="1"/>
<feColorMatrix type="matrix" values="0 0 0 0 1 0 0 0 0 1 0 0 0 0 1 0 0 0 0.4 0"/>
<feBlend mode="normal" in2="shape" result="effect2_innerShadow_1680_4524"/>
</filter>
<filter id="filter2_bi_1680_4524" x="7.94713" y="-3.70362" width="32.8035" height="55.7572" filterUnits="userSpaceOnUse" color-interpolation-filters="sRGB">
<feFlood flood-opacity="0" result="BackgroundImageFix"/>
<feGaussianBlur in="BackgroundImageFix" stdDeviation="6.89655"/>
<feComposite in2="SourceAlpha" operator="in" result="effect1_backgroundBlur_1680_4524"/>
<feBlend mode="normal" in="SourceGraphic" in2="effect1_backgroundBlur_1680_4524" result="shape"/>
<feColorMatrix in="SourceAlpha" type="matrix" values="0 0 0 0 0 0 0 0 0 0 0 0 0 0 0 0 0 0 127 0" result="hardAlpha"/>
<feOffset dy="4.5977"/>
<feGaussianBlur stdDeviation="3.44828"/>
<feComposite in2="hardAlpha" operator="arithmetic" k2="-1" k3="1"/>
<feColorMatrix type="matrix" values="0 0 0 0 1 0 0 0 0 1 0 0 0 0 1 0 0 0 0.4 0"/>
<feBlend mode="normal" in2="shape" result="effect2_innerShadow_1680_4524"/>
</filter>
<filter id="filter3_bi_1680_4524" x="16.6405" y="1.85876" width="32.8035" height="50.1949" filterUnits="userSpaceOnUse" color-interpolation-filters="sRGB">
<feFlood flood-opacity="0" result="BackgroundImageFix"/>
<feGaussianBlur in="BackgroundImageFix" stdDeviation="6.89655"/>
<feComposite in2="SourceAlpha" operator="in" result="effect1_backgroundBlur_1680_4524"/>
<feBlend mode="normal" in="SourceGraphic" in2="effect1_backgroundBlur_1680_4524" result="shape"/>
<feColorMatrix in="SourceAlpha" type="matrix" values="0 0 0 0 0 0 0 0 0 0 0 0 0 0 0 0 0 0 127 0" result="hardAlpha"/>
<feOffset dy="4.5977"/>
<feGaussianBlur stdDeviation="3.44828"/>
<feComposite in2="hardAlpha" operator="arithmetic" k2="-1" k3="1"/>
<feColorMatrix type="matrix" values="0 0 0 0 1 0 0 0 0 1 0 0 0 0 1 0 0 0 0.4 0"/>
<feBlend mode="normal" in2="shape" result="effect2_innerShadow_1680_4524"/>
</filter>
<filter id="filter4_bi_1680_4524" x="-13.7931" y="-12.924" width="67.5862" height="44.9777" filterUnits="userSpaceOnUse" color-interpolation-filters="sRGB">
<feFlood flood-opacity="0" result="BackgroundImageFix"/>
<feGaussianBlur in="BackgroundImageFix" stdDeviation="6.89655"/>
<feComposite in2="SourceAlpha" operator="in" result="effect1_backgroundBlur_1680_4524"/>
<feBlend mode="normal" in="SourceGraphic" in2="effect1_backgroundBlur_1680_4524" result="shape"/>
<feColorMatrix in="SourceAlpha" type="matrix" values="0 0 0 0 0 0 0 0 0 0 0 0 0 0 0 0 0 0 127 0" result="hardAlpha"/>
<feOffset dy="4.5977"/>
<feGaussianBlur stdDeviation="3.44828"/>
<feComposite in2="hardAlpha" operator="arithmetic" k2="-1" k3="1"/>
<feColorMatrix type="matrix" values="0 0 0 0 1 0 0 0 0 1 0 0 0 0 1 0 0 0 0.4 0"/>
<feBlend mode="normal" in2="shape" result="effect2_innerShadow_1680_4524"/>
</filter>
<filter id="filter5_bi_1680_4524" x="-13.7931" y="21.8587" width="67.5862" height="31.0645" filterUnits="userSpaceOnUse" color-interpolation-filters="sRGB">
<feFlood flood-opacity="0" result="BackgroundImageFix"/>
<feGaussianBlur in="BackgroundImageFix" stdDeviation="6.89655"/>
<feComposite in2="SourceAlpha" operator="in" result="effect1_backgroundBlur_1680_4524"/>
<feBlend mode="normal" in="SourceGraphic" in2="effect1_backgroundBlur_1680_4524" result="shape"/>
<feColorMatrix in="SourceAlpha" type="matrix" values="0 0 0 0 0 0 0 0 0 0 0 0 0 0 0 0 0 0 127 0" result="hardAlpha"/>
<feOffset dy="4.5977"/>
<feGaussianBlur stdDeviation="3.44828"/>
<feComposite in2="hardAlpha" operator="arithmetic" k2="-1" k3="1"/>
<feColorMatrix type="matrix" values="0 0 0 0 1 0 0 0 0 1 0 0 0 0 1 0 0 0 0.4 0"/>
<feBlend mode="normal" in2="shape" result="effect2_innerShadow_1680_4524"/>
</filter>
<filter id="filter6_i_1680_4524" x="16.5215" y="6.95593" width="6.95654" height="11.5542" filterUnits="userSpaceOnUse" color-interpolation-filters="sRGB">
<feFlood flood-opacity="0" result="BackgroundImageFix"/>
<feBlend mode="normal" in="SourceGraphic" in2="BackgroundImageFix" result="shape"/>
<feColorMatrix in="SourceAlpha" type="matrix" values="0 0 0 0 0 0 0 0 0 0 0 0 0 0 0 0 0 0 127 0" result="hardAlpha"/>
<feOffset dy="4.5977"/>
<feGaussianBlur stdDeviation="2.29885"/>
<feComposite in2="hardAlpha" operator="arithmetic" k2="-1" k3="1"/>
<feColorMatrix type="matrix" values="0 0 0 0 1 0 0 0 0 1 0 0 0 0 1 0 0 0 0.4 0"/>
<feBlend mode="normal" in2="shape" result="effect1_innerShadow_1680_4524"/>
</filter>
<linearGradient id="paint0_linear_1680_4524" x1="0" y1="0.869141" x2="37.4007" y2="22.7114" gradientUnits="userSpaceOnUse">
<stop stop-color="#D4BCFD"/>
<stop offset="1" stop-color="#9B63FA"/>
</linearGradient>
<linearGradient id="paint1_linear_1680_4524" x1="1.25" y1="1.65966" x2="40" y2="1.65966" gradientUnits="userSpaceOnUse">
<stop stop-color="#CCCCCC"/>
<stop offset="1" stop-color="#808080"/>
</linearGradient>
<linearGradient id="paint2_linear_1680_4524" x1="0" y1="35.6518" x2="5.26482" y2="51.0254" gradientUnits="userSpaceOnUse">
<stop stop-color="#D4BCFD"/>
<stop offset="1" stop-color="#9B63FA"/>
</linearGradient>
<linearGradient id="paint3_linear_1680_4524" x1="1.25" y1="35.8099" x2="40" y2="35.8099" gradientUnits="userSpaceOnUse">
<stop stop-color="#CCCCCC"/>
<stop offset="1" stop-color="#808080"/>
</linearGradient>
</defs>
</svg>
