<svg width="40" height="40" viewBox="0 0 40 40" fill="none" xmlns="http://www.w3.org/2000/svg">
<g clip-path="url(#clip0_1680_4532)">
<path d="M20.9522 26.666H5.7141C5.18815 26.666 4.76172 27.0924 4.76172 27.6184V30.4755C4.76172 32.9765 9.07347 34.2851 13.3331 34.2851C17.5928 34.2851 21.9046 32.9765 21.9046 30.4755V27.6184C21.9046 27.0924 21.4781 26.666 20.9522 26.666Z" fill="#7E37F9"/>
<g filter="url(#filter0_bi_1680_4532)">
<path d="M13.3331 23.8093C9.07347 23.8093 4.76172 25.1179 4.76172 27.6188C4.76172 30.1198 9.07347 31.4284 13.3331 31.4284C17.5928 31.4284 21.9046 30.1198 21.9046 27.6188C21.9046 25.1179 17.5928 23.8093 13.3331 23.8093Z" fill="url(#paint0_linear_1680_4532)" fill-opacity="0.2"/>
<path d="M5.10655 27.6188C5.10655 26.598 5.99013 25.7273 7.57737 25.0967C9.13551 24.4777 11.2322 24.1542 13.3331 24.1542C15.4341 24.1542 17.5308 24.4777 19.0889 25.0967C20.6762 25.7273 21.5597 26.598 21.5597 27.6188C21.5597 28.6397 20.6762 29.5104 19.0889 30.141C17.5308 30.76 15.4341 31.0835 13.3331 31.0835C11.2322 31.0835 9.13551 30.76 7.57737 30.141C5.99013 29.5104 5.10655 28.6397 5.10655 27.6188Z" stroke="url(#paint1_linear_1680_4532)" stroke-opacity="0.1" stroke-width="0.689655"/>
</g>
<path d="M20.9522 21.9046H5.7141C5.18815 21.9046 4.76172 22.331 4.76172 22.857V25.7141C4.76172 28.2151 9.07347 29.5236 13.3331 29.5236C17.5928 29.5236 21.9046 28.2151 21.9046 25.7141V22.857C21.9046 22.331 21.4781 21.9046 20.9522 21.9046Z" fill="#7E37F9"/>
<g filter="url(#filter1_bi_1680_4532)">
<path d="M13.3331 19.0474C9.07347 19.0474 4.76172 20.356 4.76172 22.8569C4.76172 25.3579 9.07347 26.6665 13.3331 26.6665C17.5928 26.6665 21.9046 25.3579 21.9046 22.8569C21.9046 20.356 17.5928 19.0474 13.3331 19.0474Z" fill="url(#paint2_linear_1680_4532)" fill-opacity="0.2"/>
<path d="M5.10655 22.8569C5.10655 21.8361 5.99013 20.9654 7.57737 20.3348C9.13551 19.7158 11.2322 19.3923 13.3331 19.3923C15.4341 19.3923 17.5308 19.7158 19.0889 20.3348C20.6762 20.9654 21.5597 21.8361 21.5597 22.8569C21.5597 23.8778 20.6762 24.7485 19.0889 25.3791C17.5308 25.9981 15.4341 26.3216 13.3331 26.3216C11.2322 26.3216 9.13551 25.9981 7.57737 25.3791C5.99013 24.7485 5.10655 23.8778 5.10655 22.8569Z" stroke="url(#paint3_linear_1680_4532)" stroke-opacity="0.1" stroke-width="0.689655"/>
</g>
<path d="M20.9522 17.1427H5.7141C5.18815 17.1427 4.76172 17.5691 4.76172 18.0951V20.9522C4.76172 23.4532 9.07347 24.7617 13.3331 24.7617C17.5928 24.7617 21.9046 23.4532 21.9046 20.9522V18.0951C21.9046 17.5691 21.4781 17.1427 20.9522 17.1427Z" fill="#7E37F9"/>
<g filter="url(#filter2_bi_1680_4532)">
<path d="M13.3331 14.2856C9.07347 14.2856 4.76172 15.5942 4.76172 18.0951C4.76172 20.596 9.07347 21.9046 13.3331 21.9046C17.5928 21.9046 21.9046 20.596 21.9046 18.0951C21.9046 15.5942 17.5928 14.2856 13.3331 14.2856Z" fill="url(#paint4_linear_1680_4532)" fill-opacity="0.2"/>
<path d="M5.10655 18.0951C5.10655 17.0743 5.99013 16.2035 7.57737 15.573C9.13551 14.954 11.2322 14.6304 13.3331 14.6304C15.4341 14.6304 17.5308 14.954 19.0889 15.573C20.6762 16.2035 21.5597 17.0743 21.5597 18.0951C21.5597 19.1159 20.6762 19.9867 19.0889 20.6173C17.5308 21.2363 15.4341 21.5598 13.3331 21.5598C11.2322 21.5598 9.13551 21.2363 7.57737 20.6173C5.99013 19.9867 5.10655 19.1159 5.10655 18.0951Z" stroke="url(#paint5_linear_1680_4532)" stroke-opacity="0.1" stroke-width="0.689655"/>
</g>
<path d="M20.9522 12.3807H5.7141C5.18815 12.3807 4.76172 12.8071 4.76172 13.3331V16.1902C4.76172 18.6911 9.07347 19.9997 13.3331 19.9997C17.5928 19.9997 21.9046 18.6911 21.9046 16.1902V13.3331C21.9046 12.8071 21.4781 12.3807 20.9522 12.3807Z" fill="#7E37F9"/>
<g filter="url(#filter3_bi_1680_4532)">
<path d="M13.3331 9.52368C9.07347 9.52368 4.76172 10.8323 4.76172 13.3332C4.76172 15.8341 9.07347 17.1427 13.3331 17.1427C17.5928 17.1427 21.9046 15.8341 21.9046 13.3332C21.9046 10.8323 17.5928 9.52368 13.3331 9.52368Z" fill="url(#paint6_linear_1680_4532)" fill-opacity="0.2"/>
<path d="M5.10655 13.3332C5.10655 12.3124 5.99013 11.4416 7.57737 10.8111C9.13551 10.1921 11.2322 9.86851 13.3331 9.86851C15.4341 9.86851 17.5308 10.1921 19.0889 10.8111C20.6762 11.4416 21.5597 12.3124 21.5597 13.3332C21.5597 14.354 20.6762 15.2248 19.0889 15.8554C17.5308 16.4744 15.4341 16.7979 13.3331 16.7979C11.2322 16.7979 9.13551 16.4744 7.57737 15.8554C5.99013 15.2248 5.10655 14.354 5.10655 13.3332Z" stroke="url(#paint7_linear_1680_4532)" stroke-opacity="0.1" stroke-width="0.689655"/>
</g>
<path d="M20.9522 7.61896H5.7141C5.18815 7.61896 4.76172 8.04539 4.76172 8.57134V11.4285C4.76172 13.9294 9.07347 15.238 13.3331 15.238C17.5928 15.238 21.9046 13.9294 21.9046 11.4285V8.57134C21.9046 8.04539 21.4781 7.61896 20.9522 7.61896Z" fill="#7E37F9"/>
<g filter="url(#filter4_bi_1680_4532)">
<path d="M13.3331 4.76166C9.07347 4.76166 4.76172 6.07025 4.76172 8.57118C4.76172 11.0721 9.07347 12.3807 13.3331 12.3807C17.5928 12.3807 21.9046 11.0721 21.9046 8.57118C21.9046 6.07025 17.5928 4.76166 13.3331 4.76166Z" fill="url(#paint8_linear_1680_4532)" fill-opacity="0.2"/>
<path d="M5.10655 8.57118C5.10655 7.55037 5.99013 6.6796 7.57737 6.04903C9.13551 5.43003 11.2322 5.10649 13.3331 5.10649C15.4341 5.10649 17.5308 5.43003 19.0889 6.04903C20.6762 6.6796 21.5597 7.55037 21.5597 8.57118C21.5597 9.592 20.6762 10.4628 19.0889 11.0933C17.5308 11.7123 15.4341 12.0359 13.3331 12.0359C11.2322 12.0359 9.13551 11.7123 7.57737 11.0933C5.99013 10.4628 5.10655 9.592 5.10655 8.57118Z" stroke="url(#paint9_linear_1680_4532)" stroke-opacity="0.1" stroke-width="0.689655"/>
</g>
<path d="M20.9522 2.85693H5.7141C5.18815 2.85693 4.76172 3.28336 4.76172 3.80931V6.66646C4.76172 9.16739 9.07347 10.476 13.3331 10.476C17.5928 10.476 21.9046 9.16739 21.9046 6.66646V3.80931C21.9046 3.28336 21.4781 2.85693 20.9522 2.85693Z" fill="#7E37F9"/>
<g filter="url(#filter5_bi_1680_4532)">
<path d="M13.3331 -0.000244141C9.07347 -0.000244141 4.76172 1.30835 4.76172 3.80928C4.76172 6.31021 9.07347 7.6188 13.3331 7.6188C17.5928 7.6188 21.9046 6.31021 21.9046 3.80928C21.9046 1.30835 17.5928 -0.000244141 13.3331 -0.000244141Z" fill="url(#paint10_linear_1680_4532)" fill-opacity="0.2"/>
<path d="M5.10655 3.80928C5.10655 2.78847 5.99013 1.9177 7.57737 1.28713C9.13551 0.668128 11.2322 0.344583 13.3331 0.344583C15.4341 0.344583 17.5308 0.668128 19.0889 1.28713C20.6762 1.9177 21.5597 2.78847 21.5597 3.80928C21.5597 4.83009 20.6762 5.70086 19.0889 6.33143C17.5308 6.95043 15.4341 7.27398 13.3331 7.27398C11.2322 7.27398 9.13551 6.95043 7.57737 6.33143C5.99013 5.70086 5.10655 4.83009 5.10655 3.80928Z" stroke="url(#paint11_linear_1680_4532)" stroke-opacity="0.1" stroke-width="0.689655"/>
</g>
<path d="M34.2862 32.3807H19.0481C18.5221 32.3807 18.0957 32.8072 18.0957 33.3331V36.1903C18.0957 38.6912 22.4075 39.9998 26.6671 39.9998C30.9268 39.9998 35.2386 38.6912 35.2386 36.1903V33.3331C35.2386 32.8072 34.8121 32.3807 34.2862 32.3807Z" fill="#7E37F9"/>
<g filter="url(#filter6_bi_1680_4532)">
<path d="M26.6671 29.5232C22.4075 29.5232 18.0957 30.8318 18.0957 33.3327C18.0957 35.8337 22.4075 37.1422 26.6671 37.1422C30.9268 37.1422 35.2386 35.8337 35.2386 33.3327C35.2386 30.8318 30.9268 29.5232 26.6671 29.5232Z" fill="url(#paint12_linear_1680_4532)" fill-opacity="0.2"/>
<path d="M18.4405 33.3327C18.4405 32.3119 19.3241 31.4411 20.9114 30.8106C22.4695 30.1916 24.5662 29.868 26.6671 29.868C28.7681 29.868 30.8648 30.1916 32.4229 30.8106C34.0102 31.4411 34.8937 32.3119 34.8937 33.3327C34.8937 34.3535 34.0102 35.2243 32.4229 35.8549C30.8648 36.4739 28.7681 36.7974 26.6671 36.7974C24.5662 36.7974 22.4695 36.4739 20.9114 35.8549C19.3241 35.2243 18.4405 34.3535 18.4405 33.3327Z" stroke="url(#paint13_linear_1680_4532)" stroke-opacity="0.1" stroke-width="0.689655"/>
</g>
<path d="M34.2862 27.619H19.0481C18.5221 27.619 18.0957 28.0454 18.0957 28.5714V31.4285C18.0957 33.9295 22.4075 35.2381 26.6671 35.2381C30.9268 35.2381 35.2386 33.9295 35.2386 31.4285V28.5714C35.2386 28.0454 34.8121 27.619 34.2862 27.619Z" fill="#7E37F9"/>
<g filter="url(#filter7_bi_1680_4532)">
<path d="M26.6671 24.7617C22.4075 24.7617 18.0957 26.0703 18.0957 28.5712C18.0957 31.0722 22.4075 32.3808 26.6671 32.3808C30.9268 32.3808 35.2386 31.0722 35.2386 28.5712C35.2386 26.0703 30.9268 24.7617 26.6671 24.7617Z" fill="url(#paint14_linear_1680_4532)" fill-opacity="0.2"/>
<path d="M18.4405 28.5712C18.4405 27.5504 19.3241 26.6797 20.9114 26.0491C22.4695 25.4301 24.5662 25.1065 26.6671 25.1065C28.7681 25.1065 30.8648 25.4301 32.4229 26.0491C34.0102 26.6797 34.8937 27.5504 34.8937 28.5712C34.8937 29.5921 34.0102 30.4628 32.4229 31.0934C30.8648 31.7124 28.7681 32.0359 26.6671 32.0359C24.5662 32.0359 22.4695 31.7124 20.9114 31.0934C19.3241 30.4628 18.4405 29.5921 18.4405 28.5712Z" stroke="url(#paint15_linear_1680_4532)" stroke-opacity="0.1" stroke-width="0.689655"/>
</g>
<path d="M34.2862 22.8571H19.0481C18.5221 22.8571 18.0957 23.2835 18.0957 23.8094V26.6666C18.0957 29.1675 22.4075 30.4761 26.6671 30.4761C30.9268 30.4761 35.2386 29.1675 35.2386 26.6666V23.8094C35.2386 23.2835 34.8121 22.8571 34.2862 22.8571Z" fill="#7E37F9"/>
<g filter="url(#filter8_bi_1680_4532)">
<path d="M26.6671 19.9998C22.4075 19.9998 18.0957 21.3083 18.0957 23.8093C18.0957 26.3102 22.4075 27.6188 26.6671 27.6188C30.9268 27.6188 35.2386 26.3102 35.2386 23.8093C35.2386 21.3083 30.9268 19.9998 26.6671 19.9998Z" fill="url(#paint16_linear_1680_4532)" fill-opacity="0.2"/>
<path d="M18.4405 23.8093C18.4405 22.7885 19.3241 21.9177 20.9114 21.2871C22.4695 20.6681 24.5662 20.3446 26.6671 20.3446C28.7681 20.3446 30.8648 20.6681 32.4229 21.2871C34.0102 21.9177 34.8937 22.7885 34.8937 23.8093C34.8937 24.8301 34.0102 25.7009 32.4229 26.3314C30.8648 26.9504 28.7681 27.274 26.6671 27.274C24.5662 27.274 22.4695 26.9504 20.9114 26.3314C19.3241 25.7009 18.4405 24.8301 18.4405 23.8093Z" stroke="url(#paint17_linear_1680_4532)" stroke-opacity="0.1" stroke-width="0.689655"/>
</g>
<path d="M34.2862 18.095H19.0481C18.5221 18.095 18.0957 18.5214 18.0957 19.0474V21.9045C18.0957 24.4054 22.4075 25.714 26.6671 25.714C30.9268 25.714 35.2386 24.4054 35.2386 21.9045V19.0474C35.2386 18.5214 34.8121 18.095 34.2862 18.095Z" fill="#7E37F9"/>
<g filter="url(#filter9_bi_1680_4532)">
<path d="M26.6671 15.2374C22.4075 15.2374 18.0957 16.546 18.0957 19.047C18.0957 21.5479 22.4075 22.8565 26.6671 22.8565C30.9268 22.8565 35.2386 21.5479 35.2386 19.047C35.2386 16.546 30.9268 15.2374 26.6671 15.2374Z" fill="url(#paint18_linear_1680_4532)" fill-opacity="0.2"/>
<path d="M18.4405 19.047C18.4405 18.0261 19.3241 17.1554 20.9114 16.5248C22.4695 15.9058 24.5662 15.5823 26.6671 15.5823C28.7681 15.5823 30.8648 15.9058 32.4229 16.5248C34.0102 17.1554 34.8937 18.0261 34.8937 19.047C34.8937 20.0678 34.0102 20.9385 32.4229 21.5691C30.8648 22.1881 28.7681 22.5116 26.6671 22.5116C24.5662 22.5116 22.4695 22.1881 20.9114 21.5691C19.3241 20.9385 18.4405 20.0678 18.4405 19.047Z" stroke="url(#paint19_linear_1680_4532)" stroke-opacity="0.1" stroke-width="0.689655"/>
</g>
<path d="M34.2862 13.3331H19.0481C18.5221 13.3331 18.0957 13.7596 18.0957 14.2855V17.1427C18.0957 19.6436 22.4075 20.9522 26.6671 20.9522C30.9268 20.9522 35.2386 19.6436 35.2386 17.1427V14.2855C35.2386 13.7596 34.8121 13.3331 34.2862 13.3331Z" fill="#7E37F9"/>
<g filter="url(#filter10_bi_1680_4532)">
<path d="M26.6671 10.476C22.4075 10.476 18.0957 11.7845 18.0957 14.2855C18.0957 16.7864 22.4075 18.095 26.6671 18.095C30.9268 18.095 35.2386 16.7864 35.2386 14.2855C35.2386 11.7845 30.9268 10.476 26.6671 10.476Z" fill="url(#paint20_linear_1680_4532)" fill-opacity="0.2"/>
<path d="M18.4405 14.2855C18.4405 13.2647 19.3241 12.3939 20.9114 11.7633C22.4695 11.1443 24.5662 10.8208 26.6671 10.8208C28.7681 10.8208 30.8648 11.1443 32.4229 11.7633C34.0102 12.3939 34.8937 13.2647 34.8937 14.2855C34.8937 15.3063 34.0102 16.1771 32.4229 16.8076C30.8648 17.4266 28.7681 17.7502 26.6671 17.7502C24.5662 17.7502 22.4695 17.4266 20.9114 16.8076C19.3241 16.1771 18.4405 15.3063 18.4405 14.2855Z" stroke="url(#paint21_linear_1680_4532)" stroke-opacity="0.1" stroke-width="0.689655"/>
</g>
<path d="M34.2862 8.57129H19.0481C18.5221 8.57129 18.0957 8.99772 18.0957 9.52367V12.3808C18.0957 14.8817 22.4075 16.1903 26.6671 16.1903C30.9268 16.1903 35.2386 14.8817 35.2386 12.3808V9.52367C35.2386 8.99772 34.8121 8.57129 34.2862 8.57129Z" fill="#7E37F9"/>
<g filter="url(#filter11_bi_1680_4532)">
<path d="M26.6671 5.71411C22.4075 5.71411 18.0957 7.0227 18.0957 9.52363C18.0957 12.0246 22.4075 13.3332 26.6671 13.3332C30.9268 13.3332 35.2386 12.0246 35.2386 9.52363C35.2386 7.0227 30.9268 5.71411 26.6671 5.71411Z" fill="url(#paint22_linear_1680_4532)" fill-opacity="0.2"/>
<path d="M18.4405 9.52363C18.4405 8.50282 19.3241 7.63205 20.9114 7.00149C22.4695 6.38248 24.5662 6.05894 26.6671 6.05894C28.7681 6.05894 30.8648 6.38248 32.4229 7.00149C34.0102 7.63205 34.8937 8.50282 34.8937 9.52363C34.8937 10.5444 34.0102 11.4152 32.4229 12.0458C30.8648 12.6648 28.7681 12.9883 26.6671 12.9883C24.5662 12.9883 22.4695 12.6648 20.9114 12.0458C19.3241 11.4152 18.4405 10.5444 18.4405 9.52363Z" stroke="url(#paint23_linear_1680_4532)" stroke-opacity="0.1" stroke-width="0.689655"/>
</g>
</g>
<defs>
<filter id="filter0_bi_1680_4532" x="-9.03138" y="10.0162" width="44.7293" height="35.2052" filterUnits="userSpaceOnUse" color-interpolation-filters="sRGB">
<feFlood flood-opacity="0" result="BackgroundImageFix"/>
<feGaussianBlur in="BackgroundImageFix" stdDeviation="6.89655"/>
<feComposite in2="SourceAlpha" operator="in" result="effect1_backgroundBlur_1680_4532"/>
<feBlend mode="normal" in="SourceGraphic" in2="effect1_backgroundBlur_1680_4532" result="shape"/>
<feColorMatrix in="SourceAlpha" type="matrix" values="0 0 0 0 0 0 0 0 0 0 0 0 0 0 0 0 0 0 127 0" result="hardAlpha"/>
<feOffset dy="4.5977"/>
<feGaussianBlur stdDeviation="3.44828"/>
<feComposite in2="hardAlpha" operator="arithmetic" k2="-1" k3="1"/>
<feColorMatrix type="matrix" values="0 0 0 0 1 0 0 0 0 1 0 0 0 0 1 0 0 0 0.4 0"/>
<feBlend mode="normal" in2="shape" result="effect2_innerShadow_1680_4532"/>
</filter>
<filter id="filter1_bi_1680_4532" x="-9.03138" y="5.25432" width="44.7293" height="35.2052" filterUnits="userSpaceOnUse" color-interpolation-filters="sRGB">
<feFlood flood-opacity="0" result="BackgroundImageFix"/>
<feGaussianBlur in="BackgroundImageFix" stdDeviation="6.89655"/>
<feComposite in2="SourceAlpha" operator="in" result="effect1_backgroundBlur_1680_4532"/>
<feBlend mode="normal" in="SourceGraphic" in2="effect1_backgroundBlur_1680_4532" result="shape"/>
<feColorMatrix in="SourceAlpha" type="matrix" values="0 0 0 0 0 0 0 0 0 0 0 0 0 0 0 0 0 0 127 0" result="hardAlpha"/>
<feOffset dy="4.5977"/>
<feGaussianBlur stdDeviation="3.44828"/>
<feComposite in2="hardAlpha" operator="arithmetic" k2="-1" k3="1"/>
<feColorMatrix type="matrix" values="0 0 0 0 1 0 0 0 0 1 0 0 0 0 1 0 0 0 0.4 0"/>
<feBlend mode="normal" in2="shape" result="effect2_innerShadow_1680_4532"/>
</filter>
<filter id="filter2_bi_1680_4532" x="-9.03138" y="0.492483" width="44.7293" height="35.2052" filterUnits="userSpaceOnUse" color-interpolation-filters="sRGB">
<feFlood flood-opacity="0" result="BackgroundImageFix"/>
<feGaussianBlur in="BackgroundImageFix" stdDeviation="6.89655"/>
<feComposite in2="SourceAlpha" operator="in" result="effect1_backgroundBlur_1680_4532"/>
<feBlend mode="normal" in="SourceGraphic" in2="effect1_backgroundBlur_1680_4532" result="shape"/>
<feColorMatrix in="SourceAlpha" type="matrix" values="0 0 0 0 0 0 0 0 0 0 0 0 0 0 0 0 0 0 127 0" result="hardAlpha"/>
<feOffset dy="4.5977"/>
<feGaussianBlur stdDeviation="3.44828"/>
<feComposite in2="hardAlpha" operator="arithmetic" k2="-1" k3="1"/>
<feColorMatrix type="matrix" values="0 0 0 0 1 0 0 0 0 1 0 0 0 0 1 0 0 0 0.4 0"/>
<feBlend mode="normal" in2="shape" result="effect2_innerShadow_1680_4532"/>
</filter>
<filter id="filter3_bi_1680_4532" x="-9.03138" y="-4.26942" width="44.7293" height="35.2052" filterUnits="userSpaceOnUse" color-interpolation-filters="sRGB">
<feFlood flood-opacity="0" result="BackgroundImageFix"/>
<feGaussianBlur in="BackgroundImageFix" stdDeviation="6.89655"/>
<feComposite in2="SourceAlpha" operator="in" result="effect1_backgroundBlur_1680_4532"/>
<feBlend mode="normal" in="SourceGraphic" in2="effect1_backgroundBlur_1680_4532" result="shape"/>
<feColorMatrix in="SourceAlpha" type="matrix" values="0 0 0 0 0 0 0 0 0 0 0 0 0 0 0 0 0 0 127 0" result="hardAlpha"/>
<feOffset dy="4.5977"/>
<feGaussianBlur stdDeviation="3.44828"/>
<feComposite in2="hardAlpha" operator="arithmetic" k2="-1" k3="1"/>
<feColorMatrix type="matrix" values="0 0 0 0 1 0 0 0 0 1 0 0 0 0 1 0 0 0 0.4 0"/>
<feBlend mode="normal" in2="shape" result="effect2_innerShadow_1680_4532"/>
</filter>
<filter id="filter4_bi_1680_4532" x="-9.03138" y="-9.03144" width="44.7293" height="35.2052" filterUnits="userSpaceOnUse" color-interpolation-filters="sRGB">
<feFlood flood-opacity="0" result="BackgroundImageFix"/>
<feGaussianBlur in="BackgroundImageFix" stdDeviation="6.89655"/>
<feComposite in2="SourceAlpha" operator="in" result="effect1_backgroundBlur_1680_4532"/>
<feBlend mode="normal" in="SourceGraphic" in2="effect1_backgroundBlur_1680_4532" result="shape"/>
<feColorMatrix in="SourceAlpha" type="matrix" values="0 0 0 0 0 0 0 0 0 0 0 0 0 0 0 0 0 0 127 0" result="hardAlpha"/>
<feOffset dy="4.5977"/>
<feGaussianBlur stdDeviation="3.44828"/>
<feComposite in2="hardAlpha" operator="arithmetic" k2="-1" k3="1"/>
<feColorMatrix type="matrix" values="0 0 0 0 1 0 0 0 0 1 0 0 0 0 1 0 0 0 0.4 0"/>
<feBlend mode="normal" in2="shape" result="effect2_innerShadow_1680_4532"/>
</filter>
<filter id="filter5_bi_1680_4532" x="-9.03138" y="-13.7933" width="44.7293" height="35.2052" filterUnits="userSpaceOnUse" color-interpolation-filters="sRGB">
<feFlood flood-opacity="0" result="BackgroundImageFix"/>
<feGaussianBlur in="BackgroundImageFix" stdDeviation="6.89655"/>
<feComposite in2="SourceAlpha" operator="in" result="effect1_backgroundBlur_1680_4532"/>
<feBlend mode="normal" in="SourceGraphic" in2="effect1_backgroundBlur_1680_4532" result="shape"/>
<feColorMatrix in="SourceAlpha" type="matrix" values="0 0 0 0 0 0 0 0 0 0 0 0 0 0 0 0 0 0 127 0" result="hardAlpha"/>
<feOffset dy="4.5977"/>
<feGaussianBlur stdDeviation="3.44828"/>
<feComposite in2="hardAlpha" operator="arithmetic" k2="-1" k3="1"/>
<feColorMatrix type="matrix" values="0 0 0 0 1 0 0 0 0 1 0 0 0 0 1 0 0 0 0.4 0"/>
<feBlend mode="normal" in2="shape" result="effect2_innerShadow_1680_4532"/>
</filter>
<filter id="filter6_bi_1680_4532" x="4.3026" y="15.7301" width="44.7293" height="35.2052" filterUnits="userSpaceOnUse" color-interpolation-filters="sRGB">
<feFlood flood-opacity="0" result="BackgroundImageFix"/>
<feGaussianBlur in="BackgroundImageFix" stdDeviation="6.89655"/>
<feComposite in2="SourceAlpha" operator="in" result="effect1_backgroundBlur_1680_4532"/>
<feBlend mode="normal" in="SourceGraphic" in2="effect1_backgroundBlur_1680_4532" result="shape"/>
<feColorMatrix in="SourceAlpha" type="matrix" values="0 0 0 0 0 0 0 0 0 0 0 0 0 0 0 0 0 0 127 0" result="hardAlpha"/>
<feOffset dy="4.5977"/>
<feGaussianBlur stdDeviation="3.44828"/>
<feComposite in2="hardAlpha" operator="arithmetic" k2="-1" k3="1"/>
<feColorMatrix type="matrix" values="0 0 0 0 1 0 0 0 0 1 0 0 0 0 1 0 0 0 0.4 0"/>
<feBlend mode="normal" in2="shape" result="effect2_innerShadow_1680_4532"/>
</filter>
<filter id="filter7_bi_1680_4532" x="4.3026" y="10.9686" width="44.7293" height="35.2052" filterUnits="userSpaceOnUse" color-interpolation-filters="sRGB">
<feFlood flood-opacity="0" result="BackgroundImageFix"/>
<feGaussianBlur in="BackgroundImageFix" stdDeviation="6.89655"/>
<feComposite in2="SourceAlpha" operator="in" result="effect1_backgroundBlur_1680_4532"/>
<feBlend mode="normal" in="SourceGraphic" in2="effect1_backgroundBlur_1680_4532" result="shape"/>
<feColorMatrix in="SourceAlpha" type="matrix" values="0 0 0 0 0 0 0 0 0 0 0 0 0 0 0 0 0 0 127 0" result="hardAlpha"/>
<feOffset dy="4.5977"/>
<feGaussianBlur stdDeviation="3.44828"/>
<feComposite in2="hardAlpha" operator="arithmetic" k2="-1" k3="1"/>
<feColorMatrix type="matrix" values="0 0 0 0 1 0 0 0 0 1 0 0 0 0 1 0 0 0 0.4 0"/>
<feBlend mode="normal" in2="shape" result="effect2_innerShadow_1680_4532"/>
</filter>
<filter id="filter8_bi_1680_4532" x="4.3026" y="6.20666" width="44.7293" height="35.2052" filterUnits="userSpaceOnUse" color-interpolation-filters="sRGB">
<feFlood flood-opacity="0" result="BackgroundImageFix"/>
<feGaussianBlur in="BackgroundImageFix" stdDeviation="6.89655"/>
<feComposite in2="SourceAlpha" operator="in" result="effect1_backgroundBlur_1680_4532"/>
<feBlend mode="normal" in="SourceGraphic" in2="effect1_backgroundBlur_1680_4532" result="shape"/>
<feColorMatrix in="SourceAlpha" type="matrix" values="0 0 0 0 0 0 0 0 0 0 0 0 0 0 0 0 0 0 127 0" result="hardAlpha"/>
<feOffset dy="4.5977"/>
<feGaussianBlur stdDeviation="3.44828"/>
<feComposite in2="hardAlpha" operator="arithmetic" k2="-1" k3="1"/>
<feColorMatrix type="matrix" values="0 0 0 0 1 0 0 0 0 1 0 0 0 0 1 0 0 0 0.4 0"/>
<feBlend mode="normal" in2="shape" result="effect2_innerShadow_1680_4532"/>
</filter>
<filter id="filter9_bi_1680_4532" x="4.3026" y="1.44433" width="44.7293" height="35.2052" filterUnits="userSpaceOnUse" color-interpolation-filters="sRGB">
<feFlood flood-opacity="0" result="BackgroundImageFix"/>
<feGaussianBlur in="BackgroundImageFix" stdDeviation="6.89655"/>
<feComposite in2="SourceAlpha" operator="in" result="effect1_backgroundBlur_1680_4532"/>
<feBlend mode="normal" in="SourceGraphic" in2="effect1_backgroundBlur_1680_4532" result="shape"/>
<feColorMatrix in="SourceAlpha" type="matrix" values="0 0 0 0 0 0 0 0 0 0 0 0 0 0 0 0 0 0 127 0" result="hardAlpha"/>
<feOffset dy="4.5977"/>
<feGaussianBlur stdDeviation="3.44828"/>
<feComposite in2="hardAlpha" operator="arithmetic" k2="-1" k3="1"/>
<feColorMatrix type="matrix" values="0 0 0 0 1 0 0 0 0 1 0 0 0 0 1 0 0 0 0.4 0"/>
<feBlend mode="normal" in2="shape" result="effect2_innerShadow_1680_4532"/>
</filter>
<filter id="filter10_bi_1680_4532" x="4.3026" y="-3.31715" width="44.7293" height="35.2052" filterUnits="userSpaceOnUse" color-interpolation-filters="sRGB">
<feFlood flood-opacity="0" result="BackgroundImageFix"/>
<feGaussianBlur in="BackgroundImageFix" stdDeviation="6.89655"/>
<feComposite in2="SourceAlpha" operator="in" result="effect1_backgroundBlur_1680_4532"/>
<feBlend mode="normal" in="SourceGraphic" in2="effect1_backgroundBlur_1680_4532" result="shape"/>
<feColorMatrix in="SourceAlpha" type="matrix" values="0 0 0 0 0 0 0 0 0 0 0 0 0 0 0 0 0 0 127 0" result="hardAlpha"/>
<feOffset dy="4.5977"/>
<feGaussianBlur stdDeviation="3.44828"/>
<feComposite in2="hardAlpha" operator="arithmetic" k2="-1" k3="1"/>
<feColorMatrix type="matrix" values="0 0 0 0 1 0 0 0 0 1 0 0 0 0 1 0 0 0 0.4 0"/>
<feBlend mode="normal" in2="shape" result="effect2_innerShadow_1680_4532"/>
</filter>
<filter id="filter11_bi_1680_4532" x="4.3026" y="-8.07899" width="44.7293" height="35.2052" filterUnits="userSpaceOnUse" color-interpolation-filters="sRGB">
<feFlood flood-opacity="0" result="BackgroundImageFix"/>
<feGaussianBlur in="BackgroundImageFix" stdDeviation="6.89655"/>
<feComposite in2="SourceAlpha" operator="in" result="effect1_backgroundBlur_1680_4532"/>
<feBlend mode="normal" in="SourceGraphic" in2="effect1_backgroundBlur_1680_4532" result="shape"/>
<feColorMatrix in="SourceAlpha" type="matrix" values="0 0 0 0 0 0 0 0 0 0 0 0 0 0 0 0 0 0 127 0" result="hardAlpha"/>
<feOffset dy="4.5977"/>
<feGaussianBlur stdDeviation="3.44828"/>
<feComposite in2="hardAlpha" operator="arithmetic" k2="-1" k3="1"/>
<feColorMatrix type="matrix" values="0 0 0 0 1 0 0 0 0 1 0 0 0 0 1 0 0 0 0.4 0"/>
<feBlend mode="normal" in2="shape" result="effect2_innerShadow_1680_4532"/>
</filter>
<linearGradient id="paint0_linear_1680_4532" x1="4.76172" y1="23.8093" x2="20.9678" y2="33.0681" gradientUnits="userSpaceOnUse">
<stop stop-color="#BFBFBF"/>
<stop offset="1" stop-color="#9C9C9C"/>
</linearGradient>
<linearGradient id="paint1_linear_1680_4532" x1="5.29743" y1="24.1556" x2="21.9046" y2="24.1556" gradientUnits="userSpaceOnUse">
<stop stop-color="#CCCCCC"/>
<stop offset="1" stop-color="#808080"/>
</linearGradient>
<linearGradient id="paint2_linear_1680_4532" x1="4.76172" y1="19.0474" x2="20.9678" y2="28.3062" gradientUnits="userSpaceOnUse">
<stop stop-color="#BFBFBF"/>
<stop offset="1" stop-color="#9C9C9C"/>
</linearGradient>
<linearGradient id="paint3_linear_1680_4532" x1="5.29743" y1="19.3937" x2="21.9046" y2="19.3937" gradientUnits="userSpaceOnUse">
<stop stop-color="#CCCCCC"/>
<stop offset="1" stop-color="#808080"/>
</linearGradient>
<linearGradient id="paint4_linear_1680_4532" x1="4.76172" y1="14.2856" x2="20.9678" y2="23.5444" gradientUnits="userSpaceOnUse">
<stop stop-color="#BFBFBF"/>
<stop offset="1" stop-color="#9C9C9C"/>
</linearGradient>
<linearGradient id="paint5_linear_1680_4532" x1="5.29743" y1="14.6319" x2="21.9046" y2="14.6319" gradientUnits="userSpaceOnUse">
<stop stop-color="#CCCCCC"/>
<stop offset="1" stop-color="#808080"/>
</linearGradient>
<linearGradient id="paint6_linear_1680_4532" x1="4.76172" y1="9.52368" x2="20.9678" y2="18.7825" gradientUnits="userSpaceOnUse">
<stop stop-color="#BFBFBF"/>
<stop offset="1" stop-color="#9C9C9C"/>
</linearGradient>
<linearGradient id="paint7_linear_1680_4532" x1="5.29743" y1="9.87" x2="21.9046" y2="9.87" gradientUnits="userSpaceOnUse">
<stop stop-color="#CCCCCC"/>
<stop offset="1" stop-color="#808080"/>
</linearGradient>
<linearGradient id="paint8_linear_1680_4532" x1="4.76172" y1="4.76166" x2="20.9678" y2="14.0204" gradientUnits="userSpaceOnUse">
<stop stop-color="#BFBFBF"/>
<stop offset="1" stop-color="#9C9C9C"/>
</linearGradient>
<linearGradient id="paint9_linear_1680_4532" x1="5.29743" y1="5.10798" x2="21.9046" y2="5.10798" gradientUnits="userSpaceOnUse">
<stop stop-color="#CCCCCC"/>
<stop offset="1" stop-color="#808080"/>
</linearGradient>
<linearGradient id="paint10_linear_1680_4532" x1="4.76172" y1="-0.000244141" x2="20.9678" y2="9.25854" gradientUnits="userSpaceOnUse">
<stop stop-color="#BFBFBF"/>
<stop offset="1" stop-color="#9C9C9C"/>
</linearGradient>
<linearGradient id="paint11_linear_1680_4532" x1="5.29743" y1="0.346076" x2="21.9046" y2="0.346076" gradientUnits="userSpaceOnUse">
<stop stop-color="#CCCCCC"/>
<stop offset="1" stop-color="#808080"/>
</linearGradient>
<linearGradient id="paint12_linear_1680_4532" x1="18.0957" y1="29.5232" x2="34.3018" y2="38.782" gradientUnits="userSpaceOnUse">
<stop stop-color="#BFBFBF"/>
<stop offset="1" stop-color="#9C9C9C"/>
</linearGradient>
<linearGradient id="paint13_linear_1680_4532" x1="18.6314" y1="29.8695" x2="35.2386" y2="29.8695" gradientUnits="userSpaceOnUse">
<stop stop-color="#CCCCCC"/>
<stop offset="1" stop-color="#808080"/>
</linearGradient>
<linearGradient id="paint14_linear_1680_4532" x1="18.0957" y1="24.7617" x2="34.3018" y2="34.0205" gradientUnits="userSpaceOnUse">
<stop stop-color="#BFBFBF"/>
<stop offset="1" stop-color="#9C9C9C"/>
</linearGradient>
<linearGradient id="paint15_linear_1680_4532" x1="18.6314" y1="25.108" x2="35.2386" y2="25.108" gradientUnits="userSpaceOnUse">
<stop stop-color="#CCCCCC"/>
<stop offset="1" stop-color="#808080"/>
</linearGradient>
<linearGradient id="paint16_linear_1680_4532" x1="18.0957" y1="19.9998" x2="34.3018" y2="29.2585" gradientUnits="userSpaceOnUse">
<stop stop-color="#BFBFBF"/>
<stop offset="1" stop-color="#9C9C9C"/>
</linearGradient>
<linearGradient id="paint17_linear_1680_4532" x1="18.6314" y1="20.3461" x2="35.2386" y2="20.3461" gradientUnits="userSpaceOnUse">
<stop stop-color="#CCCCCC"/>
<stop offset="1" stop-color="#808080"/>
</linearGradient>
<linearGradient id="paint18_linear_1680_4532" x1="18.0957" y1="15.2374" x2="34.3018" y2="24.4962" gradientUnits="userSpaceOnUse">
<stop stop-color="#BFBFBF"/>
<stop offset="1" stop-color="#9C9C9C"/>
</linearGradient>
<linearGradient id="paint19_linear_1680_4532" x1="18.6314" y1="15.5837" x2="35.2386" y2="15.5837" gradientUnits="userSpaceOnUse">
<stop stop-color="#CCCCCC"/>
<stop offset="1" stop-color="#808080"/>
</linearGradient>
<linearGradient id="paint20_linear_1680_4532" x1="18.0957" y1="10.476" x2="34.3018" y2="19.7347" gradientUnits="userSpaceOnUse">
<stop stop-color="#BFBFBF"/>
<stop offset="1" stop-color="#9C9C9C"/>
</linearGradient>
<linearGradient id="paint21_linear_1680_4532" x1="18.6314" y1="10.8223" x2="35.2386" y2="10.8223" gradientUnits="userSpaceOnUse">
<stop stop-color="#CCCCCC"/>
<stop offset="1" stop-color="#808080"/>
</linearGradient>
<linearGradient id="paint22_linear_1680_4532" x1="18.0957" y1="5.71411" x2="34.3018" y2="14.9729" gradientUnits="userSpaceOnUse">
<stop stop-color="#BFBFBF"/>
<stop offset="1" stop-color="#9C9C9C"/>
</linearGradient>
<linearGradient id="paint23_linear_1680_4532" x1="18.6314" y1="6.06043" x2="35.2386" y2="6.06043" gradientUnits="userSpaceOnUse">
<stop stop-color="#CCCCCC"/>
<stop offset="1" stop-color="#808080"/>
</linearGradient>
<clipPath id="clip0_1680_4532">
<rect width="40" height="40" fill="white"/>
</clipPath>
</defs>
</svg>
