<svg width="34" height="35" viewBox="0 0 34 35" fill="none" xmlns="http://www.w3.org/2000/svg">
<path fill-rule="evenodd" clip-rule="evenodd" d="M31.3051 8.06821C31.3047 8.06929 31.3052 8.07048 31.3063 8.07093C31.8165 8.28976 32.2946 8.61101 32.7103 9.03465C34.4287 10.786 34.4301 13.624 32.7133 15.3736C31.6321 16.4756 30.1272 16.8829 28.7319 16.596C29.9957 21.5223 28.7696 26.9339 25.0339 30.7412C19.3851 36.4981 10.1373 36.407 4.37836 30.5378C-1.3806 24.6685 -1.46995 15.2436 4.1788 9.48672C4.76718 8.88707 5.39461 8.35087 6.05308 7.87804C5.97084 7.80572 5.89061 7.7298 5.81257 7.65027C4.09417 5.89896 4.09281 3.0609 5.80954 1.3113C7.12757 -0.0319748 9.07514 -0.343123 10.6863 0.377373L19.2476 3.56981C19.2955 3.42098 19.3416 3.27169 19.3853 3.12312C19.3962 3.08594 19.4082 3.04902 19.4214 3.01242C19.5887 2.54585 19.7514 2.05339 19.8927 1.57797C19.9822 1.27684 20.1437 0.99324 20.3772 0.75526C21.135 -0.017049 22.3642 -0.0164378 23.1228 0.756624C23.675 1.31938 23.8255 2.13635 23.5742 2.83713C23.4069 3.30371 23.2441 3.79622 23.1028 4.27165C23.0929 4.30508 23.0821 4.33828 23.0704 4.37124C23.0055 4.55367 22.9427 4.73912 22.8827 4.92529L31.0368 7.9659C31.0874 7.98369 31.1378 8.00246 31.1878 8.02219L31.3038 8.06546C31.3049 8.06586 31.3055 8.06709 31.3051 8.06821ZM24.2891 21.9665C23.8101 22.4547 23.8101 23.2463 24.2891 23.7346C24.7682 24.2228 25.5449 24.2228 26.024 23.7346C26.5031 23.2463 26.5031 22.4547 26.024 21.9665C25.5449 21.4782 24.7682 21.4782 24.2891 21.9665ZM24.8607 26.7125C25.1308 26.2167 24.9056 25.6045 24.4 25.3676C23.8945 25.1308 23.3004 25.3594 23.0237 25.8513C22.2451 27.2349 21.189 28.4358 19.9244 29.3754C19.4748 29.7094 19.3166 30.3366 19.6028 30.8233C19.8887 31.3096 20.5095 31.4709 20.9632 31.1436C22.5718 29.9831 23.9039 28.4686 24.8607 26.7125Z" fill="#E9E9EE"/>
</svg>
