<svg width="47" height="24" viewBox="0 0 47 24" fill="none" xmlns="http://www.w3.org/2000/svg">
<rect width="47" height="24" rx="12" fill="#7E37F9"/>
<path d="M14.1774 13.9912H12.5016L12.174 16H11.1105L11.4382 13.9912H10.3478L10.5197 12.9385H11.6154L11.884 11.2842H10.799L10.9709 10.2314H12.0612L12.3889 8.22266H13.4523L13.1247 10.2314H14.8005L15.1281 8.22266H16.1808L15.8532 10.2314H16.9543L16.7717 11.2842H15.676L15.4074 12.9385H16.5031L16.3312 13.9912H15.2302L14.9025 16H13.8498L14.1774 13.9912ZM14.3547 12.9385L14.6232 11.2842H12.9475L12.6789 12.9385H14.3547ZM25.4927 8.46973V8.77051C25.4927 9.18587 25.4766 9.58691 25.4443 9.97363C25.4121 10.3604 25.3494 10.7793 25.2563 11.2305H26.5776V12.1973H17.7046V11.2305H24.0479C24.1517 10.7578 24.2197 10.3245 24.252 9.93066C24.2842 9.53678 24.3003 9.11784 24.3003 8.67383H18.8003V7.71777H25.4927V8.46973ZM18.7681 13.3252H25.4819V16.8379H18.7681V13.3252ZM24.3003 15.8711V14.2598H19.939V15.8711H24.3003ZM35.6424 16.9668H34.4608V7.24512H35.6424V16.9668ZM28.0799 8.09375H32.6561V11.7354H29.3152V13.6904C30.1245 13.6833 30.8729 13.6546 31.5604 13.6045C32.2479 13.5544 32.9533 13.4684 33.6766 13.3467L33.784 14.3242C33.032 14.4531 32.2908 14.5426 31.5604 14.5928C30.8335 14.6429 30.0242 14.668 29.1326 14.668H28.9393H28.0906V10.79H31.4422V9.06055H28.0799V8.09375Z" fill="white"/>
</svg>
