<svg width="54" height="24" viewBox="0 0 54 24" fill="none" xmlns="http://www.w3.org/2000/svg">
<rect width="24" height="24" rx="4" fill="white"/>
<path d="M12.3899 3.81104L4.07256 7.02401C3.13125 7.38764 2.50788 8.28973 2.50062 9.29881L2.47656 12.6382C2.51266 12.5677 2.80143 12.0035 3.55944 11.9682C3.68276 11.9625 3.73729 11.9573 3.74216 11.9525H6.33019C6.53176 11.9525 6.73086 11.997 6.91331 12.0827L12.042 14.4915L17.0628 12.0871C17.2478 11.9985 17.4502 11.9525 17.6553 11.9525H20.2778C20.2484 11.9556 20.2928 11.9602 20.4524 11.967C21.2104 11.9997 21.4992 12.522 21.5352 12.5873V9.26418C21.5352 8.27246 20.9392 7.37792 20.0239 6.99606L12.3899 3.81104Z" fill="url(#paint0_linear_1106_3747)"/>
<circle cx="10.0859" cy="4.1504" r="2.1504" fill="white"/>
<circle cx="17.6123" cy="7.60645" r="2.1504" fill="white"/>
<circle cx="12.0057" cy="10.2176" r="6.0672" fill="white"/>
<path d="M14.9383 16.4177C15.3954 16.6313 15.6875 17.0903 15.6875 17.5949V20.3858H3.84801C3.09047 20.3858 2.47636 19.7717 2.47636 19.0142V13.8164C2.47636 13.0588 3.09047 12.4447 3.84801 12.4447H6.15006C6.34022 12.4447 6.52806 12.4864 6.70032 12.567L14.9383 16.4177Z" fill="#9B63FA"/>
<g filter="url(#filter0_d_1106_3747)">
<path d="M7.37638 17.2394C6.92074 17.4537 6.62988 17.9119 6.62988 18.4154V20.3859H20.1636C20.9211 20.3859 21.5352 19.7718 21.5352 19.0143V13.8165C21.5352 13.0589 20.9211 12.4448 20.1636 12.4448H17.8631C17.6719 12.4448 17.4831 12.487 17.3101 12.5683L7.37638 17.2394Z" fill="#7E37F9"/>
</g>
<path fill-rule="evenodd" clip-rule="evenodd" d="M10.6923 2.62147C10.6921 2.62186 10.6917 2.62203 10.6913 2.62187C10.4987 2.5433 10.288 2.5 10.0672 2.5C9.15436 2.5 8.41435 3.24001 8.41435 4.15285C8.41435 4.72783 8.70794 5.23424 9.1534 5.53034C7.53387 6.4795 6.44922 8.21716 6.44922 10.2036C6.44922 10.8351 6.55885 11.4415 6.76046 12.0054L12.0332 14.4141L17.1988 12.0543C17.4117 11.4766 17.5278 10.8534 17.5278 10.2036C17.5278 9.8907 17.5009 9.58401 17.4492 9.2856C17.4898 9.28858 17.5307 9.2901 17.5721 9.2901C18.4849 9.2901 19.2249 8.55009 19.2249 7.63725C19.2249 6.93693 18.7894 6.33834 18.1744 6.09757L15.0686 4.65429C15.0963 4.59857 15.1242 4.54299 15.1524 4.48811C15.2337 4.32982 15.3177 4.16003 15.3976 3.99837L15.3977 3.99829L15.4254 3.94226C15.4736 3.84486 15.5007 3.73514 15.5007 3.61911C15.5007 3.21616 15.174 2.88951 14.7711 2.88951C14.4869 2.88951 14.2406 3.05201 14.1202 3.28918C14.0545 3.41836 13.9882 3.55182 13.9226 3.68357L13.8498 3.82986L13.7916 3.94693L13.7457 4.03954L10.7905 2.66623C10.7722 2.65734 10.7538 2.64878 10.7352 2.64055L10.6933 2.62109C10.6929 2.62091 10.6925 2.62108 10.6923 2.62147Z" fill="#7E37F9"/>
<circle cx="8.4735" cy="8.11192" r="0.4608" fill="white"/>
<path d="M8.01751 8.97025C7.82149 8.89762 7.60221 8.99736 7.54477 9.19836C7.34116 9.91087 7.30024 10.6602 7.42502 11.3906C7.46023 11.5967 7.66734 11.7197 7.8701 11.6689C8.07286 11.618 8.19421 11.4125 8.16186 11.206C8.07077 10.6245 8.10323 10.0303 8.25711 9.46215C8.31176 9.26038 8.21352 9.04288 8.01751 8.97025Z" fill="white"/>
<path d="M39.128 5.47204C39.128 5.89177 38.7877 6.23204 38.368 6.23204H29.496V10.248H38.536C38.9513 10.248 39.288 10.5847 39.288 11C39.288 11.4154 38.9513 11.752 38.536 11.752H28.752C28.1997 11.752 27.752 11.3043 27.752 10.752V5.71204C27.752 5.15975 28.1997 4.71204 28.752 4.71204H38.368C38.7877 4.71204 39.128 5.0523 39.128 5.47204ZM27.768 15.384C27.3438 15.384 27 15.0402 27 14.616C27 14.1919 27.3438 13.848 27.768 13.848H39.112C39.5362 13.848 39.88 14.1919 39.88 14.616C39.88 15.0402 39.5362 15.384 39.112 15.384H34.28V18.424C34.28 18.9012 33.8932 19.288 33.416 19.288C32.9388 19.288 32.552 18.9012 32.552 18.424V15.384H27.768Z" fill="#3F05A4"/>
<path d="M52.7914 5.44804C52.7914 5.85452 52.4619 6.18404 52.0554 6.18404H43.3514V8.52004H52.1514C52.549 8.52004 52.8714 8.84239 52.8714 9.24004C52.8714 9.63768 52.549 9.96004 52.1514 9.96004H42.6234C42.0711 9.96004 41.6234 9.51232 41.6234 8.96004V5.71204C41.6234 5.15975 42.0711 4.71204 42.6234 4.71204H52.0554C52.4619 4.71204 52.7914 5.04155 52.7914 5.44804ZM41.4074 12.888C40.9965 12.888 40.6634 12.5549 40.6634 12.144C40.6634 11.7331 40.9965 11.4 41.4074 11.4H52.9914C53.4023 11.4 53.7354 11.7331 53.7354 12.144C53.7354 12.5549 53.4023 12.888 52.9914 12.888H48.0714V14.696H51.7914C52.3437 14.696 52.7914 15.1438 52.7914 15.696V18.416C52.7914 18.8976 52.401 19.288 51.9194 19.288C51.4378 19.288 51.0474 18.8976 51.0474 18.416V16.184H42.2714C41.8605 16.184 41.5274 15.8509 41.5274 15.44C41.5274 15.0291 41.8605 14.696 42.2714 14.696H46.3274V12.888H41.4074Z" fill="#3F05A4"/>
<defs>
<filter id="filter0_d_1106_3747" x="3.84972" y="10.1255" width="19.544" height="12.5799" filterUnits="userSpaceOnUse" color-interpolation-filters="sRGB">
<feFlood flood-opacity="0" result="BackgroundImageFix"/>
<feColorMatrix in="SourceAlpha" type="matrix" values="0 0 0 0 0 0 0 0 0 0 0 0 0 0 0 0 0 0 127 0" result="hardAlpha"/>
<feOffset dx="-0.4608"/>
<feGaussianBlur stdDeviation="1.15968"/>
<feComposite in2="hardAlpha" operator="out"/>
<feColorMatrix type="matrix" values="0 0 0 0 0.192055 0 0 0 0 0.0152771 0 0 0 0 0.501961 0 0 0 0.2 0"/>
<feBlend mode="normal" in2="BackgroundImageFix" result="effect1_dropShadow_1106_3747"/>
<feBlend mode="normal" in="SourceGraphic" in2="effect1_dropShadow_1106_3747" result="shape"/>
</filter>
<linearGradient id="paint0_linear_1106_3747" x1="12.0059" y1="9.18704" x2="12.0059" y2="15.4078" gradientUnits="userSpaceOnUse">
<stop stop-color="#7E37F9"/>
<stop offset="0.706" stop-color="#3F05A4"/>
</linearGradient>
</defs>
</svg>
