<svg width="67" height="24" viewBox="0 0 67 24" fill="none" xmlns="http://www.w3.org/2000/svg">
<rect width="67" height="24" rx="12" fill="#7E37F9"/>
<path d="M14.3285 13.9912H12.6527L12.3251 16H11.2616L11.5892 13.9912H10.4989L10.6708 12.9385H11.7665L12.035 11.2842H10.9501L11.122 10.2314H12.2123L12.5399 8.22266H13.6034L13.2758 10.2314H14.9515L15.2792 8.22266H16.3319L16.0043 10.2314H17.1054L16.9227 11.2842H15.827L15.5585 12.9385H16.6542L16.4823 13.9912H15.3812L15.0536 16H14.0009L14.3285 13.9912ZM14.5057 12.9385L14.7743 11.2842H13.0985L12.83 12.9385H14.5057ZM22.9904 14.5928H18.3713V8.1582H22.9904V14.5928ZM21.8303 13.6367V9.09277H19.5529V13.6367H21.8303ZM24.7307 7.24512H25.9338V16.9668H24.7307V7.24512ZM35.4927 8.42676V8.72754C35.4927 9.13216 35.4784 9.51888 35.4497 9.8877C35.4246 10.2529 35.3691 10.6468 35.2832 11.0693H36.5776V12.0361H32.7212V13.5508H35.5142V16.9561H34.3218V14.5068H28.6069V13.5508H31.5288V12.0361H27.7046V11.0693H34.0854C34.1714 10.6182 34.2287 10.2046 34.2573 9.82861C34.286 9.45264 34.3003 9.05697 34.3003 8.6416H28.8003V7.68555H35.4927V8.42676ZM45.6854 12.9277H44.493V11.8535H42.1834V10.8867H44.493V9.84473H42.2747C41.9704 10.611 41.4691 11.2645 40.7708 11.8052C40.0726 12.3423 39.1935 12.7594 38.1336 13.0566L37.6502 12.1113C38.7674 11.8105 39.6339 11.3844 40.2498 10.833C40.8693 10.278 41.2256 9.63346 41.3187 8.89941H38.1658V7.93262H42.6238C42.6238 8.26921 42.597 8.59147 42.5433 8.89941H44.493V7.25586H45.6854V12.9277ZM39.1756 14.9688C39.1756 14.5749 39.3117 14.2329 39.5838 13.9429C39.8559 13.6528 40.2391 13.429 40.7332 13.2715C41.2309 13.1139 41.811 13.0352 42.4734 13.0352C43.1251 13.0352 43.6981 13.1139 44.1922 13.2715C44.6863 13.429 45.0695 13.6528 45.3416 13.9429C45.6137 14.2329 45.7498 14.5749 45.7498 14.9688C45.7498 15.3626 45.6137 15.7064 45.3416 16C45.0695 16.29 44.6863 16.512 44.1922 16.666C43.6981 16.8236 43.1251 16.9023 42.4734 16.9023C41.8146 16.9023 41.2363 16.8236 40.7386 16.666C40.2409 16.512 39.8559 16.29 39.5838 16C39.3117 15.7064 39.1756 15.3626 39.1756 14.9688ZM40.368 14.9688C40.368 15.2839 40.5542 15.5273 40.9266 15.6992C41.299 15.8711 41.8146 15.957 42.4734 15.957C43.1216 15.957 43.63 15.8711 43.9988 15.6992C44.3677 15.5273 44.5539 15.2839 44.5574 14.9688C44.5539 14.6465 44.3677 14.3994 43.9988 14.2275C43.6336 14.0557 43.1251 13.9697 42.4734 13.9697C41.8146 13.9697 41.299 14.0557 40.9266 14.2275C40.5542 14.3994 40.368 14.6465 40.368 14.9688ZM55.7599 16.9561H54.6212V7.24512H55.7599V16.9561ZM47.2306 14.1953C47.6818 13.9196 48.0577 13.5562 48.3585 13.105C48.6629 12.6502 48.8867 12.1489 49.0299 11.6011C49.1767 11.0496 49.2501 10.4821 49.2501 9.89844V9.25391H47.5636V8.28711H51.9679V9.25391H50.3995V9.89844C50.3995 10.4642 50.4694 11.0085 50.609 11.5312C50.7487 12.054 50.9653 12.5285 51.2589 12.9546C51.5561 13.3807 51.9285 13.7227 52.3761 13.9805L51.6671 14.8613C51.2303 14.6035 50.8597 14.2562 50.5553 13.8193C50.2509 13.3789 50.011 12.8722 49.8356 12.2993C49.6565 12.9224 49.4095 13.4738 49.0944 13.9536C48.7828 14.4334 48.4051 14.8112 47.9611 15.0869L47.2306 14.1953ZM51.2589 10.6289H52.6554V7.42773H53.7833V16.4834H52.6554V11.5957H51.2589V10.6289Z" fill="white"/>
</svg>
