<svg width="16" height="20" viewBox="0 0 16 20" fill="none" xmlns="http://www.w3.org/2000/svg">
<path fill-rule="evenodd" clip-rule="evenodd" d="M7.62756 4.43068L7.62756 4.43067C7.46115 4.32145 7.29478 4.21226 7.11423 4.13112C6.92676 4.04687 6.71886 4 6.5 4C5.67157 4 5 4.67157 5 5.5C5 5.96105 5.20801 6.37352 5.5353 6.64868C4.02135 7.50807 3 9.13476 3 11C3 13.7614 5.23858 16 8 16C10.7614 16 13 13.7614 13 11C13 10.6395 12.9618 10.2879 12.8893 9.94898C13.529 9.77752 14 9.19376 14 8.5C14 7.9245 13.6759 7.42469 13.2003 7.17315C13.0676 7.10298 12.9269 7.04916 12.7863 6.99534C12.6631 6.94821 12.54 6.90107 12.4221 6.84294L10.6364 5.96233C10.8463 5.84359 11 5.4577 11 5C11 4.44772 10.7761 4 10.5 4C10.2239 4 10 4.44772 10 5C10 5.28552 10.0598 5.5431 10.1558 5.72531L9.96489 5.63117C9.89149 5.26143 9.71101 5 9.5 5C9.37558 5 9.26178 5.09089 9.17428 5.24128L8.07699 4.70014C7.92067 4.62305 7.7741 4.52685 7.62756 4.43068Z" fill="#9090A0"/>
<circle cx="4.5" cy="9.5" r="0.5" fill="white"/>
</svg>
