<svg width="24" height="24" viewBox="0 0 24 24" fill="none" xmlns="http://www.w3.org/2000/svg">
<rect width="24" height="24" rx="4" fill="white"/>
<path d="M11.8828 4L3.64224 6.98972C2.67663 7.34005 2.03076 8.25397 2.02288 9.28113L2 12.2648C2.03598 12.1988 2.32386 11.6705 3.07955 11.6375C3.20248 11.6321 3.25685 11.6272 3.2617 11.6228H5.85781C6.04844 11.6228 6.23698 11.6626 6.41139 11.7395L11.536 14L16.5531 11.7435C16.73 11.664 16.9217 11.6228 17.1157 11.6228H19.7464C19.7171 11.6256 19.7614 11.63 19.9205 11.6364C20.6761 11.667 20.964 12.156 21 12.2171V9.24903C21 8.23778 20.3806 7.32976 19.439 6.96082L11.8828 4Z" fill="url(#paint0_linear_908_11404)"/>
<circle cx="9" cy="4" r="2" fill="white"/>
<circle cx="17" cy="7" r="2" fill="white"/>
<circle cx="11" cy="10" r="6" fill="white"/>
<path d="M14.2615 16.0018C14.7128 16.2178 15 16.6736 15 17.1739V20H3.34973C2.60429 20 2 19.3813 2 18.6182V13.3818C2 12.6187 2.60429 12 3.34973 12H5.60417C5.79831 12 5.98998 12.0435 6.1651 12.1273L14.2615 16.0018Z" fill="url(#paint1_linear_908_11404)"/>
<g filter="url(#filter0_d_908_11404)">
<path d="M6.74602 16.8326C6.29064 17.047 6 17.505 6 18.0083V20H19.6196C20.382 20 21 19.3813 21 18.6182V13.3818C21 12.6187 20.382 12 19.6196 12H17.303C17.1116 12 16.9227 12.0423 16.7495 12.1237L6.74602 16.8326Z" fill="url(#paint2_linear_908_11404)"/>
</g>
<path fill-rule="evenodd" clip-rule="evenodd" d="M11.1285 2.70426C10.9633 2.6264 10.8073 2.52863 10.6514 2.43092L10.6514 2.43092C10.4495 2.3044 10.2478 2.17796 10.0264 2.09496C9.86259 2.03357 9.68522 2 9.5 2C8.67157 2 8 2.67157 8 3.5C8 4.03293 8.27792 4.50094 8.69673 4.76702C7.0822 5.72534 6 7.48629 6 9.5C6 10.1552 6.11458 10.7837 6.3248 11.3665L11.5436 14L16.6554 11.4204C16.8782 10.8226 17 10.1755 17 9.5C17 9.29827 16.9891 9.09907 16.968 8.90296C16.9773 8.90649 16.9868 8.90993 16.9962 8.9133C17.1537 8.96943 17.3233 9 17.5 9C18.3284 9 19 8.32843 19 7.5C19 7.00254 18.7578 6.56164 18.385 6.28875C18.3552 6.26698 18.344 6.22737 18.3596 6.19397C18.3769 6.15669 18.3609 6.11238 18.3237 6.09485L13.9992 4.05702C13.9997 4.03815 14 4.01914 14 4C14 3.44772 13.7761 3 13.5 3C13.294 3 13.117 3.24926 13.0405 3.60524L11.1285 2.70426ZM15 3C15 3.55228 14.7761 4 14.5 4C14.2239 4 14 3.55228 14 3C14 2.44772 14.2239 2 14.5 2C14.7761 2 15 2.44772 15 3Z" fill="#7E37F9"/>
<circle cx="8.5" cy="8.5" r="0.5" fill="white"/>
<path d="M7.09954 8.88108C6.90079 8.80892 6.67763 8.91022 6.61837 9.11262C6.4083 9.83014 6.36328 10.5839 6.48665 11.318C6.52145 11.5251 6.73123 11.6478 6.9374 11.5958C7.14356 11.5437 7.26775 11.3365 7.23584 11.129C7.14601 10.5446 7.18172 9.94675 7.34062 9.3747C7.39705 9.17153 7.29828 8.95324 7.09954 8.88108Z" fill="white"/>
<defs>
<filter id="filter0_d_908_11404" x="3.21984" y="9.68064" width="19.6387" height="12.6387" filterUnits="userSpaceOnUse" color-interpolation-filters="sRGB">
<feFlood flood-opacity="0" result="BackgroundImageFix"/>
<feColorMatrix in="SourceAlpha" type="matrix" values="0 0 0 0 0 0 0 0 0 0 0 0 0 0 0 0 0 0 127 0" result="hardAlpha"/>
<feOffset dx="-0.4608"/>
<feGaussianBlur stdDeviation="1.15968"/>
<feComposite in2="hardAlpha" operator="out"/>
<feColorMatrix type="matrix" values="0 0 0 0 0.192055 0 0 0 0 0.0152771 0 0 0 0 0.501961 0 0 0 0.2 0"/>
<feBlend mode="normal" in2="BackgroundImageFix" result="effect1_dropShadow_908_11404"/>
<feBlend mode="normal" in="SourceGraphic" in2="effect1_dropShadow_908_11404" result="shape"/>
</filter>
<linearGradient id="paint0_linear_908_11404" x1="11.5" y1="9.0335" x2="11.5" y2="14.858" gradientUnits="userSpaceOnUse">
<stop stop-color="#7E37F9"/>
<stop offset="0.706" stop-color="#3F05A4"/>
</linearGradient>
<linearGradient id="paint1_linear_908_11404" x1="17.2717" y1="15.9909" x2="2.00398" y2="15.1788" gradientUnits="userSpaceOnUse">
<stop stop-color="#E8D9FF"/>
<stop offset="1" stop-color="#7E37F9"/>
</linearGradient>
<linearGradient id="paint2_linear_908_11404" x1="3.37879" y1="15.9909" x2="20.979" y2="14.9107" gradientUnits="userSpaceOnUse">
<stop stop-color="#E8D9FF"/>
<stop offset="1" stop-color="#7E37F9"/>
</linearGradient>
</defs>
</svg>
