<svg width="82" height="82" viewBox="0 0 82 82" fill="none" xmlns="http://www.w3.org/2000/svg">
<rect x="0.957233" y="0.581257" width="80.2134" height="80.2134" rx="40.1067" fill="#F1E9FE"/>
<rect x="0.957233" y="0.581257" width="80.2134" height="80.2134" rx="40.1067" stroke="#B790FC" stroke-width="1.16251"/>
<path d="M42.1708 48.4375H24.4566C23.8451 48.4375 23.3494 48.9332 23.3494 49.5446V52.8661C23.3494 55.7734 28.3618 57.2946 33.3137 57.2946C38.2656 57.2946 43.278 55.7734 43.278 52.8661V49.5446C43.278 48.9332 42.7823 48.4375 42.1708 48.4375Z" fill="#7E37F9"/>
<g filter="url(#filter0_bi_1778_3979)">
<path d="M33.3136 45.1166C28.3617 45.1166 23.3493 46.6378 23.3493 49.5451C23.3493 52.4525 28.3617 53.9737 33.3136 53.9737C38.2655 53.9737 43.2779 52.4525 43.2779 49.5451C43.2779 46.6378 38.2655 45.1166 33.3136 45.1166Z" fill="url(#paint0_linear_1778_3979)" fill-opacity="0.2"/>
<path d="M23.7502 49.5451C23.7502 48.3584 24.7773 47.3462 26.6225 46.6132C28.4338 45.8936 30.8712 45.5174 33.3136 45.5174C35.7559 45.5174 38.1933 45.8936 40.0047 46.6132C41.8498 47.3462 42.877 48.3584 42.877 49.5451C42.877 50.7318 41.8498 51.7441 40.0047 52.4771C38.1933 53.1967 35.7559 53.5729 33.3136 53.5729C30.8712 53.5729 28.4338 53.1967 26.6225 52.4771C24.7773 51.7441 23.7502 50.7318 23.7502 49.5451Z" stroke="url(#paint1_linear_1778_3979)" stroke-opacity="0.1" stroke-width="0.801723"/>
</g>
<path d="M42.1707 42.9025H24.4564C23.845 42.9025 23.3493 43.3982 23.3493 44.0096V47.331C23.3493 50.2384 28.3617 51.7596 33.3136 51.7596C38.2655 51.7596 43.2779 50.2384 43.2779 47.331V44.0096C43.2779 43.3982 42.7821 42.9025 42.1707 42.9025Z" fill="#7E37F9"/>
<g filter="url(#filter1_bi_1778_3979)">
<path d="M33.3136 39.5808C28.3617 39.5808 23.3493 41.102 23.3493 44.0094C23.3493 46.9167 28.3617 48.4379 33.3136 48.4379C38.2655 48.4379 43.2779 46.9167 43.2779 44.0094C43.2779 41.102 38.2655 39.5808 33.3136 39.5808Z" fill="url(#paint2_linear_1778_3979)" fill-opacity="0.2"/>
<path d="M23.7502 44.0094C23.7502 42.8227 24.7773 41.8104 26.6225 41.0774C28.4338 40.3578 30.8712 39.9817 33.3136 39.9817C35.7559 39.9817 38.1933 40.3578 40.0047 41.0774C41.8498 41.8104 42.877 42.8227 42.877 44.0094C42.877 45.1961 41.8498 46.2083 40.0047 46.9414C38.1933 47.661 35.7559 48.0371 33.3136 48.0371C30.8712 48.0371 28.4338 47.661 26.6225 46.9414C24.7773 46.2083 23.7502 45.1961 23.7502 44.0094Z" stroke="url(#paint3_linear_1778_3979)" stroke-opacity="0.1" stroke-width="0.801723"/>
</g>
<path d="M42.1707 37.3667H24.4564C23.845 37.3667 23.3493 37.8624 23.3493 38.4738V41.7953C23.3493 44.7026 28.3617 46.2238 33.3136 46.2238C38.2655 46.2238 43.2779 44.7026 43.2779 41.7953V38.4738C43.2779 37.8624 42.7821 37.3667 42.1707 37.3667Z" fill="#7E37F9"/>
<g filter="url(#filter2_bi_1778_3979)">
<path d="M33.3136 34.0453C28.3617 34.0453 23.3493 35.5665 23.3493 38.4739C23.3493 41.3812 28.3617 42.9024 33.3136 42.9024C38.2655 42.9024 43.2779 41.3812 43.2779 38.4739C43.2779 35.5665 38.2655 34.0453 33.3136 34.0453Z" fill="url(#paint4_linear_1778_3979)" fill-opacity="0.2"/>
<path d="M23.7502 38.4739C23.7502 37.2872 24.7773 36.2749 26.6225 35.5419C28.4338 34.8223 30.8712 34.4461 33.3136 34.4461C35.7559 34.4461 38.1933 34.8223 40.0047 35.5419C41.8498 36.2749 42.877 37.2872 42.877 38.4739C42.877 39.6606 41.8498 40.6728 40.0047 41.4058C38.1933 42.1254 35.7559 42.5016 33.3136 42.5016C30.8712 42.5016 28.4338 42.1254 26.6225 41.4058C24.7773 40.6728 23.7502 39.6606 23.7502 38.4739Z" stroke="url(#paint5_linear_1778_3979)" stroke-opacity="0.1" stroke-width="0.801723"/>
</g>
<path d="M42.1707 31.8309H24.4564C23.845 31.8309 23.3493 32.3267 23.3493 32.9381V36.2595C23.3493 39.1668 28.3617 40.6881 33.3136 40.6881C38.2655 40.6881 43.2779 39.1668 43.2779 36.2595V32.9381C43.2779 32.3267 42.7821 31.8309 42.1707 31.8309Z" fill="#7E37F9"/>
<g filter="url(#filter3_bi_1778_3979)">
<path d="M33.3136 28.5095C28.3617 28.5095 23.3493 30.0308 23.3493 32.9381C23.3493 35.8454 28.3617 37.3667 33.3136 37.3667C38.2655 37.3667 43.2779 35.8454 43.2779 32.9381C43.2779 30.0308 38.2655 28.5095 33.3136 28.5095Z" fill="url(#paint6_linear_1778_3979)" fill-opacity="0.2"/>
<path d="M23.7502 32.9381C23.7502 31.7514 24.7773 30.7391 26.6225 30.0061C28.4338 29.2865 30.8712 28.9104 33.3136 28.9104C35.7559 28.9104 38.1933 29.2865 40.0047 30.0061C41.8498 30.7391 42.877 31.7514 42.877 32.9381C42.877 34.1248 41.8498 35.1371 40.0047 35.8701C38.1933 36.5897 35.7559 36.9658 33.3136 36.9658C30.8712 36.9658 28.4338 36.5897 26.6225 35.8701C24.7773 35.1371 23.7502 34.1248 23.7502 32.9381Z" stroke="url(#paint7_linear_1778_3979)" stroke-opacity="0.1" stroke-width="0.801723"/>
</g>
<path d="M42.1707 26.2954H24.4564C23.845 26.2954 23.3493 26.7911 23.3493 27.4026V30.724C23.3493 33.6313 28.3617 35.1525 33.3136 35.1525C38.2655 35.1525 43.2779 33.6313 43.2779 30.724V27.4026C43.2779 26.7911 42.7821 26.2954 42.1707 26.2954Z" fill="#7E37F9"/>
<g filter="url(#filter4_bi_1778_3979)">
<path d="M33.3136 22.9736C28.3617 22.9736 23.3493 24.4949 23.3493 27.4022C23.3493 30.3095 28.3617 31.8308 33.3136 31.8308C38.2655 31.8308 43.2779 30.3095 43.2779 27.4022C43.2779 24.4949 38.2655 22.9736 33.3136 22.9736Z" fill="url(#paint8_linear_1778_3979)" fill-opacity="0.2"/>
<path d="M23.7502 27.4022C23.7502 26.2155 24.7773 25.2032 26.6225 24.4702C28.4338 23.7506 30.8712 23.3745 33.3136 23.3745C35.7559 23.3745 38.1933 23.7506 40.0047 24.4702C41.8498 25.2032 42.877 26.2155 42.877 27.4022C42.877 28.5889 41.8498 29.6012 40.0047 30.3342C38.1933 31.0538 35.7559 31.4299 33.3136 31.4299C30.8712 31.4299 28.4338 31.0538 26.6225 30.3342C24.7773 29.6012 23.7502 28.5889 23.7502 27.4022Z" stroke="url(#paint9_linear_1778_3979)" stroke-opacity="0.1" stroke-width="0.801723"/>
</g>
<path d="M42.1707 20.7595H24.4564C23.845 20.7595 23.3493 21.2552 23.3493 21.8667V25.1881C23.3493 28.0954 28.3617 29.6167 33.3136 29.6167C38.2655 29.6167 43.2779 28.0954 43.2779 25.1881V21.8667C43.2779 21.2552 42.7821 20.7595 42.1707 20.7595Z" fill="#7E37F9"/>
<g filter="url(#filter5_bi_1778_3979)">
<path d="M33.3136 17.438C28.3617 17.438 23.3493 18.9592 23.3493 21.8666C23.3493 24.7739 28.3617 26.2951 33.3136 26.2951C38.2655 26.2951 43.2779 24.7739 43.2779 21.8666C43.2779 18.9592 38.2655 17.438 33.3136 17.438Z" fill="url(#paint10_linear_1778_3979)" fill-opacity="0.2"/>
<path d="M23.7502 21.8666C23.7502 20.6799 24.7773 19.6676 26.6225 18.9346C28.4338 18.215 30.8712 17.8388 33.3136 17.8388C35.7559 17.8388 38.1933 18.215 40.0047 18.9346C41.8498 19.6676 42.877 20.6799 42.877 21.8666C42.877 23.0533 41.8498 24.0655 40.0047 24.7985C38.1933 25.5181 35.7559 25.8943 33.3136 25.8943C30.8712 25.8943 28.4338 25.5181 26.6225 24.7985C24.7773 24.0655 23.7502 23.0533 23.7502 21.8666Z" stroke="url(#paint11_linear_1778_3979)" stroke-opacity="0.1" stroke-width="0.801723"/>
</g>
<path d="M57.6715 55.0808H39.9572C39.3458 55.0808 38.85 55.5765 38.85 56.188V59.5094C38.85 62.4167 43.8624 63.9379 48.8143 63.9379C53.7662 63.9379 58.7786 62.4167 58.7786 59.5094V56.188C58.7786 55.5765 58.2829 55.0808 57.6715 55.0808Z" fill="#7E37F9"/>
<g filter="url(#filter6_bi_1778_3979)">
<path d="M48.8143 51.7589C43.8624 51.7589 38.85 53.2801 38.85 56.1875C38.85 59.0948 43.8624 60.616 48.8143 60.616C53.7662 60.616 58.7786 59.0948 58.7786 56.1875C58.7786 53.2801 53.7662 51.7589 48.8143 51.7589Z" fill="url(#paint12_linear_1778_3979)" fill-opacity="0.2"/>
<path d="M39.2509 56.1875C39.2509 55.0008 40.2781 53.9885 42.1232 53.2555C43.9346 52.5359 46.3719 52.1598 48.8143 52.1598C51.2567 52.1598 53.6941 52.5359 55.5054 53.2555C57.3506 53.9885 58.3777 55.0008 58.3777 56.1875C58.3777 57.3742 57.3506 58.3864 55.5054 59.1195C53.6941 59.8391 51.2567 60.2152 48.8143 60.2152C46.3719 60.2152 43.9346 59.8391 42.1232 59.1195C40.2781 58.3864 39.2509 57.3742 39.2509 56.1875Z" stroke="url(#paint13_linear_1778_3979)" stroke-opacity="0.1" stroke-width="0.801723"/>
</g>
<path d="M57.6715 49.5454H39.9572C39.3458 49.5454 38.85 50.0411 38.85 50.6526V53.974C38.85 56.8813 43.8624 58.4025 48.8143 58.4025C53.7662 58.4025 58.7786 56.8813 58.7786 53.974V50.6526C58.7786 50.0411 58.2829 49.5454 57.6715 49.5454Z" fill="#7E37F9"/>
<g filter="url(#filter7_bi_1778_3979)">
<path d="M48.8143 46.2238C43.8624 46.2238 38.85 47.745 38.85 50.6523C38.85 53.5597 43.8624 55.0809 48.8143 55.0809C53.7662 55.0809 58.7786 53.5597 58.7786 50.6523C58.7786 47.745 53.7662 46.2238 48.8143 46.2238Z" fill="url(#paint14_linear_1778_3979)" fill-opacity="0.2"/>
<path d="M39.2509 50.6523C39.2509 49.4656 40.2781 48.4534 42.1232 47.7203C43.9346 47.0007 46.3719 46.6246 48.8143 46.6246C51.2567 46.6246 53.6941 47.0007 55.5054 47.7203C57.3506 48.4534 58.3777 49.4656 58.3777 50.6523C58.3777 51.839 57.3506 52.8513 55.5054 53.5843C53.6941 54.3039 51.2567 54.68 48.8143 54.68C46.3719 54.68 43.9346 54.3039 42.1232 53.5843C40.2781 52.8513 39.2509 51.839 39.2509 50.6523Z" stroke="url(#paint15_linear_1778_3979)" stroke-opacity="0.1" stroke-width="0.801723"/>
</g>
<path d="M57.6715 44.0096H39.9572C39.3458 44.0096 38.85 44.5054 38.85 45.1168V48.4382C38.85 51.3455 43.8624 52.8668 48.8143 52.8668C53.7662 52.8668 58.7786 51.3455 58.7786 48.4382V45.1168C58.7786 44.5054 58.2829 44.0096 57.6715 44.0096Z" fill="#7E37F9"/>
<g filter="url(#filter8_bi_1778_3979)">
<path d="M48.8143 40.688C43.8624 40.688 38.85 42.2092 38.85 45.1166C38.85 48.0239 43.8624 49.5451 48.8143 49.5451C53.7662 49.5451 58.7786 48.0239 58.7786 45.1166C58.7786 42.2092 53.7662 40.688 48.8143 40.688Z" fill="url(#paint16_linear_1778_3979)" fill-opacity="0.2"/>
<path d="M39.2509 45.1166C39.2509 43.9299 40.2781 42.9176 42.1232 42.1846C43.9346 41.465 46.3719 41.0888 48.8143 41.0888C51.2567 41.0888 53.6941 41.465 55.5054 42.1846C57.3506 42.9176 58.3777 43.9299 58.3777 45.1166C58.3777 46.3033 57.3506 47.3155 55.5054 48.0485C53.6941 48.7681 51.2567 49.1443 48.8143 49.1443C46.3719 49.1443 43.9346 48.7681 42.1232 48.0485C40.2781 47.3155 39.2509 46.3033 39.2509 45.1166Z" stroke="url(#paint17_linear_1778_3979)" stroke-opacity="0.1" stroke-width="0.801723"/>
</g>
<path d="M57.6715 38.4736H39.9572C39.3458 38.4736 38.85 38.9694 38.85 39.5808V42.9022C38.85 45.8095 43.8624 47.3308 48.8143 47.3308C53.7662 47.3308 58.7786 45.8095 58.7786 42.9022V39.5808C58.7786 38.9694 58.2829 38.4736 57.6715 38.4736Z" fill="#7E37F9"/>
<g filter="url(#filter9_bi_1778_3979)">
<path d="M48.8143 35.1517C43.8624 35.1517 38.85 36.673 38.85 39.5803C38.85 42.4876 43.8624 44.0089 48.8143 44.0089C53.7662 44.0089 58.7786 42.4876 58.7786 39.5803C58.7786 36.673 53.7662 35.1517 48.8143 35.1517Z" fill="url(#paint18_linear_1778_3979)" fill-opacity="0.2"/>
<path d="M39.2509 39.5803C39.2509 38.3936 40.2781 37.3813 42.1232 36.6483C43.9346 35.9287 46.3719 35.5526 48.8143 35.5526C51.2567 35.5526 53.6941 35.9287 55.5054 36.6483C57.3506 37.3813 58.3777 38.3936 58.3777 39.5803C58.3777 40.767 57.3506 41.7793 55.5054 42.5123C53.6941 43.2319 51.2567 43.608 48.8143 43.608C46.3719 43.608 43.9346 43.2319 42.1232 42.5123C40.2781 41.7793 39.2509 40.767 39.2509 39.5803Z" stroke="url(#paint19_linear_1778_3979)" stroke-opacity="0.1" stroke-width="0.801723"/>
</g>
<path d="M57.6715 32.938H39.9572C39.3458 32.938 38.85 33.4337 38.85 34.0451V37.3666C38.85 40.2739 43.8624 41.7951 48.8143 41.7951C53.7662 41.7951 58.7786 40.2739 58.7786 37.3666V34.0451C58.7786 33.4337 58.2829 32.938 57.6715 32.938Z" fill="#7E37F9"/>
<g filter="url(#filter10_bi_1778_3979)">
<path d="M48.8143 29.6166C43.8624 29.6166 38.85 31.1378 38.85 34.0451C38.85 36.9525 43.8624 38.4737 48.8143 38.4737C53.7662 38.4737 58.7786 36.9525 58.7786 34.0451C58.7786 31.1378 53.7662 29.6166 48.8143 29.6166Z" fill="url(#paint20_linear_1778_3979)" fill-opacity="0.2"/>
<path d="M39.2509 34.0451C39.2509 32.8584 40.2781 31.8462 42.1232 31.1132C43.9346 30.3936 46.3719 30.0174 48.8143 30.0174C51.2567 30.0174 53.6941 30.3936 55.5054 31.1132C57.3506 31.8462 58.3777 32.8584 58.3777 34.0451C58.3777 35.2318 57.3506 36.2441 55.5054 36.9771C53.6941 37.6967 51.2567 38.0729 48.8143 38.0729C46.3719 38.0729 43.9346 37.6967 42.1232 36.9771C40.2781 36.2441 39.2509 35.2318 39.2509 34.0451Z" stroke="url(#paint21_linear_1778_3979)" stroke-opacity="0.1" stroke-width="0.801723"/>
</g>
<path d="M57.6715 27.4023H39.9572C39.3458 27.4023 38.85 27.8981 38.85 28.5095V31.8309C38.85 34.7382 43.8624 36.2595 48.8143 36.2595C53.7662 36.2595 58.7786 34.7382 58.7786 31.8309V28.5095C58.7786 27.8981 58.2829 27.4023 57.6715 27.4023Z" fill="#7E37F9"/>
<g filter="url(#filter11_bi_1778_3979)">
<path d="M48.8143 24.0809C43.8624 24.0809 38.85 25.6022 38.85 28.5095C38.85 31.4168 43.8624 32.9381 48.8143 32.9381C53.7662 32.9381 58.7786 31.4168 58.7786 28.5095C58.7786 25.6022 53.7662 24.0809 48.8143 24.0809Z" fill="url(#paint22_linear_1778_3979)" fill-opacity="0.2"/>
<path d="M39.2509 28.5095C39.2509 27.3228 40.2781 26.3105 42.1232 25.5775C43.9346 24.8579 46.3719 24.4818 48.8143 24.4818C51.2567 24.4818 53.6941 24.8579 55.5054 25.5775C57.3506 26.3105 58.3777 27.3228 58.3777 28.5095C58.3777 29.6962 57.3506 30.7085 55.5054 31.4415C53.6941 32.1611 51.2567 32.5372 48.8143 32.5372C46.3719 32.5372 43.9346 32.1611 42.1232 31.4415C40.2781 30.7085 39.2509 29.6962 39.2509 28.5095Z" stroke="url(#paint23_linear_1778_3979)" stroke-opacity="0.1" stroke-width="0.801723"/>
</g>
<defs>
<filter id="filter0_bi_1778_3979" x="7.31484" y="29.0821" width="51.9975" height="40.9261" filterUnits="userSpaceOnUse" color-interpolation-filters="sRGB">
<feFlood flood-opacity="0" result="BackgroundImageFix"/>
<feGaussianBlur in="BackgroundImageFix" stdDeviation="8.01723"/>
<feComposite in2="SourceAlpha" operator="in" result="effect1_backgroundBlur_1778_3979"/>
<feBlend mode="normal" in="SourceGraphic" in2="effect1_backgroundBlur_1778_3979" result="shape"/>
<feColorMatrix in="SourceAlpha" type="matrix" values="0 0 0 0 0 0 0 0 0 0 0 0 0 0 0 0 0 0 127 0" result="hardAlpha"/>
<feOffset dy="5.34482"/>
<feGaussianBlur stdDeviation="4.00862"/>
<feComposite in2="hardAlpha" operator="arithmetic" k2="-1" k3="1"/>
<feColorMatrix type="matrix" values="0 0 0 0 1 0 0 0 0 1 0 0 0 0 1 0 0 0 0.4 0"/>
<feBlend mode="normal" in2="shape" result="effect2_innerShadow_1778_3979"/>
</filter>
<filter id="filter1_bi_1778_3979" x="7.31484" y="23.5463" width="51.9975" height="40.9261" filterUnits="userSpaceOnUse" color-interpolation-filters="sRGB">
<feFlood flood-opacity="0" result="BackgroundImageFix"/>
<feGaussianBlur in="BackgroundImageFix" stdDeviation="8.01723"/>
<feComposite in2="SourceAlpha" operator="in" result="effect1_backgroundBlur_1778_3979"/>
<feBlend mode="normal" in="SourceGraphic" in2="effect1_backgroundBlur_1778_3979" result="shape"/>
<feColorMatrix in="SourceAlpha" type="matrix" values="0 0 0 0 0 0 0 0 0 0 0 0 0 0 0 0 0 0 127 0" result="hardAlpha"/>
<feOffset dy="5.34482"/>
<feGaussianBlur stdDeviation="4.00862"/>
<feComposite in2="hardAlpha" operator="arithmetic" k2="-1" k3="1"/>
<feColorMatrix type="matrix" values="0 0 0 0 1 0 0 0 0 1 0 0 0 0 1 0 0 0 0.4 0"/>
<feBlend mode="normal" in2="shape" result="effect2_innerShadow_1778_3979"/>
</filter>
<filter id="filter2_bi_1778_3979" x="7.31484" y="18.0108" width="51.9975" height="40.9261" filterUnits="userSpaceOnUse" color-interpolation-filters="sRGB">
<feFlood flood-opacity="0" result="BackgroundImageFix"/>
<feGaussianBlur in="BackgroundImageFix" stdDeviation="8.01723"/>
<feComposite in2="SourceAlpha" operator="in" result="effect1_backgroundBlur_1778_3979"/>
<feBlend mode="normal" in="SourceGraphic" in2="effect1_backgroundBlur_1778_3979" result="shape"/>
<feColorMatrix in="SourceAlpha" type="matrix" values="0 0 0 0 0 0 0 0 0 0 0 0 0 0 0 0 0 0 127 0" result="hardAlpha"/>
<feOffset dy="5.34482"/>
<feGaussianBlur stdDeviation="4.00862"/>
<feComposite in2="hardAlpha" operator="arithmetic" k2="-1" k3="1"/>
<feColorMatrix type="matrix" values="0 0 0 0 1 0 0 0 0 1 0 0 0 0 1 0 0 0 0.4 0"/>
<feBlend mode="normal" in2="shape" result="effect2_innerShadow_1778_3979"/>
</filter>
<filter id="filter3_bi_1778_3979" x="7.31484" y="12.4751" width="51.9975" height="40.9261" filterUnits="userSpaceOnUse" color-interpolation-filters="sRGB">
<feFlood flood-opacity="0" result="BackgroundImageFix"/>
<feGaussianBlur in="BackgroundImageFix" stdDeviation="8.01723"/>
<feComposite in2="SourceAlpha" operator="in" result="effect1_backgroundBlur_1778_3979"/>
<feBlend mode="normal" in="SourceGraphic" in2="effect1_backgroundBlur_1778_3979" result="shape"/>
<feColorMatrix in="SourceAlpha" type="matrix" values="0 0 0 0 0 0 0 0 0 0 0 0 0 0 0 0 0 0 127 0" result="hardAlpha"/>
<feOffset dy="5.34482"/>
<feGaussianBlur stdDeviation="4.00862"/>
<feComposite in2="hardAlpha" operator="arithmetic" k2="-1" k3="1"/>
<feColorMatrix type="matrix" values="0 0 0 0 1 0 0 0 0 1 0 0 0 0 1 0 0 0 0.4 0"/>
<feBlend mode="normal" in2="shape" result="effect2_innerShadow_1778_3979"/>
</filter>
<filter id="filter4_bi_1778_3979" x="7.31484" y="6.93917" width="51.9975" height="40.9261" filterUnits="userSpaceOnUse" color-interpolation-filters="sRGB">
<feFlood flood-opacity="0" result="BackgroundImageFix"/>
<feGaussianBlur in="BackgroundImageFix" stdDeviation="8.01723"/>
<feComposite in2="SourceAlpha" operator="in" result="effect1_backgroundBlur_1778_3979"/>
<feBlend mode="normal" in="SourceGraphic" in2="effect1_backgroundBlur_1778_3979" result="shape"/>
<feColorMatrix in="SourceAlpha" type="matrix" values="0 0 0 0 0 0 0 0 0 0 0 0 0 0 0 0 0 0 127 0" result="hardAlpha"/>
<feOffset dy="5.34482"/>
<feGaussianBlur stdDeviation="4.00862"/>
<feComposite in2="hardAlpha" operator="arithmetic" k2="-1" k3="1"/>
<feColorMatrix type="matrix" values="0 0 0 0 1 0 0 0 0 1 0 0 0 0 1 0 0 0 0.4 0"/>
<feBlend mode="normal" in2="shape" result="effect2_innerShadow_1778_3979"/>
</filter>
<filter id="filter5_bi_1778_3979" x="7.31484" y="1.40352" width="51.9975" height="40.9261" filterUnits="userSpaceOnUse" color-interpolation-filters="sRGB">
<feFlood flood-opacity="0" result="BackgroundImageFix"/>
<feGaussianBlur in="BackgroundImageFix" stdDeviation="8.01723"/>
<feComposite in2="SourceAlpha" operator="in" result="effect1_backgroundBlur_1778_3979"/>
<feBlend mode="normal" in="SourceGraphic" in2="effect1_backgroundBlur_1778_3979" result="shape"/>
<feColorMatrix in="SourceAlpha" type="matrix" values="0 0 0 0 0 0 0 0 0 0 0 0 0 0 0 0 0 0 127 0" result="hardAlpha"/>
<feOffset dy="5.34482"/>
<feGaussianBlur stdDeviation="4.00862"/>
<feComposite in2="hardAlpha" operator="arithmetic" k2="-1" k3="1"/>
<feColorMatrix type="matrix" values="0 0 0 0 1 0 0 0 0 1 0 0 0 0 1 0 0 0 0.4 0"/>
<feBlend mode="normal" in2="shape" result="effect2_innerShadow_1778_3979"/>
</filter>
<filter id="filter6_bi_1778_3979" x="22.8156" y="35.7244" width="51.9975" height="40.9261" filterUnits="userSpaceOnUse" color-interpolation-filters="sRGB">
<feFlood flood-opacity="0" result="BackgroundImageFix"/>
<feGaussianBlur in="BackgroundImageFix" stdDeviation="8.01723"/>
<feComposite in2="SourceAlpha" operator="in" result="effect1_backgroundBlur_1778_3979"/>
<feBlend mode="normal" in="SourceGraphic" in2="effect1_backgroundBlur_1778_3979" result="shape"/>
<feColorMatrix in="SourceAlpha" type="matrix" values="0 0 0 0 0 0 0 0 0 0 0 0 0 0 0 0 0 0 127 0" result="hardAlpha"/>
<feOffset dy="5.34482"/>
<feGaussianBlur stdDeviation="4.00862"/>
<feComposite in2="hardAlpha" operator="arithmetic" k2="-1" k3="1"/>
<feColorMatrix type="matrix" values="0 0 0 0 1 0 0 0 0 1 0 0 0 0 1 0 0 0 0.4 0"/>
<feBlend mode="normal" in2="shape" result="effect2_innerShadow_1778_3979"/>
</filter>
<filter id="filter7_bi_1778_3979" x="22.8156" y="30.1893" width="51.9975" height="40.9261" filterUnits="userSpaceOnUse" color-interpolation-filters="sRGB">
<feFlood flood-opacity="0" result="BackgroundImageFix"/>
<feGaussianBlur in="BackgroundImageFix" stdDeviation="8.01723"/>
<feComposite in2="SourceAlpha" operator="in" result="effect1_backgroundBlur_1778_3979"/>
<feBlend mode="normal" in="SourceGraphic" in2="effect1_backgroundBlur_1778_3979" result="shape"/>
<feColorMatrix in="SourceAlpha" type="matrix" values="0 0 0 0 0 0 0 0 0 0 0 0 0 0 0 0 0 0 127 0" result="hardAlpha"/>
<feOffset dy="5.34482"/>
<feGaussianBlur stdDeviation="4.00862"/>
<feComposite in2="hardAlpha" operator="arithmetic" k2="-1" k3="1"/>
<feColorMatrix type="matrix" values="0 0 0 0 1 0 0 0 0 1 0 0 0 0 1 0 0 0 0.4 0"/>
<feBlend mode="normal" in2="shape" result="effect2_innerShadow_1778_3979"/>
</filter>
<filter id="filter8_bi_1778_3979" x="22.8156" y="24.6535" width="51.9975" height="40.9261" filterUnits="userSpaceOnUse" color-interpolation-filters="sRGB">
<feFlood flood-opacity="0" result="BackgroundImageFix"/>
<feGaussianBlur in="BackgroundImageFix" stdDeviation="8.01723"/>
<feComposite in2="SourceAlpha" operator="in" result="effect1_backgroundBlur_1778_3979"/>
<feBlend mode="normal" in="SourceGraphic" in2="effect1_backgroundBlur_1778_3979" result="shape"/>
<feColorMatrix in="SourceAlpha" type="matrix" values="0 0 0 0 0 0 0 0 0 0 0 0 0 0 0 0 0 0 127 0" result="hardAlpha"/>
<feOffset dy="5.34482"/>
<feGaussianBlur stdDeviation="4.00862"/>
<feComposite in2="hardAlpha" operator="arithmetic" k2="-1" k3="1"/>
<feColorMatrix type="matrix" values="0 0 0 0 1 0 0 0 0 1 0 0 0 0 1 0 0 0 0.4 0"/>
<feBlend mode="normal" in2="shape" result="effect2_innerShadow_1778_3979"/>
</filter>
<filter id="filter9_bi_1778_3979" x="22.8156" y="19.1173" width="51.9975" height="40.9261" filterUnits="userSpaceOnUse" color-interpolation-filters="sRGB">
<feFlood flood-opacity="0" result="BackgroundImageFix"/>
<feGaussianBlur in="BackgroundImageFix" stdDeviation="8.01723"/>
<feComposite in2="SourceAlpha" operator="in" result="effect1_backgroundBlur_1778_3979"/>
<feBlend mode="normal" in="SourceGraphic" in2="effect1_backgroundBlur_1778_3979" result="shape"/>
<feColorMatrix in="SourceAlpha" type="matrix" values="0 0 0 0 0 0 0 0 0 0 0 0 0 0 0 0 0 0 127 0" result="hardAlpha"/>
<feOffset dy="5.34482"/>
<feGaussianBlur stdDeviation="4.00862"/>
<feComposite in2="hardAlpha" operator="arithmetic" k2="-1" k3="1"/>
<feColorMatrix type="matrix" values="0 0 0 0 1 0 0 0 0 1 0 0 0 0 1 0 0 0 0.4 0"/>
<feBlend mode="normal" in2="shape" result="effect2_innerShadow_1778_3979"/>
</filter>
<filter id="filter10_bi_1778_3979" x="22.8156" y="13.5821" width="51.9975" height="40.9261" filterUnits="userSpaceOnUse" color-interpolation-filters="sRGB">
<feFlood flood-opacity="0" result="BackgroundImageFix"/>
<feGaussianBlur in="BackgroundImageFix" stdDeviation="8.01723"/>
<feComposite in2="SourceAlpha" operator="in" result="effect1_backgroundBlur_1778_3979"/>
<feBlend mode="normal" in="SourceGraphic" in2="effect1_backgroundBlur_1778_3979" result="shape"/>
<feColorMatrix in="SourceAlpha" type="matrix" values="0 0 0 0 0 0 0 0 0 0 0 0 0 0 0 0 0 0 127 0" result="hardAlpha"/>
<feOffset dy="5.34482"/>
<feGaussianBlur stdDeviation="4.00862"/>
<feComposite in2="hardAlpha" operator="arithmetic" k2="-1" k3="1"/>
<feColorMatrix type="matrix" values="0 0 0 0 1 0 0 0 0 1 0 0 0 0 1 0 0 0 0.4 0"/>
<feBlend mode="normal" in2="shape" result="effect2_innerShadow_1778_3979"/>
</filter>
<filter id="filter11_bi_1778_3979" x="22.8156" y="8.04647" width="51.9975" height="40.9261" filterUnits="userSpaceOnUse" color-interpolation-filters="sRGB">
<feFlood flood-opacity="0" result="BackgroundImageFix"/>
<feGaussianBlur in="BackgroundImageFix" stdDeviation="8.01723"/>
<feComposite in2="SourceAlpha" operator="in" result="effect1_backgroundBlur_1778_3979"/>
<feBlend mode="normal" in="SourceGraphic" in2="effect1_backgroundBlur_1778_3979" result="shape"/>
<feColorMatrix in="SourceAlpha" type="matrix" values="0 0 0 0 0 0 0 0 0 0 0 0 0 0 0 0 0 0 127 0" result="hardAlpha"/>
<feOffset dy="5.34482"/>
<feGaussianBlur stdDeviation="4.00862"/>
<feComposite in2="hardAlpha" operator="arithmetic" k2="-1" k3="1"/>
<feColorMatrix type="matrix" values="0 0 0 0 1 0 0 0 0 1 0 0 0 0 1 0 0 0 0.4 0"/>
<feBlend mode="normal" in2="shape" result="effect2_innerShadow_1778_3979"/>
</filter>
<linearGradient id="paint0_linear_1778_3979" x1="23.3493" y1="45.1166" x2="42.1888" y2="55.8799" gradientUnits="userSpaceOnUse">
<stop stop-color="#BFBFBF"/>
<stop offset="1" stop-color="#9C9C9C"/>
</linearGradient>
<linearGradient id="paint1_linear_1778_3979" x1="23.9721" y1="45.5192" x2="43.2779" y2="45.5192" gradientUnits="userSpaceOnUse">
<stop stop-color="#CCCCCC"/>
<stop offset="1" stop-color="#808080"/>
</linearGradient>
<linearGradient id="paint2_linear_1778_3979" x1="23.3493" y1="39.5808" x2="42.1888" y2="50.3441" gradientUnits="userSpaceOnUse">
<stop stop-color="#BFBFBF"/>
<stop offset="1" stop-color="#9C9C9C"/>
</linearGradient>
<linearGradient id="paint3_linear_1778_3979" x1="23.9721" y1="39.9834" x2="43.2779" y2="39.9834" gradientUnits="userSpaceOnUse">
<stop stop-color="#CCCCCC"/>
<stop offset="1" stop-color="#808080"/>
</linearGradient>
<linearGradient id="paint4_linear_1778_3979" x1="23.3493" y1="34.0453" x2="42.1888" y2="44.8086" gradientUnits="userSpaceOnUse">
<stop stop-color="#BFBFBF"/>
<stop offset="1" stop-color="#9C9C9C"/>
</linearGradient>
<linearGradient id="paint5_linear_1778_3979" x1="23.9721" y1="34.4479" x2="43.2779" y2="34.4479" gradientUnits="userSpaceOnUse">
<stop stop-color="#CCCCCC"/>
<stop offset="1" stop-color="#808080"/>
</linearGradient>
<linearGradient id="paint6_linear_1778_3979" x1="23.3493" y1="28.5095" x2="42.1888" y2="39.2729" gradientUnits="userSpaceOnUse">
<stop stop-color="#BFBFBF"/>
<stop offset="1" stop-color="#9C9C9C"/>
</linearGradient>
<linearGradient id="paint7_linear_1778_3979" x1="23.9721" y1="28.9121" x2="43.2779" y2="28.9121" gradientUnits="userSpaceOnUse">
<stop stop-color="#CCCCCC"/>
<stop offset="1" stop-color="#808080"/>
</linearGradient>
<linearGradient id="paint8_linear_1778_3979" x1="23.3493" y1="22.9736" x2="42.1888" y2="33.737" gradientUnits="userSpaceOnUse">
<stop stop-color="#BFBFBF"/>
<stop offset="1" stop-color="#9C9C9C"/>
</linearGradient>
<linearGradient id="paint9_linear_1778_3979" x1="23.9721" y1="23.3762" x2="43.2779" y2="23.3762" gradientUnits="userSpaceOnUse">
<stop stop-color="#CCCCCC"/>
<stop offset="1" stop-color="#808080"/>
</linearGradient>
<linearGradient id="paint10_linear_1778_3979" x1="23.3493" y1="17.438" x2="42.1888" y2="28.2013" gradientUnits="userSpaceOnUse">
<stop stop-color="#BFBFBF"/>
<stop offset="1" stop-color="#9C9C9C"/>
</linearGradient>
<linearGradient id="paint11_linear_1778_3979" x1="23.9721" y1="17.8406" x2="43.2779" y2="17.8406" gradientUnits="userSpaceOnUse">
<stop stop-color="#CCCCCC"/>
<stop offset="1" stop-color="#808080"/>
</linearGradient>
<linearGradient id="paint12_linear_1778_3979" x1="38.85" y1="51.7589" x2="57.6896" y2="62.5222" gradientUnits="userSpaceOnUse">
<stop stop-color="#BFBFBF"/>
<stop offset="1" stop-color="#9C9C9C"/>
</linearGradient>
<linearGradient id="paint13_linear_1778_3979" x1="39.4728" y1="52.1615" x2="58.7786" y2="52.1615" gradientUnits="userSpaceOnUse">
<stop stop-color="#CCCCCC"/>
<stop offset="1" stop-color="#808080"/>
</linearGradient>
<linearGradient id="paint14_linear_1778_3979" x1="38.85" y1="46.2238" x2="57.6896" y2="56.9871" gradientUnits="userSpaceOnUse">
<stop stop-color="#BFBFBF"/>
<stop offset="1" stop-color="#9C9C9C"/>
</linearGradient>
<linearGradient id="paint15_linear_1778_3979" x1="39.4728" y1="46.6264" x2="58.7786" y2="46.6264" gradientUnits="userSpaceOnUse">
<stop stop-color="#CCCCCC"/>
<stop offset="1" stop-color="#808080"/>
</linearGradient>
<linearGradient id="paint16_linear_1778_3979" x1="38.85" y1="40.688" x2="57.6896" y2="51.4513" gradientUnits="userSpaceOnUse">
<stop stop-color="#BFBFBF"/>
<stop offset="1" stop-color="#9C9C9C"/>
</linearGradient>
<linearGradient id="paint17_linear_1778_3979" x1="39.4728" y1="41.0906" x2="58.7786" y2="41.0906" gradientUnits="userSpaceOnUse">
<stop stop-color="#CCCCCC"/>
<stop offset="1" stop-color="#808080"/>
</linearGradient>
<linearGradient id="paint18_linear_1778_3979" x1="38.85" y1="35.1517" x2="57.6896" y2="45.9151" gradientUnits="userSpaceOnUse">
<stop stop-color="#BFBFBF"/>
<stop offset="1" stop-color="#9C9C9C"/>
</linearGradient>
<linearGradient id="paint19_linear_1778_3979" x1="39.4728" y1="35.5543" x2="58.7786" y2="35.5543" gradientUnits="userSpaceOnUse">
<stop stop-color="#CCCCCC"/>
<stop offset="1" stop-color="#808080"/>
</linearGradient>
<linearGradient id="paint20_linear_1778_3979" x1="38.85" y1="29.6166" x2="57.6896" y2="40.3799" gradientUnits="userSpaceOnUse">
<stop stop-color="#BFBFBF"/>
<stop offset="1" stop-color="#9C9C9C"/>
</linearGradient>
<linearGradient id="paint21_linear_1778_3979" x1="39.4728" y1="30.0192" x2="58.7786" y2="30.0192" gradientUnits="userSpaceOnUse">
<stop stop-color="#CCCCCC"/>
<stop offset="1" stop-color="#808080"/>
</linearGradient>
<linearGradient id="paint22_linear_1778_3979" x1="38.85" y1="24.0809" x2="57.6896" y2="34.8443" gradientUnits="userSpaceOnUse">
<stop stop-color="#BFBFBF"/>
<stop offset="1" stop-color="#9C9C9C"/>
</linearGradient>
<linearGradient id="paint23_linear_1778_3979" x1="39.4728" y1="24.4835" x2="58.7786" y2="24.4835" gradientUnits="userSpaceOnUse">
<stop stop-color="#CCCCCC"/>
<stop offset="1" stop-color="#808080"/>
</linearGradient>
</defs>
</svg>
