<svg width="82" height="82" viewBox="0 0 82 82" fill="none" xmlns="http://www.w3.org/2000/svg">
<rect x="0.957203" y="0.581257" width="80.2134" height="80.2134" rx="40.1067" fill="#F5F5F9"/>
<rect x="0.957203" y="0.581257" width="80.2134" height="80.2134" rx="40.1067" stroke="#E9E9EE" stroke-width="1.16251"/>
<path d="M42.1708 48.4376H24.4563C23.8449 48.4376 23.3491 48.9334 23.3491 49.5448V52.8662C23.3491 55.7736 28.3616 57.2949 33.3135 57.2949C38.2655 57.2949 43.2779 55.7736 43.2779 52.8662V49.5448C43.2779 48.9334 42.7822 48.4376 42.1708 48.4376Z" fill="#C6C6D0"/>
<g filter="url(#filter0_bi_1701_2182)">
<path d="M33.3134 45.1167C28.3615 45.1167 23.349 46.638 23.349 49.5453C23.349 52.4527 28.3615 53.9739 33.3134 53.9739C38.2653 53.9739 43.2778 52.4527 43.2778 49.5453C43.2778 46.638 38.2653 45.1167 33.3134 45.1167Z" fill="url(#paint0_linear_1701_2182)" fill-opacity="0.2"/>
<path d="M23.7499 49.5453C23.7499 48.3586 24.777 47.3463 26.6222 46.6133C28.4336 45.8937 30.871 45.5176 33.3134 45.5176C35.7558 45.5176 38.1932 45.8937 40.0046 46.6133C41.8498 47.3463 42.8769 48.3586 42.8769 49.5453C42.8769 50.732 41.8498 51.7443 40.0046 52.4774C38.1932 53.197 35.7558 53.5731 33.3134 53.5731C30.871 53.5731 28.4336 53.197 26.6222 52.4774C24.777 51.7443 23.7499 50.732 23.7499 49.5453Z" stroke="url(#paint1_linear_1701_2182)" stroke-opacity="0.1" stroke-width="0.801733"/>
</g>
<path d="M42.1706 42.9025H24.4562C23.8447 42.9025 23.349 43.3982 23.349 44.0096V47.3311C23.349 50.2385 28.3615 51.7597 33.3134 51.7597C38.2653 51.7597 43.2778 50.2385 43.2778 47.3311V44.0096C43.2778 43.3982 42.7821 42.9025 42.1706 42.9025Z" fill="#C6C6D0"/>
<g filter="url(#filter1_bi_1701_2182)">
<path d="M33.3134 39.5809C28.3615 39.5809 23.349 41.1022 23.349 44.0096C23.349 46.9169 28.3615 48.4382 33.3134 48.4382C38.2653 48.4382 43.2778 46.9169 43.2778 44.0096C43.2778 41.1022 38.2653 39.5809 33.3134 39.5809Z" fill="url(#paint2_linear_1701_2182)" fill-opacity="0.2"/>
<path d="M23.7499 44.0096C23.7499 42.8228 24.777 41.8106 26.6222 41.0775C28.4336 40.3579 30.871 39.9818 33.3134 39.9818C35.7558 39.9818 38.1932 40.3579 40.0046 41.0775C41.8498 41.8106 42.8769 42.8228 42.8769 44.0096C42.8769 45.1963 41.8498 46.2085 40.0046 46.9416C38.1932 47.6612 35.7558 48.0373 33.3134 48.0373C30.871 48.0373 28.4336 47.6612 26.6222 46.9416C24.777 46.2085 23.7499 45.1963 23.7499 44.0096Z" stroke="url(#paint3_linear_1701_2182)" stroke-opacity="0.1" stroke-width="0.801733"/>
</g>
<path d="M42.1706 37.3667H24.4562C23.8447 37.3667 23.349 37.8624 23.349 38.4739V41.7953C23.349 44.7027 28.3615 46.2239 33.3134 46.2239C38.2653 46.2239 43.2778 44.7027 43.2778 41.7953V38.4739C43.2778 37.8624 42.7821 37.3667 42.1706 37.3667Z" fill="#C6C6D0"/>
<g filter="url(#filter2_bi_1701_2182)">
<path d="M33.3134 34.0452C28.3615 34.0452 23.349 35.5664 23.349 38.4738C23.349 41.3812 28.3615 42.9024 33.3134 42.9024C38.2653 42.9024 43.2778 41.3812 43.2778 38.4738C43.2778 35.5664 38.2653 34.0452 33.3134 34.0452Z" fill="url(#paint4_linear_1701_2182)" fill-opacity="0.2"/>
<path d="M23.7499 38.4738C23.7499 37.2871 24.777 36.2748 26.6222 35.5418C28.4336 34.8222 30.871 34.446 33.3134 34.446C35.7558 34.446 38.1932 34.8222 40.0046 35.5418C41.8498 36.2748 42.8769 37.2871 42.8769 38.4738C42.8769 39.6605 41.8498 40.6728 40.0046 41.4058C38.1932 42.1254 35.7558 42.5015 33.3134 42.5015C30.871 42.5015 28.4336 42.1254 26.6222 41.4058C24.777 40.6728 23.7499 39.6605 23.7499 38.4738Z" stroke="url(#paint5_linear_1701_2182)" stroke-opacity="0.1" stroke-width="0.801733"/>
</g>
<path d="M42.1706 31.8307H24.4562C23.8447 31.8307 23.349 32.3264 23.349 32.9378V36.2593C23.349 39.1667 28.3615 40.6879 33.3134 40.6879C38.2653 40.6879 43.2778 39.1667 43.2778 36.2593V32.9378C43.2778 32.3264 42.7821 31.8307 42.1706 31.8307Z" fill="#C6C6D0"/>
<g filter="url(#filter3_bi_1701_2182)">
<path d="M33.3134 28.5094C28.3615 28.5094 23.349 30.0307 23.349 32.938C23.349 35.8454 28.3615 37.3666 33.3134 37.3666C38.2653 37.3666 43.2778 35.8454 43.2778 32.938C43.2778 30.0307 38.2653 28.5094 33.3134 28.5094Z" fill="url(#paint6_linear_1701_2182)" fill-opacity="0.2"/>
<path d="M23.7499 32.938C23.7499 31.7513 24.777 30.739 26.6222 30.006C28.4336 29.2864 30.871 28.9103 33.3134 28.9103C35.7558 28.9103 38.1932 29.2864 40.0046 30.006C41.8498 30.739 42.8769 31.7513 42.8769 32.938C42.8769 34.1247 41.8498 35.137 40.0046 35.8701C38.1932 36.5897 35.7558 36.9658 33.3134 36.9658C30.871 36.9658 28.4336 36.5897 26.6222 35.8701C24.777 35.137 23.7499 34.1247 23.7499 32.938Z" stroke="url(#paint7_linear_1701_2182)" stroke-opacity="0.1" stroke-width="0.801733"/>
</g>
<path d="M42.1706 26.2952H24.4562C23.8447 26.2952 23.349 26.7909 23.349 27.4023V30.7238C23.349 33.6312 28.3615 35.1524 33.3134 35.1524C38.2653 35.1524 43.2778 33.6312 43.2778 30.7238V27.4023C43.2778 26.7909 42.7821 26.2952 42.1706 26.2952Z" fill="#C6C6D0"/>
<g filter="url(#filter4_bi_1701_2182)">
<path d="M33.3134 22.9735C28.3615 22.9735 23.349 24.4948 23.349 27.4021C23.349 30.3095 28.3615 31.8308 33.3134 31.8308C38.2653 31.8308 43.2778 30.3095 43.2778 27.4021C43.2778 24.4948 38.2653 22.9735 33.3134 22.9735Z" fill="url(#paint8_linear_1701_2182)" fill-opacity="0.2"/>
<path d="M23.7499 27.4021C23.7499 26.2154 24.777 25.2031 26.6222 24.4701C28.4336 23.7505 30.871 23.3744 33.3134 23.3744C35.7558 23.3744 38.1932 23.7505 40.0046 24.4701C41.8498 25.2031 42.8769 26.2154 42.8769 27.4021C42.8769 28.5888 41.8498 29.6011 40.0046 30.3342C38.1932 31.0538 35.7558 31.4299 33.3134 31.4299C30.871 31.4299 28.4336 31.0538 26.6222 30.3342C24.777 29.6011 23.7499 28.5888 23.7499 27.4021Z" stroke="url(#paint9_linear_1701_2182)" stroke-opacity="0.1" stroke-width="0.801733"/>
</g>
<path d="M42.1706 20.7593H24.4562C23.8447 20.7593 23.349 21.255 23.349 21.8664V25.1879C23.349 28.0953 28.3615 29.6165 33.3134 29.6165C38.2653 29.6165 43.2778 28.0953 43.2778 25.1879V21.8664C43.2778 21.255 42.7821 20.7593 42.1706 20.7593Z" fill="#C6C6D0"/>
<g filter="url(#filter5_bi_1701_2182)">
<path d="M33.3134 17.4377C28.3615 17.4377 23.349 18.959 23.349 21.8664C23.349 24.7737 28.3615 26.295 33.3134 26.295C38.2654 26.295 43.2778 24.7737 43.2778 21.8664C43.2778 18.959 38.2654 17.4377 33.3134 17.4377Z" fill="url(#paint10_linear_1701_2182)" fill-opacity="0.2"/>
<path d="M23.7499 21.8664C23.7499 20.6797 24.7771 19.6674 26.6223 18.9343C28.4336 18.2147 30.871 17.8386 33.3134 17.8386C35.7558 17.8386 38.1932 18.2147 40.0046 18.9343C41.8498 19.6674 42.877 20.6797 42.877 21.8664C42.877 23.0531 41.8498 24.0654 40.0046 24.7984C38.1932 25.518 35.7558 25.8941 33.3134 25.8941C30.871 25.8941 28.4336 25.518 26.6223 24.7984C24.7771 24.0654 23.7499 23.0531 23.7499 21.8664Z" stroke="url(#paint11_linear_1701_2182)" stroke-opacity="0.1" stroke-width="0.801733"/>
</g>
<path d="M57.6716 55.0811H39.9571C39.3457 55.0811 38.85 55.5768 38.85 56.1882V59.5097C38.85 62.417 43.8624 63.9383 48.8144 63.9383C53.7663 63.9383 58.7788 62.417 58.7788 59.5097V56.1882C58.7788 55.5768 58.283 55.0811 57.6716 55.0811Z" fill="#C6C6D0"/>
<g filter="url(#filter6_bi_1701_2182)">
<path d="M48.8144 51.7592C43.8624 51.7592 38.85 53.2804 38.85 56.1878C38.85 59.0951 43.8624 60.6164 48.8144 60.6164C53.7663 60.6164 58.7788 59.0951 58.7788 56.1878C58.7788 53.2804 53.7663 51.7592 48.8144 51.7592Z" fill="url(#paint12_linear_1701_2182)" fill-opacity="0.2"/>
<path d="M39.2508 56.1878C39.2508 55.0011 40.278 53.9888 42.1232 53.2557C43.9346 52.5361 46.372 52.16 48.8144 52.16C51.2568 52.16 53.6942 52.5361 55.5056 53.2557C57.3507 53.9888 58.3779 55.0011 58.3779 56.1878C58.3779 57.3745 57.3507 58.3868 55.5056 59.1198C53.6942 59.8394 51.2568 60.2155 48.8144 60.2155C46.372 60.2155 43.9346 59.8394 42.1232 59.1198C40.278 58.3868 39.2508 57.3745 39.2508 56.1878Z" stroke="url(#paint13_linear_1701_2182)" stroke-opacity="0.1" stroke-width="0.801733"/>
</g>
<path d="M57.6716 49.5455H39.9571C39.3457 49.5455 38.85 50.0413 38.85 50.6527V53.9742C38.85 56.8815 43.8624 58.4028 48.8144 58.4028C53.7663 58.4028 58.7788 56.8815 58.7788 53.9742V50.6527C58.7788 50.0413 58.283 49.5455 57.6716 49.5455Z" fill="#C6C6D0"/>
<g filter="url(#filter7_bi_1701_2182)">
<path d="M48.8144 46.2239C43.8624 46.2239 38.85 47.7451 38.85 50.6525C38.85 53.5599 43.8624 55.0811 48.8144 55.0811C53.7663 55.0811 58.7788 53.5599 58.7788 50.6525C58.7788 47.7451 53.7663 46.2239 48.8144 46.2239Z" fill="url(#paint14_linear_1701_2182)" fill-opacity="0.2"/>
<path d="M39.2508 50.6525C39.2508 49.4658 40.278 48.4535 42.1232 47.7205C43.9346 47.0009 46.372 46.6247 48.8144 46.6247C51.2568 46.6247 53.6942 47.0009 55.5056 47.7205C57.3507 48.4535 58.3779 49.4658 58.3779 50.6525C58.3779 51.8392 57.3507 52.8515 55.5056 53.5845C53.6942 54.3041 51.2568 54.6803 48.8144 54.6803C46.372 54.6803 43.9346 54.3041 42.1232 53.5845C40.278 52.8515 39.2508 51.8392 39.2508 50.6525Z" stroke="url(#paint15_linear_1701_2182)" stroke-opacity="0.1" stroke-width="0.801733"/>
</g>
<path d="M57.6716 44.0096H39.9571C39.3457 44.0096 38.85 44.5054 38.85 45.1168V48.4383C38.85 51.3456 43.8624 52.8669 48.8144 52.8669C53.7663 52.8669 58.7788 51.3456 58.7788 48.4383V45.1168C58.7788 44.5054 58.283 44.0096 57.6716 44.0096Z" fill="#C6C6D0"/>
<g filter="url(#filter8_bi_1701_2182)">
<path d="M48.8144 40.688C43.8624 40.688 38.85 42.2092 38.85 45.1166C38.85 48.024 43.8624 49.5452 48.8144 49.5452C53.7663 49.5452 58.7788 48.024 58.7788 45.1166C58.7788 42.2092 53.7663 40.688 48.8144 40.688Z" fill="url(#paint16_linear_1701_2182)" fill-opacity="0.2"/>
<path d="M39.2508 45.1166C39.2508 43.9299 40.278 42.9176 42.1232 42.1846C43.9346 41.465 46.372 41.0889 48.8144 41.0889C51.2568 41.0889 53.6942 41.465 55.5056 42.1846C57.3507 42.9176 58.3779 43.9299 58.3779 45.1166C58.3779 46.3033 57.3507 47.3156 55.5056 48.0486C53.6942 48.7682 51.2568 49.1444 48.8144 49.1444C46.372 49.1444 43.9346 48.7682 42.1232 48.0486C40.278 47.3156 39.2508 46.3033 39.2508 45.1166Z" stroke="url(#paint17_linear_1701_2182)" stroke-opacity="0.1" stroke-width="0.801733"/>
</g>
<path d="M57.6716 38.4736H39.9571C39.3457 38.4736 38.85 38.9694 38.85 39.5808V42.9023C38.85 45.8096 43.8624 47.3309 48.8144 47.3309C53.7663 47.3309 58.7788 45.8096 58.7788 42.9023V39.5808C58.7788 38.9694 58.283 38.4736 57.6716 38.4736Z" fill="#C6C6D0"/>
<g filter="url(#filter9_bi_1701_2182)">
<path d="M48.8144 35.1517C43.8624 35.1517 38.85 36.673 38.85 39.5804C38.85 42.4877 43.8624 44.009 48.8144 44.009C53.7663 44.009 58.7788 42.4877 58.7788 39.5804C58.7788 36.673 53.7663 35.1517 48.8144 35.1517Z" fill="url(#paint18_linear_1701_2182)" fill-opacity="0.2"/>
<path d="M39.2508 39.5804C39.2508 38.3936 40.278 37.3814 42.1232 36.6483C43.9346 35.9287 46.372 35.5526 48.8144 35.5526C51.2568 35.5526 53.6942 35.9287 55.5056 36.6483C57.3507 37.3814 58.3779 38.3936 58.3779 39.5804C58.3779 40.7671 57.3507 41.7793 55.5056 42.5124C53.6942 43.232 51.2568 43.6081 48.8144 43.6081C46.372 43.6081 43.9346 43.232 42.1232 42.5124C40.278 41.7793 39.2508 40.7671 39.2508 39.5804Z" stroke="url(#paint19_linear_1701_2182)" stroke-opacity="0.1" stroke-width="0.801733"/>
</g>
<path d="M57.6716 32.938H39.9571C39.3457 32.938 38.85 33.4337 38.85 34.0451V37.3666C38.85 40.274 43.8624 41.7952 48.8144 41.7952C53.7663 41.7952 58.7788 40.274 58.7788 37.3666V34.0451C58.7788 33.4337 58.283 32.938 57.6716 32.938Z" fill="#C6C6D0"/>
<g filter="url(#filter10_bi_1701_2182)">
<path d="M48.8144 29.6165C43.8624 29.6165 38.85 31.1377 38.85 34.0451C38.85 36.9524 43.8624 38.4737 48.8144 38.4737C53.7663 38.4737 58.7788 36.9524 58.7788 34.0451C58.7788 31.1377 53.7663 29.6165 48.8144 29.6165Z" fill="url(#paint20_linear_1701_2182)" fill-opacity="0.2"/>
<path d="M39.2508 34.0451C39.2508 32.8584 40.278 31.8461 42.1232 31.113C43.9346 30.3934 46.372 30.0173 48.8144 30.0173C51.2568 30.0173 53.6942 30.3934 55.5056 31.113C57.3507 31.8461 58.3779 32.8584 58.3779 34.0451C58.3779 35.2318 57.3507 36.2441 55.5056 36.9771C53.6942 37.6967 51.2568 38.0728 48.8144 38.0728C46.372 38.0728 43.9346 37.6967 42.1232 36.9771C40.278 36.2441 39.2508 35.2318 39.2508 34.0451Z" stroke="url(#paint21_linear_1701_2182)" stroke-opacity="0.1" stroke-width="0.801733"/>
</g>
<path d="M57.6716 27.4022H39.9571C39.3457 27.4022 38.85 27.898 38.85 28.5094V31.8308C38.85 34.7382 43.8624 36.2595 48.8144 36.2595C53.7663 36.2595 58.7788 34.7382 58.7788 31.8308V28.5094C58.7788 27.898 58.283 27.4022 57.6716 27.4022Z" fill="#C6C6D0"/>
<g filter="url(#filter11_bi_1701_2182)">
<path d="M48.8144 24.0808C43.8624 24.0808 38.85 25.6021 38.85 28.5094C38.85 31.4168 43.8624 32.9381 48.8144 32.9381C53.7663 32.9381 58.7788 31.4168 58.7788 28.5094C58.7788 25.6021 53.7663 24.0808 48.8144 24.0808Z" fill="url(#paint22_linear_1701_2182)" fill-opacity="0.2"/>
<path d="M39.2508 28.5094C39.2508 27.3227 40.278 26.3104 42.1232 25.5774C43.9346 24.8578 46.372 24.4817 48.8144 24.4817C51.2568 24.4817 53.6942 24.8578 55.5056 25.5774C57.3507 26.3104 58.3779 27.3227 58.3779 28.5094C58.3779 29.6961 57.3507 30.7084 55.5056 31.4415C53.6942 32.1611 51.2568 32.5372 48.8144 32.5372C46.372 32.5372 43.9346 32.1611 42.1232 31.4415C40.278 30.7084 39.2508 29.6961 39.2508 28.5094Z" stroke="url(#paint23_linear_1701_2182)" stroke-opacity="0.1" stroke-width="0.801733"/>
</g>
<defs>
<filter id="filter0_bi_1701_2182" x="7.31433" y="29.082" width="51.9981" height="40.9266" filterUnits="userSpaceOnUse" color-interpolation-filters="sRGB">
<feFlood flood-opacity="0" result="BackgroundImageFix"/>
<feGaussianBlur in="BackgroundImageFix" stdDeviation="8.01733"/>
<feComposite in2="SourceAlpha" operator="in" result="effect1_backgroundBlur_1701_2182"/>
<feBlend mode="normal" in="SourceGraphic" in2="effect1_backgroundBlur_1701_2182" result="shape"/>
<feColorMatrix in="SourceAlpha" type="matrix" values="0 0 0 0 0 0 0 0 0 0 0 0 0 0 0 0 0 0 127 0" result="hardAlpha"/>
<feOffset dy="5.34489"/>
<feGaussianBlur stdDeviation="4.00867"/>
<feComposite in2="hardAlpha" operator="arithmetic" k2="-1" k3="1"/>
<feColorMatrix type="matrix" values="0 0 0 0 1 0 0 0 0 1 0 0 0 0 1 0 0 0 0.4 0"/>
<feBlend mode="normal" in2="shape" result="effect2_innerShadow_1701_2182"/>
</filter>
<filter id="filter1_bi_1701_2182" x="7.31433" y="23.5463" width="51.9981" height="40.9266" filterUnits="userSpaceOnUse" color-interpolation-filters="sRGB">
<feFlood flood-opacity="0" result="BackgroundImageFix"/>
<feGaussianBlur in="BackgroundImageFix" stdDeviation="8.01733"/>
<feComposite in2="SourceAlpha" operator="in" result="effect1_backgroundBlur_1701_2182"/>
<feBlend mode="normal" in="SourceGraphic" in2="effect1_backgroundBlur_1701_2182" result="shape"/>
<feColorMatrix in="SourceAlpha" type="matrix" values="0 0 0 0 0 0 0 0 0 0 0 0 0 0 0 0 0 0 127 0" result="hardAlpha"/>
<feOffset dy="5.34489"/>
<feGaussianBlur stdDeviation="4.00867"/>
<feComposite in2="hardAlpha" operator="arithmetic" k2="-1" k3="1"/>
<feColorMatrix type="matrix" values="0 0 0 0 1 0 0 0 0 1 0 0 0 0 1 0 0 0 0.4 0"/>
<feBlend mode="normal" in2="shape" result="effect2_innerShadow_1701_2182"/>
</filter>
<filter id="filter2_bi_1701_2182" x="7.31433" y="18.0105" width="51.9981" height="40.9266" filterUnits="userSpaceOnUse" color-interpolation-filters="sRGB">
<feFlood flood-opacity="0" result="BackgroundImageFix"/>
<feGaussianBlur in="BackgroundImageFix" stdDeviation="8.01733"/>
<feComposite in2="SourceAlpha" operator="in" result="effect1_backgroundBlur_1701_2182"/>
<feBlend mode="normal" in="SourceGraphic" in2="effect1_backgroundBlur_1701_2182" result="shape"/>
<feColorMatrix in="SourceAlpha" type="matrix" values="0 0 0 0 0 0 0 0 0 0 0 0 0 0 0 0 0 0 127 0" result="hardAlpha"/>
<feOffset dy="5.34489"/>
<feGaussianBlur stdDeviation="4.00867"/>
<feComposite in2="hardAlpha" operator="arithmetic" k2="-1" k3="1"/>
<feColorMatrix type="matrix" values="0 0 0 0 1 0 0 0 0 1 0 0 0 0 1 0 0 0 0.4 0"/>
<feBlend mode="normal" in2="shape" result="effect2_innerShadow_1701_2182"/>
</filter>
<filter id="filter3_bi_1701_2182" x="7.31433" y="12.4747" width="51.9981" height="40.9266" filterUnits="userSpaceOnUse" color-interpolation-filters="sRGB">
<feFlood flood-opacity="0" result="BackgroundImageFix"/>
<feGaussianBlur in="BackgroundImageFix" stdDeviation="8.01733"/>
<feComposite in2="SourceAlpha" operator="in" result="effect1_backgroundBlur_1701_2182"/>
<feBlend mode="normal" in="SourceGraphic" in2="effect1_backgroundBlur_1701_2182" result="shape"/>
<feColorMatrix in="SourceAlpha" type="matrix" values="0 0 0 0 0 0 0 0 0 0 0 0 0 0 0 0 0 0 127 0" result="hardAlpha"/>
<feOffset dy="5.34489"/>
<feGaussianBlur stdDeviation="4.00867"/>
<feComposite in2="hardAlpha" operator="arithmetic" k2="-1" k3="1"/>
<feColorMatrix type="matrix" values="0 0 0 0 1 0 0 0 0 1 0 0 0 0 1 0 0 0 0.4 0"/>
<feBlend mode="normal" in2="shape" result="effect2_innerShadow_1701_2182"/>
</filter>
<filter id="filter4_bi_1701_2182" x="7.31433" y="6.93885" width="51.9981" height="40.9266" filterUnits="userSpaceOnUse" color-interpolation-filters="sRGB">
<feFlood flood-opacity="0" result="BackgroundImageFix"/>
<feGaussianBlur in="BackgroundImageFix" stdDeviation="8.01733"/>
<feComposite in2="SourceAlpha" operator="in" result="effect1_backgroundBlur_1701_2182"/>
<feBlend mode="normal" in="SourceGraphic" in2="effect1_backgroundBlur_1701_2182" result="shape"/>
<feColorMatrix in="SourceAlpha" type="matrix" values="0 0 0 0 0 0 0 0 0 0 0 0 0 0 0 0 0 0 127 0" result="hardAlpha"/>
<feOffset dy="5.34489"/>
<feGaussianBlur stdDeviation="4.00867"/>
<feComposite in2="hardAlpha" operator="arithmetic" k2="-1" k3="1"/>
<feColorMatrix type="matrix" values="0 0 0 0 1 0 0 0 0 1 0 0 0 0 1 0 0 0 0.4 0"/>
<feBlend mode="normal" in2="shape" result="effect2_innerShadow_1701_2182"/>
</filter>
<filter id="filter5_bi_1701_2182" x="7.31437" y="1.40308" width="51.9981" height="40.9266" filterUnits="userSpaceOnUse" color-interpolation-filters="sRGB">
<feFlood flood-opacity="0" result="BackgroundImageFix"/>
<feGaussianBlur in="BackgroundImageFix" stdDeviation="8.01733"/>
<feComposite in2="SourceAlpha" operator="in" result="effect1_backgroundBlur_1701_2182"/>
<feBlend mode="normal" in="SourceGraphic" in2="effect1_backgroundBlur_1701_2182" result="shape"/>
<feColorMatrix in="SourceAlpha" type="matrix" values="0 0 0 0 0 0 0 0 0 0 0 0 0 0 0 0 0 0 127 0" result="hardAlpha"/>
<feOffset dy="5.34489"/>
<feGaussianBlur stdDeviation="4.00867"/>
<feComposite in2="hardAlpha" operator="arithmetic" k2="-1" k3="1"/>
<feColorMatrix type="matrix" values="0 0 0 0 1 0 0 0 0 1 0 0 0 0 1 0 0 0 0.4 0"/>
<feBlend mode="normal" in2="shape" result="effect2_innerShadow_1701_2182"/>
</filter>
<filter id="filter6_bi_1701_2182" x="22.8153" y="35.7245" width="51.9981" height="40.9266" filterUnits="userSpaceOnUse" color-interpolation-filters="sRGB">
<feFlood flood-opacity="0" result="BackgroundImageFix"/>
<feGaussianBlur in="BackgroundImageFix" stdDeviation="8.01733"/>
<feComposite in2="SourceAlpha" operator="in" result="effect1_backgroundBlur_1701_2182"/>
<feBlend mode="normal" in="SourceGraphic" in2="effect1_backgroundBlur_1701_2182" result="shape"/>
<feColorMatrix in="SourceAlpha" type="matrix" values="0 0 0 0 0 0 0 0 0 0 0 0 0 0 0 0 0 0 127 0" result="hardAlpha"/>
<feOffset dy="5.34489"/>
<feGaussianBlur stdDeviation="4.00867"/>
<feComposite in2="hardAlpha" operator="arithmetic" k2="-1" k3="1"/>
<feColorMatrix type="matrix" values="0 0 0 0 1 0 0 0 0 1 0 0 0 0 1 0 0 0 0.4 0"/>
<feBlend mode="normal" in2="shape" result="effect2_innerShadow_1701_2182"/>
</filter>
<filter id="filter7_bi_1701_2182" x="22.8153" y="30.1892" width="51.9981" height="40.9266" filterUnits="userSpaceOnUse" color-interpolation-filters="sRGB">
<feFlood flood-opacity="0" result="BackgroundImageFix"/>
<feGaussianBlur in="BackgroundImageFix" stdDeviation="8.01733"/>
<feComposite in2="SourceAlpha" operator="in" result="effect1_backgroundBlur_1701_2182"/>
<feBlend mode="normal" in="SourceGraphic" in2="effect1_backgroundBlur_1701_2182" result="shape"/>
<feColorMatrix in="SourceAlpha" type="matrix" values="0 0 0 0 0 0 0 0 0 0 0 0 0 0 0 0 0 0 127 0" result="hardAlpha"/>
<feOffset dy="5.34489"/>
<feGaussianBlur stdDeviation="4.00867"/>
<feComposite in2="hardAlpha" operator="arithmetic" k2="-1" k3="1"/>
<feColorMatrix type="matrix" values="0 0 0 0 1 0 0 0 0 1 0 0 0 0 1 0 0 0 0.4 0"/>
<feBlend mode="normal" in2="shape" result="effect2_innerShadow_1701_2182"/>
</filter>
<filter id="filter8_bi_1701_2182" x="22.8153" y="24.6533" width="51.9981" height="40.9266" filterUnits="userSpaceOnUse" color-interpolation-filters="sRGB">
<feFlood flood-opacity="0" result="BackgroundImageFix"/>
<feGaussianBlur in="BackgroundImageFix" stdDeviation="8.01733"/>
<feComposite in2="SourceAlpha" operator="in" result="effect1_backgroundBlur_1701_2182"/>
<feBlend mode="normal" in="SourceGraphic" in2="effect1_backgroundBlur_1701_2182" result="shape"/>
<feColorMatrix in="SourceAlpha" type="matrix" values="0 0 0 0 0 0 0 0 0 0 0 0 0 0 0 0 0 0 127 0" result="hardAlpha"/>
<feOffset dy="5.34489"/>
<feGaussianBlur stdDeviation="4.00867"/>
<feComposite in2="hardAlpha" operator="arithmetic" k2="-1" k3="1"/>
<feColorMatrix type="matrix" values="0 0 0 0 1 0 0 0 0 1 0 0 0 0 1 0 0 0 0.4 0"/>
<feBlend mode="normal" in2="shape" result="effect2_innerShadow_1701_2182"/>
</filter>
<filter id="filter9_bi_1701_2182" x="22.8153" y="19.1171" width="51.9981" height="40.9266" filterUnits="userSpaceOnUse" color-interpolation-filters="sRGB">
<feFlood flood-opacity="0" result="BackgroundImageFix"/>
<feGaussianBlur in="BackgroundImageFix" stdDeviation="8.01733"/>
<feComposite in2="SourceAlpha" operator="in" result="effect1_backgroundBlur_1701_2182"/>
<feBlend mode="normal" in="SourceGraphic" in2="effect1_backgroundBlur_1701_2182" result="shape"/>
<feColorMatrix in="SourceAlpha" type="matrix" values="0 0 0 0 0 0 0 0 0 0 0 0 0 0 0 0 0 0 127 0" result="hardAlpha"/>
<feOffset dy="5.34489"/>
<feGaussianBlur stdDeviation="4.00867"/>
<feComposite in2="hardAlpha" operator="arithmetic" k2="-1" k3="1"/>
<feColorMatrix type="matrix" values="0 0 0 0 1 0 0 0 0 1 0 0 0 0 1 0 0 0 0.4 0"/>
<feBlend mode="normal" in2="shape" result="effect2_innerShadow_1701_2182"/>
</filter>
<filter id="filter10_bi_1701_2182" x="22.8153" y="13.5818" width="51.9981" height="40.9266" filterUnits="userSpaceOnUse" color-interpolation-filters="sRGB">
<feFlood flood-opacity="0" result="BackgroundImageFix"/>
<feGaussianBlur in="BackgroundImageFix" stdDeviation="8.01733"/>
<feComposite in2="SourceAlpha" operator="in" result="effect1_backgroundBlur_1701_2182"/>
<feBlend mode="normal" in="SourceGraphic" in2="effect1_backgroundBlur_1701_2182" result="shape"/>
<feColorMatrix in="SourceAlpha" type="matrix" values="0 0 0 0 0 0 0 0 0 0 0 0 0 0 0 0 0 0 127 0" result="hardAlpha"/>
<feOffset dy="5.34489"/>
<feGaussianBlur stdDeviation="4.00867"/>
<feComposite in2="hardAlpha" operator="arithmetic" k2="-1" k3="1"/>
<feColorMatrix type="matrix" values="0 0 0 0 1 0 0 0 0 1 0 0 0 0 1 0 0 0 0.4 0"/>
<feBlend mode="normal" in2="shape" result="effect2_innerShadow_1701_2182"/>
</filter>
<filter id="filter11_bi_1701_2182" x="22.8153" y="8.04615" width="51.9981" height="40.9266" filterUnits="userSpaceOnUse" color-interpolation-filters="sRGB">
<feFlood flood-opacity="0" result="BackgroundImageFix"/>
<feGaussianBlur in="BackgroundImageFix" stdDeviation="8.01733"/>
<feComposite in2="SourceAlpha" operator="in" result="effect1_backgroundBlur_1701_2182"/>
<feBlend mode="normal" in="SourceGraphic" in2="effect1_backgroundBlur_1701_2182" result="shape"/>
<feColorMatrix in="SourceAlpha" type="matrix" values="0 0 0 0 0 0 0 0 0 0 0 0 0 0 0 0 0 0 127 0" result="hardAlpha"/>
<feOffset dy="5.34489"/>
<feGaussianBlur stdDeviation="4.00867"/>
<feComposite in2="hardAlpha" operator="arithmetic" k2="-1" k3="1"/>
<feColorMatrix type="matrix" values="0 0 0 0 1 0 0 0 0 1 0 0 0 0 1 0 0 0 0.4 0"/>
<feBlend mode="normal" in2="shape" result="effect2_innerShadow_1701_2182"/>
</filter>
<linearGradient id="paint0_linear_1701_2182" x1="23.349" y1="45.1167" x2="42.1887" y2="55.8802" gradientUnits="userSpaceOnUse">
<stop stop-color="#BFBFBF"/>
<stop offset="1" stop-color="#9C9C9C"/>
</linearGradient>
<linearGradient id="paint1_linear_1701_2182" x1="23.9718" y1="45.5193" x2="43.2778" y2="45.5193" gradientUnits="userSpaceOnUse">
<stop stop-color="#CCCCCC"/>
<stop offset="1" stop-color="#808080"/>
</linearGradient>
<linearGradient id="paint2_linear_1701_2182" x1="23.349" y1="39.5809" x2="42.1887" y2="50.3444" gradientUnits="userSpaceOnUse">
<stop stop-color="#BFBFBF"/>
<stop offset="1" stop-color="#9C9C9C"/>
</linearGradient>
<linearGradient id="paint3_linear_1701_2182" x1="23.9718" y1="39.9835" x2="43.2778" y2="39.9835" gradientUnits="userSpaceOnUse">
<stop stop-color="#CCCCCC"/>
<stop offset="1" stop-color="#808080"/>
</linearGradient>
<linearGradient id="paint4_linear_1701_2182" x1="23.349" y1="34.0452" x2="42.1887" y2="44.8086" gradientUnits="userSpaceOnUse">
<stop stop-color="#BFBFBF"/>
<stop offset="1" stop-color="#9C9C9C"/>
</linearGradient>
<linearGradient id="paint5_linear_1701_2182" x1="23.9718" y1="34.4478" x2="43.2778" y2="34.4478" gradientUnits="userSpaceOnUse">
<stop stop-color="#CCCCCC"/>
<stop offset="1" stop-color="#808080"/>
</linearGradient>
<linearGradient id="paint6_linear_1701_2182" x1="23.349" y1="28.5094" x2="42.1887" y2="39.2729" gradientUnits="userSpaceOnUse">
<stop stop-color="#BFBFBF"/>
<stop offset="1" stop-color="#9C9C9C"/>
</linearGradient>
<linearGradient id="paint7_linear_1701_2182" x1="23.9718" y1="28.912" x2="43.2778" y2="28.912" gradientUnits="userSpaceOnUse">
<stop stop-color="#CCCCCC"/>
<stop offset="1" stop-color="#808080"/>
</linearGradient>
<linearGradient id="paint8_linear_1701_2182" x1="23.349" y1="22.9735" x2="42.1887" y2="33.737" gradientUnits="userSpaceOnUse">
<stop stop-color="#BFBFBF"/>
<stop offset="1" stop-color="#9C9C9C"/>
</linearGradient>
<linearGradient id="paint9_linear_1701_2182" x1="23.9718" y1="23.3761" x2="43.2778" y2="23.3761" gradientUnits="userSpaceOnUse">
<stop stop-color="#CCCCCC"/>
<stop offset="1" stop-color="#808080"/>
</linearGradient>
<linearGradient id="paint10_linear_1701_2182" x1="23.349" y1="17.4377" x2="42.1888" y2="28.2012" gradientUnits="userSpaceOnUse">
<stop stop-color="#BFBFBF"/>
<stop offset="1" stop-color="#9C9C9C"/>
</linearGradient>
<linearGradient id="paint11_linear_1701_2182" x1="23.9718" y1="17.8403" x2="43.2778" y2="17.8403" gradientUnits="userSpaceOnUse">
<stop stop-color="#CCCCCC"/>
<stop offset="1" stop-color="#808080"/>
</linearGradient>
<linearGradient id="paint12_linear_1701_2182" x1="38.85" y1="51.7592" x2="57.6897" y2="62.5226" gradientUnits="userSpaceOnUse">
<stop stop-color="#BFBFBF"/>
<stop offset="1" stop-color="#9C9C9C"/>
</linearGradient>
<linearGradient id="paint13_linear_1701_2182" x1="39.4728" y1="52.1618" x2="58.7788" y2="52.1618" gradientUnits="userSpaceOnUse">
<stop stop-color="#CCCCCC"/>
<stop offset="1" stop-color="#808080"/>
</linearGradient>
<linearGradient id="paint14_linear_1701_2182" x1="38.85" y1="46.2239" x2="57.6897" y2="56.9873" gradientUnits="userSpaceOnUse">
<stop stop-color="#BFBFBF"/>
<stop offset="1" stop-color="#9C9C9C"/>
</linearGradient>
<linearGradient id="paint15_linear_1701_2182" x1="39.4728" y1="46.6265" x2="58.7788" y2="46.6265" gradientUnits="userSpaceOnUse">
<stop stop-color="#CCCCCC"/>
<stop offset="1" stop-color="#808080"/>
</linearGradient>
<linearGradient id="paint16_linear_1701_2182" x1="38.85" y1="40.688" x2="57.6897" y2="51.4515" gradientUnits="userSpaceOnUse">
<stop stop-color="#BFBFBF"/>
<stop offset="1" stop-color="#9C9C9C"/>
</linearGradient>
<linearGradient id="paint17_linear_1701_2182" x1="39.4728" y1="41.0906" x2="58.7788" y2="41.0906" gradientUnits="userSpaceOnUse">
<stop stop-color="#CCCCCC"/>
<stop offset="1" stop-color="#808080"/>
</linearGradient>
<linearGradient id="paint18_linear_1701_2182" x1="38.85" y1="35.1517" x2="57.6897" y2="45.9152" gradientUnits="userSpaceOnUse">
<stop stop-color="#BFBFBF"/>
<stop offset="1" stop-color="#9C9C9C"/>
</linearGradient>
<linearGradient id="paint19_linear_1701_2182" x1="39.4728" y1="35.5543" x2="58.7788" y2="35.5543" gradientUnits="userSpaceOnUse">
<stop stop-color="#CCCCCC"/>
<stop offset="1" stop-color="#808080"/>
</linearGradient>
<linearGradient id="paint20_linear_1701_2182" x1="38.85" y1="29.6165" x2="57.6897" y2="40.3799" gradientUnits="userSpaceOnUse">
<stop stop-color="#BFBFBF"/>
<stop offset="1" stop-color="#9C9C9C"/>
</linearGradient>
<linearGradient id="paint21_linear_1701_2182" x1="39.4728" y1="30.0191" x2="58.7788" y2="30.0191" gradientUnits="userSpaceOnUse">
<stop stop-color="#CCCCCC"/>
<stop offset="1" stop-color="#808080"/>
</linearGradient>
<linearGradient id="paint22_linear_1701_2182" x1="38.85" y1="24.0808" x2="57.6897" y2="34.8443" gradientUnits="userSpaceOnUse">
<stop stop-color="#BFBFBF"/>
<stop offset="1" stop-color="#9C9C9C"/>
</linearGradient>
<linearGradient id="paint23_linear_1701_2182" x1="39.4728" y1="24.4834" x2="58.7788" y2="24.4834" gradientUnits="userSpaceOnUse">
<stop stop-color="#CCCCCC"/>
<stop offset="1" stop-color="#808080"/>
</linearGradient>
</defs>
</svg>
