<svg width="25" height="24" viewBox="0 0 25 24" fill="none" xmlns="http://www.w3.org/2000/svg">
<path d="M23.3 11.95C23.3 15.7884 20.1884 18.9 16.35 18.9C12.5116 18.9 9.39999 15.7884 9.39999 11.95C9.39999 8.11162 12.5116 5 16.35 5C20.1884 5 23.3 8.11162 23.3 11.95Z" fill="#464656"/>
<g filter="url(#filter0_b_589_506)">
<path d="M15.7 11.95C15.7 15.7884 12.5884 18.9 8.74999 18.9C4.91161 18.9 1.79999 15.7884 1.79999 11.95C1.79999 8.11162 4.91161 5 8.74999 5C12.5884 5 15.7 8.11162 15.7 11.95Z" fill="url(#paint0_linear_589_506)" fill-opacity="0.3"/>
<path d="M15.65 11.95C15.65 15.7608 12.5608 18.85 8.74999 18.85C4.93922 18.85 1.84999 15.7608 1.84999 11.95C1.84999 8.13924 4.93922 5.05 8.74999 5.05C12.5608 5.05 15.65 8.13924 15.65 11.95Z" stroke="url(#paint1_linear_589_506)" stroke-width="0.1"/>
<path d="M15.65 11.95C15.65 15.7608 12.5608 18.85 8.74999 18.85C4.93922 18.85 1.84999 15.7608 1.84999 11.95C1.84999 8.13924 4.93922 5.05 8.74999 5.05C12.5608 5.05 15.65 8.13924 15.65 11.95Z" stroke="url(#paint2_radial_589_506)" stroke-width="0.1"/>
</g>
<path d="M5.90001 11.4501C5.90001 11.9195 5.51945 12.3001 5.05001 12.3001C4.58057 12.3001 4.20001 11.9195 4.20001 11.4501C4.20001 10.9807 4.58057 10.6001 5.05001 10.6001C5.51945 10.6001 5.90001 10.9807 5.90001 11.4501Z" fill="white"/>
<path d="M10.8 11.4501C10.8 11.9195 10.4194 12.3001 9.95001 12.3001C9.48056 12.3001 9.10001 11.9195 9.10001 11.4501C9.10001 10.9807 9.48056 10.6001 9.95001 10.6001C10.4194 10.6001 10.8 10.9807 10.8 11.4501Z" fill="white"/>
<path d="M16 11.4501C16 11.9195 15.6194 12.3001 15.15 12.3001C14.6805 12.3001 14.3 11.9195 14.3 11.4501C14.3 10.9807 14.6805 10.6001 15.15 10.6001C15.6194 10.6001 16 10.9807 16 11.4501Z" fill="white"/>
<path d="M20.9 11.4501C20.9 11.9195 20.5194 12.3001 20.05 12.3001C19.5805 12.3001 19.2 11.9195 19.2 11.4501C19.2 10.9807 19.5805 10.6001 20.05 10.6001C20.5194 10.6001 20.9 10.9807 20.9 11.4501Z" fill="white"/>
<defs>
<filter id="filter0_b_589_506" x="-1.20001" y="2" width="19.9" height="19.8999" filterUnits="userSpaceOnUse" color-interpolation-filters="sRGB">
<feFlood flood-opacity="0" result="BackgroundImageFix"/>
<feGaussianBlur in="BackgroundImageFix" stdDeviation="1.5"/>
<feComposite in2="SourceAlpha" operator="in" result="effect1_backgroundBlur_589_506"/>
<feBlend mode="normal" in="SourceGraphic" in2="effect1_backgroundBlur_589_506" result="shape"/>
</filter>
<linearGradient id="paint0_linear_589_506" x1="3.28744" y1="6.28244" x2="18.2907" y2="14.0509" gradientUnits="userSpaceOnUse">
<stop stop-color="#B4B4B4" stop-opacity="0.9"/>
<stop offset="0.447036" stop-color="#B3B3B3" stop-opacity="0.955296"/>
<stop offset="1" stop-color="#666666" stop-opacity="0.9"/>
</linearGradient>
<linearGradient id="paint1_linear_589_506" x1="3.80036" y1="4.50357" x2="16.8293" y2="12.1107" gradientUnits="userSpaceOnUse">
<stop offset="0.188941" stop-color="#EAE7FF" stop-opacity="0.523483"/>
<stop offset="0.526042" stop-color="#C5C5C5"/>
<stop offset="1" stop-color="#C7B4FF" stop-opacity="0.1"/>
</linearGradient>
<radialGradient id="paint2_radial_589_506" cx="0" cy="0" r="1" gradientUnits="userSpaceOnUse" gradientTransform="translate(3.87729 18.4449) rotate(-50.9773) scale(10.9161 17.849)">
<stop stop-color="white"/>
<stop offset="1" stop-color="white" stop-opacity="0"/>
</radialGradient>
</defs>
</svg>
