<svg width="25" height="14" viewBox="0 0 25 14" fill="none" xmlns="http://www.w3.org/2000/svg">
<path d="M16.7118 11.0066C16.7118 11.7434 17.464 12.0044 19.7513 12.0044C22.0232 12.0044 22.76 11.7434 22.76 11.0066C22.76 10.2697 22.0232 10.0088 19.7513 10.0088C17.464 10.0088 16.7118 10.2697 16.7118 11.0066ZM18.2162 3.65351V0.859649C18.2162 0.53728 18.4004 0.35307 18.7228 0.35307H19.782C20.1043 0.35307 20.2885 0.53728 20.2885 0.859649V3.30044C20.2885 4.3443 20.703 4.91228 21.4859 4.98904C21.8083 5.01974 21.9618 5.17325 21.9618 5.48026V6.57018C21.9618 6.89254 21.7929 7.0614 21.4859 7.0614C20.396 7.0614 19.6285 6.50877 19.3061 5.51097C19.0144 6.49342 18.3697 7.0614 17.5254 7.0614C16.6811 7.0614 16.0364 6.49342 15.7447 5.51097C15.4223 6.50877 14.6548 7.0614 13.5649 7.0614C13.2578 7.0614 13.089 6.89254 13.089 6.57018V5.48026C13.089 5.17325 13.2425 5.01974 13.5649 4.98904C14.3478 4.91228 14.7622 4.3443 14.7622 3.30044V0.859649C14.7622 0.53728 14.9464 0.35307 15.2688 0.35307H16.328C16.6504 0.35307 16.8346 0.53728 16.8346 0.859649V3.73026C16.8346 4.58991 17.0495 4.98904 17.5254 4.98904C18.0013 4.98904 18.2162 4.58991 18.2162 3.65351ZM14.5013 11.0066C14.5013 8.99561 16.2206 8.01316 19.7513 8.01316C23.2666 8.01316 24.9859 8.99561 24.9859 11.0066C24.9859 13.0175 23.2666 14 19.7513 14C16.2206 14 14.5013 13.0175 14.5013 11.0066ZM22.5758 0.475876C22.5758 0.168859 22.7447 0 23.0517 0H24.1723C24.4793 0 24.6482 0.168859 24.6482 0.475876V6.98465C24.6482 7.29167 24.4793 7.46053 24.1723 7.46053H23.0517C22.7447 7.46053 22.5758 7.29167 22.5758 6.98465V0.475876Z" fill="#552FE9"/>
<path d="M10.4079 10.1164C9.99341 10.1471 9.74779 10.316 9.74779 10.7611V12.7107C9.74779 13.0331 9.57893 13.2173 9.25657 13.2173H8.0285C7.70613 13.2173 7.52192 13.0331 7.52192 12.7107V11.0375C7.52192 10.669 7.70613 10.362 7.98245 10.2392C7.01534 10.2546 5.49561 10.2546 5.03508 10.2546C4.58991 10.2546 4.37499 10.4848 4.37499 10.8993V12.7107C4.37499 13.0331 4.20613 13.2173 3.88377 13.2173H2.6557C2.33333 13.2173 2.14912 13.0331 2.14912 12.7107V11.0221C2.14912 10.6537 2.33333 10.3313 2.60965 10.1932C1.79605 10.1625 1.10526 10.0857 0.506578 9.99359C0.153509 9.94754 0 9.79403 0 9.50237V8.3664C0 8.04403 0.18421 7.85982 0.506578 7.90587C1.82675 8.07473 3.85307 8.16684 6.00219 8.16684C8.39692 8.16684 10.5767 8.05938 11.5285 7.90587C11.8509 7.84447 12.0504 8.04403 12.0504 8.3664V9.50237C12.0504 9.77868 11.8969 9.94754 11.5438 9.99359C11.2061 10.0396 10.807 10.0857 10.4079 10.1164ZM1.27412 3.56158C1.27412 2.51772 1.30482 1.56596 1.36623 0.813768C1.39693 0.506751 1.58114 0.337891 1.93421 0.337891H3.14693C3.45394 0.337891 3.60745 0.506751 3.5921 0.84447C3.54605 1.53526 3.5 2.33351 3.5 3.42342C3.5 4.51333 3.97587 4.94315 5.20394 4.94315C6.93859 4.94315 9.057 4.82035 10.5921 4.59008C10.8991 4.54403 11.0833 4.71289 11.114 5.03526L11.2368 6.17123C11.2675 6.46289 11.0987 6.6164 10.7763 6.66245C9.27192 6.87737 7.1535 7.01552 5.14254 7.01552C2.50219 7.01552 1.27412 5.94096 1.27412 3.56158Z" fill="#552FE9"/>
</svg>
