<svg width="39" height="14" viewBox="0 0 39 14" fill="none" xmlns="http://www.w3.org/2000/svg">
<path d="M5.985 11.19C3.78 11.19 3.39 11.28 3.39 11.595C3.39 11.925 3.855 11.985 6.81 11.985C8.04 11.985 9.915 11.895 10.905 11.715C11.145 11.67 11.31 11.79 11.325 12.03L11.4 13.005C11.415 13.215 11.28 13.365 11.055 13.395C9.975 13.545 8.055 13.665 6.825 13.665C2.49 13.665 1.215 13.155 1.215 11.565C1.215 9.99 2.685 9.51 5.955 9.51C6.78 9.51 7.725 9.495 8.385 9.495C8.775 9.495 8.94 9.39 8.94 9.18C8.94 8.955 8.79 8.85 8.415 8.85C6.99 8.85 3.675 8.955 1.905 9.105C1.665 9.12 1.515 8.985 1.515 8.745V7.77C1.515 7.545 1.635 7.425 1.905 7.41C4.17 7.245 7.275 7.155 9.6 7.23C10.56 7.26 11.1 7.68 11.1 8.4C11.1 8.985 10.77 9.45 10.23 9.645H10.59C10.815 9.645 10.98 9.78 10.98 9.99V10.875C10.98 11.085 10.83 11.235 10.59 11.235C9.495 11.235 8.73 11.19 5.985 11.19ZM3.69 4.44C3.27 5.565 1.995 6.45 0.495 6.45C0.165 6.45 0 6.27 0 5.985V4.86C0 4.575 0.165 4.425 0.495 4.425C1.71 4.425 2.58 3.63 2.58 2.34V0.884999C2.58 0.539999 2.76 0.345 3.075 0.345H4.275C4.575 0.345 4.755 0.539999 4.755 0.884999V2.34C4.755 3.63 5.625 4.425 6.84 4.425C7.155 4.425 7.305 4.575 7.305 4.86V5.985C7.305 6.285 7.155 6.45 6.84 6.45C5.37 6.45 4.095 5.55 3.69 4.44ZM8.82 0.495C8.82 0.179999 9 0 9.315 0H10.5C10.815 0 10.995 0.179999 10.995 0.495V6.045C10.995 6.36 10.815 6.54 10.5 6.54H9.315C9 6.54 8.82 6.36 8.82 6.045V0.495Z" fill="#552FE9"/>
<path d="M16.4341 8.82C16.0291 10.155 14.7541 11.19 13.2391 11.4C12.9241 11.445 12.7441 11.28 12.7441 10.98V9.855C12.7441 9.57 12.9091 9.42 13.2391 9.375C14.4091 9.21 15.3241 7.815 15.3241 6.27V1.485C15.3241 1.14 15.5041 0.944999 15.8191 0.944999H17.0191C17.3191 0.944999 17.4991 1.14 17.4991 1.485V6.27C17.4991 7.815 18.4141 9.21 19.5841 9.375C19.8991 9.42 20.0491 9.57 20.0491 9.855V10.98C20.0491 11.28 19.8991 11.445 19.5841 11.4C18.0841 11.19 16.8241 10.14 16.4341 8.82ZM21.5641 0.495C21.5641 0.179999 21.7441 0 22.0591 0H23.2441C23.5591 0 23.7391 0.179999 23.7391 0.495V12.945C23.7391 13.26 23.5591 13.44 23.2441 13.44H22.0591C21.7441 13.44 21.5641 13.26 21.5641 12.945V0.495Z" fill="#552FE9"/>
<path d="M32.0583 7.11C31.9833 7.38 31.8183 7.5 31.4733 7.5H30.2733C29.9433 7.5 29.7933 7.32 29.8833 7.035C30.2133 5.925 30.4233 4.38 30.4233 3.45C30.4233 2.625 30.1833 2.37 29.4183 2.37C28.3233 2.37 27.1683 2.505 26.1783 2.64C25.8933 2.685 25.7133 2.49 25.7133 2.175V1.08C25.7133 0.795 25.8483 0.66 26.1783 0.614999C27.5133 0.42 28.7283 0.345 29.7483 0.345C31.7583 0.345 32.6133 1.2 32.6133 3.195C32.6133 4.29 32.3283 6.12 32.0583 7.11ZM36.1833 8.895C36.1833 9.21 36.0033 9.39 35.6883 9.39H34.5033C34.1883 9.39 34.0083 9.21 34.0083 8.895V0.495C34.0083 0.179999 34.1883 0 34.5033 0H35.6883C36.0033 0 36.1833 0.179999 36.1833 0.495V3.87C36.3483 3.615 36.6933 3.45 37.1133 3.45H37.5933C37.8933 3.45 38.0583 3.615 38.0583 3.915V5.01C38.0583 5.31 37.8933 5.475 37.5933 5.475H37.0533C36.5433 5.475 36.1833 5.82 36.1833 6.3V8.895ZM30.4533 13.665C28.1583 13.665 26.8533 12.585 26.8533 10.695C26.8533 9.945 26.8983 9.6 26.9433 9.24C26.9883 8.925 27.1233 8.745 27.4383 8.745H28.6233C28.9383 8.745 29.1633 8.925 29.1183 9.24C29.0583 9.705 29.0283 9.96 29.0283 10.365C29.0283 11.22 29.5833 11.64 30.7233 11.64C32.5983 11.64 34.4583 11.52 36.0483 11.37C36.3483 11.34 36.4983 11.535 36.5133 11.835L36.5883 12.93C36.6033 13.23 36.4233 13.365 36.1233 13.395C34.6233 13.56 32.9433 13.665 30.4533 13.665Z" fill="#552FE9"/>
</svg>
