<svg width="16" height="16" viewBox="0 0 16 16" fill="none" xmlns="http://www.w3.org/2000/svg">
<path d="M15 8C15 11.866 11.866 15 8 15C4.13401 15 1 11.866 1 8C1 4.13401 4.13401 1 8 1C11.866 1 15 4.13401 15 8Z" fill="#626273"/>
<path d="M10.4669 10.2243C10.7289 10.3117 11.012 10.1701 11.0993 9.90811C11.1867 9.64614 11.0451 9.36298 10.7831 9.27566L10.4669 10.2243ZM8 8.875H7.5C7.5 9.09022 7.63772 9.28128 7.84189 9.34934L8 8.875ZM8.5 5.21623C8.5 4.94009 8.27614 4.71623 8 4.71623C7.72386 4.71623 7.5 4.94009 7.5 5.21623H8.5ZM10.7831 9.27566L8.15811 8.40066L7.84189 9.34934L10.4669 10.2243L10.7831 9.27566ZM8.5 8.875V5.21623H7.5V8.875H8.5ZM14.5 8C14.5 11.5899 11.5899 14.5 8 14.5V15.5C12.1421 15.5 15.5 12.1421 15.5 8H14.5ZM8 14.5C4.41015 14.5 1.5 11.5899 1.5 8H0.5C0.5 12.1421 3.85786 15.5 8 15.5V14.5ZM1.5 8C1.5 4.41015 4.41015 1.5 8 1.5V0.5C3.85786 0.5 0.5 3.85786 0.5 8H1.5ZM8 1.5C11.5899 1.5 14.5 4.41015 14.5 8H15.5C15.5 3.85786 12.1421 0.5 8 0.5V1.5Z" fill="white"/>
</svg>
