<svg width="14" height="14" viewBox="0 0 14 14" fill="none" xmlns="http://www.w3.org/2000/svg">
<path d="M9.09189 8.97434C9.35386 9.06167 9.63702 8.92009 9.72434 8.65811C9.81167 8.39614 9.67009 8.11298 9.40811 8.02566L9.09189 8.97434ZM7 7.75H6.5C6.5 7.96522 6.63772 8.15628 6.84189 8.22434L7 7.75ZM7.5 4.61391C7.5 4.33777 7.27614 4.11391 7 4.11391C6.72386 4.11391 6.5 4.33777 6.5 4.61391H7.5ZM9.40811 8.02566L7.15811 7.27566L6.84189 8.22434L9.09189 8.97434L9.40811 8.02566ZM7.5 7.75V4.61391H6.5V7.75H7.5ZM12.5 7C12.5 10.0376 10.0376 12.5 7 12.5V13.5C10.5899 13.5 13.5 10.5899 13.5 7H12.5ZM7 12.5C3.96243 12.5 1.5 10.0376 1.5 7H0.5C0.5 10.5899 3.41015 13.5 7 13.5V12.5ZM1.5 7C1.5 3.96243 3.96243 1.5 7 1.5V0.5C3.41015 0.5 0.5 3.41015 0.5 7H1.5ZM7 1.5C10.0376 1.5 12.5 3.96243 12.5 7H13.5C13.5 3.41015 10.5899 0.5 7 0.5V1.5Z" fill="#552FE9"/>
</svg>
