<svg width="24" height="24" viewBox="0 0 24 24" fill="none" xmlns="http://www.w3.org/2000/svg">
<g filter="url(#filter0_b_556_1022)">
<path d="M1.39999 11.5647C1.39999 10.454 1.39999 9.89861 1.57512 9.4088C1.71137 9.02772 1.92331 8.67815 2.19819 8.38113C2.55151 7.99935 3.04392 7.74254 4.02875 7.22892L9.6204 4.3127C10.4622 3.87367 10.8831 3.65416 11.3279 3.57253C11.6745 3.50893 12.0296 3.50689 12.3769 3.5665C12.8226 3.643 13.246 3.85765 14.0928 4.28696L19.9212 7.2418C20.9241 7.75025 21.4255 8.00447 21.7857 8.38753C22.0658 8.68551 22.2821 9.03763 22.4212 9.42226C22.6 9.9167 22.6 10.4789 22.6 11.6033V17.5099C22.6 19.2751 22.6 20.1576 22.2402 20.8245C21.9622 21.3396 21.5397 21.7621 21.0246 22.0401C20.3577 22.3999 19.4751 22.3999 17.71 22.3999H6.28999C4.52484 22.3999 3.64227 22.3999 2.97542 22.0401C2.46031 21.7621 2.03775 21.3396 1.7598 20.8245C1.39999 20.1576 1.39999 19.2751 1.39999 17.5099V11.5647Z" fill="url(#paint0_linear_556_1022)" fill-opacity="0.3"/>
<path d="M1.44999 11.5647C1.44999 10.4502 1.45069 9.90533 1.6222 9.42563C1.75618 9.05091 1.96459 8.70716 2.23489 8.41509C2.58091 8.04119 3.06373 7.78861 4.05188 7.27325L9.64352 4.35704C10.4881 3.91656 10.9013 3.70166 11.3369 3.62171C11.6778 3.55917 12.0269 3.55716 12.3684 3.61578C12.805 3.6907 13.2206 3.90083 14.0702 4.33156L19.8986 7.2864C20.9048 7.79656 21.3965 8.04662 21.7492 8.42178C22.0247 8.71479 22.2374 9.06105 22.3742 9.43926C22.5493 9.9235 22.55 10.4751 22.55 11.6033V17.5099C22.55 18.3933 22.55 19.0528 22.5052 19.5748C22.4605 20.0962 22.3715 20.4758 22.1962 20.8007C21.9229 21.3073 21.5074 21.7228 21.0008 21.9961C20.6759 22.1714 20.2963 22.2604 19.7749 22.3051C19.2529 22.3499 18.5934 22.3499 17.71 22.3499H6.28999C5.40655 22.3499 4.74713 22.3499 4.22512 22.3051C3.70373 22.2604 3.32406 22.1714 2.99917 21.9961C2.49263 21.7228 2.07712 21.3073 1.80381 20.8007C1.6285 20.4758 1.53948 20.0962 1.49479 19.5748C1.45004 19.0528 1.44999 18.3933 1.44999 17.5099V11.5647Z" stroke="url(#paint1_linear_556_1022)" stroke-width="0.1"/>
<path d="M1.44999 11.5647C1.44999 10.4502 1.45069 9.90533 1.6222 9.42563C1.75618 9.05091 1.96459 8.70716 2.23489 8.41509C2.58091 8.04119 3.06373 7.78861 4.05188 7.27325L9.64352 4.35704C10.4881 3.91656 10.9013 3.70166 11.3369 3.62171C11.6778 3.55917 12.0269 3.55716 12.3684 3.61578C12.805 3.6907 13.2206 3.90083 14.0702 4.33156L19.8986 7.2864C20.9048 7.79656 21.3965 8.04662 21.7492 8.42178C22.0247 8.71479 22.2374 9.06105 22.3742 9.43926C22.5493 9.9235 22.55 10.4751 22.55 11.6033V17.5099C22.55 18.3933 22.55 19.0528 22.5052 19.5748C22.4605 20.0962 22.3715 20.4758 22.1962 20.8007C21.9229 21.3073 21.5074 21.7228 21.0008 21.9961C20.6759 22.1714 20.2963 22.2604 19.7749 22.3051C19.2529 22.3499 18.5934 22.3499 17.71 22.3499H6.28999C5.40655 22.3499 4.74713 22.3499 4.22512 22.3051C3.70373 22.2604 3.32406 22.1714 2.99917 21.9961C2.49263 21.7228 2.07712 21.3073 1.80381 20.8007C1.6285 20.4758 1.53948 20.0962 1.49479 19.5748C1.45004 19.0528 1.44999 18.3933 1.44999 17.5099V11.5647Z" stroke="url(#paint2_radial_556_1022)" stroke-width="0.1"/>
</g>
<path d="M4.8 11.8937C4.8 10.7925 5.62772 9.8999 6.64876 9.8999H17.2512C18.2723 9.8999 19.1 10.7925 19.1 11.8937V17.3061C19.1 18.4073 18.2723 19.2999 17.2512 19.2999H6.64876C5.62772 19.2999 4.8 18.4073 4.8 17.3061V11.8937Z" fill="#464656"/>
<path d="M8 12.3999H16" stroke="white" stroke-width="0.7" stroke-linecap="round"/>
<path d="M8 14.5999H16" stroke="white" stroke-width="0.7" stroke-linecap="round"/>
<path d="M8 16.8999H12" stroke="white" stroke-width="0.7" stroke-linecap="round"/>
<g filter="url(#filter1_b_556_1022)">
<path d="M1.39999 13.3299C1.39999 11.8351 2.92023 10.6662 4.67434 10.8124L15.909 12.6043C17.436 12.7316 18.6 13.8206 18.6 15.1219V21.533C18.6 22.3591 17.4 22.3591 15.909 22.3591H4.6403C2.89789 22.4873 1.39999 21.3223 1.39999 19.839V13.3299Z" fill="url(#paint3_linear_556_1022)" fill-opacity="0.3"/>
</g>
<g filter="url(#filter2_b_556_1022)">
<path d="M22.6 13.3363C22.6 11.8377 21.0444 10.6659 19.2495 10.8124L7.75355 12.6089C6.19109 12.7365 5.00001 13.8283 5.00001 15.1328V21.5602C5.00001 22.3885 6.25001 22.25 7.75001 22.25L19.2843 22.3885C21.0673 22.5169 22.6 21.349 22.6 19.8619V13.3363Z" fill="url(#paint4_linear_556_1022)" fill-opacity="0.3"/>
</g>
<g filter="url(#filter3_b_556_1022)">
<path d="M1.39999 13.3299C1.39999 11.8351 2.92023 10.6662 4.67434 10.8124L15.909 12.6043C17.436 12.7316 18.6 13.8206 18.6 15.1219V21.533C18.6 22.3591 17.4 22.3591 15.909 22.3591H4.6403C2.89789 22.4873 1.39999 21.3223 1.39999 19.839V13.3299Z" fill="url(#paint5_linear_556_1022)" fill-opacity="0.3"/>
<path d="M15.9051 12.629L15.9051 12.6291L15.907 12.6293C17.4245 12.7557 18.575 13.8368 18.575 15.1219V21.533C18.575 21.7325 18.503 21.8804 18.3729 21.9916C18.2418 22.1039 18.0499 22.1802 17.8084 22.2314C17.3252 22.334 16.6556 22.3341 15.909 22.3341H4.6403V22.3341L4.63847 22.3342C2.9061 22.4616 1.42499 21.3036 1.42499 19.839V13.3299C1.42499 11.8541 2.92768 10.6924 4.67133 10.8372L15.9051 12.629Z" stroke="url(#paint6_linear_556_1022)" stroke-width="0.05"/>
<path d="M15.9051 12.629L15.9051 12.6291L15.907 12.6293C17.4245 12.7557 18.575 13.8368 18.575 15.1219V21.533C18.575 21.7325 18.503 21.8804 18.3729 21.9916C18.2418 22.1039 18.0499 22.1802 17.8084 22.2314C17.3252 22.334 16.6556 22.3341 15.909 22.3341H4.6403V22.3341L4.63847 22.3342C2.9061 22.4616 1.42499 21.3036 1.42499 19.839V13.3299C1.42499 11.8541 2.92768 10.6924 4.67133 10.8372L15.9051 12.629Z" stroke="url(#paint7_radial_556_1022)" stroke-width="0.05"/>
</g>
<g filter="url(#filter4_b_556_1022)">
<path d="M22.6 13.3363C22.6 11.8377 21.0444 10.6659 19.2495 10.8124L7.75355 12.6089C6.19109 12.7365 5.00001 13.8283 5.00001 15.1328V21.5602C5.00001 22.3885 6.25001 22.25 7.75001 22.25L19.2843 22.3885C21.0673 22.5169 22.6 21.349 22.6 19.8619V13.3363Z" fill="url(#paint8_linear_556_1022)" fill-opacity="0.3"/>
<path d="M7.75741 12.6336L7.75742 12.6337L7.75559 12.6338C6.20212 12.7607 5.02501 13.8449 5.02501 15.1328V21.5602C5.02501 21.7598 5.09969 21.8988 5.23357 21.9973C5.36913 22.0971 5.56726 22.1567 5.81592 22.191C6.18444 22.2418 6.6551 22.236 7.17998 22.2296C7.36401 22.2274 7.55471 22.225 7.75001 22.225L7.75031 22.225L19.2846 22.3635L19.2846 22.3635L19.2861 22.3636C21.0596 22.4913 22.575 21.3299 22.575 19.8619V13.3363C22.575 11.8572 21.0375 10.692 19.2525 10.8373L7.75741 12.6336Z" stroke="url(#paint9_linear_556_1022)" stroke-width="0.05"/>
<path d="M7.75741 12.6336L7.75742 12.6337L7.75559 12.6338C6.20212 12.7607 5.02501 13.8449 5.02501 15.1328V21.5602C5.02501 21.7598 5.09969 21.8988 5.23357 21.9973C5.36913 22.0971 5.56726 22.1567 5.81592 22.191C6.18444 22.2418 6.6551 22.236 7.17998 22.2296C7.36401 22.2274 7.55471 22.225 7.75001 22.225L7.75031 22.225L19.2846 22.3635L19.2846 22.3635L19.2861 22.3636C21.0596 22.4913 22.575 21.3299 22.575 19.8619V13.3363C22.575 11.8572 21.0375 10.692 19.2525 10.8373L7.75741 12.6336Z" stroke="url(#paint10_radial_556_1022)" stroke-width="0.05"/>
</g>
<defs>
<filter id="filter0_b_556_1022" x="-1.60001" y="0.523193" width="27.2" height="24.8767" filterUnits="userSpaceOnUse" color-interpolation-filters="sRGB">
<feFlood flood-opacity="0" result="BackgroundImageFix"/>
<feGaussianBlur in="BackgroundImageFix" stdDeviation="1.5"/>
<feComposite in2="SourceAlpha" operator="in" result="effect1_backgroundBlur_556_1022"/>
<feBlend mode="normal" in="SourceGraphic" in2="effect1_backgroundBlur_556_1022" result="shape"/>
</filter>
<filter id="filter1_b_556_1022" x="-1.60001" y="7.80005" width="23.2" height="17.5688" filterUnits="userSpaceOnUse" color-interpolation-filters="sRGB">
<feFlood flood-opacity="0" result="BackgroundImageFix"/>
<feGaussianBlur in="BackgroundImageFix" stdDeviation="1.5"/>
<feComposite in2="SourceAlpha" operator="in" result="effect1_backgroundBlur_556_1022"/>
<feBlend mode="normal" in="SourceGraphic" in2="effect1_backgroundBlur_556_1022" result="shape"/>
</filter>
<filter id="filter2_b_556_1022" x="2" y="7.80005" width="23.6" height="17.5981" filterUnits="userSpaceOnUse" color-interpolation-filters="sRGB">
<feFlood flood-opacity="0" result="BackgroundImageFix"/>
<feGaussianBlur in="BackgroundImageFix" stdDeviation="1.5"/>
<feComposite in2="SourceAlpha" operator="in" result="effect1_backgroundBlur_556_1022"/>
<feBlend mode="normal" in="SourceGraphic" in2="effect1_backgroundBlur_556_1022" result="shape"/>
</filter>
<filter id="filter3_b_556_1022" x="-1.60001" y="7.80005" width="23.2" height="17.5688" filterUnits="userSpaceOnUse" color-interpolation-filters="sRGB">
<feFlood flood-opacity="0" result="BackgroundImageFix"/>
<feGaussianBlur in="BackgroundImageFix" stdDeviation="1.5"/>
<feComposite in2="SourceAlpha" operator="in" result="effect1_backgroundBlur_556_1022"/>
<feBlend mode="normal" in="SourceGraphic" in2="effect1_backgroundBlur_556_1022" result="shape"/>
</filter>
<filter id="filter4_b_556_1022" x="2" y="7.80005" width="23.6" height="17.5981" filterUnits="userSpaceOnUse" color-interpolation-filters="sRGB">
<feFlood flood-opacity="0" result="BackgroundImageFix"/>
<feGaussianBlur in="BackgroundImageFix" stdDeviation="1.5"/>
<feComposite in2="SourceAlpha" operator="in" result="effect1_backgroundBlur_556_1022"/>
<feBlend mode="normal" in="SourceGraphic" in2="effect1_backgroundBlur_556_1022" result="shape"/>
</filter>
<linearGradient id="paint0_linear_556_1022" x1="3.66863" y1="4.92595" x2="25.5658" y2="17.4126" gradientUnits="userSpaceOnUse">
<stop stop-color="#B4B4B4" stop-opacity="0.9"/>
<stop offset="0.447036" stop-color="#B3B3B3" stop-opacity="0.955296"/>
<stop offset="1" stop-color="#666666" stop-opacity="0.9"/>
</linearGradient>
<linearGradient id="paint1_linear_556_1022" x1="4.45092" y1="2.4624" x2="23.3022" y2="14.584" gradientUnits="userSpaceOnUse">
<stop offset="0.188941" stop-color="#EAE7FF" stop-opacity="0.523483"/>
<stop offset="0.526042" stop-color="#C5C5C5"/>
<stop offset="1" stop-color="#C7B4FF" stop-opacity="0.1"/>
</linearGradient>
<radialGradient id="paint2_radial_556_1022" cx="0" cy="0" r="1" gradientUnits="userSpaceOnUse" gradientTransform="translate(4.56826 21.7697) rotate(-48.2499) scale(15.7425 26.1423)">
<stop stop-color="white"/>
<stop offset="1" stop-color="white" stop-opacity="0"/>
</radialGradient>
<linearGradient id="paint3_linear_556_1022" x1="3.24058" y1="11.8674" x2="18.0227" y2="23.2471" gradientUnits="userSpaceOnUse">
<stop stop-color="#B4B4B4" stop-opacity="0.9"/>
<stop offset="0.447036" stop-color="#B3B3B3" stop-opacity="0.955296"/>
<stop offset="1" stop-color="#666666" stop-opacity="0.9"/>
</linearGradient>
<linearGradient id="paint4_linear_556_1022" x1="20.7166" y1="11.8701" x2="5.82216" y2="23.5732" gradientUnits="userSpaceOnUse">
<stop stop-color="#B4B4B4" stop-opacity="0.9"/>
<stop offset="0.447036" stop-color="#B3B3B3" stop-opacity="0.955296"/>
<stop offset="1" stop-color="#666666" stop-opacity="0.9"/>
</linearGradient>
<linearGradient id="paint5_linear_556_1022" x1="3.24058" y1="11.8674" x2="18.0227" y2="23.2471" gradientUnits="userSpaceOnUse">
<stop stop-color="#B4B4B4" stop-opacity="0.9"/>
<stop offset="0.447036" stop-color="#B3B3B3" stop-opacity="0.955296"/>
<stop offset="1" stop-color="#666666" stop-opacity="0.9"/>
</linearGradient>
<linearGradient id="paint6_linear_556_1022" x1="3.87527" y1="10.3869" x2="16.2035" y2="21.0886" gradientUnits="userSpaceOnUse">
<stop offset="0.188941" stop-color="#EAE7FF" stop-opacity="0.523483"/>
<stop offset="0.526042" stop-color="#C5C5C5"/>
<stop offset="1" stop-color="#C7B4FF" stop-opacity="0.1"/>
</linearGradient>
<radialGradient id="paint7_radial_556_1022" cx="0" cy="0" r="1" gradientUnits="userSpaceOnUse" gradientTransform="translate(3.97047 21.9901) rotate(-39.69) scale(11.0522 18.1558)">
<stop stop-color="white"/>
<stop offset="1" stop-color="white" stop-opacity="0"/>
</radialGradient>
<linearGradient id="paint8_linear_556_1022" x1="20.7166" y1="11.8701" x2="5.82216" y2="23.5732" gradientUnits="userSpaceOnUse">
<stop stop-color="#B4B4B4" stop-opacity="0.9"/>
<stop offset="0.447036" stop-color="#B3B3B3" stop-opacity="0.955296"/>
<stop offset="1" stop-color="#666666" stop-opacity="0.9"/>
</linearGradient>
<linearGradient id="paint9_linear_556_1022" x1="20.0672" y1="10.3858" x2="7.67459" y2="21.3657" gradientUnits="userSpaceOnUse">
<stop offset="0.188941" stop-color="#EAE7FF" stop-opacity="0.523483"/>
<stop offset="0.526042" stop-color="#C5C5C5"/>
<stop offset="1" stop-color="#C7B4FF" stop-opacity="0.1"/>
</linearGradient>
<radialGradient id="paint10_radial_556_1022" cx="0" cy="0" r="1" gradientUnits="userSpaceOnUse" gradientTransform="translate(19.9697 22.0185) rotate(-140.885) scale(11.2164 18.3526)">
<stop stop-color="white"/>
<stop offset="1" stop-color="white" stop-opacity="0"/>
</radialGradient>
</defs>
</svg>
