<svg width="49" height="24" viewBox="0 0 49 24" fill="none" xmlns="http://www.w3.org/2000/svg">
<path d="M16.1578 10.0427C16.1738 9.91645 16.182 9.78775 16.182 9.65713C16.182 7.9739 14.813 6.60938 13.1242 6.60938C12.0209 6.60938 11.0541 7.19181 10.5163 8.06503C10.1739 7.93534 9.8025 7.86434 9.41444 7.86434C7.70084 7.86434 6.3117 9.24893 6.3117 10.9569C6.3117 11.1356 6.32691 11.3108 6.35611 11.4812C5.14337 11.8695 4.26569 13.003 4.26569 14.3408C4.26569 15.9768 5.57827 17.3073 7.21104 17.343V17.3438H19.7344L18.5357 16.2692C18.225 15.9908 18.231 15.5061 18.4663 15.1617C18.8267 14.634 19.0374 13.9965 19.0374 13.31C19.0374 11.6343 17.7822 10.2508 16.1578 10.0427Z" fill="#552FE9"/>
<path d="M40.7118 16.0066C40.7118 16.7434 41.464 17.0044 43.7513 17.0044C46.0232 17.0044 46.76 16.7434 46.76 16.0066C46.76 15.2697 46.0232 15.0088 43.7513 15.0088C41.464 15.0088 40.7118 15.2697 40.7118 16.0066ZM42.2162 8.65351V5.85965C42.2162 5.53728 42.4004 5.35307 42.7228 5.35307H43.782C44.1043 5.35307 44.2885 5.53728 44.2885 5.85965V8.30044C44.2885 9.3443 44.703 9.91228 45.4859 9.98904C45.8083 10.0197 45.9618 10.1732 45.9618 10.4803V11.5702C45.9618 11.8925 45.7929 12.0614 45.4859 12.0614C44.396 12.0614 43.6285 11.5088 43.3061 10.511C43.0144 11.4934 42.3697 12.0614 41.5254 12.0614C40.6811 12.0614 40.0364 11.4934 39.7447 10.511C39.4223 11.5088 38.6548 12.0614 37.5649 12.0614C37.2578 12.0614 37.089 11.8925 37.089 11.5702V10.4803C37.089 10.1732 37.2425 10.0197 37.5649 9.98904C38.3478 9.91228 38.7622 9.3443 38.7622 8.30044V5.85965C38.7622 5.53728 38.9464 5.35307 39.2688 5.35307H40.328C40.6504 5.35307 40.8346 5.53728 40.8346 5.85965V8.73026C40.8346 9.58991 41.0495 9.98904 41.5254 9.98904C42.0013 9.98904 42.2162 9.58991 42.2162 8.65351ZM38.5013 16.0066C38.5013 13.9956 40.2206 13.0132 43.7513 13.0132C47.2666 13.0132 48.9859 13.9956 48.9859 16.0066C48.9859 18.0175 47.2666 19 43.7513 19C40.2206 19 38.5013 18.0175 38.5013 16.0066ZM46.5758 5.47588C46.5758 5.16886 46.7447 5 47.0517 5H48.1723C48.4793 5 48.6482 5.16886 48.6482 5.47588V11.9846C48.6482 12.2917 48.4793 12.4605 48.1723 12.4605H47.0517C46.7447 12.4605 46.5758 12.2917 46.5758 11.9846V5.47588Z" fill="#552FE9"/>
<path d="M34.4079 15.1164C33.9934 15.1471 33.7478 15.316 33.7478 15.7611V17.7107C33.7478 18.0331 33.5789 18.2173 33.2566 18.2173H32.0285C31.7061 18.2173 31.5219 18.0331 31.5219 17.7107V16.0375C31.5219 15.669 31.7061 15.362 31.9824 15.2392C31.0153 15.2546 29.4956 15.2546 29.0351 15.2546C28.5899 15.2546 28.375 15.4848 28.375 15.8993V17.7107C28.375 18.0331 28.2061 18.2173 27.8838 18.2173H26.6557C26.3333 18.2173 26.1491 18.0331 26.1491 17.7107V16.0221C26.1491 15.6537 26.3333 15.3313 26.6096 15.1932C25.7961 15.1625 25.1053 15.0857 24.5066 14.9936C24.1535 14.9475 24 14.794 24 14.5024V13.3664C24 13.044 24.1842 12.8598 24.5066 12.9059C25.8268 13.0747 27.8531 13.1668 30.0022 13.1668C32.3969 13.1668 34.5767 13.0594 35.5285 12.9059C35.8509 12.8445 36.0504 13.044 36.0504 13.3664V14.5024C36.0504 14.7787 35.8969 14.9475 35.5438 14.9936C35.2061 15.0396 34.807 15.0857 34.4079 15.1164ZM25.2741 8.56158C25.2741 7.51772 25.3048 6.56596 25.3662 5.81377C25.3969 5.50675 25.5811 5.33789 25.9342 5.33789H27.1469C27.4539 5.33789 27.6075 5.50675 27.5921 5.84447C27.546 6.53526 27.5 7.33351 27.5 8.42342C27.5 9.51333 27.9759 9.94315 29.2039 9.94315C30.9386 9.94315 33.057 9.82035 34.5921 9.59008C34.8991 9.54403 35.0833 9.71289 35.114 10.0353L35.2368 11.1712C35.2675 11.4629 35.0987 11.6164 34.7763 11.6625C33.2719 11.8774 31.1535 12.0155 29.1425 12.0155C26.5022 12.0155 25.2741 10.941 25.2741 8.56158Z" fill="#552FE9"/>
</svg>
