<svg width="14" height="14" viewBox="0 0 14 14" fill="none" xmlns="http://www.w3.org/2000/svg">
<path d="M6.33301 4.33337C6.33301 4.70156 6.63148 5.00004 6.99967 5.00004C7.36786 5.00004 7.66634 4.70156 7.66634 4.33337C7.66634 3.96518 7.36786 3.66671 6.99967 3.66671C6.63148 3.66671 6.33301 3.96518 6.33301 4.33337ZM6.99968 12.3334C4.05967 12.3334 1.66634 9.94004 1.66634 7.00004C1.66634 4.06004 4.05967 1.66671 6.99968 1.66671C9.93968 1.66671 12.333 4.06004 12.333 7.00004C12.333 9.94004 9.93968 12.3334 6.99968 12.3334ZM6.99968 0.333374C6.1242 0.333374 5.25729 0.505813 4.44845 0.840844C3.63961 1.17588 2.90469 1.66694 2.28563 2.286C1.03539 3.53624 0.333008 5.23193 0.333008 7.00004C0.333008 8.76815 1.03539 10.4638 2.28563 11.7141C2.90469 12.3331 3.63961 12.8242 4.44845 13.1592C5.25729 13.4943 6.1242 13.6667 6.99968 13.6667C8.76779 13.6667 10.4635 12.9643 11.7137 11.7141C12.964 10.4638 13.6663 8.76815 13.6663 7.00004C13.6663 6.12456 13.4939 5.25766 13.1589 4.44882C12.8238 3.63998 12.3328 2.90505 11.7137 2.286C11.0947 1.66694 10.3597 1.17588 9.5509 0.840844C8.74206 0.505813 7.87515 0.333374 6.99968 0.333374ZM6.33301 9.66671C6.33301 10.0349 6.63148 10.3334 6.99967 10.3334C7.36786 10.3334 7.66634 10.0349 7.66634 9.66671V7.00004C7.66634 6.63185 7.36786 6.33337 6.99967 6.33337C6.63148 6.33337 6.33301 6.63185 6.33301 7.00004V9.66671Z" fill="#9090A0"/>
</svg>
