<svg width="70" height="70" viewBox="0 0 70 70" fill="none" xmlns="http://www.w3.org/2000/svg">
<rect x="0.5" y="0.5" width="69" height="69" rx="34.5" fill="#F5F5F9"/>
<rect x="0.5" y="0.5" width="69" height="69" rx="34.5" stroke="#7E37F9"/>
<path d="M52.2499 45.501H22.2501V43.251C22.2501 43.1097 22.2102 42.9712 22.135 42.8516C22.0598 42.7319 21.9523 42.636 21.825 42.5748C21.6976 42.5135 21.5555 42.4895 21.4151 42.5056C21.2747 42.5216 21.1416 42.5769 21.0313 42.6653L17.2813 45.6652C17.1919 45.7373 17.1201 45.8287 17.0713 45.9327C17.0226 46.0367 16.9982 46.1504 17.0001 46.2652C17.003 46.4077 17.0465 46.5463 17.1253 46.665C17.1474 46.6985 17.1725 46.7299 17.2003 46.7587C17.2295 46.7904 17.2614 46.8195 17.2956 46.8457L21.0321 49.836C21.1424 49.924 21.2752 49.9792 21.4155 49.9951C21.5557 50.011 21.6976 49.9871 21.8248 49.926C21.952 49.8649 22.0594 49.7691 22.1346 49.6497C22.2099 49.5303 22.2499 49.3921 22.2501 49.251V47.001H52.2499C52.4488 47.001 52.6396 46.922 52.7802 46.7813C52.9209 46.6407 52.9999 46.4499 52.9999 46.251C52.9999 46.0521 52.9209 45.8613 52.7802 45.7207C52.6396 45.58 52.4488 45.501 52.2499 45.501Z" fill="#7E37F9"/>
<path d="M52.9825 23.5913C52.9458 23.4231 52.8526 23.2725 52.7185 23.1645L48.9686 20.1645C48.8582 20.0762 48.7252 20.0208 48.5848 20.0048C48.4444 19.9888 48.3023 20.0128 48.1749 20.074C48.0476 20.1352 47.9401 20.2312 47.8648 20.3508C47.7896 20.4705 47.7498 20.609 47.7498 20.7503V23.0003H17.75C17.5511 23.0003 17.3603 23.0793 17.2197 23.2199C17.079 23.3606 17 23.5513 17 23.7503C17 23.9492 17.079 24.1399 17.2197 24.2806C17.3603 24.4212 17.5511 24.5003 17.75 24.5003H47.7498V26.7502C47.7496 26.8916 47.7894 27.0302 47.8646 27.1499C47.9397 27.2697 48.0472 27.3658 48.1746 27.4271C48.302 27.4884 48.4441 27.5124 48.5846 27.4965C48.7251 27.4805 48.8582 27.4251 48.9686 27.3367L52.705 24.3503C52.7951 24.2815 52.8684 24.1932 52.9195 24.092C52.9705 23.9908 52.998 23.8793 52.9998 23.766C53.0008 23.7073 52.995 23.6486 52.9825 23.5913Z" fill="#7E37F9"/>
<path d="M35.0003 42.5006C39.1426 42.5006 42.5006 39.1426 42.5006 35.0003C42.5006 30.858 39.1426 27.5 35.0003 27.5C30.858 27.5 27.5 30.858 27.5 35.0003C27.5 39.1426 30.858 42.5006 35.0003 42.5006Z" fill="#7E37F9"/>
<g filter="url(#filter0_bi_906_11651)">
<path d="M35 48.5C42.4558 48.5 48.5 42.4558 48.5 35C48.5 27.5442 42.4558 21.5 35 21.5C27.5442 21.5 21.5 27.5442 21.5 35C21.5 42.4558 27.5442 48.5 35 48.5Z" fill="url(#paint0_linear_906_11651)" fill-opacity="0.2"/>
<path d="M48.1552 35C48.1552 42.2654 42.2654 48.1552 35 48.1552C27.7346 48.1552 21.8448 42.2654 21.8448 35C21.8448 27.7346 27.7346 21.8448 35 21.8448C42.2654 21.8448 48.1552 27.7346 48.1552 35Z" stroke="url(#paint1_linear_906_11651)" stroke-opacity="0.1" stroke-width="0.689655"/>
</g>
<g filter="url(#filter1_i_906_11651)">
<path d="M34.9989 45.3857C40.7341 45.3857 45.3835 40.7363 45.3835 35.0011C45.3835 29.2658 40.7341 24.6165 34.9989 24.6165C29.2636 24.6165 24.6143 29.2658 24.6143 35.0011C24.6143 40.7363 29.2636 45.3857 34.9989 45.3857Z" fill="white" fill-opacity="0.16"/>
</g>
<g filter="url(#filter2_i_906_11651)">
<path d="M34.9999 41C34.7726 41 34.5546 40.9096 34.3939 40.7489L29.251 35.6059C29.0903 35.4452 29 35.2272 29 34.9999C29 34.7726 29.0903 34.5546 29.251 34.3939L34.3939 29.251C34.5546 29.0903 34.7726 29 34.9999 29C35.2272 29 35.4452 29.0903 35.6059 29.251L40.7489 34.3939C40.9095 34.5546 40.9998 34.7726 40.9998 34.9999C40.9998 35.2272 40.9095 35.4452 40.7489 35.6059L35.6059 40.7489C35.4452 40.9096 35.2272 41 34.9999 41Z" fill="#7E37F9"/>
</g>
<defs>
<filter id="filter0_bi_906_11651" x="7.7069" y="7.7069" width="54.5862" height="54.5862" filterUnits="userSpaceOnUse" color-interpolation-filters="sRGB">
<feFlood flood-opacity="0" result="BackgroundImageFix"/>
<feGaussianBlur in="BackgroundImageFix" stdDeviation="6.89655"/>
<feComposite in2="SourceAlpha" operator="in" result="effect1_backgroundBlur_906_11651"/>
<feBlend mode="normal" in="SourceGraphic" in2="effect1_backgroundBlur_906_11651" result="shape"/>
<feColorMatrix in="SourceAlpha" type="matrix" values="0 0 0 0 0 0 0 0 0 0 0 0 0 0 0 0 0 0 127 0" result="hardAlpha"/>
<feOffset dy="4.5977"/>
<feGaussianBlur stdDeviation="3.44828"/>
<feComposite in2="hardAlpha" operator="arithmetic" k2="-1" k3="1"/>
<feColorMatrix type="matrix" values="0 0 0 0 1 0 0 0 0 1 0 0 0 0 1 0 0 0 0.4 0"/>
<feBlend mode="normal" in2="shape" result="effect2_innerShadow_906_11651"/>
</filter>
<filter id="filter1_i_906_11651" x="24.6143" y="24.6165" width="20.769" height="25.3669" filterUnits="userSpaceOnUse" color-interpolation-filters="sRGB">
<feFlood flood-opacity="0" result="BackgroundImageFix"/>
<feBlend mode="normal" in="SourceGraphic" in2="BackgroundImageFix" result="shape"/>
<feColorMatrix in="SourceAlpha" type="matrix" values="0 0 0 0 0 0 0 0 0 0 0 0 0 0 0 0 0 0 127 0" result="hardAlpha"/>
<feOffset dy="4.5977"/>
<feGaussianBlur stdDeviation="2.29885"/>
<feComposite in2="hardAlpha" operator="arithmetic" k2="-1" k3="1"/>
<feColorMatrix type="matrix" values="0 0 0 0 1 0 0 0 0 1 0 0 0 0 1 0 0 0 0.4 0"/>
<feBlend mode="normal" in2="shape" result="effect1_innerShadow_906_11651"/>
</filter>
<filter id="filter2_i_906_11651" x="29" y="29" width="12" height="16.5977" filterUnits="userSpaceOnUse" color-interpolation-filters="sRGB">
<feFlood flood-opacity="0" result="BackgroundImageFix"/>
<feBlend mode="normal" in="SourceGraphic" in2="BackgroundImageFix" result="shape"/>
<feColorMatrix in="SourceAlpha" type="matrix" values="0 0 0 0 0 0 0 0 0 0 0 0 0 0 0 0 0 0 127 0" result="hardAlpha"/>
<feOffset dy="4.5977"/>
<feGaussianBlur stdDeviation="2.29885"/>
<feComposite in2="hardAlpha" operator="arithmetic" k2="-1" k3="1"/>
<feColorMatrix type="matrix" values="0 0 0 0 1 0 0 0 0 1 0 0 0 0 1 0 0 0 0.1 0"/>
<feBlend mode="normal" in2="shape" result="effect1_innerShadow_906_11651"/>
</filter>
<linearGradient id="paint0_linear_906_11651" x1="21.5" y1="21.5" x2="53.3052" y2="29.5759" gradientUnits="userSpaceOnUse">
<stop stop-color="#BFBFBF"/>
<stop offset="1" stop-color="#9C9C9C"/>
</linearGradient>
<linearGradient id="paint1_linear_906_11651" x1="22.3438" y1="22.7273" x2="48.5" y2="22.7273" gradientUnits="userSpaceOnUse">
<stop stop-color="#CCCCCC"/>
<stop offset="1" stop-color="#808080"/>
</linearGradient>
</defs>
</svg>
