<svg width="82" height="83" viewBox="0 0 82 83" fill="none" xmlns="http://www.w3.org/2000/svg">
<rect x="0.581257" y="1.25728" width="80.2134" height="80.2134" rx="40.1067" fill="#F1E9FE"/>
<rect x="0.581257" y="1.25728" width="80.2134" height="80.2134" rx="40.1067" stroke="#B790FC" stroke-width="1.16251"/>
<g filter="url(#filter0_bi_1778_3966)">
<path d="M28.5573 36.3094H22.4921V62.592H28.5573V36.3094Z" fill="#7E37F9"/>
</g>
<g filter="url(#filter1_bi_1778_3966)">
<path d="M38.6679 29.8428H32.6027V62.5915H38.6679V29.8428Z" fill="#7E37F9"/>
</g>
<g filter="url(#filter2_bi_1778_3966)">
<path d="M48.7762 29.8431H42.711V62.5919H48.7762V29.8431Z" fill="#7E37F9"/>
</g>
<g filter="url(#filter3_bi_1778_3966)">
<path d="M58.8822 36.3094H52.817V62.592H58.8822V36.3094Z" fill="#7E37F9"/>
</g>
<g filter="url(#filter4_bi_1778_3966)">
<path d="M63.4113 31.3785L41.1722 19.248C41.0237 19.167 40.8572 19.1245 40.688 19.1245C40.5188 19.1245 40.3523 19.167 40.2038 19.248L17.9647 31.3785C17.8052 31.4654 17.6722 31.5938 17.5795 31.75C17.4868 31.9061 17.438 32.0844 17.438 32.266V38.3312C17.438 38.5993 17.5445 38.8564 17.7341 39.046C17.9236 39.2356 18.1808 39.3421 18.4489 39.3421H62.9271C63.1952 39.3421 63.4523 39.2356 63.6419 39.046C63.8315 38.8564 63.938 38.5993 63.938 38.3312V32.266C63.938 32.0844 63.8891 31.9061 63.7965 31.75C63.7038 31.5938 63.5707 31.4654 63.4113 31.3785Z" fill="url(#paint0_linear_1778_3966)" fill-opacity="0.2"/>
<path d="M40.9802 19.5999L40.9802 19.5999C40.8906 19.551 40.7901 19.5254 40.688 19.5254C40.5859 19.5254 40.4854 19.551 40.3958 19.5999L40.3957 19.5999L18.1567 31.7303C18.1566 31.7304 18.1566 31.7304 18.1566 31.7304C18.0604 31.7829 17.9802 31.8603 17.9243 31.9545C17.8683 32.0488 17.8388 32.1563 17.8389 32.2659L17.8389 32.266V38.3312C17.8389 38.493 17.9031 38.6482 18.0175 38.7626M40.9802 19.5999L18.0175 38.7626M40.9802 19.5999L63.2193 31.7303M40.9802 19.5999L63.2193 31.7303M18.0175 38.7626C18.1319 38.877 18.2871 38.9412 18.4489 38.9412H62.9271C63.0889 38.9412 63.2441 38.877 63.3585 38.7626C63.4729 38.6482 63.5371 38.493 63.5371 38.3312V32.266V32.2659C63.5371 32.1563 63.5076 32.0488 63.4517 31.9545C63.3958 31.8603 63.3155 31.7829 63.2194 31.7304M18.0175 38.7626L63.2194 31.7304M63.2194 31.7304C63.2193 31.7304 63.2193 31.7304 63.2193 31.7303M63.2194 31.7304L63.2193 31.7303" stroke="url(#paint1_linear_1778_3966)" stroke-opacity="0.1" stroke-width="0.801724"/>
</g>
<g filter="url(#filter5_bi_1778_3966)">
<path d="M62.9271 59.5594H18.4489C18.1808 59.5594 17.9236 59.6659 17.7341 59.8555C17.5445 60.0451 17.438 60.3022 17.438 60.5703V62.5921C17.438 62.8602 17.5445 63.1173 17.7341 63.3069C17.9236 63.4964 18.1808 63.6029 18.4489 63.6029H62.9271C63.1952 63.6029 63.4523 63.4964 63.6419 63.3069C63.8315 63.1173 63.938 62.8602 63.938 62.5921V60.5703C63.938 60.3022 63.8315 60.0451 63.6419 59.8555C63.4523 59.6659 63.1952 59.5594 62.9271 59.5594Z" fill="url(#paint2_linear_1778_3966)" fill-opacity="0.2"/>
<path d="M18.4489 59.9603H62.9271C63.0889 59.9603 63.2441 60.0246 63.3585 60.139C63.4729 60.2534 63.5371 60.4085 63.5371 60.5703V62.5921C63.5371 62.7538 63.4729 62.909 63.3585 63.0234C63.2441 63.1378 63.0889 63.2021 62.9271 63.2021H18.4489C18.2871 63.2021 18.1319 63.1378 18.0175 63.0234C17.9031 62.909 17.8389 62.7538 17.8389 62.5921V60.5703C17.8389 60.4085 17.9031 60.2534 18.0175 60.139C18.1319 60.0246 18.2871 59.9603 18.4489 59.9603Z" stroke="url(#paint3_linear_1778_3966)" stroke-opacity="0.1" stroke-width="0.801724"/>
</g>
<g filter="url(#filter6_i_1778_3966)">
<path d="M40.6877 34.2874C42.9209 34.2874 44.7312 32.4771 44.7312 30.2439C44.7312 28.0108 42.9209 26.2004 40.6877 26.2004C38.4546 26.2004 36.6442 28.0108 36.6442 30.2439C36.6442 32.4771 38.4546 34.2874 40.6877 34.2874Z" fill="#7E37F9"/>
</g>
<defs>
<filter id="filter0_bi_1778_3966" x="6.45765" y="20.275" width="38.1342" height="58.3516" filterUnits="userSpaceOnUse" color-interpolation-filters="sRGB">
<feFlood flood-opacity="0" result="BackgroundImageFix"/>
<feGaussianBlur in="BackgroundImageFix" stdDeviation="8.01724"/>
<feComposite in2="SourceAlpha" operator="in" result="effect1_backgroundBlur_1778_3966"/>
<feBlend mode="normal" in="SourceGraphic" in2="effect1_backgroundBlur_1778_3966" result="shape"/>
<feColorMatrix in="SourceAlpha" type="matrix" values="0 0 0 0 0 0 0 0 0 0 0 0 0 0 0 0 0 0 127 0" result="hardAlpha"/>
<feOffset dy="5.34483"/>
<feGaussianBlur stdDeviation="4.00862"/>
<feComposite in2="hardAlpha" operator="arithmetic" k2="-1" k3="1"/>
<feColorMatrix type="matrix" values="0 0 0 0 1 0 0 0 0 1 0 0 0 0 1 0 0 0 0.4 0"/>
<feBlend mode="normal" in2="shape" result="effect2_innerShadow_1778_3966"/>
</filter>
<filter id="filter1_bi_1778_3966" x="16.5682" y="13.8083" width="38.1342" height="64.8177" filterUnits="userSpaceOnUse" color-interpolation-filters="sRGB">
<feFlood flood-opacity="0" result="BackgroundImageFix"/>
<feGaussianBlur in="BackgroundImageFix" stdDeviation="8.01724"/>
<feComposite in2="SourceAlpha" operator="in" result="effect1_backgroundBlur_1778_3966"/>
<feBlend mode="normal" in="SourceGraphic" in2="effect1_backgroundBlur_1778_3966" result="shape"/>
<feColorMatrix in="SourceAlpha" type="matrix" values="0 0 0 0 0 0 0 0 0 0 0 0 0 0 0 0 0 0 127 0" result="hardAlpha"/>
<feOffset dy="5.34483"/>
<feGaussianBlur stdDeviation="4.00862"/>
<feComposite in2="hardAlpha" operator="arithmetic" k2="-1" k3="1"/>
<feColorMatrix type="matrix" values="0 0 0 0 1 0 0 0 0 1 0 0 0 0 1 0 0 0 0.4 0"/>
<feBlend mode="normal" in2="shape" result="effect2_innerShadow_1778_3966"/>
</filter>
<filter id="filter2_bi_1778_3966" x="26.6765" y="13.8087" width="38.1342" height="64.8177" filterUnits="userSpaceOnUse" color-interpolation-filters="sRGB">
<feFlood flood-opacity="0" result="BackgroundImageFix"/>
<feGaussianBlur in="BackgroundImageFix" stdDeviation="8.01724"/>
<feComposite in2="SourceAlpha" operator="in" result="effect1_backgroundBlur_1778_3966"/>
<feBlend mode="normal" in="SourceGraphic" in2="effect1_backgroundBlur_1778_3966" result="shape"/>
<feColorMatrix in="SourceAlpha" type="matrix" values="0 0 0 0 0 0 0 0 0 0 0 0 0 0 0 0 0 0 127 0" result="hardAlpha"/>
<feOffset dy="5.34483"/>
<feGaussianBlur stdDeviation="4.00862"/>
<feComposite in2="hardAlpha" operator="arithmetic" k2="-1" k3="1"/>
<feColorMatrix type="matrix" values="0 0 0 0 1 0 0 0 0 1 0 0 0 0 1 0 0 0 0.4 0"/>
<feBlend mode="normal" in2="shape" result="effect2_innerShadow_1778_3966"/>
</filter>
<filter id="filter3_bi_1778_3966" x="36.7825" y="20.275" width="38.1341" height="58.3516" filterUnits="userSpaceOnUse" color-interpolation-filters="sRGB">
<feFlood flood-opacity="0" result="BackgroundImageFix"/>
<feGaussianBlur in="BackgroundImageFix" stdDeviation="8.01724"/>
<feComposite in2="SourceAlpha" operator="in" result="effect1_backgroundBlur_1778_3966"/>
<feBlend mode="normal" in="SourceGraphic" in2="effect1_backgroundBlur_1778_3966" result="shape"/>
<feColorMatrix in="SourceAlpha" type="matrix" values="0 0 0 0 0 0 0 0 0 0 0 0 0 0 0 0 0 0 127 0" result="hardAlpha"/>
<feOffset dy="5.34483"/>
<feGaussianBlur stdDeviation="4.00862"/>
<feComposite in2="hardAlpha" operator="arithmetic" k2="-1" k3="1"/>
<feColorMatrix type="matrix" values="0 0 0 0 1 0 0 0 0 1 0 0 0 0 1 0 0 0 0.4 0"/>
<feBlend mode="normal" in2="shape" result="effect2_innerShadow_1778_3966"/>
</filter>
<filter id="filter4_bi_1778_3966" x="1.40351" y="3.09003" width="78.569" height="52.2865" filterUnits="userSpaceOnUse" color-interpolation-filters="sRGB">
<feFlood flood-opacity="0" result="BackgroundImageFix"/>
<feGaussianBlur in="BackgroundImageFix" stdDeviation="8.01724"/>
<feComposite in2="SourceAlpha" operator="in" result="effect1_backgroundBlur_1778_3966"/>
<feBlend mode="normal" in="SourceGraphic" in2="effect1_backgroundBlur_1778_3966" result="shape"/>
<feColorMatrix in="SourceAlpha" type="matrix" values="0 0 0 0 0 0 0 0 0 0 0 0 0 0 0 0 0 0 127 0" result="hardAlpha"/>
<feOffset dy="5.34483"/>
<feGaussianBlur stdDeviation="4.00862"/>
<feComposite in2="hardAlpha" operator="arithmetic" k2="-1" k3="1"/>
<feColorMatrix type="matrix" values="0 0 0 0 1 0 0 0 0 1 0 0 0 0 1 0 0 0 0.4 0"/>
<feBlend mode="normal" in2="shape" result="effect2_innerShadow_1778_3966"/>
</filter>
<filter id="filter5_bi_1778_3966" x="1.40351" y="43.525" width="78.569" height="36.1124" filterUnits="userSpaceOnUse" color-interpolation-filters="sRGB">
<feFlood flood-opacity="0" result="BackgroundImageFix"/>
<feGaussianBlur in="BackgroundImageFix" stdDeviation="8.01724"/>
<feComposite in2="SourceAlpha" operator="in" result="effect1_backgroundBlur_1778_3966"/>
<feBlend mode="normal" in="SourceGraphic" in2="effect1_backgroundBlur_1778_3966" result="shape"/>
<feColorMatrix in="SourceAlpha" type="matrix" values="0 0 0 0 0 0 0 0 0 0 0 0 0 0 0 0 0 0 127 0" result="hardAlpha"/>
<feOffset dy="5.34483"/>
<feGaussianBlur stdDeviation="4.00862"/>
<feComposite in2="hardAlpha" operator="arithmetic" k2="-1" k3="1"/>
<feColorMatrix type="matrix" values="0 0 0 0 1 0 0 0 0 1 0 0 0 0 1 0 0 0 0.4 0"/>
<feBlend mode="normal" in2="shape" result="effect2_innerShadow_1778_3966"/>
</filter>
<filter id="filter6_i_1778_3966" x="36.6442" y="26.2004" width="8.08698" height="13.4317" filterUnits="userSpaceOnUse" color-interpolation-filters="sRGB">
<feFlood flood-opacity="0" result="BackgroundImageFix"/>
<feBlend mode="normal" in="SourceGraphic" in2="BackgroundImageFix" result="shape"/>
<feColorMatrix in="SourceAlpha" type="matrix" values="0 0 0 0 0 0 0 0 0 0 0 0 0 0 0 0 0 0 127 0" result="hardAlpha"/>
<feOffset dy="5.34483"/>
<feGaussianBlur stdDeviation="2.67241"/>
<feComposite in2="hardAlpha" operator="arithmetic" k2="-1" k3="1"/>
<feColorMatrix type="matrix" values="0 0 0 0 1 0 0 0 0 1 0 0 0 0 1 0 0 0 0.4 0"/>
<feBlend mode="normal" in2="shape" result="effect1_innerShadow_1778_3966"/>
</filter>
<linearGradient id="paint0_linear_1778_3966" x1="17.438" y1="19.1245" x2="60.9163" y2="44.5162" gradientUnits="userSpaceOnUse">
<stop stop-color="#D4BCFD"/>
<stop offset="1" stop-color="#9B63FA"/>
</linearGradient>
<linearGradient id="paint1_linear_1778_3966" x1="18.8911" y1="20.0435" x2="63.938" y2="20.0435" gradientUnits="userSpaceOnUse">
<stop stop-color="#CCCCCC"/>
<stop offset="1" stop-color="#808080"/>
</linearGradient>
<linearGradient id="paint2_linear_1778_3966" x1="17.438" y1="59.5594" x2="23.5583" y2="77.4313" gradientUnits="userSpaceOnUse">
<stop stop-color="#D4BCFD"/>
<stop offset="1" stop-color="#9B63FA"/>
</linearGradient>
<linearGradient id="paint3_linear_1778_3966" x1="18.8911" y1="59.7432" x2="63.938" y2="59.7432" gradientUnits="userSpaceOnUse">
<stop stop-color="#CCCCCC"/>
<stop offset="1" stop-color="#808080"/>
</linearGradient>
</defs>
</svg>
