<svg width="82" height="83" viewBox="0 0 82 83" fill="none" xmlns="http://www.w3.org/2000/svg">
<rect x="0.581257" y="1.25728" width="80.2134" height="80.2134" rx="40.1067" fill="#F5F5F9"/>
<rect x="0.581257" y="1.25728" width="80.2134" height="80.2134" rx="40.1067" stroke="#E9E9EE" stroke-width="1.16251"/>
<g filter="url(#filter0_bi_1701_2215)">
<path d="M28.5572 36.3091H22.4919V62.592H28.5572V36.3091Z" fill="#C6C6D0"/>
</g>
<g filter="url(#filter1_bi_1701_2215)">
<path d="M38.6679 29.8424H32.6026V62.5915H38.6679V29.8424Z" fill="#C6C6D0"/>
</g>
<g filter="url(#filter2_bi_1701_2215)">
<path d="M48.7763 29.8428H42.711V62.5919H48.7763V29.8428Z" fill="#C6C6D0"/>
</g>
<g filter="url(#filter3_bi_1701_2215)">
<path d="M58.8825 36.3091H52.8172V62.592H58.8825V36.3091Z" fill="#C6C6D0"/>
</g>
<g filter="url(#filter4_bi_1701_2215)">
<path d="M63.4116 31.3781L41.1722 19.2475C41.0236 19.1665 40.8572 19.124 40.688 19.124C40.5188 19.124 40.3523 19.1665 40.2037 19.2475L17.9644 31.3781C17.8049 31.4651 17.6719 31.5934 17.5792 31.7496C17.4865 31.9058 17.4376 32.0841 17.4377 32.2657V38.331C17.4377 38.5991 17.5442 38.8562 17.7338 39.0458C17.9233 39.2353 18.1805 39.3418 18.4486 39.3418H62.9273C63.1954 39.3418 63.4526 39.2353 63.6421 39.0458C63.8317 38.8562 63.9382 38.5991 63.9382 38.331V32.2657C63.9383 32.0841 63.8894 31.9058 63.7967 31.7496C63.704 31.5934 63.571 31.4651 63.4116 31.3781Z" fill="url(#paint0_linear_1701_2215)" fill-opacity="0.2"/>
<path d="M40.9801 19.5994L40.9802 19.5995L63.2195 31.73C63.2196 31.73 63.2196 31.73 63.2196 31.73C63.3158 31.7825 63.396 31.86 63.4519 31.9542C63.5079 32.0484 63.5374 32.156 63.5374 32.2656V32.2657V38.331C63.5374 38.4927 63.4731 38.6479 63.3587 38.7623C63.2443 38.8767 63.0891 38.941 62.9273 38.941H18.4486C18.2868 38.941 18.1316 38.8767 18.0172 38.7623C17.9028 38.6479 17.8385 38.4927 17.8385 38.331V32.2657L17.8385 32.2656C17.8385 32.156 17.868 32.0484 17.924 31.9542L17.5792 31.7496L17.924 31.9542C17.9799 31.86 18.0601 31.7825 18.1563 31.73C18.1563 31.73 18.1563 31.73 18.1564 31.73L40.3957 19.5995L40.3958 19.5994C40.4854 19.5505 40.5858 19.5249 40.688 19.5249C40.7901 19.5249 40.8905 19.5505 40.9801 19.5994Z" stroke="url(#paint1_linear_1701_2215)" stroke-opacity="0.1" stroke-width="0.801733"/>
</g>
<g filter="url(#filter5_bi_1701_2215)">
<path d="M62.9273 59.5593H18.4486C18.1805 59.5593 17.9233 59.6658 17.7338 59.8554C17.5442 60.045 17.4377 60.3021 17.4377 60.5702V62.592C17.4377 62.8601 17.5442 63.1172 17.7338 63.3068C17.9233 63.4963 18.1805 63.6029 18.4486 63.6029H62.9273C63.1954 63.6029 63.4526 63.4963 63.6421 63.3068C63.8317 63.1172 63.9382 62.8601 63.9382 62.592V60.5702C63.9382 60.3021 63.8317 60.045 63.6421 59.8554C63.4526 59.6658 63.1954 59.5593 62.9273 59.5593Z" fill="url(#paint2_linear_1701_2215)" fill-opacity="0.2"/>
<path d="M18.4486 59.9602H62.9273C63.0891 59.9602 63.2443 60.0245 63.3587 60.1389L63.642 59.8556L63.3587 60.1389C63.4731 60.2533 63.5374 60.4084 63.5374 60.5702V62.592C63.5374 62.7538 63.4731 62.9089 63.3587 63.0233C63.2443 63.1377 63.0891 63.202 62.9273 63.202H18.4486C18.2868 63.202 18.1316 63.1377 18.0172 63.0233C17.9028 62.9089 17.8385 62.7538 17.8385 62.592V60.5702C17.8385 60.4084 17.9028 60.2533 18.0172 60.1389C18.1316 60.0245 18.2868 59.9602 18.4486 59.9602Z" stroke="url(#paint3_linear_1701_2215)" stroke-opacity="0.1" stroke-width="0.801733"/>
</g>
<g filter="url(#filter6_i_1701_2215)">
<path d="M40.6877 34.2871C42.9209 34.2871 44.7312 32.4768 44.7312 30.2436C44.7312 28.0104 42.9209 26.2001 40.6877 26.2001C38.4545 26.2001 36.6441 28.0104 36.6441 30.2436C36.6441 32.4768 38.4545 34.2871 40.6877 34.2871Z" fill="#C6C6D0"/>
</g>
<defs>
<filter id="filter0_bi_1701_2215" x="6.45725" y="20.2744" width="38.1346" height="58.3523" filterUnits="userSpaceOnUse" color-interpolation-filters="sRGB">
<feFlood flood-opacity="0" result="BackgroundImageFix"/>
<feGaussianBlur in="BackgroundImageFix" stdDeviation="8.01733"/>
<feComposite in2="SourceAlpha" operator="in" result="effect1_backgroundBlur_1701_2215"/>
<feBlend mode="normal" in="SourceGraphic" in2="effect1_backgroundBlur_1701_2215" result="shape"/>
<feColorMatrix in="SourceAlpha" type="matrix" values="0 0 0 0 0 0 0 0 0 0 0 0 0 0 0 0 0 0 127 0" result="hardAlpha"/>
<feOffset dy="5.34489"/>
<feGaussianBlur stdDeviation="4.00867"/>
<feComposite in2="hardAlpha" operator="arithmetic" k2="-1" k3="1"/>
<feColorMatrix type="matrix" values="0 0 0 0 1 0 0 0 0 1 0 0 0 0 1 0 0 0 0.4 0"/>
<feBlend mode="normal" in2="shape" result="effect2_innerShadow_1701_2215"/>
</filter>
<filter id="filter1_bi_1701_2215" x="16.5679" y="13.8077" width="38.1346" height="64.8185" filterUnits="userSpaceOnUse" color-interpolation-filters="sRGB">
<feFlood flood-opacity="0" result="BackgroundImageFix"/>
<feGaussianBlur in="BackgroundImageFix" stdDeviation="8.01733"/>
<feComposite in2="SourceAlpha" operator="in" result="effect1_backgroundBlur_1701_2215"/>
<feBlend mode="normal" in="SourceGraphic" in2="effect1_backgroundBlur_1701_2215" result="shape"/>
<feColorMatrix in="SourceAlpha" type="matrix" values="0 0 0 0 0 0 0 0 0 0 0 0 0 0 0 0 0 0 127 0" result="hardAlpha"/>
<feOffset dy="5.34489"/>
<feGaussianBlur stdDeviation="4.00867"/>
<feComposite in2="hardAlpha" operator="arithmetic" k2="-1" k3="1"/>
<feColorMatrix type="matrix" values="0 0 0 0 1 0 0 0 0 1 0 0 0 0 1 0 0 0 0.4 0"/>
<feBlend mode="normal" in2="shape" result="effect2_innerShadow_1701_2215"/>
</filter>
<filter id="filter2_bi_1701_2215" x="26.6764" y="13.8081" width="38.1346" height="64.8185" filterUnits="userSpaceOnUse" color-interpolation-filters="sRGB">
<feFlood flood-opacity="0" result="BackgroundImageFix"/>
<feGaussianBlur in="BackgroundImageFix" stdDeviation="8.01733"/>
<feComposite in2="SourceAlpha" operator="in" result="effect1_backgroundBlur_1701_2215"/>
<feBlend mode="normal" in="SourceGraphic" in2="effect1_backgroundBlur_1701_2215" result="shape"/>
<feColorMatrix in="SourceAlpha" type="matrix" values="0 0 0 0 0 0 0 0 0 0 0 0 0 0 0 0 0 0 127 0" result="hardAlpha"/>
<feOffset dy="5.34489"/>
<feGaussianBlur stdDeviation="4.00867"/>
<feComposite in2="hardAlpha" operator="arithmetic" k2="-1" k3="1"/>
<feColorMatrix type="matrix" values="0 0 0 0 1 0 0 0 0 1 0 0 0 0 1 0 0 0 0.4 0"/>
<feBlend mode="normal" in2="shape" result="effect2_innerShadow_1701_2215"/>
</filter>
<filter id="filter3_bi_1701_2215" x="36.7825" y="20.2744" width="38.1346" height="58.3523" filterUnits="userSpaceOnUse" color-interpolation-filters="sRGB">
<feFlood flood-opacity="0" result="BackgroundImageFix"/>
<feGaussianBlur in="BackgroundImageFix" stdDeviation="8.01733"/>
<feComposite in2="SourceAlpha" operator="in" result="effect1_backgroundBlur_1701_2215"/>
<feBlend mode="normal" in="SourceGraphic" in2="effect1_backgroundBlur_1701_2215" result="shape"/>
<feColorMatrix in="SourceAlpha" type="matrix" values="0 0 0 0 0 0 0 0 0 0 0 0 0 0 0 0 0 0 127 0" result="hardAlpha"/>
<feOffset dy="5.34489"/>
<feGaussianBlur stdDeviation="4.00867"/>
<feComposite in2="hardAlpha" operator="arithmetic" k2="-1" k3="1"/>
<feColorMatrix type="matrix" values="0 0 0 0 1 0 0 0 0 1 0 0 0 0 1 0 0 0 0.4 0"/>
<feBlend mode="normal" in2="shape" result="effect2_innerShadow_1701_2215"/>
</filter>
<filter id="filter4_bi_1701_2215" x="1.40302" y="3.08936" width="78.5699" height="52.2871" filterUnits="userSpaceOnUse" color-interpolation-filters="sRGB">
<feFlood flood-opacity="0" result="BackgroundImageFix"/>
<feGaussianBlur in="BackgroundImageFix" stdDeviation="8.01733"/>
<feComposite in2="SourceAlpha" operator="in" result="effect1_backgroundBlur_1701_2215"/>
<feBlend mode="normal" in="SourceGraphic" in2="effect1_backgroundBlur_1701_2215" result="shape"/>
<feColorMatrix in="SourceAlpha" type="matrix" values="0 0 0 0 0 0 0 0 0 0 0 0 0 0 0 0 0 0 127 0" result="hardAlpha"/>
<feOffset dy="5.34489"/>
<feGaussianBlur stdDeviation="4.00867"/>
<feComposite in2="hardAlpha" operator="arithmetic" k2="-1" k3="1"/>
<feColorMatrix type="matrix" values="0 0 0 0 1 0 0 0 0 1 0 0 0 0 1 0 0 0 0.4 0"/>
<feBlend mode="normal" in2="shape" result="effect2_innerShadow_1701_2215"/>
</filter>
<filter id="filter5_bi_1701_2215" x="1.40302" y="43.5247" width="78.5699" height="36.1129" filterUnits="userSpaceOnUse" color-interpolation-filters="sRGB">
<feFlood flood-opacity="0" result="BackgroundImageFix"/>
<feGaussianBlur in="BackgroundImageFix" stdDeviation="8.01733"/>
<feComposite in2="SourceAlpha" operator="in" result="effect1_backgroundBlur_1701_2215"/>
<feBlend mode="normal" in="SourceGraphic" in2="effect1_backgroundBlur_1701_2215" result="shape"/>
<feColorMatrix in="SourceAlpha" type="matrix" values="0 0 0 0 0 0 0 0 0 0 0 0 0 0 0 0 0 0 127 0" result="hardAlpha"/>
<feOffset dy="5.34489"/>
<feGaussianBlur stdDeviation="4.00867"/>
<feComposite in2="hardAlpha" operator="arithmetic" k2="-1" k3="1"/>
<feColorMatrix type="matrix" values="0 0 0 0 1 0 0 0 0 1 0 0 0 0 1 0 0 0 0.4 0"/>
<feBlend mode="normal" in2="shape" result="effect2_innerShadow_1701_2215"/>
</filter>
<filter id="filter6_i_1701_2215" x="36.6441" y="26.2001" width="8.08705" height="13.4319" filterUnits="userSpaceOnUse" color-interpolation-filters="sRGB">
<feFlood flood-opacity="0" result="BackgroundImageFix"/>
<feBlend mode="normal" in="SourceGraphic" in2="BackgroundImageFix" result="shape"/>
<feColorMatrix in="SourceAlpha" type="matrix" values="0 0 0 0 0 0 0 0 0 0 0 0 0 0 0 0 0 0 127 0" result="hardAlpha"/>
<feOffset dy="5.34489"/>
<feGaussianBlur stdDeviation="2.67244"/>
<feComposite in2="hardAlpha" operator="arithmetic" k2="-1" k3="1"/>
<feColorMatrix type="matrix" values="0 0 0 0 1 0 0 0 0 1 0 0 0 0 1 0 0 0 0.4 0"/>
<feBlend mode="normal" in2="shape" result="effect1_innerShadow_1701_2215"/>
</filter>
<linearGradient id="paint0_linear_1701_2215" x1="17.4377" y1="19.124" x2="60.9165" y2="44.516" gradientUnits="userSpaceOnUse">
<stop stop-color="#CDCDCD"/>
<stop offset="1" stop-color="#898989"/>
</linearGradient>
<linearGradient id="paint1_linear_1701_2215" x1="18.8908" y1="20.043" x2="63.9382" y2="20.043" gradientUnits="userSpaceOnUse">
<stop stop-color="#CCCCCC"/>
<stop offset="1" stop-color="#808080"/>
</linearGradient>
<linearGradient id="paint2_linear_1701_2215" x1="17.4377" y1="59.5593" x2="23.5581" y2="77.4314" gradientUnits="userSpaceOnUse">
<stop stop-color="#CDCDCD"/>
<stop offset="1" stop-color="#898989"/>
</linearGradient>
<linearGradient id="paint3_linear_1701_2215" x1="18.8908" y1="59.7431" x2="63.9382" y2="59.7431" gradientUnits="userSpaceOnUse">
<stop stop-color="#CCCCCC"/>
<stop offset="1" stop-color="#808080"/>
</linearGradient>
</defs>
</svg>
