<svg width="24" height="24" viewBox="0 0 24 24" fill="none" xmlns="http://www.w3.org/2000/svg">
<path d="M17.7 12.95C17.7 16.1256 15.1256 18.7 11.95 18.7C8.77431 18.7 6.19995 16.1256 6.19995 12.95C6.19995 9.77437 8.77431 7.20001 11.95 7.20001C15.1256 7.20001 17.7 9.77437 17.7 12.95Z" fill="#464656"/>
<path d="M11.9 17.05C11.9 19.342 10.042 21.2 7.74998 21.2C5.45799 21.2 3.59998 19.342 3.59998 17.05C3.59998 14.758 5.45799 12.9 7.74998 12.9C10.042 12.9 11.9 14.758 11.9 17.05Z" fill="url(#paint0_linear_556_854)" fill-opacity="0.3"/>
<path d="M11.85 17.05C11.85 19.3144 10.0143 21.15 7.74998 21.15C5.48561 21.15 3.64998 19.3144 3.64998 17.05C3.64998 14.7856 5.48561 12.95 7.74998 12.95C10.0143 12.95 11.85 14.7856 11.85 17.05Z" stroke="white" stroke-opacity="0.56" stroke-width="0.1"/>
<g filter="url(#filter0_b_556_854)">
<rect x="1.40002" y="8.60001" width="21.2" height="13.8" rx="3" fill="url(#paint1_linear_556_854)" fill-opacity="0.3"/>
<rect x="1.45002" y="8.65001" width="21.1" height="13.7" rx="2.95" stroke="url(#paint2_linear_556_854)" stroke-width="0.1"/>
<rect x="1.45002" y="8.65001" width="21.1" height="13.7" rx="2.95" stroke="url(#paint3_radial_556_854)" stroke-width="0.1"/>
</g>
<g filter="url(#filter1_b_556_854)">
<rect x="16.3" y="7.79999" width="3.1" height="5.1" rx="0.8" fill="url(#paint4_linear_556_854)" fill-opacity="0.3"/>
<rect x="16.35" y="7.84999" width="3" height="5" rx="0.75" stroke="url(#paint5_linear_556_854)" stroke-width="0.1"/>
<rect x="16.35" y="7.84999" width="3" height="5" rx="0.75" stroke="url(#paint6_radial_556_854)" stroke-width="0.1"/>
</g>
<circle cx="17.85" cy="11.45" r="0.85" fill="white"/>
<path fill-rule="evenodd" clip-rule="evenodd" d="M8.70896 13.8829C8.6443 13.7008 8.4442 13.6055 8.26204 13.6702C8.07988 13.7349 7.98463 13.935 8.04929 14.1171L8.77094 16.15H8.04995C7.85665 16.15 7.69995 16.3067 7.69995 16.5C7.69995 16.6933 7.85665 16.85 8.04995 16.85H9.01943L9.8597 19.2171C9.90932 19.3569 10.0417 19.4502 10.19 19.45C10.3384 19.4498 10.4705 19.3561 10.5197 19.2162L11.9868 15.0463L13.4808 19.218C13.5307 19.3574 13.6628 19.4502 13.8108 19.45C13.9588 19.4498 14.0907 19.3566 14.1402 19.2171L15.9506 14.1171C16.0152 13.935 15.92 13.7349 15.7378 13.6702C15.5557 13.6055 15.3556 13.7008 15.2909 13.8829L13.8089 18.0579L12.3133 13.882C12.2634 13.7425 12.131 13.6496 11.9829 13.65C11.8347 13.6504 11.7029 13.7441 11.6537 13.8839L10.1881 18.0496L8.70896 13.8829Z" fill="white"/>
<path d="M14 16.5H16" stroke="white" stroke-width="0.7" stroke-linecap="round"/>
<path d="M10.4 16.5L12.8 16.6" stroke="white" stroke-width="0.7" stroke-linecap="round"/>
<defs>
<filter id="filter0_b_556_854" x="-1.59998" y="5.60001" width="27.2" height="19.8" filterUnits="userSpaceOnUse" color-interpolation-filters="sRGB">
<feFlood flood-opacity="0" result="BackgroundImageFix"/>
<feGaussianBlur in="BackgroundImageFix" stdDeviation="1.5"/>
<feComposite in2="SourceAlpha" operator="in" result="effect1_backgroundBlur_556_854"/>
<feBlend mode="normal" in="SourceGraphic" in2="effect1_backgroundBlur_556_854" result="shape"/>
</filter>
<filter id="filter1_b_556_854" x="13.3" y="4.79999" width="9.09998" height="11.1" filterUnits="userSpaceOnUse" color-interpolation-filters="sRGB">
<feFlood flood-opacity="0" result="BackgroundImageFix"/>
<feGaussianBlur in="BackgroundImageFix" stdDeviation="1.5"/>
<feComposite in2="SourceAlpha" operator="in" result="effect1_backgroundBlur_556_854"/>
<feBlend mode="normal" in="SourceGraphic" in2="effect1_backgroundBlur_556_854" result="shape"/>
</filter>
<linearGradient id="paint0_linear_556_854" x1="4.48817" y1="13.6658" x2="13.4469" y2="18.3045" gradientUnits="userSpaceOnUse">
<stop stop-color="#B4B4B4" stop-opacity="0.9"/>
<stop offset="0.447036" stop-color="#B3B3B3" stop-opacity="0.955296"/>
<stop offset="1" stop-color="#666666" stop-opacity="0.9"/>
</linearGradient>
<linearGradient id="paint1_linear_556_854" x1="3.66866" y1="9.87322" x2="21.4411" y2="24.0101" gradientUnits="userSpaceOnUse">
<stop stop-color="#B4B4B4" stop-opacity="0.9"/>
<stop offset="0.447036" stop-color="#B3B3B3" stop-opacity="0.955296"/>
<stop offset="1" stop-color="#666666" stop-opacity="0.9"/>
</linearGradient>
<linearGradient id="paint2_linear_556_854" x1="4.45095" y1="8.10715" x2="19.217" y2="21.3515" gradientUnits="userSpaceOnUse">
<stop offset="0.188941" stop-color="#EAE7FF" stop-opacity="0.523483"/>
<stop offset="0.526042" stop-color="#C5C5C5"/>
<stop offset="1" stop-color="#C7B4FF" stop-opacity="0.1"/>
</linearGradient>
<radialGradient id="paint3_radial_556_854" cx="0" cy="0" r="1" gradientUnits="userSpaceOnUse" gradientTransform="translate(4.56829 21.9482) rotate(-38.7713) scale(13.4453 21.9429)">
<stop stop-color="white"/>
<stop offset="1" stop-color="white" stop-opacity="0"/>
</radialGradient>
<linearGradient id="paint4_linear_556_854" x1="16.6318" y1="8.27052" x2="20.4925" y2="9.48561" gradientUnits="userSpaceOnUse">
<stop stop-color="#B4B4B4" stop-opacity="0.9"/>
<stop offset="0.447036" stop-color="#B3B3B3" stop-opacity="0.955296"/>
<stop offset="1" stop-color="#666666" stop-opacity="0.9"/>
</linearGradient>
<linearGradient id="paint5_linear_556_854" x1="16.7462" y1="7.61784" x2="20.2066" y2="8.84595" gradientUnits="userSpaceOnUse">
<stop offset="0.188941" stop-color="#EAE7FF" stop-opacity="0.523483"/>
<stop offset="0.526042" stop-color="#C5C5C5"/>
<stop offset="1" stop-color="#C7B4FF" stop-opacity="0.1"/>
</linearGradient>
<radialGradient id="paint6_radial_556_854" cx="0" cy="0" r="1" gradientUnits="userSpaceOnUse" gradientTransform="translate(16.7633 12.733) rotate(-63.7742) scale(3.46867 4.59641)">
<stop stop-color="white"/>
<stop offset="1" stop-color="white" stop-opacity="0"/>
</radialGradient>
</defs>
</svg>
