<svg width="24" height="24" viewBox="0 0 24 24" fill="none" xmlns="http://www.w3.org/2000/svg">
<path d="M17.7 7.64999C17.7 10.8256 15.1256 13.4 11.95 13.4C8.77437 13.4 6.20001 10.8256 6.20001 7.64999C6.20001 4.47436 8.77437 1.89999 11.95 1.89999C15.1256 1.89999 17.7 4.47436 17.7 7.64999Z" fill="#6916F8"/>
<path d="M11.9 17.05C11.9 19.342 10.042 21.2 7.74998 21.2C5.45799 21.2 3.59998 19.342 3.59998 17.05C3.59998 14.758 5.45799 12.9 7.74998 12.9C10.042 12.9 11.9 14.758 11.9 17.05Z" fill="url(#paint0_linear_556_1071)" fill-opacity="0.3"/>
<path d="M11.85 17.05C11.85 19.3144 10.0143 21.15 7.74998 21.15C5.48561 21.15 3.64998 19.3144 3.64998 17.05C3.64998 14.7856 5.48561 12.95 7.74998 12.95C10.0143 12.95 11.85 14.7856 11.85 17.05Z" stroke="white" stroke-opacity="0.56" stroke-width="0.1"/>
<g filter="url(#filter0_b_556_1071)">
<rect x="1.40002" y="8.60001" width="21.2" height="13.8" rx="3" fill="url(#paint1_linear_556_1071)" fill-opacity="0.3"/>
<rect x="1.45002" y="8.65001" width="21.1" height="13.7" rx="2.95" stroke="url(#paint2_linear_556_1071)" stroke-width="0.1"/>
<rect x="1.45002" y="8.65001" width="21.1" height="13.7" rx="2.95" stroke="url(#paint3_radial_556_1071)" stroke-width="0.1"/>
</g>
<g filter="url(#filter1_b_556_1071)">
<rect x="16.3" y="7.79999" width="3.1" height="5.1" rx="0.8" fill="url(#paint4_linear_556_1071)" fill-opacity="0.3"/>
<rect x="16.35" y="7.84999" width="3" height="5" rx="0.75" stroke="url(#paint5_linear_556_1071)" stroke-width="0.1"/>
<rect x="16.35" y="7.84999" width="3" height="5" rx="0.75" stroke="url(#paint6_radial_556_1071)" stroke-width="0.1"/>
</g>
<path d="M18.7 11.45C18.7 11.9194 18.3194 12.3 17.85 12.3C17.3806 12.3 17 11.9194 17 11.45C17 10.9806 17.3806 10.6 17.85 10.6C18.3194 10.6 18.7 10.9806 18.7 11.45Z" fill="white"/>
<path fill-rule="evenodd" clip-rule="evenodd" d="M8.70902 13.8829C8.64436 13.7008 8.44427 13.6055 8.2621 13.6702C8.07994 13.7349 7.98469 13.935 8.04935 14.1171L8.771 16.15H8.05001C7.85671 16.15 7.70001 16.3067 7.70001 16.5C7.70001 16.6933 7.85671 16.85 8.05001 16.85H9.01949L9.85976 19.2171C9.90938 19.3569 10.0417 19.4502 10.1901 19.45C10.3384 19.4498 10.4705 19.3561 10.5198 19.2162L11.9868 15.0463L13.4809 19.218C13.5308 19.3574 13.6629 19.4502 13.8109 19.45C13.9589 19.4498 14.0907 19.3566 14.1402 19.2171L15.9506 14.1171C16.0153 13.935 15.9201 13.7349 15.7379 13.6702C15.5557 13.6055 15.3556 13.7008 15.291 13.8829L13.8089 18.0579L12.3134 13.882C12.2635 13.7425 12.1311 13.6496 11.9829 13.65C11.8348 13.6504 11.7029 13.7441 11.6537 13.8839L10.1881 18.0496L8.70902 13.8829Z" fill="white"/>
<path d="M14 16.5H16" stroke="white" stroke-width="0.7" stroke-linecap="round"/>
<path d="M10.4 16.5L12.8 16.6" stroke="white" stroke-width="0.7" stroke-linecap="round"/>
<defs>
<filter id="filter0_b_556_1071" x="-1.59998" y="5.60001" width="27.2" height="19.8" filterUnits="userSpaceOnUse" color-interpolation-filters="sRGB">
<feFlood flood-opacity="0" result="BackgroundImageFix"/>
<feGaussianBlur in="BackgroundImageFix" stdDeviation="1.5"/>
<feComposite in2="SourceAlpha" operator="in" result="effect1_backgroundBlur_556_1071"/>
<feBlend mode="normal" in="SourceGraphic" in2="effect1_backgroundBlur_556_1071" result="shape"/>
</filter>
<filter id="filter1_b_556_1071" x="13.3" y="4.79999" width="9.09998" height="11.1" filterUnits="userSpaceOnUse" color-interpolation-filters="sRGB">
<feFlood flood-opacity="0" result="BackgroundImageFix"/>
<feGaussianBlur in="BackgroundImageFix" stdDeviation="1.5"/>
<feComposite in2="SourceAlpha" operator="in" result="effect1_backgroundBlur_556_1071"/>
<feBlend mode="normal" in="SourceGraphic" in2="effect1_backgroundBlur_556_1071" result="shape"/>
</filter>
<linearGradient id="paint0_linear_556_1071" x1="4.48817" y1="13.6658" x2="13.4469" y2="18.3045" gradientUnits="userSpaceOnUse">
<stop stop-color="#9B63FA" stop-opacity="0.9"/>
<stop offset="0.447036" stop-color="#9B63FA" stop-opacity="0.955296"/>
<stop offset="1" stop-color="#8E4BFF" stop-opacity="0.9"/>
</linearGradient>
<linearGradient id="paint1_linear_556_1071" x1="3.66866" y1="9.87322" x2="21.4411" y2="24.0101" gradientUnits="userSpaceOnUse">
<stop stop-color="#9B63FA" stop-opacity="0.9"/>
<stop offset="0.447036" stop-color="#9B63FA" stop-opacity="0.955296"/>
<stop offset="1" stop-color="#8E4BFF" stop-opacity="0.9"/>
</linearGradient>
<linearGradient id="paint2_linear_556_1071" x1="4.45095" y1="8.10715" x2="19.217" y2="21.3515" gradientUnits="userSpaceOnUse">
<stop offset="0.188941" stop-color="#EAE7FF" stop-opacity="0.523483"/>
<stop offset="0.526042" stop-color="#B790FC"/>
<stop offset="1" stop-color="#C7B4FF" stop-opacity="0.1"/>
</linearGradient>
<radialGradient id="paint3_radial_556_1071" cx="0" cy="0" r="1" gradientUnits="userSpaceOnUse" gradientTransform="translate(4.56829 21.9482) rotate(-38.7713) scale(13.4453 21.9429)">
<stop stop-color="white"/>
<stop offset="1" stop-color="white" stop-opacity="0"/>
</radialGradient>
<linearGradient id="paint4_linear_556_1071" x1="16.6317" y1="8.27052" x2="20.4924" y2="9.48561" gradientUnits="userSpaceOnUse">
<stop stop-color="#9B63FA" stop-opacity="0.9"/>
<stop offset="0.447036" stop-color="#9B63FA" stop-opacity="0.955296"/>
<stop offset="1" stop-color="#8E4BFF" stop-opacity="0.9"/>
</linearGradient>
<linearGradient id="paint5_linear_556_1071" x1="16.7461" y1="7.61784" x2="20.2065" y2="8.84595" gradientUnits="userSpaceOnUse">
<stop offset="0.188941" stop-color="#EAE7FF" stop-opacity="0.523483"/>
<stop offset="0.526042" stop-color="#B790FC"/>
<stop offset="1" stop-color="#C7B4FF" stop-opacity="0.1"/>
</linearGradient>
<radialGradient id="paint6_radial_556_1071" cx="0" cy="0" r="1" gradientUnits="userSpaceOnUse" gradientTransform="translate(16.7633 12.733) rotate(-63.7742) scale(3.46867 4.59641)">
<stop stop-color="white"/>
<stop offset="1" stop-color="white" stop-opacity="0"/>
</radialGradient>
</defs>
</svg>
