<svg width="17" height="16" viewBox="0 0 17 16" fill="none" xmlns="http://www.w3.org/2000/svg">
<path d="M8.5 0C10.0368 0 11.4582 0.299102 12.7642 0.897306C14.0702 1.49551 15.1027 2.30895 15.8616 3.33761C16.6205 4.36623 17 5.48827 17 6.70368C17 7.91906 16.6205 9.04267 15.8616 10.0745C15.1027 11.1063 14.0718 11.9213 12.769 12.5195C11.4661 13.1177 10.0431 13.4169 8.5 13.4169C8.01303 13.4169 7.51021 13.382 6.99163 13.3124C4.74013 14.8759 3.54168 15.6672 3.39621 15.6862C3.32664 15.7115 3.26021 15.7084 3.19698 15.6767C3.17167 15.6577 3.15271 15.6324 3.14006 15.6007C3.1274 15.5691 3.12109 15.5406 3.12109 15.5153V15.4773C3.15906 15.2304 3.44679 14.2018 3.98438 12.3914C2.76377 11.7837 1.79455 10.9781 1.07673 9.97479C0.35891 8.97148 0 7.88109 0 6.70368C0 5.48827 0.379465 4.36623 1.13839 3.33761C1.89732 2.30895 2.92978 1.49551 4.23577 0.897306C5.54175 0.299102 6.96316 0 8.5 0Z" fill="black"/>
</svg>
