<svg width="155" height="56" viewBox="0 0 155 56" fill="none" xmlns="http://www.w3.org/2000/svg">
<g filter="url(#filter0_d_1409_2143)">
<rect x="8" y="7" width="139" height="32" rx="16" fill="white"/>
<path d="M27 22H24V15L19 25H22V33L27 22Z" fill="#FEC637"/>
<path d="M35.5984 27.1074C34.0516 27.1074 32.9397 26.2803 32.8914 25.0449H33.8689C33.9226 25.7861 34.6585 26.248 35.5877 26.248C36.6136 26.248 37.3548 25.6948 37.3601 24.8838C37.3548 24.0352 36.678 23.439 35.4695 23.4336H34.8357V22.585H35.4695C36.4148 22.585 37.0755 22.0532 37.0701 21.2529C37.0755 20.4741 36.5061 19.9585 35.6199 19.9531C34.7874 19.9585 34.0301 20.415 33.9871 21.1777H33.0525C33.1009 19.9424 34.2503 19.1152 35.6307 19.1152C37.1131 19.1152 38.0154 20.0874 38.0047 21.1992C38.0154 22.0854 37.4998 22.73 36.6834 22.9609V23.0146C37.6985 23.1704 38.3108 23.8955 38.3055 24.8838C38.3108 26.1621 37.1507 27.1074 35.5984 27.1074ZM48.4444 25.958V26.667H39.7003V25.958H43.6427V23.7666H44.4698V25.958H48.4444ZM40.1837 23.4443C42.026 23.1489 43.6212 22.0371 43.6319 20.5439H40.5167V19.8457H43.6427V18.5244H44.4698V19.8457H47.6065V20.5439H44.4913C44.4913 22.0371 46.0865 23.1489 47.9181 23.4443L47.5958 24.1104C46.0704 23.8418 44.6686 23.0684 44.0563 21.8706C43.4547 23.0684 42.0528 23.8418 40.5167 24.1104L40.1837 23.4443ZM54.3725 19.1904V23.584L49.9574 23.584V19.1904H54.3725ZM50.7846 22.9072L53.5561 22.9072V19.8779H50.7846V22.9072ZM51.0424 27.666V24.6582H51.8695V26.957L57.4555 26.957V27.666L51.0424 27.666ZM56.1772 25.3242V18.3203H57.0151V21.2314H58.4545V21.9404H57.0151V25.3242H56.1772ZM67.5837 18.3203V27.8701L66.7673 27.8701V18.3203H67.5837ZM59.5163 22.4453C59.5217 20.415 60.3274 19.1313 61.5681 19.126C62.7282 19.1313 63.5124 20.2485 63.6198 22.0479H64.8552V18.5244H65.6609V27.3867H64.8552V22.7461H63.6252C63.5447 24.6045 62.7444 25.77 61.5681 25.7646C60.3274 25.77 59.5217 24.4756 59.5163 22.4453ZM60.3113 22.4453C60.3005 23.9922 60.7947 24.9697 61.5681 24.959C62.3469 24.9697 62.841 23.9922 62.8357 22.4453C62.841 20.8931 62.3469 19.9209 61.5681 19.9209C60.7947 19.9209 60.3005 20.8931 60.3113 22.4453ZM79.9984 18.3203V22.0586H81.2982V22.7783H79.9984V27.8701H79.1605V18.3203H79.9984ZM72.5433 25.5605V19.2119H73.2738V21.6826H74.4769V19.2119H75.1966V25.5605H72.5433ZM73.2738 24.8516H74.4769V22.3594H73.2738V24.8516ZM75.7122 25.5605V19.2119H76.432V21.6826H77.6029V19.2119H78.3226V25.5605H75.7122ZM76.432 24.8516H77.6029V22.3594H76.432V24.8516ZM90.9323 23.6162V24.3145H82.1881V23.6162H90.9323ZM83.2946 19.3301V18.6533H89.8044V21.0059H84.1647V22.0693H90.0085V22.7354H83.3268V20.3721H88.9557V19.3301H83.2946ZM83.3483 27.666V25.0664H84.1969V26.957H90.0085V27.666H83.3483ZM102.982 18.3203V27.8701H102.144V18.3203H102.982ZM95.2044 25.3242C96.0208 25.3188 96.9553 25.3135 97.9221 25.2813V24.2393C96.7727 24.1211 96.0315 23.4658 96.0423 22.5098C96.0315 21.4302 96.95 20.7319 98.3303 20.7373C99.7107 20.7319 100.645 21.4302 100.64 22.5098C100.645 23.4551 99.9041 24.1104 98.7708 24.2393V25.249C99.6946 25.2061 100.629 25.1416 101.51 25.0234L101.574 25.668C99.4422 26.0117 97.1057 26.0439 95.3333 26.0439L95.2044 25.3242ZM95.4085 20.1895V19.502H97.9221V18.3311H98.7708V19.502H101.263V20.1895H95.4085ZM96.8264 22.5098C96.8211 23.1704 97.4441 23.6055 98.3303 23.5947C99.222 23.6055 99.8396 23.1704 99.8343 22.5098C99.8396 21.8438 99.222 21.3926 98.3303 21.3926C97.4441 21.3926 96.8211 21.8438 96.8264 22.5098ZM112.874 18.3311V25.582H112.025V24.5938L110.048 24.5938V23.9814L112.025 23.9814V18.3311H112.874ZM104.946 22.7568C106.724 22.7461 109.119 22.73 111.166 22.4775L111.219 23.0898C110.371 23.2241 109.474 23.3101 108.598 23.3638V25.249H107.75V23.4067C106.783 23.4443 105.864 23.4443 105.064 23.4443L104.946 22.7568ZM105.719 20.3828C105.714 19.3784 106.67 18.7178 108.083 18.7178C109.484 18.7178 110.441 19.3784 110.446 20.3828C110.441 21.4033 109.484 22.0371 108.083 22.0371C106.67 22.0371 105.714 21.4033 105.719 20.3828ZM106.321 27.666V24.873H107.17V26.957L113.11 26.957V27.666L106.321 27.666ZM106.525 20.3828C106.514 21.0059 107.148 21.4087 108.083 21.4141C108.99 21.4087 109.635 21.0059 109.64 20.3828C109.635 19.7705 108.99 19.3516 108.083 19.3623C107.148 19.3516 106.514 19.7705 106.525 20.3828ZM122.239 18.3203V22.209H123.786V22.918H122.239V27.8701H121.401V18.3203H122.239ZM114.913 25.3887C117.378 24.1641 118.721 22.3218 118.914 20.0605H115.353V19.3516H119.768C119.763 22.0532 118.495 24.5186 115.386 26.0547L114.913 25.3887ZM132.582 18.3203V23.4443H131.744V18.3203H132.582ZM124.923 20.9844C124.918 19.6792 125.976 18.7822 127.426 18.793C128.876 18.7822 129.924 19.6792 129.929 20.9844C129.924 22.2842 128.876 23.1812 127.426 23.1758C125.976 23.1812 124.918 22.2842 124.923 20.9844ZM125.75 20.9844C125.739 21.8545 126.443 22.4722 127.426 22.4775C128.398 22.4722 129.102 21.8545 129.102 20.9844C129.102 20.1089 128.398 19.4966 127.426 19.502C126.443 19.4966 125.739 20.1089 125.75 20.9844ZM126.395 27.7412V23.9277H127.233V25.0879H131.744V23.9277H132.582V27.7412H126.395ZM127.233 27.0537H131.744V25.7646H127.233V27.0537Z" fill="black"/>
<path d="M77 47L72.6699 38.75H81.3301L77 47Z" fill="white"/>
</g>
<defs>
<filter id="filter0_d_1409_2143" x="0" y="0" width="155" height="56" filterUnits="userSpaceOnUse" color-interpolation-filters="sRGB">
<feFlood flood-opacity="0" result="BackgroundImageFix"/>
<feColorMatrix in="SourceAlpha" type="matrix" values="0 0 0 0 0 0 0 0 0 0 0 0 0 0 0 0 0 0 127 0" result="hardAlpha"/>
<feOffset dy="1"/>
<feGaussianBlur stdDeviation="4"/>
<feComposite in2="hardAlpha" operator="out"/>
<feColorMatrix type="matrix" values="0 0 0 0 0.384314 0 0 0 0 0.384314 0 0 0 0 0.45098 0 0 0 0.2 0"/>
<feBlend mode="normal" in2="BackgroundImageFix" result="effect1_dropShadow_1409_2143"/>
<feBlend mode="normal" in="SourceGraphic" in2="effect1_dropShadow_1409_2143" result="shape"/>
</filter>
</defs>
</svg>
