<svg width="45" height="26" viewBox="0 0 45 26" fill="none" xmlns="http://www.w3.org/2000/svg">
<path d="M30.0982 20.216C30.0982 21.5431 31.4529 22.0131 35.5723 22.0131C39.6641 22.0131 40.9912 21.5431 40.9912 20.216C40.9912 18.889 39.6641 18.419 35.5723 18.419C31.4529 18.419 30.0982 18.889 30.0982 20.216ZM32.8076 6.97303V1.94125C32.8076 1.36065 33.1394 1.02889 33.72 1.02889H35.6276C36.2082 1.02889 36.54 1.36065 36.54 1.94125V6.33714C36.54 8.21715 37.2865 9.2401 38.6965 9.37833C39.2771 9.43363 39.5535 9.7101 39.5535 10.263V12.226C39.5535 12.8066 39.2494 13.1107 38.6965 13.1107C36.7335 13.1107 35.3512 12.1154 34.7706 10.3183C34.2453 12.0878 33.0841 13.1107 31.5635 13.1107C30.0429 13.1107 28.8817 12.0878 28.3564 10.3183C27.7758 12.1154 26.3935 13.1107 24.4305 13.1107C23.8776 13.1107 23.5735 12.8066 23.5735 12.226V10.263C23.5735 9.7101 23.85 9.43363 24.4305 9.37833C25.8405 9.2401 26.587 8.21715 26.587 6.33714V1.94125C26.587 1.36065 26.9188 1.02889 27.4994 1.02889H29.407C29.9876 1.02889 30.3194 1.36065 30.3194 1.94125V7.11127C30.3194 8.65951 30.7064 9.37833 31.5635 9.37833C32.4206 9.37833 32.8076 8.65951 32.8076 6.97303ZM26.117 20.216C26.117 16.5942 29.2135 14.8248 35.5723 14.8248C41.9035 14.8248 45 16.5942 45 20.216C45 23.8378 41.9035 25.6072 35.5723 25.6072C29.2135 25.6072 26.117 23.8378 26.117 20.216ZM40.6594 1.25007C40.6594 0.697123 40.9635 0.393005 41.5165 0.393005H43.5347C44.0876 0.393005 44.3918 0.697123 44.3918 1.25007V12.9725C44.3918 13.5254 44.0876 13.8295 43.5347 13.8295H41.5165C40.9635 13.8295 40.6594 13.5254 40.6594 12.9725V1.25007Z" fill="#552FE9"/>
<path d="M18.7447 18.6125C17.9983 18.6678 17.5559 18.9719 17.5559 19.7736V23.2848C17.5559 23.8654 17.2518 24.1972 16.6712 24.1972H14.4594C13.8789 24.1972 13.5471 23.8654 13.5471 23.2848V20.2713C13.5471 19.6078 13.8789 19.0548 14.3765 18.8336C12.6347 18.8613 9.89767 18.8613 9.06826 18.8613C8.26649 18.8613 7.87943 19.276 7.87943 20.0225V23.2848C7.87943 23.8654 7.57531 24.1972 6.99472 24.1972H4.78295C4.20236 24.1972 3.8706 23.8654 3.8706 23.2848V20.2436C3.8706 19.5801 4.20236 18.9995 4.70001 18.7507C3.23471 18.6954 1.99059 18.5572 0.912355 18.3913C0.276471 18.3083 0 18.0319 0 17.5066V15.4607C0 14.8801 0.331766 14.5483 0.912355 14.6313C3.29001 14.9354 6.93943 15.1013 10.81 15.1013C15.123 15.1013 19.0489 14.9077 20.763 14.6313C21.3436 14.5207 21.703 14.8801 21.703 15.4607V17.5066C21.703 18.0042 21.4265 18.3083 20.7906 18.3913C20.1824 18.4742 19.4636 18.5572 18.7447 18.6125ZM2.29471 6.80713C2.29471 4.92712 2.35001 3.21299 2.46059 1.85828C2.51589 1.30534 2.84765 1.00122 3.48354 1.00122H5.66766C6.2206 1.00122 6.49707 1.30534 6.46943 1.91358C6.38649 3.1577 6.30354 4.59535 6.30354 6.5583C6.30354 8.52125 7.1606 9.29537 9.37237 9.29537C12.4965 9.29537 16.3118 9.07419 19.0765 8.65948C19.6295 8.57654 19.9612 8.88066 20.0165 9.46125L20.2377 11.5071C20.293 12.0324 19.9889 12.3089 19.4083 12.3919C16.6989 12.7789 12.8836 13.0277 9.26179 13.0277C4.50648 13.0277 2.29471 11.0924 2.29471 6.80713Z" fill="#552FE9"/>
</svg>
