<svg width="34" height="24" viewBox="0 0 34 24" fill="none" xmlns="http://www.w3.org/2000/svg">
<path fill-rule="evenodd" clip-rule="evenodd" d="M30.4406 7.80575C30.4406 8.20766 30.4102 8.60248 30.3517 8.98803C32.5438 10.3701 34.0001 12.8129 34.0001 15.5958C34.0001 19.5949 30.9928 22.8915 27.1163 23.3477V23.3687H26.9149C26.6776 23.3904 26.4373 23.4015 26.1944 23.4015C25.9514 23.4015 25.7111 23.3904 25.4739 23.3687H17.1925C17.08 23.3735 16.9669 23.376 16.8532 23.376C16.7395 23.376 16.6264 23.3735 16.5139 23.3687H8.52358C8.28717 23.3903 8.04772 23.4013 7.80569 23.4013C7.56366 23.4013 7.32421 23.3903 7.0878 23.3687H6.84519V23.3428C2.98734 22.8694 -5.384e-05 19.5813 -5.384e-05 15.5955C-5.384e-05 12.3011 2.04089 9.4833 4.92738 8.33762C5.77881 4.9491 8.8455 2.4402 12.4982 2.4402C13.8406 2.4402 15.1038 2.77906 16.207 3.3759C17.6152 1.33644 19.969 1.90735e-06 22.6349 1.90735e-06C26.9459 1.90735e-06 30.4406 3.49475 30.4406 7.80575Z" fill="#735EF4"/>
</svg>
