<svg width="59" height="73" viewBox="0 0 59 73" fill="none" xmlns="http://www.w3.org/2000/svg">
<rect width="59" height="73" fill="#292929"/>
<g id="&#235;&#169;&#148;&#236;&#157;&#184;">
<path d="M-6405 -2985C-6405 -2986.1 -6404.1 -2987 -6403 -2987H7857C7858.1 -2987 7859 -2986.1 7859 -2985V9005C7859 9006.1 7858.1 9007 7857 9007H-6403C-6404.1 9007 -6405 9006.1 -6405 9005V-2985Z" fill="#404040"/>
<path d="M-6403 -2986H7857V-2988H-6403V-2986ZM7858 -2985V9005H7860V-2985H7858ZM7857 9006H-6403V9008H7857V9006ZM-6404 9005V-2985H-6406V9005H-6404ZM-6403 9006C-6403.55 9006 -6404 9005.55 -6404 9005H-6406C-6406 9006.66 -6404.66 9008 -6403 9008V9006ZM7858 9005C7858 9005.55 7857.55 9006 7857 9006V9008C7858.66 9008 7860 9006.66 7860 9005H7858ZM7857 -2986C7857.55 -2986 7858 -2985.55 7858 -2985H7860C7860 -2986.66 7858.66 -2988 7857 -2988V-2986ZM-6403 -2988C-6404.66 -2988 -6406 -2986.66 -6406 -2985H-6404C-6404 -2985.55 -6403.55 -2986 -6403 -2986V-2988Z" fill="white" fill-opacity="0.1"/>
<g id="&#235;&#137;&#180;&#236;&#138;&#164;&#235;&#160;&#136;&#237;&#132;&#176;(&#235;&#140;&#147;&#234;&#184;&#128;&#236;&#151;&#180;&#235;&#166;&#188;)" clip-path="url(#clip0_1226_2225)">
<rect width="1440" height="9400" transform="translate(-160 -1856)" fill="white"/>
<g id="Frame 238265">
<rect x="-95.9961" y="-248" width="1311.99" height="1096" rx="40" fill="#F5F5F9"/>
<g id="Group 238162">
<g id="Frame 238113" clip-path="url(#clip1_1226_2225)">
<path id="Union" d="M44.6069 27.3827C44.6669 26.909 44.6978 26.4263 44.6978 25.9364C44.6978 19.6232 39.5632 14.5054 33.2292 14.5054C29.0911 14.5054 25.4648 16.6899 23.4479 19.965C22.1636 19.4786 20.7705 19.2123 19.3151 19.2123C12.888 19.2123 7.67777 24.4054 7.67777 30.8114C7.67777 31.4817 7.73482 32.1387 7.84433 32.7779C3.29577 34.2344 0.00390625 38.4856 0.00390625 43.5032C0.00390625 49.6393 4.92693 54.6293 11.0509 54.7634V54.7662H58.0217L53.5255 50.7359C52.3604 49.6915 52.3827 47.8739 53.2653 46.5819C54.6173 44.6028 55.4075 42.2118 55.4075 39.6369C55.4075 33.3519 50.6995 28.163 44.6069 27.3827Z" fill="url(#paint0_linear_1226_2225)" fill-opacity="0.5"/>
</g>
</g>
</g>
</g>
</g>
<defs>
<linearGradient id="paint0_linear_1226_2225" x1="6.21245" y1="18.2199" x2="57.2238" y2="56.2823" gradientUnits="userSpaceOnUse">
<stop stop-color="#735EF4" stop-opacity="0.73"/>
<stop offset="0.447036" stop-color="#735EF4"/>
<stop offset="1" stop-color="#735EF4" stop-opacity="0.55"/>
</linearGradient>
<clipPath id="clip0_1226_2225">
<rect width="1440" height="9400" fill="white" transform="translate(-160 -1856)"/>
</clipPath>
<clipPath id="clip1_1226_2225">
<rect width="58.1543" height="72.5222" fill="white" transform="translate(0.00390625)"/>
</clipPath>
</defs>
</svg>
