<svg width="24" height="24" viewBox="0 0 24 24" fill="none" xmlns="http://www.w3.org/2000/svg">
<mask id="path-1-inside-1_908_11429" fill="white">
<path fill-rule="evenodd" clip-rule="evenodd" d="M18.2019 9.94136V15.1796C18.2019 15.1798 18.2021 15.1799 18.2022 15.1797C18.2023 15.1796 18.2024 15.1796 18.2025 15.1797L19.1248 16.6635C19.5743 17.3867 19.0542 18.3224 18.2027 18.3224H16.2488C16.2488 18.3224 16.2488 18.3224 16.2488 18.3223C16.2488 18.3223 16.2488 18.3223 16.2488 18.3223H7.74921C7.74919 18.3223 7.74918 18.3223 7.74919 18.3223C7.7492 18.3223 7.74919 18.3224 7.74917 18.3224H5.79562C4.94393 18.3224 4.42376 17.3866 4.87338 16.6632L5.52766 15.6106C5.70248 15.3294 5.79513 15.0048 5.79513 14.6737V9.94136C5.79513 9.94135 5.79513 9.94133 5.79513 9.94131C5.79516 7.0484 8.57251 4.70325 11.9985 4.70325C15.4246 4.70325 18.2019 7.0484 18.2019 9.94131C18.2019 9.94133 18.2019 9.94135 18.2019 9.94136Z"/>
</mask>
<path d="M5.79513 9.94131L4.49513 9.9413V9.94131H5.79513ZM18.2019 9.94131H19.5019V9.9413L18.2019 9.94131ZM5.52766 15.6106L4.42358 14.9243L5.52766 15.6106ZM4.87338 16.6632L3.76929 15.9769L4.87338 16.6632ZM19.1248 16.6635L20.2289 15.9772L19.1248 16.6635ZM18.2025 15.1797L19.3066 14.4934L18.2025 15.1797ZM16.9019 9.94136V15.1796H19.5019V9.94136H16.9019ZM17.0984 15.866L18.0207 17.3498L20.2289 15.9772L19.3066 14.4934L17.0984 15.866ZM18.2027 17.0224H16.2488V19.6224H18.2027V17.0224ZM16.2488 17.0223H7.74921V19.6223H16.2488V17.0223ZM7.74917 17.0224H5.79562V19.6224H7.74917V17.0224ZM5.97747 17.3495L6.63175 16.2969L4.42358 14.9243L3.76929 15.9769L5.97747 17.3495ZM7.09513 14.6737V9.94136H4.49513V14.6737H7.09513ZM7.09513 9.94136V9.94136C7.09513 9.94136 7.09513 9.94136 7.09513 9.94136C7.09513 9.94136 7.09513 9.94136 7.09513 9.94136V9.94136C7.09513 9.94136 7.09513 9.94136 7.09513 9.94136C7.09513 9.94136 7.09513 9.94136 7.09513 9.94136C7.09513 9.94136 7.09513 9.94136 7.09513 9.94136V9.94136C7.09513 9.94136 7.09513 9.94136 7.09513 9.94136C7.09513 9.94136 7.09513 9.94136 7.09513 9.94136C7.09513 9.94136 7.09513 9.94136 7.09513 9.94136V9.94136C7.09513 9.94136 7.09513 9.94136 7.09513 9.94136C7.09513 9.94136 7.09513 9.94136 7.09513 9.94136C7.09513 9.94136 7.09513 9.94136 7.09513 9.94136V9.94136C7.09513 9.94136 7.09513 9.94136 7.09513 9.94136C7.09513 9.94136 7.09513 9.94136 7.09513 9.94136C7.09513 9.94136 7.09513 9.94136 7.09513 9.94135V9.94135C7.09513 9.94135 7.09513 9.94135 7.09513 9.94135C7.09513 9.94135 7.09513 9.94135 7.09513 9.94135V9.94135V9.94135C7.09513 9.94135 7.09513 9.94135 7.09513 9.94135C7.09513 9.94135 7.09513 9.94135 7.09513 9.94135V9.94135V9.94135C7.09513 9.94135 7.09513 9.94135 7.09513 9.94135C7.09513 9.94135 7.09513 9.94135 7.09513 9.94135V9.94135V9.94135C7.09513 9.94135 7.09513 9.94135 7.09513 9.94135C7.09513 9.94135 7.09513 9.94135 7.09513 9.94135V9.94135C7.09513 9.94135 7.09513 9.94135 7.09513 9.94135C7.09513 9.94135 7.09513 9.94135 7.09513 9.94135C7.09513 9.94135 7.09513 9.94135 7.09513 9.94135V9.94135C7.09513 9.94134 7.09513 9.94134 7.09513 9.94134C7.09513 9.94134 7.09513 9.94134 7.09513 9.94134C7.09513 9.94134 7.09513 9.94134 7.09513 9.94134V9.94134C7.09513 9.94134 7.09513 9.94134 7.09513 9.94134C7.09513 9.94134 7.09513 9.94134 7.09513 9.94134C7.09513 9.94134 7.09513 9.94134 7.09513 9.94134V9.94134C7.09513 9.94134 7.09513 9.94134 7.09513 9.94134C7.09513 9.94134 7.09513 9.94134 7.09513 9.94134C7.09513 9.94134 7.09513 9.94134 7.09513 9.94134V9.94134C7.09513 9.94134 7.09513 9.94134 7.09513 9.94134C7.09513 9.94134 7.09513 9.94134 7.09513 9.94134V9.94134V9.94134C7.09513 9.94134 7.09513 9.94134 7.09513 9.94134C7.09513 9.94134 7.09513 9.94134 7.09513 9.94134V9.94134C7.09513 9.94134 7.09513 9.94134 7.09513 9.94134C7.09513 9.94134 7.09513 9.94134 7.09513 9.94134C7.09513 9.94134 7.09513 9.94134 7.09513 9.94133V9.94133C7.09513 9.94133 7.09513 9.94133 7.09513 9.94133C7.09513 9.94133 7.09513 9.94133 7.09513 9.94133C7.09513 9.94133 7.09513 9.94133 7.09513 9.94133V9.94133C7.09513 9.94133 7.09513 9.94133 7.09513 9.94133C7.09513 9.94133 7.09513 9.94133 7.09513 9.94133C7.09513 9.94133 7.09513 9.94133 7.09513 9.94133V9.94133C7.09513 9.94133 7.09513 9.94133 7.09513 9.94133C7.09513 9.94133 7.09513 9.94133 7.09513 9.94133C7.09513 9.94133 7.09513 9.94133 7.09513 9.94133V9.94133C7.09513 9.94133 7.09513 9.94133 7.09513 9.94133C7.09513 9.94133 7.09513 9.94133 7.09513 9.94133V9.94133V9.94133C7.09513 9.94133 7.09513 9.94133 7.09513 9.94133C7.09513 9.94133 7.09513 9.94133 7.09513 9.94133V9.94133V9.94132C7.09513 9.94132 7.09513 9.94132 7.09513 9.94132C7.09513 9.94132 7.09513 9.94132 7.09513 9.94132V9.94132V9.94132C7.09513 9.94132 7.09513 9.94132 7.09513 9.94132C7.09513 9.94132 7.09513 9.94132 7.09513 9.94132V9.94132C7.09513 9.94132 7.09513 9.94132 7.09513 9.94132C7.09513 9.94132 7.09513 9.94132 7.09513 9.94132C7.09513 9.94132 7.09513 9.94132 7.09513 9.94132V9.94132C7.09513 9.94132 7.09513 9.94132 7.09513 9.94132C7.09513 9.94132 7.09513 9.94132 7.09513 9.94132C7.09513 9.94132 7.09513 9.94132 7.09513 9.94132V9.94132C7.09513 9.94132 7.09513 9.94132 7.09513 9.94132C7.09513 9.94132 7.09513 9.94132 7.09513 9.94132C7.09513 9.94132 7.09513 9.94132 7.09513 9.94132V9.94132C7.09513 9.94132 7.09513 9.94132 7.09513 9.94132C7.09513 9.94132 7.09513 9.94132 7.09513 9.94131C7.09513 9.94131 7.09513 9.94131 7.09513 9.94131V9.94131C7.09513 9.94131 7.09513 9.94131 7.09513 9.94131C7.09513 9.94131 7.09513 9.94131 7.09513 9.94131V9.94131H4.49513V9.94131C4.49513 9.94131 4.49513 9.94131 4.49513 9.94131C4.49513 9.94131 4.49513 9.94131 4.49513 9.94131V9.94131C4.49513 9.94131 4.49513 9.94131 4.49513 9.94131C4.49513 9.94132 4.49513 9.94132 4.49513 9.94132C4.49513 9.94132 4.49513 9.94132 4.49513 9.94132V9.94132C4.49513 9.94132 4.49513 9.94132 4.49513 9.94132C4.49513 9.94132 4.49513 9.94132 4.49513 9.94132C4.49513 9.94132 4.49513 9.94132 4.49513 9.94132V9.94132C4.49513 9.94132 4.49513 9.94132 4.49513 9.94132C4.49513 9.94132 4.49513 9.94132 4.49513 9.94132C4.49513 9.94132 4.49513 9.94132 4.49513 9.94132V9.94132C4.49513 9.94132 4.49513 9.94132 4.49513 9.94132C4.49513 9.94132 4.49513 9.94132 4.49513 9.94132C4.49513 9.94132 4.49513 9.94132 4.49513 9.94132V9.94132C4.49513 9.94132 4.49513 9.94132 4.49513 9.94132C4.49513 9.94132 4.49513 9.94132 4.49513 9.94132V9.94132V9.94132C4.49513 9.94132 4.49513 9.94132 4.49513 9.94132C4.49513 9.94132 4.49513 9.94132 4.49513 9.94132V9.94133V9.94133C4.49513 9.94133 4.49513 9.94133 4.49513 9.94133C4.49513 9.94133 4.49513 9.94133 4.49513 9.94133V9.94133V9.94133C4.49513 9.94133 4.49513 9.94133 4.49513 9.94133C4.49513 9.94133 4.49513 9.94133 4.49513 9.94133V9.94133C4.49513 9.94133 4.49513 9.94133 4.49513 9.94133C4.49513 9.94133 4.49513 9.94133 4.49513 9.94133C4.49513 9.94133 4.49513 9.94133 4.49513 9.94133V9.94133C4.49513 9.94133 4.49513 9.94133 4.49513 9.94133C4.49513 9.94133 4.49513 9.94133 4.49513 9.94133C4.49513 9.94133 4.49513 9.94133 4.49513 9.94133V9.94133C4.49513 9.94133 4.49513 9.94133 4.49513 9.94133C4.49513 9.94133 4.49513 9.94133 4.49513 9.94133C4.49513 9.94133 4.49513 9.94133 4.49513 9.94133V9.94133C4.49513 9.94134 4.49513 9.94134 4.49513 9.94134C4.49513 9.94134 4.49513 9.94134 4.49513 9.94134C4.49513 9.94134 4.49513 9.94134 4.49513 9.94134V9.94134C4.49513 9.94134 4.49513 9.94134 4.49513 9.94134C4.49513 9.94134 4.49513 9.94134 4.49513 9.94134V9.94134V9.94134C4.49513 9.94134 4.49513 9.94134 4.49513 9.94134C4.49513 9.94134 4.49513 9.94134 4.49513 9.94134V9.94134C4.49513 9.94134 4.49513 9.94134 4.49513 9.94134C4.49513 9.94134 4.49513 9.94134 4.49513 9.94134C4.49513 9.94134 4.49513 9.94134 4.49513 9.94134V9.94134C4.49513 9.94134 4.49513 9.94134 4.49513 9.94134C4.49513 9.94134 4.49513 9.94134 4.49513 9.94134C4.49513 9.94134 4.49513 9.94134 4.49513 9.94134V9.94134C4.49513 9.94134 4.49513 9.94134 4.49513 9.94134C4.49513 9.94134 4.49513 9.94134 4.49513 9.94134C4.49513 9.94134 4.49513 9.94134 4.49513 9.94135V9.94135C4.49513 9.94135 4.49513 9.94135 4.49513 9.94135C4.49513 9.94135 4.49513 9.94135 4.49513 9.94135C4.49513 9.94135 4.49513 9.94135 4.49513 9.94135V9.94135C4.49513 9.94135 4.49513 9.94135 4.49513 9.94135C4.49513 9.94135 4.49513 9.94135 4.49513 9.94135V9.94135V9.94135C4.49513 9.94135 4.49513 9.94135 4.49513 9.94135C4.49513 9.94135 4.49513 9.94135 4.49513 9.94135V9.94135V9.94135C4.49513 9.94135 4.49513 9.94135 4.49513 9.94135C4.49513 9.94135 4.49513 9.94135 4.49513 9.94135V9.94135V9.94135C4.49513 9.94135 4.49513 9.94135 4.49513 9.94135C4.49513 9.94135 4.49513 9.94135 4.49513 9.94135V9.94135C4.49513 9.94136 4.49513 9.94136 4.49513 9.94136C4.49513 9.94136 4.49513 9.94136 4.49513 9.94136C4.49513 9.94136 4.49513 9.94136 4.49513 9.94136V9.94136C4.49513 9.94136 4.49513 9.94136 4.49513 9.94136C4.49513 9.94136 4.49513 9.94136 4.49513 9.94136C4.49513 9.94136 4.49513 9.94136 4.49513 9.94136V9.94136C4.49513 9.94136 4.49513 9.94136 4.49513 9.94136C4.49513 9.94136 4.49513 9.94136 4.49513 9.94136C4.49513 9.94136 4.49513 9.94136 4.49513 9.94136V9.94136C4.49513 9.94136 4.49513 9.94136 4.49513 9.94136C4.49513 9.94136 4.49513 9.94136 4.49513 9.94136C4.49513 9.94136 4.49513 9.94136 4.49513 9.94136V9.94136C4.49513 9.94136 4.49513 9.94136 4.49513 9.94136C4.49513 9.94136 4.49513 9.94136 4.49513 9.94136V9.94136H7.09513ZM7.09513 9.94133C7.09515 7.96378 9.07572 6.00325 11.9985 6.00325V3.40325C8.06929 3.40325 4.49517 6.13303 4.49513 9.9413L7.09513 9.94133ZM11.9985 6.00325C14.9213 6.00325 16.9019 7.96378 16.9019 9.94133L19.5019 9.9413C19.5019 6.13303 15.9278 3.40325 11.9985 3.40325V6.00325ZM16.9019 9.94131V9.94131C16.9019 9.94131 16.9019 9.94131 16.9019 9.94131C16.9019 9.94131 16.9019 9.94131 16.9019 9.94131V9.94131C16.9019 9.94131 16.9019 9.94131 16.9019 9.94131C16.9019 9.94132 16.9019 9.94132 16.9019 9.94132C16.9019 9.94132 16.9019 9.94132 16.9019 9.94132V9.94132C16.9019 9.94132 16.9019 9.94132 16.9019 9.94132C16.9019 9.94132 16.9019 9.94132 16.9019 9.94132C16.9019 9.94132 16.9019 9.94132 16.9019 9.94132V9.94132C16.9019 9.94132 16.9019 9.94132 16.9019 9.94132C16.9019 9.94132 16.9019 9.94132 16.9019 9.94132C16.9019 9.94132 16.9019 9.94132 16.9019 9.94132V9.94132C16.9019 9.94132 16.9019 9.94132 16.9019 9.94132C16.9019 9.94132 16.9019 9.94132 16.9019 9.94132C16.9019 9.94132 16.9019 9.94132 16.9019 9.94132V9.94132C16.9019 9.94132 16.9019 9.94132 16.9019 9.94132C16.9019 9.94132 16.9019 9.94132 16.9019 9.94132V9.94132V9.94132C16.9019 9.94132 16.9019 9.94132 16.9019 9.94132C16.9019 9.94132 16.9019 9.94132 16.9019 9.94132V9.94133V9.94133C16.9019 9.94133 16.9019 9.94133 16.9019 9.94133C16.9019 9.94133 16.9019 9.94133 16.9019 9.94133V9.94133V9.94133C16.9019 9.94133 16.9019 9.94133 16.9019 9.94133C16.9019 9.94133 16.9019 9.94133 16.9019 9.94133V9.94133C16.9019 9.94133 16.9019 9.94133 16.9019 9.94133C16.9019 9.94133 16.9019 9.94133 16.9019 9.94133C16.9019 9.94133 16.9019 9.94133 16.9019 9.94133V9.94133C16.9019 9.94133 16.9019 9.94133 16.9019 9.94133C16.9019 9.94133 16.9019 9.94133 16.9019 9.94133C16.9019 9.94133 16.9019 9.94133 16.9019 9.94133V9.94133C16.9019 9.94133 16.9019 9.94133 16.9019 9.94133C16.9019 9.94133 16.9019 9.94133 16.9019 9.94133C16.9019 9.94133 16.9019 9.94133 16.9019 9.94133V9.94133C16.9019 9.94134 16.9019 9.94134 16.9019 9.94134C16.9019 9.94134 16.9019 9.94134 16.9019 9.94134C16.9019 9.94134 16.9019 9.94134 16.9019 9.94134V9.94134C16.9019 9.94134 16.9019 9.94134 16.9019 9.94134C16.9019 9.94134 16.9019 9.94134 16.9019 9.94134V9.94134V9.94134C16.9019 9.94134 16.9019 9.94134 16.9019 9.94134C16.9019 9.94134 16.9019 9.94134 16.9019 9.94134V9.94134C16.9019 9.94134 16.9019 9.94134 16.9019 9.94134C16.9019 9.94134 16.9019 9.94134 16.9019 9.94134C16.9019 9.94134 16.9019 9.94134 16.9019 9.94134V9.94134C16.9019 9.94134 16.9019 9.94134 16.9019 9.94134C16.9019 9.94134 16.9019 9.94134 16.9019 9.94134C16.9019 9.94134 16.9019 9.94134 16.9019 9.94134V9.94134C16.9019 9.94134 16.9019 9.94134 16.9019 9.94134C16.9019 9.94134 16.9019 9.94134 16.9019 9.94134C16.9019 9.94134 16.9019 9.94134 16.9019 9.94135V9.94135C16.9019 9.94135 16.9019 9.94135 16.9019 9.94135C16.9019 9.94135 16.9019 9.94135 16.9019 9.94135C16.9019 9.94135 16.9019 9.94135 16.9019 9.94135V9.94135C16.9019 9.94135 16.9019 9.94135 16.9019 9.94135C16.9019 9.94135 16.9019 9.94135 16.9019 9.94135V9.94135V9.94135C16.9019 9.94135 16.9019 9.94135 16.9019 9.94135C16.9019 9.94135 16.9019 9.94135 16.9019 9.94135V9.94135V9.94135C16.9019 9.94135 16.9019 9.94135 16.9019 9.94135C16.9019 9.94135 16.9019 9.94135 16.9019 9.94135V9.94135V9.94135C16.9019 9.94135 16.9019 9.94135 16.9019 9.94135C16.9019 9.94135 16.9019 9.94135 16.9019 9.94135V9.94135C16.9019 9.94136 16.9019 9.94136 16.9019 9.94136C16.9019 9.94136 16.9019 9.94136 16.9019 9.94136C16.9019 9.94136 16.9019 9.94136 16.9019 9.94136V9.94136C16.9019 9.94136 16.9019 9.94136 16.9019 9.94136C16.9019 9.94136 16.9019 9.94136 16.9019 9.94136C16.9019 9.94136 16.9019 9.94136 16.9019 9.94136V9.94136C16.9019 9.94136 16.9019 9.94136 16.9019 9.94136C16.9019 9.94136 16.9019 9.94136 16.9019 9.94136C16.9019 9.94136 16.9019 9.94136 16.9019 9.94136V9.94136C16.9019 9.94136 16.9019 9.94136 16.9019 9.94136C16.9019 9.94136 16.9019 9.94136 16.9019 9.94136C16.9019 9.94136 16.9019 9.94136 16.9019 9.94136V9.94136C16.9019 9.94136 16.9019 9.94136 16.9019 9.94136C16.9019 9.94136 16.9019 9.94136 16.9019 9.94136V9.94136H19.5019V9.94136C19.5019 9.94136 19.5019 9.94136 19.5019 9.94136C19.5019 9.94136 19.5019 9.94136 19.5019 9.94136V9.94136C19.5019 9.94136 19.5019 9.94136 19.5019 9.94136C19.5019 9.94136 19.5019 9.94136 19.5019 9.94136C19.5019 9.94136 19.5019 9.94136 19.5019 9.94136V9.94136C19.5019 9.94136 19.5019 9.94136 19.5019 9.94136C19.5019 9.94136 19.5019 9.94136 19.5019 9.94136C19.5019 9.94136 19.5019 9.94136 19.5019 9.94136V9.94136C19.5019 9.94136 19.5019 9.94136 19.5019 9.94136C19.5019 9.94136 19.5019 9.94136 19.5019 9.94136C19.5019 9.94136 19.5019 9.94136 19.5019 9.94136V9.94136C19.5019 9.94136 19.5019 9.94136 19.5019 9.94136C19.5019 9.94136 19.5019 9.94136 19.5019 9.94136C19.5019 9.94136 19.5019 9.94136 19.5019 9.94135V9.94135C19.5019 9.94135 19.5019 9.94135 19.5019 9.94135C19.5019 9.94135 19.5019 9.94135 19.5019 9.94135V9.94135V9.94135C19.5019 9.94135 19.5019 9.94135 19.5019 9.94135C19.5019 9.94135 19.5019 9.94135 19.5019 9.94135V9.94135V9.94135C19.5019 9.94135 19.5019 9.94135 19.5019 9.94135C19.5019 9.94135 19.5019 9.94135 19.5019 9.94135V9.94135V9.94135C19.5019 9.94135 19.5019 9.94135 19.5019 9.94135C19.5019 9.94135 19.5019 9.94135 19.5019 9.94135V9.94135C19.5019 9.94135 19.5019 9.94135 19.5019 9.94135C19.5019 9.94135 19.5019 9.94135 19.5019 9.94135C19.5019 9.94135 19.5019 9.94135 19.5019 9.94135V9.94135C19.5019 9.94134 19.5019 9.94134 19.5019 9.94134C19.5019 9.94134 19.5019 9.94134 19.5019 9.94134C19.5019 9.94134 19.5019 9.94134 19.5019 9.94134V9.94134C19.5019 9.94134 19.5019 9.94134 19.5019 9.94134C19.5019 9.94134 19.5019 9.94134 19.5019 9.94134C19.5019 9.94134 19.5019 9.94134 19.5019 9.94134V9.94134C19.5019 9.94134 19.5019 9.94134 19.5019 9.94134C19.5019 9.94134 19.5019 9.94134 19.5019 9.94134C19.5019 9.94134 19.5019 9.94134 19.5019 9.94134V9.94134C19.5019 9.94134 19.5019 9.94134 19.5019 9.94134C19.5019 9.94134 19.5019 9.94134 19.5019 9.94134V9.94134V9.94134C19.5019 9.94134 19.5019 9.94134 19.5019 9.94134C19.5019 9.94134 19.5019 9.94134 19.5019 9.94134V9.94134C19.5019 9.94134 19.5019 9.94134 19.5019 9.94134C19.5019 9.94134 19.5019 9.94134 19.5019 9.94134C19.5019 9.94134 19.5019 9.94134 19.5019 9.94133V9.94133C19.5019 9.94133 19.5019 9.94133 19.5019 9.94133C19.5019 9.94133 19.5019 9.94133 19.5019 9.94133C19.5019 9.94133 19.5019 9.94133 19.5019 9.94133V9.94133C19.5019 9.94133 19.5019 9.94133 19.5019 9.94133C19.5019 9.94133 19.5019 9.94133 19.5019 9.94133C19.5019 9.94133 19.5019 9.94133 19.5019 9.94133V9.94133C19.5019 9.94133 19.5019 9.94133 19.5019 9.94133C19.5019 9.94133 19.5019 9.94133 19.5019 9.94133C19.5019 9.94133 19.5019 9.94133 19.5019 9.94133V9.94133C19.5019 9.94133 19.5019 9.94133 19.5019 9.94133C19.5019 9.94133 19.5019 9.94133 19.5019 9.94133V9.94133V9.94133C19.5019 9.94133 19.5019 9.94133 19.5019 9.94133C19.5019 9.94133 19.5019 9.94133 19.5019 9.94133V9.94133V9.94132C19.5019 9.94132 19.5019 9.94132 19.5019 9.94132C19.5019 9.94132 19.5019 9.94132 19.5019 9.94132V9.94132V9.94132C19.5019 9.94132 19.5019 9.94132 19.5019 9.94132C19.5019 9.94132 19.5019 9.94132 19.5019 9.94132V9.94132C19.5019 9.94132 19.5019 9.94132 19.5019 9.94132C19.5019 9.94132 19.5019 9.94132 19.5019 9.94132C19.5019 9.94132 19.5019 9.94132 19.5019 9.94132V9.94132C19.5019 9.94132 19.5019 9.94132 19.5019 9.94132C19.5019 9.94132 19.5019 9.94132 19.5019 9.94132C19.5019 9.94132 19.5019 9.94132 19.5019 9.94132V9.94132C19.5019 9.94132 19.5019 9.94132 19.5019 9.94132C19.5019 9.94132 19.5019 9.94132 19.5019 9.94132C19.5019 9.94132 19.5019 9.94132 19.5019 9.94132V9.94132C19.5019 9.94132 19.5019 9.94132 19.5019 9.94132C19.5019 9.94132 19.5019 9.94132 19.5019 9.94131C19.5019 9.94131 19.5019 9.94131 19.5019 9.94131V9.94131C19.5019 9.94131 19.5019 9.94131 19.5019 9.94131C19.5019 9.94131 19.5019 9.94131 19.5019 9.94131V9.94131H16.9019ZM6.63175 16.2969C6.93462 15.8097 7.09513 15.2474 7.09513 14.6737H4.49513C4.49513 14.7623 4.47034 14.8491 4.42358 14.9243L6.63175 16.2969ZM5.79562 17.0224C5.96356 17.0224 6.06613 17.2069 5.97747 17.3495L3.76929 15.9769C2.78139 17.5663 3.9243 19.6224 5.79562 19.6224V17.0224ZM6.64512 19.0086C6.10683 18.1427 6.72954 17.0224 7.74917 17.0224V19.6224C8.76884 19.6224 9.39158 18.502 8.85326 17.636L6.64512 19.0086ZM7.74921 17.0223C6.77891 17.0223 6.08095 18.1011 6.64512 19.0086L8.85326 17.636C9.41742 18.5436 8.71948 19.6223 7.74921 19.6223V17.0223ZM17.3527 19.0089C17.8913 18.1429 17.2686 17.0223 16.2488 17.0223V19.6223C15.229 19.6223 14.6063 18.5017 15.1449 17.6358L17.3527 19.0089ZM16.2488 17.0224C17.2629 17.0224 17.8943 18.1381 17.3527 19.0089L15.1449 17.6358C14.6033 18.5066 15.2348 19.6224 16.2488 19.6224V17.0224ZM18.0207 17.3498C17.932 17.207 18.0346 17.0224 18.2027 17.0224V19.6224C20.0739 19.6224 21.2167 17.5664 20.2289 15.9772L18.0207 17.3498ZM19.3065 15.8657C18.798 16.6842 17.6071 16.6843 17.0984 15.866L19.3066 14.4934C18.7978 13.6749 17.6066 13.6751 17.098 14.4937L19.3065 15.8657ZM16.9019 15.1796C16.9019 16.4922 18.6186 16.973 19.3065 15.8657L17.098 14.4937C17.7857 13.3867 19.5019 13.8674 19.5019 15.1796H16.9019Z" fill="#FEC637" mask="url(#path-1-inside-1_908_11429)"/>
<path d="M9.17969 19.3699V19.3699C10.5266 21.3716 13.4722 21.3716 14.8191 19.3699V19.3699" stroke="#FEC637" stroke-width="1.3" stroke-linecap="round"/>
<path d="M13.6904 3.65564V3.65564C12.8201 2.57774 11.1771 2.57774 10.3068 3.65564V3.65564" stroke="#FEC637" stroke-width="1.3" stroke-linecap="round"/>
</svg>
