<svg width="59" height="73" viewBox="0 0 59 73" fill="none" xmlns="http://www.w3.org/2000/svg">
<g id="Frame 238113" clip-path="url(#clip0_2375_14085)">
<path id="Union" d="M44.6069 27.3827C44.6669 26.909 44.6978 26.4263 44.6978 25.9364C44.6978 19.6232 39.5632 14.5054 33.2292 14.5054C29.0911 14.5054 25.4648 16.6899 23.4479 19.965C22.1636 19.4786 20.7705 19.2123 19.3151 19.2123C12.888 19.2123 7.67777 24.4054 7.67777 30.8114C7.67777 31.4817 7.73482 32.1387 7.84433 32.7779C3.29577 34.2344 0.00390625 38.4856 0.00390625 43.5032C0.00390625 49.6393 4.92693 54.6293 11.0509 54.7634V54.7662H58.0217L53.5255 50.7359C52.3604 49.6915 52.3827 47.8739 53.2653 46.5819C54.6173 44.6028 55.4075 42.2118 55.4075 39.6369C55.4075 33.3519 50.6995 28.163 44.6069 27.3827Z" fill="url(#paint0_linear_2375_14085)" fill-opacity="0.5"/>
</g>
<defs>
<linearGradient id="paint0_linear_2375_14085" x1="6.21245" y1="18.2199" x2="57.2238" y2="56.2823" gradientUnits="userSpaceOnUse">
<stop stop-color="#735EF4" stop-opacity="0.73"/>
<stop offset="0.447036" stop-color="#735EF4"/>
<stop offset="1" stop-color="#735EF4" stop-opacity="0.55"/>
</linearGradient>
<clipPath id="clip0_2375_14085">
<rect width="58.1543" height="72.5222" fill="white" transform="translate(0.00390625)"/>
</clipPath>
</defs>
</svg>
