<svg width="24" height="24" viewBox="0 0 24 24" fill="none" xmlns="http://www.w3.org/2000/svg">
<mask id="path-1-inside-1_1874_4170" fill="white">
<path fill-rule="evenodd" clip-rule="evenodd" d="M18.2023 9.94124V15.1795C18.2023 15.1797 18.2025 15.1797 18.2026 15.1796C18.2027 15.1795 18.2028 15.1795 18.2029 15.1796L19.1251 16.6633C19.5747 17.3866 19.0546 18.3223 18.203 18.3223H16.2492C16.2492 18.3223 16.2492 18.3222 16.2492 18.3222C16.2492 18.3222 16.2492 18.3222 16.2492 18.3222H7.74958C7.74956 18.3222 7.74955 18.3222 7.74956 18.3222C7.74957 18.3222 7.74956 18.3222 7.74954 18.3222H5.79599C4.94429 18.3222 4.42413 17.3865 4.87375 16.6631L5.52803 15.6105C5.70285 15.3293 5.79549 15.0047 5.79549 14.6736V9.94124C5.79549 9.94122 5.79549 9.94121 5.79549 9.94119C5.79553 7.04828 8.57287 4.70312 11.9989 4.70312C15.4249 4.70312 18.2023 7.04828 18.2023 9.94119C18.2023 9.94121 18.2023 9.94122 18.2023 9.94124Z"/>
</mask>
<path d="M5.79549 9.94119L4.49549 9.94118V9.94119H5.79549ZM18.2023 9.94119H19.5023V9.94118L18.2023 9.94119ZM5.52803 15.6105L4.42394 14.9242L5.52803 15.6105ZM4.87375 16.6631L3.76966 15.9768L4.87375 16.6631ZM19.1251 16.6633L20.2292 15.9771L19.1251 16.6633ZM18.2029 15.1796L19.307 14.4933L18.2029 15.1796ZM16.9023 9.94124V15.1795H19.5023V9.94124H16.9023ZM17.0988 15.8659L18.0211 17.3496L20.2292 15.9771L19.307 14.4933L17.0988 15.8659ZM18.203 17.0223H16.2492V19.6223H18.203V17.0223ZM16.2492 17.0222H7.74958V19.6222H16.2492V17.0222ZM7.74954 17.0222H5.79599V19.6222H7.74954V17.0222ZM5.97783 17.3494L6.63212 16.2968L4.42394 14.9242L3.76966 15.9768L5.97783 17.3494ZM7.09549 14.6736V9.94124H4.49549V14.6736H7.09549ZM7.09549 9.94124V9.94124C7.09549 9.94124 7.09549 9.94124 7.09549 9.94124C7.09549 9.94124 7.09549 9.94124 7.09549 9.94124V9.94124C7.09549 9.94124 7.09549 9.94124 7.09549 9.94124C7.09549 9.94124 7.09549 9.94124 7.09549 9.94124C7.09549 9.94124 7.09549 9.94124 7.09549 9.94124V9.94124C7.09549 9.94124 7.09549 9.94124 7.09549 9.94124C7.09549 9.94124 7.09549 9.94124 7.09549 9.94124C7.09549 9.94124 7.09549 9.94124 7.09549 9.94124V9.94124C7.09549 9.94124 7.09549 9.94124 7.09549 9.94124C7.09549 9.94124 7.09549 9.94124 7.09549 9.94124C7.09549 9.94124 7.09549 9.94124 7.09549 9.94123V9.94123C7.09549 9.94123 7.09549 9.94123 7.09549 9.94123C7.09549 9.94123 7.09549 9.94123 7.09549 9.94123C7.09549 9.94123 7.09549 9.94123 7.09549 9.94123V9.94123C7.09549 9.94123 7.09549 9.94123 7.09549 9.94123C7.09549 9.94123 7.09549 9.94123 7.09549 9.94123V9.94123V9.94123C7.09549 9.94123 7.09549 9.94123 7.09549 9.94123C7.09549 9.94123 7.09549 9.94123 7.09549 9.94123V9.94123V9.94123C7.09549 9.94123 7.09549 9.94123 7.09549 9.94123C7.09549 9.94123 7.09549 9.94123 7.09549 9.94123V9.94123V9.94123C7.09549 9.94123 7.09549 9.94123 7.09549 9.94123C7.09549 9.94123 7.09549 9.94123 7.09549 9.94123V9.94123C7.09549 9.94122 7.09549 9.94122 7.09549 9.94122C7.09549 9.94122 7.09549 9.94122 7.09549 9.94122C7.09549 9.94122 7.09549 9.94122 7.09549 9.94122V9.94122C7.09549 9.94122 7.09549 9.94122 7.09549 9.94122C7.09549 9.94122 7.09549 9.94122 7.09549 9.94122C7.09549 9.94122 7.09549 9.94122 7.09549 9.94122V9.94122C7.09549 9.94122 7.09549 9.94122 7.09549 9.94122C7.09549 9.94122 7.09549 9.94122 7.09549 9.94122C7.09549 9.94122 7.09549 9.94122 7.09549 9.94122V9.94122C7.09549 9.94122 7.09549 9.94122 7.09549 9.94122C7.09549 9.94122 7.09549 9.94122 7.09549 9.94122C7.09549 9.94122 7.09549 9.94122 7.09549 9.94122V9.94122C7.09549 9.94122 7.09549 9.94122 7.09549 9.94122C7.09549 9.94122 7.09549 9.94122 7.09549 9.94122V9.94122V9.94122C7.09549 9.94122 7.09549 9.94122 7.09549 9.94122C7.09549 9.94122 7.09549 9.94122 7.09549 9.94121V9.94121C7.09549 9.94121 7.09549 9.94121 7.09549 9.94121C7.09549 9.94121 7.09549 9.94121 7.09549 9.94121C7.09549 9.94121 7.09549 9.94121 7.09549 9.94121V9.94121C7.09549 9.94121 7.09549 9.94121 7.09549 9.94121C7.09549 9.94121 7.09549 9.94121 7.09549 9.94121C7.09549 9.94121 7.09549 9.94121 7.09549 9.94121V9.94121C7.09549 9.94121 7.09549 9.94121 7.09549 9.94121C7.09549 9.94121 7.09549 9.94121 7.09549 9.94121C7.09549 9.94121 7.09549 9.94121 7.09549 9.94121V9.94121C7.09549 9.94121 7.09549 9.94121 7.09549 9.94121C7.09549 9.94121 7.09549 9.94121 7.09549 9.94121C7.09549 9.94121 7.09549 9.94121 7.09549 9.94121V9.94121C7.09549 9.94121 7.09549 9.94121 7.09549 9.94121C7.09549 9.94121 7.09549 9.94121 7.09549 9.94121V9.94121V9.9412C7.09549 9.9412 7.09549 9.9412 7.09549 9.9412C7.09549 9.9412 7.09549 9.9412 7.09549 9.9412V9.9412V9.9412C7.09549 9.9412 7.09549 9.9412 7.09549 9.9412C7.09549 9.9412 7.09549 9.9412 7.09549 9.9412V9.9412V9.9412C7.09549 9.9412 7.09549 9.9412 7.09549 9.9412C7.09549 9.9412 7.09549 9.9412 7.09549 9.9412V9.9412C7.09549 9.9412 7.09549 9.9412 7.09549 9.9412C7.09549 9.9412 7.09549 9.9412 7.09549 9.9412C7.09549 9.9412 7.09549 9.9412 7.09549 9.9412V9.9412C7.09549 9.9412 7.09549 9.9412 7.09549 9.9412C7.09549 9.9412 7.09549 9.9412 7.09549 9.9412C7.09549 9.9412 7.09549 9.9412 7.09549 9.9412V9.9412C7.09549 9.9412 7.09549 9.9412 7.09549 9.9412C7.09549 9.9412 7.09549 9.9412 7.09549 9.94119C7.09549 9.94119 7.09549 9.94119 7.09549 9.94119V9.94119C7.09549 9.94119 7.09549 9.94119 7.09549 9.94119C7.09549 9.94119 7.09549 9.94119 7.09549 9.94119C7.09549 9.94119 7.09549 9.94119 7.09549 9.94119V9.94119C7.09549 9.94119 7.09549 9.94119 7.09549 9.94119C7.09549 9.94119 7.09549 9.94119 7.09549 9.94119V9.94119H4.49549V9.94119C4.49549 9.94119 4.49549 9.94119 4.49549 9.94119C4.49549 9.94119 4.49549 9.94119 4.49549 9.94119V9.94119C4.49549 9.94119 4.49549 9.94119 4.49549 9.94119C4.49549 9.94119 4.49549 9.94119 4.49549 9.94119C4.49549 9.94119 4.49549 9.94119 4.49549 9.94119V9.94119C4.49549 9.94119 4.49549 9.94119 4.49549 9.94119C4.49549 9.9412 4.49549 9.9412 4.49549 9.9412C4.49549 9.9412 4.49549 9.9412 4.49549 9.9412V9.9412C4.49549 9.9412 4.49549 9.9412 4.49549 9.9412C4.49549 9.9412 4.49549 9.9412 4.49549 9.9412C4.49549 9.9412 4.49549 9.9412 4.49549 9.9412V9.9412C4.49549 9.9412 4.49549 9.9412 4.49549 9.9412C4.49549 9.9412 4.49549 9.9412 4.49549 9.9412C4.49549 9.9412 4.49549 9.9412 4.49549 9.9412V9.9412C4.49549 9.9412 4.49549 9.9412 4.49549 9.9412C4.49549 9.9412 4.49549 9.9412 4.49549 9.9412V9.9412V9.9412C4.49549 9.9412 4.49549 9.9412 4.49549 9.9412C4.49549 9.9412 4.49549 9.9412 4.49549 9.9412V9.9412V9.9412C4.49549 9.9412 4.49549 9.9412 4.49549 9.9412C4.49549 9.9412 4.49549 9.9412 4.49549 9.9412V9.94121V9.94121C4.49549 9.94121 4.49549 9.94121 4.49549 9.94121C4.49549 9.94121 4.49549 9.94121 4.49549 9.94121V9.94121C4.49549 9.94121 4.49549 9.94121 4.49549 9.94121C4.49549 9.94121 4.49549 9.94121 4.49549 9.94121C4.49549 9.94121 4.49549 9.94121 4.49549 9.94121V9.94121C4.49549 9.94121 4.49549 9.94121 4.49549 9.94121C4.49549 9.94121 4.49549 9.94121 4.49549 9.94121C4.49549 9.94121 4.49549 9.94121 4.49549 9.94121V9.94121C4.49549 9.94121 4.49549 9.94121 4.49549 9.94121C4.49549 9.94121 4.49549 9.94121 4.49549 9.94121C4.49549 9.94121 4.49549 9.94121 4.49549 9.94121V9.94121C4.49549 9.94121 4.49549 9.94121 4.49549 9.94121C4.49549 9.94121 4.49549 9.94121 4.49549 9.94121C4.49549 9.94121 4.49549 9.94121 4.49549 9.94121V9.94121C4.49549 9.94122 4.49549 9.94122 4.49549 9.94122C4.49549 9.94122 4.49549 9.94122 4.49549 9.94122V9.94122V9.94122C4.49549 9.94122 4.49549 9.94122 4.49549 9.94122C4.49549 9.94122 4.49549 9.94122 4.49549 9.94122V9.94122C4.49549 9.94122 4.49549 9.94122 4.49549 9.94122C4.49549 9.94122 4.49549 9.94122 4.49549 9.94122C4.49549 9.94122 4.49549 9.94122 4.49549 9.94122V9.94122C4.49549 9.94122 4.49549 9.94122 4.49549 9.94122C4.49549 9.94122 4.49549 9.94122 4.49549 9.94122C4.49549 9.94122 4.49549 9.94122 4.49549 9.94122V9.94122C4.49549 9.94122 4.49549 9.94122 4.49549 9.94122C4.49549 9.94122 4.49549 9.94122 4.49549 9.94122C4.49549 9.94122 4.49549 9.94122 4.49549 9.94122V9.94122C4.49549 9.94122 4.49549 9.94122 4.49549 9.94122C4.49549 9.94122 4.49549 9.94122 4.49549 9.94122C4.49549 9.94122 4.49549 9.94122 4.49549 9.94123V9.94123C4.49549 9.94123 4.49549 9.94123 4.49549 9.94123C4.49549 9.94123 4.49549 9.94123 4.49549 9.94123V9.94123V9.94123C4.49549 9.94123 4.49549 9.94123 4.49549 9.94123C4.49549 9.94123 4.49549 9.94123 4.49549 9.94123V9.94123V9.94123C4.49549 9.94123 4.49549 9.94123 4.49549 9.94123C4.49549 9.94123 4.49549 9.94123 4.49549 9.94123V9.94123V9.94123C4.49549 9.94123 4.49549 9.94123 4.49549 9.94123C4.49549 9.94123 4.49549 9.94123 4.49549 9.94123V9.94123C4.49549 9.94123 4.49549 9.94123 4.49549 9.94123C4.49549 9.94123 4.49549 9.94123 4.49549 9.94123C4.49549 9.94123 4.49549 9.94123 4.49549 9.94123V9.94123C4.49549 9.94124 4.49549 9.94124 4.49549 9.94124C4.49549 9.94124 4.49549 9.94124 4.49549 9.94124C4.49549 9.94124 4.49549 9.94124 4.49549 9.94124V9.94124C4.49549 9.94124 4.49549 9.94124 4.49549 9.94124C4.49549 9.94124 4.49549 9.94124 4.49549 9.94124C4.49549 9.94124 4.49549 9.94124 4.49549 9.94124V9.94124C4.49549 9.94124 4.49549 9.94124 4.49549 9.94124C4.49549 9.94124 4.49549 9.94124 4.49549 9.94124C4.49549 9.94124 4.49549 9.94124 4.49549 9.94124V9.94124C4.49549 9.94124 4.49549 9.94124 4.49549 9.94124C4.49549 9.94124 4.49549 9.94124 4.49549 9.94124V9.94124H7.09549ZM7.09549 9.94121C7.09552 7.96366 9.07609 6.00312 11.9989 6.00312V3.40313C8.06966 3.40313 4.49554 6.13291 4.49549 9.94118L7.09549 9.94121ZM11.9989 6.00312C14.9217 6.00312 16.9023 7.96366 16.9023 9.94121L19.5023 9.94118C19.5023 6.13291 15.9281 3.40313 11.9989 3.40313V6.00312ZM16.9023 9.94119V9.94119C16.9023 9.94119 16.9023 9.94119 16.9023 9.94119C16.9023 9.94119 16.9023 9.94119 16.9023 9.94119V9.94119C16.9023 9.94119 16.9023 9.94119 16.9023 9.94119C16.9023 9.94119 16.9023 9.94119 16.9023 9.94119C16.9023 9.94119 16.9023 9.94119 16.9023 9.94119V9.94119C16.9023 9.94119 16.9023 9.94119 16.9023 9.94119C16.9023 9.9412 16.9023 9.9412 16.9023 9.9412C16.9023 9.9412 16.9023 9.9412 16.9023 9.9412V9.9412C16.9023 9.9412 16.9023 9.9412 16.9023 9.9412C16.9023 9.9412 16.9023 9.9412 16.9023 9.9412C16.9023 9.9412 16.9023 9.9412 16.9023 9.9412V9.9412C16.9023 9.9412 16.9023 9.9412 16.9023 9.9412C16.9023 9.9412 16.9023 9.9412 16.9023 9.9412C16.9023 9.9412 16.9023 9.9412 16.9023 9.9412V9.9412C16.9023 9.9412 16.9023 9.9412 16.9023 9.9412C16.9023 9.9412 16.9023 9.9412 16.9023 9.9412V9.9412V9.9412C16.9023 9.9412 16.9023 9.9412 16.9023 9.9412C16.9023 9.9412 16.9023 9.9412 16.9023 9.9412V9.9412V9.9412C16.9023 9.9412 16.9023 9.9412 16.9023 9.9412C16.9023 9.9412 16.9023 9.9412 16.9023 9.9412V9.94121V9.94121C16.9023 9.94121 16.9023 9.94121 16.9023 9.94121C16.9023 9.94121 16.9023 9.94121 16.9023 9.94121V9.94121C16.9023 9.94121 16.9023 9.94121 16.9023 9.94121C16.9023 9.94121 16.9023 9.94121 16.9023 9.94121C16.9023 9.94121 16.9023 9.94121 16.9023 9.94121V9.94121C16.9023 9.94121 16.9023 9.94121 16.9023 9.94121C16.9023 9.94121 16.9023 9.94121 16.9023 9.94121C16.9023 9.94121 16.9023 9.94121 16.9023 9.94121V9.94121C16.9023 9.94121 16.9023 9.94121 16.9023 9.94121C16.9023 9.94121 16.9023 9.94121 16.9023 9.94121C16.9023 9.94121 16.9023 9.94121 16.9023 9.94121V9.94121C16.9023 9.94121 16.9023 9.94121 16.9023 9.94121C16.9023 9.94121 16.9023 9.94121 16.9023 9.94121C16.9023 9.94121 16.9023 9.94121 16.9023 9.94121V9.94121C16.9023 9.94122 16.9023 9.94122 16.9023 9.94122C16.9023 9.94122 16.9023 9.94122 16.9023 9.94122V9.94122V9.94122C16.9023 9.94122 16.9023 9.94122 16.9023 9.94122C16.9023 9.94122 16.9023 9.94122 16.9023 9.94122V9.94122C16.9023 9.94122 16.9023 9.94122 16.9023 9.94122C16.9023 9.94122 16.9023 9.94122 16.9023 9.94122C16.9023 9.94122 16.9023 9.94122 16.9023 9.94122V9.94122C16.9023 9.94122 16.9023 9.94122 16.9023 9.94122C16.9023 9.94122 16.9023 9.94122 16.9023 9.94122C16.9023 9.94122 16.9023 9.94122 16.9023 9.94122V9.94122C16.9023 9.94122 16.9023 9.94122 16.9023 9.94122C16.9023 9.94122 16.9023 9.94122 16.9023 9.94122C16.9023 9.94122 16.9023 9.94122 16.9023 9.94122V9.94122C16.9023 9.94122 16.9023 9.94122 16.9023 9.94122C16.9023 9.94122 16.9023 9.94122 16.9023 9.94122C16.9023 9.94122 16.9023 9.94122 16.9023 9.94123V9.94123C16.9023 9.94123 16.9023 9.94123 16.9023 9.94123C16.9023 9.94123 16.9023 9.94123 16.9023 9.94123V9.94123V9.94123C16.9023 9.94123 16.9023 9.94123 16.9023 9.94123C16.9023 9.94123 16.9023 9.94123 16.9023 9.94123V9.94123V9.94123C16.9023 9.94123 16.9023 9.94123 16.9023 9.94123C16.9023 9.94123 16.9023 9.94123 16.9023 9.94123V9.94123V9.94123C16.9023 9.94123 16.9023 9.94123 16.9023 9.94123C16.9023 9.94123 16.9023 9.94123 16.9023 9.94123V9.94123C16.9023 9.94123 16.9023 9.94123 16.9023 9.94123C16.9023 9.94123 16.9023 9.94123 16.9023 9.94123C16.9023 9.94123 16.9023 9.94123 16.9023 9.94123V9.94123C16.9023 9.94124 16.9023 9.94124 16.9023 9.94124C16.9023 9.94124 16.9023 9.94124 16.9023 9.94124C16.9023 9.94124 16.9023 9.94124 16.9023 9.94124V9.94124C16.9023 9.94124 16.9023 9.94124 16.9023 9.94124C16.9023 9.94124 16.9023 9.94124 16.9023 9.94124C16.9023 9.94124 16.9023 9.94124 16.9023 9.94124V9.94124C16.9023 9.94124 16.9023 9.94124 16.9023 9.94124C16.9023 9.94124 16.9023 9.94124 16.9023 9.94124C16.9023 9.94124 16.9023 9.94124 16.9023 9.94124V9.94124C16.9023 9.94124 16.9023 9.94124 16.9023 9.94124C16.9023 9.94124 16.9023 9.94124 16.9023 9.94124V9.94124H19.5023V9.94124C19.5023 9.94124 19.5023 9.94124 19.5023 9.94124C19.5023 9.94124 19.5023 9.94124 19.5023 9.94124V9.94124C19.5023 9.94124 19.5023 9.94124 19.5023 9.94124C19.5023 9.94124 19.5023 9.94124 19.5023 9.94124C19.5023 9.94124 19.5023 9.94124 19.5023 9.94124V9.94124C19.5023 9.94124 19.5023 9.94124 19.5023 9.94124C19.5023 9.94124 19.5023 9.94124 19.5023 9.94124C19.5023 9.94124 19.5023 9.94124 19.5023 9.94124V9.94124C19.5023 9.94124 19.5023 9.94124 19.5023 9.94124C19.5023 9.94124 19.5023 9.94124 19.5023 9.94124C19.5023 9.94124 19.5023 9.94124 19.5023 9.94123V9.94123C19.5023 9.94123 19.5023 9.94123 19.5023 9.94123C19.5023 9.94123 19.5023 9.94123 19.5023 9.94123C19.5023 9.94123 19.5023 9.94123 19.5023 9.94123V9.94123C19.5023 9.94123 19.5023 9.94123 19.5023 9.94123C19.5023 9.94123 19.5023 9.94123 19.5023 9.94123V9.94123V9.94123C19.5023 9.94123 19.5023 9.94123 19.5023 9.94123C19.5023 9.94123 19.5023 9.94123 19.5023 9.94123V9.94123V9.94123C19.5023 9.94123 19.5023 9.94123 19.5023 9.94123C19.5023 9.94123 19.5023 9.94123 19.5023 9.94123V9.94123V9.94123C19.5023 9.94123 19.5023 9.94123 19.5023 9.94123C19.5023 9.94123 19.5023 9.94123 19.5023 9.94123V9.94123C19.5023 9.94122 19.5023 9.94122 19.5023 9.94122C19.5023 9.94122 19.5023 9.94122 19.5023 9.94122C19.5023 9.94122 19.5023 9.94122 19.5023 9.94122V9.94122C19.5023 9.94122 19.5023 9.94122 19.5023 9.94122C19.5023 9.94122 19.5023 9.94122 19.5023 9.94122C19.5023 9.94122 19.5023 9.94122 19.5023 9.94122V9.94122C19.5023 9.94122 19.5023 9.94122 19.5023 9.94122C19.5023 9.94122 19.5023 9.94122 19.5023 9.94122C19.5023 9.94122 19.5023 9.94122 19.5023 9.94122V9.94122C19.5023 9.94122 19.5023 9.94122 19.5023 9.94122C19.5023 9.94122 19.5023 9.94122 19.5023 9.94122C19.5023 9.94122 19.5023 9.94122 19.5023 9.94122V9.94122C19.5023 9.94122 19.5023 9.94122 19.5023 9.94122C19.5023 9.94122 19.5023 9.94122 19.5023 9.94122V9.94122V9.94122C19.5023 9.94122 19.5023 9.94122 19.5023 9.94122C19.5023 9.94122 19.5023 9.94122 19.5023 9.94121V9.94121C19.5023 9.94121 19.5023 9.94121 19.5023 9.94121C19.5023 9.94121 19.5023 9.94121 19.5023 9.94121C19.5023 9.94121 19.5023 9.94121 19.5023 9.94121V9.94121C19.5023 9.94121 19.5023 9.94121 19.5023 9.94121C19.5023 9.94121 19.5023 9.94121 19.5023 9.94121C19.5023 9.94121 19.5023 9.94121 19.5023 9.94121V9.94121C19.5023 9.94121 19.5023 9.94121 19.5023 9.94121C19.5023 9.94121 19.5023 9.94121 19.5023 9.94121C19.5023 9.94121 19.5023 9.94121 19.5023 9.94121V9.94121C19.5023 9.94121 19.5023 9.94121 19.5023 9.94121C19.5023 9.94121 19.5023 9.94121 19.5023 9.94121C19.5023 9.94121 19.5023 9.94121 19.5023 9.94121V9.94121C19.5023 9.94121 19.5023 9.94121 19.5023 9.94121C19.5023 9.94121 19.5023 9.94121 19.5023 9.94121V9.94121V9.9412C19.5023 9.9412 19.5023 9.9412 19.5023 9.9412C19.5023 9.9412 19.5023 9.9412 19.5023 9.9412V9.9412V9.9412C19.5023 9.9412 19.5023 9.9412 19.5023 9.9412C19.5023 9.9412 19.5023 9.9412 19.5023 9.9412V9.9412V9.9412C19.5023 9.9412 19.5023 9.9412 19.5023 9.9412C19.5023 9.9412 19.5023 9.9412 19.5023 9.9412V9.9412C19.5023 9.9412 19.5023 9.9412 19.5023 9.9412C19.5023 9.9412 19.5023 9.9412 19.5023 9.9412C19.5023 9.9412 19.5023 9.9412 19.5023 9.9412V9.9412C19.5023 9.9412 19.5023 9.9412 19.5023 9.9412C19.5023 9.9412 19.5023 9.9412 19.5023 9.9412C19.5023 9.9412 19.5023 9.9412 19.5023 9.9412V9.9412C19.5023 9.9412 19.5023 9.9412 19.5023 9.9412C19.5023 9.9412 19.5023 9.9412 19.5023 9.94119C19.5023 9.94119 19.5023 9.94119 19.5023 9.94119V9.94119C19.5023 9.94119 19.5023 9.94119 19.5023 9.94119C19.5023 9.94119 19.5023 9.94119 19.5023 9.94119C19.5023 9.94119 19.5023 9.94119 19.5023 9.94119V9.94119C19.5023 9.94119 19.5023 9.94119 19.5023 9.94119C19.5023 9.94119 19.5023 9.94119 19.5023 9.94119V9.94119H16.9023ZM6.63212 16.2968C6.93499 15.8095 7.09549 15.2473 7.09549 14.6736H4.49549C4.49549 14.7622 4.47071 14.849 4.42394 14.9242L6.63212 16.2968ZM5.79599 17.0222C5.96392 17.0222 6.06649 17.2068 5.97783 17.3494L3.76966 15.9768C2.78176 17.5661 3.92466 19.6222 5.79599 19.6222V17.0222ZM6.64549 19.0085C6.10719 18.1426 6.72991 17.0222 7.74954 17.0222V19.6222C8.7692 19.6222 9.39195 18.5019 8.85363 17.6359L6.64549 19.0085ZM7.74958 17.0222C6.77927 17.0222 6.08131 18.1009 6.64549 19.0085L8.85363 17.6359C9.41779 18.5435 8.71985 19.6222 7.74958 19.6222V17.0222ZM17.3531 19.0088C17.8917 18.1428 17.269 17.0222 16.2492 17.0222V19.6222C15.2294 19.6222 14.6067 18.5016 15.1453 17.6356L17.3531 19.0088ZM16.2492 17.0223C17.2632 17.0223 17.8947 18.138 17.3531 19.0088L15.1453 17.6356C14.6037 18.5065 15.2352 19.6223 16.2492 19.6223V17.0223ZM18.0211 17.3496C17.9323 17.2069 18.035 17.0223 18.203 17.0223V19.6223C20.0742 19.6223 21.2171 17.5663 20.2292 15.9771L18.0211 17.3496ZM19.3069 15.8656C18.7984 16.684 17.6074 16.6842 17.0988 15.8659L19.307 14.4933C18.7982 13.6748 17.6069 13.675 17.0983 14.4936L19.3069 15.8656ZM16.9023 15.1795C16.9023 16.4921 18.6189 16.9729 19.3069 15.8656L17.0983 14.4936C17.7861 13.3866 19.5023 13.8672 19.5023 15.1795H16.9023Z" fill="#626273" mask="url(#path-1-inside-1_1874_4170)"/>
<path d="M9.18005 19.3699V19.3699C10.527 21.3716 13.4726 21.3716 14.8195 19.3699V19.3699" stroke="#626273" stroke-width="1.3" stroke-linecap="round"/>
<path d="M13.691 3.65552V3.65552C12.8207 2.57762 11.1777 2.57762 10.3074 3.65552V3.65552" stroke="#626273" stroke-width="1.3" stroke-linecap="round"/>
</svg>
