<svg width="25" height="24" viewBox="0 0 25 24" fill="none" xmlns="http://www.w3.org/2000/svg">
<g filter="url(#filter0_b_2078_2840)">
<path d="M15.4 15.95C15.4 19.7884 12.2884 22.9 8.45 22.9C4.61162 22.9 1.5 19.7884 1.5 15.95C1.5 12.1116 4.61162 9 8.45 9C12.2884 9 15.4 12.1116 15.4 15.95Z" fill="#E9E9EE"/>
<path d="M15.35 15.95C15.35 19.7608 12.2608 22.85 8.45 22.85C4.63924 22.85 1.55 19.7608 1.55 15.95C1.55 12.1392 4.63924 9.05 8.45 9.05C12.2608 9.05 15.35 12.1392 15.35 15.95Z" stroke="url(#paint0_linear_2078_2840)" stroke-width="0.1"/>
<path d="M15.35 15.95C15.35 19.7608 12.2608 22.85 8.45 22.85C4.63924 22.85 1.55 19.7608 1.55 15.95C1.55 12.1392 4.63924 9.05 8.45 9.05C12.2608 9.05 15.35 12.1392 15.35 15.95Z" stroke="url(#paint1_radial_2078_2840)" stroke-width="0.1"/>
</g>
<path d="M19.4 8.95C19.4 12.7884 16.2884 15.9 12.45 15.9C8.61162 15.9 5.5 12.7884 5.5 8.95C5.5 5.11162 8.61162 2 12.45 2C16.2884 2 19.4 5.11162 19.4 8.95Z" fill="#464656"/>
<g filter="url(#filter1_b_2078_2840)">
<path d="M23.4 15.95C23.4 19.7884 20.2884 22.9 16.45 22.9C12.6116 22.9 9.5 19.7884 9.5 15.95C9.5 12.1116 12.6116 9 16.45 9C20.2884 9 23.4 12.1116 23.4 15.95Z" fill="url(#paint2_linear_2078_2840)" fill-opacity="0.3"/>
<path d="M23.35 15.95C23.35 19.7608 20.2608 22.85 16.45 22.85C12.6392 22.85 9.55 19.7608 9.55 15.95C9.55 12.1392 12.6392 9.05 16.45 9.05C20.2608 9.05 23.35 12.1392 23.35 15.95Z" stroke="url(#paint3_linear_2078_2840)" stroke-width="0.1"/>
<path d="M23.35 15.95C23.35 19.7608 20.2608 22.85 16.45 22.85C12.6392 22.85 9.55 19.7608 9.55 15.95C9.55 12.1392 12.6392 9.05 16.45 9.05C20.2608 9.05 23.35 12.1392 23.35 15.95Z" stroke="url(#paint4_radial_2078_2840)" stroke-width="0.1"/>
</g>
<defs>
<filter id="filter0_b_2078_2840" x="-1.5" y="6" width="19.9" height="19.8999" filterUnits="userSpaceOnUse" color-interpolation-filters="sRGB">
<feFlood flood-opacity="0" result="BackgroundImageFix"/>
<feGaussianBlur in="BackgroundImageFix" stdDeviation="1.5"/>
<feComposite in2="SourceAlpha" operator="in" result="effect1_backgroundBlur_2078_2840"/>
<feBlend mode="normal" in="SourceGraphic" in2="effect1_backgroundBlur_2078_2840" result="shape"/>
</filter>
<filter id="filter1_b_2078_2840" x="6.5" y="6" width="19.9" height="19.8999" filterUnits="userSpaceOnUse" color-interpolation-filters="sRGB">
<feFlood flood-opacity="0" result="BackgroundImageFix"/>
<feGaussianBlur in="BackgroundImageFix" stdDeviation="1.5"/>
<feComposite in2="SourceAlpha" operator="in" result="effect1_backgroundBlur_2078_2840"/>
<feBlend mode="normal" in="SourceGraphic" in2="effect1_backgroundBlur_2078_2840" result="shape"/>
</filter>
<linearGradient id="paint0_linear_2078_2840" x1="3.50037" y1="8.50357" x2="16.5293" y2="16.1107" gradientUnits="userSpaceOnUse">
<stop offset="0.188941" stop-color="#EAE7FF" stop-opacity="0.523483"/>
<stop offset="0.526042" stop-color="#C5C5C5"/>
<stop offset="1" stop-color="#C7B4FF" stop-opacity="0.1"/>
</linearGradient>
<radialGradient id="paint1_radial_2078_2840" cx="0" cy="0" r="1" gradientUnits="userSpaceOnUse" gradientTransform="translate(3.57731 22.4449) rotate(-50.9773) scale(10.9161 17.849)">
<stop stop-color="white"/>
<stop offset="1" stop-color="white" stop-opacity="0"/>
</radialGradient>
<linearGradient id="paint2_linear_2078_2840" x1="10.9875" y1="10.2824" x2="25.9907" y2="18.0509" gradientUnits="userSpaceOnUse">
<stop stop-color="#B4B4B4" stop-opacity="0.9"/>
<stop offset="0.447036" stop-color="#B3B3B3" stop-opacity="0.955296"/>
<stop offset="1" stop-color="#666666" stop-opacity="0.9"/>
</linearGradient>
<linearGradient id="paint3_linear_2078_2840" x1="11.5004" y1="8.50357" x2="24.5293" y2="16.1107" gradientUnits="userSpaceOnUse">
<stop offset="0.188941" stop-color="#EAE7FF" stop-opacity="0.523483"/>
<stop offset="0.526042" stop-color="#C5C5C5"/>
<stop offset="1" stop-color="#C7B4FF" stop-opacity="0.1"/>
</linearGradient>
<radialGradient id="paint4_radial_2078_2840" cx="0" cy="0" r="1" gradientUnits="userSpaceOnUse" gradientTransform="translate(11.5773 22.4449) rotate(-50.9773) scale(10.9161 17.849)">
<stop stop-color="white"/>
<stop offset="1" stop-color="white" stop-opacity="0"/>
</radialGradient>
</defs>
</svg>
