<svg width="16" height="17" viewBox="0 0 16 17" fill="none" xmlns="http://www.w3.org/2000/svg">
<path d="M7.33331 5.38525C7.33331 5.75344 7.63179 6.05192 7.99998 6.05192C8.36817 6.05192 8.66665 5.75344 8.66665 5.38525C8.66665 5.01706 8.36817 4.71859 7.99998 4.71859C7.63179 4.71859 7.33331 5.01706 7.33331 5.38525ZM7.99998 13.3853C5.05998 13.3853 2.66665 10.9919 2.66665 8.05192C2.66665 5.11192 5.05998 2.71859 7.99998 2.71859C10.94 2.71859 13.3333 5.11192 13.3333 8.05192C13.3333 10.9919 10.94 13.3853 7.99998 13.3853ZM7.99998 1.38525C7.1245 1.38525 6.25759 1.55769 5.44876 1.89272C4.63992 2.22776 3.90499 2.71882 3.28593 3.33788C2.03569 4.58812 1.33331 6.28381 1.33331 8.05192C1.33331 9.82003 2.03569 11.5157 3.28593 12.766C3.90499 13.385 4.63992 13.8761 5.44876 14.2111C6.25759 14.5462 7.1245 14.7186 7.99998 14.7186C9.76809 14.7186 11.4638 14.0162 12.714 12.766C13.9643 11.5157 14.6666 9.82003 14.6666 8.05192C14.6666 7.17644 14.4942 6.30954 14.1592 5.5007C13.8241 4.69186 13.3331 3.95693 12.714 3.33788C12.095 2.71882 11.36 2.22776 10.5512 1.89272C9.74237 1.55769 8.87546 1.38525 7.99998 1.38525ZM7.33331 10.7186C7.33331 11.0868 7.63179 11.3853 7.99998 11.3853C8.36817 11.3853 8.66665 11.0868 8.66665 10.7186V8.05192C8.66665 7.68373 8.36817 7.38525 7.99998 7.38525C7.63179 7.38525 7.33331 7.68373 7.33331 8.05192V10.7186Z" fill="#9090A0"/>
</svg>
