<svg width="17" height="17" viewBox="0 0 17 17" fill="none" xmlns="http://www.w3.org/2000/svg">
<g clip-path="url(#clip0_2708_7397)">
<path d="M3.66754 3.75789C3.66754 3.38732 3.96795 3.08691 4.33852 3.08691H13.7322C14.1028 3.08691 14.4032 3.38732 14.4032 3.75789C14.4032 4.12847 14.1028 4.42887 13.7322 4.42887H4.33852C3.96795 4.42887 3.66754 4.12847 3.66754 3.75789ZM3.66754 6.44181C3.66754 6.07124 3.96795 5.77083 4.33852 5.77083H13.7322C14.1028 5.77083 14.4032 6.07124 14.4032 6.44181C14.4032 6.81239 14.1028 7.11279 13.7322 7.11279H4.33852C3.96795 7.11279 3.66754 6.81239 3.66754 6.44181ZM3.66754 9.12573C3.66754 8.75516 3.96795 8.45475 4.33852 8.45475H11.8608C12.2314 8.45475 12.5318 8.75516 12.5318 9.12573C12.5318 9.4963 12.2314 9.79671 11.8608 9.79671H4.33852C3.96795 9.79671 3.66754 9.4963 3.66754 9.12573ZM3.66754 11.8097C3.66754 11.4391 3.96795 11.1387 4.33852 11.1387H9.70636C10.0769 11.1387 10.3773 11.4391 10.3773 11.8097C10.3773 12.1802 10.0769 12.4806 9.70636 12.4806H4.33852C3.96795 12.4806 3.66754 12.1802 3.66754 11.8097Z" fill="white"/>
<path d="M13.6491 9.06738C14.1062 10.3028 15.0803 11.2769 16.3158 11.734C15.0803 12.1912 14.1062 13.1653 13.6491 14.4007C13.1919 13.1653 12.2179 12.1912 10.9824 11.734C12.2179 11.2769 13.1919 10.3028 13.6491 9.06738Z" fill="white"/>
</g>
<defs>
<clipPath id="clip0_2708_7397">
<rect width="16" height="16" fill="white" transform="translate(0.84198 0.0517578)"/>
</clipPath>
</defs>
</svg>
