<svg width="33" height="32" viewBox="0 0 33 32" fill="none" xmlns="http://www.w3.org/2000/svg">
<rect x="0.730469" width="32" height="32" rx="16" fill="#D7D7FD"/>
<g clip-path="url(#clip0_3102_5769)">
<path d="M11.5377 11.6823C11.5377 11.3141 11.8362 11.0156 12.2044 11.0156H21.5377C21.9059 11.0156 22.2044 11.3141 22.2044 11.6823C22.2044 12.0505 21.9059 12.349 21.5377 12.349H12.2044C11.8362 12.349 11.5377 12.0505 11.5377 11.6823ZM11.5377 14.349C11.5377 13.9808 11.8362 13.6823 12.2044 13.6823H21.5377C21.9059 13.6823 22.2044 13.9808 22.2044 14.349C22.2044 14.7171 21.9059 15.0156 21.5377 15.0156H12.2044C11.8362 15.0156 11.5377 14.7171 11.5377 14.349ZM11.5377 17.0156C11.5377 16.6474 11.8362 16.349 12.2044 16.349H19.6783C20.0465 16.349 20.345 16.6474 20.345 17.0156C20.345 17.3838 20.0465 17.6823 19.6783 17.6823H12.2044C11.8362 17.6823 11.5377 17.3838 11.5377 17.0156ZM11.5377 19.6823C11.5377 19.3141 11.8362 19.0156 12.2044 19.0156H17.5377C17.9059 19.0156 18.2044 19.3141 18.2044 19.6823C18.2044 20.0505 17.9059 20.349 17.5377 20.349H12.2044C11.8362 20.349 11.5377 20.0505 11.5377 19.6823Z" fill="#552FE9"/>
<path d="M21.5378 17.0156C21.9949 18.2511 22.969 19.2251 24.2044 19.6823C22.969 20.1394 21.9949 21.1135 21.5378 22.349C21.0806 21.1135 20.1065 20.1394 18.8711 19.6823C20.1065 19.2251 21.0806 18.2511 21.5378 17.0156Z" fill="#552FE9"/>
</g>
<defs>
<clipPath id="clip0_3102_5769">
<rect width="16" height="16" fill="white" transform="translate(8.73047 8)"/>
</clipPath>
</defs>
</svg>
