<svg width="82" height="83" viewBox="0 0 82 83" fill="none" xmlns="http://www.w3.org/2000/svg">
<rect x="0.957233" y="1.25728" width="80.2134" height="80.2134" rx="40.1067" fill="#F1E9FE"/>
<rect x="0.957233" y="1.25728" width="80.2134" height="80.2134" rx="40.1067" stroke="#B790FC" stroke-width="1.16251"/>
<g clip-path="url(#clip0_1778_4008)">
<rect x="27.4977" y="45.239" width="27.1307" height="15.5" fill="#7E37F9"/>
<g filter="url(#filter0_bi_1778_4008)">
<path d="M57.1971 18.114H24.9291C23.2542 18.114 21.8965 19.4718 21.8965 21.1466V61.5814C21.8965 63.2563 23.2542 64.614 24.9291 64.614H57.1971C58.8719 64.614 60.2297 63.2563 60.2297 61.5814V21.1466C60.2297 19.4718 58.8719 18.114 57.1971 18.114Z" fill="url(#paint0_linear_1778_4008)" fill-opacity="0.2"/>
<path d="M24.9291 18.5149H57.1971C58.6505 18.5149 59.8288 19.6931 59.8288 21.1466V61.5814C59.8288 63.0349 58.6505 64.2132 57.1971 64.2132H24.9291C23.4756 64.2132 22.2973 63.0349 22.2973 61.5814V21.1466C22.2973 19.6931 23.4756 18.5149 24.9291 18.5149Z" stroke="url(#paint1_linear_1778_4008)" stroke-opacity="0.1" stroke-width="0.801724"/>
</g>
<g filter="url(#filter1_i_1778_4008)">
<path d="M53.1528 50.4623H28.892C28.6239 50.4623 28.3668 50.5688 28.1772 50.7584C27.9876 50.948 27.8811 51.2051 27.8811 51.4732C27.8811 51.7413 27.9876 51.9984 28.1772 52.188C28.3668 52.3775 28.6239 52.484 28.892 52.484H53.1528C53.4209 52.484 53.6781 52.3775 53.8676 52.188C54.0572 51.9984 54.1637 51.7413 54.1637 51.4732C54.1637 51.2051 54.0572 50.948 53.8676 50.7584C53.6781 50.5688 53.4209 50.4623 53.1528 50.4623Z" fill="white" fill-opacity="0.16"/>
<path d="M40.0115 56.5275H28.892C28.6239 56.5275 28.3668 56.634 28.1772 56.8236C27.9876 57.0132 27.8811 57.2703 27.8811 57.5384C27.8811 57.8065 27.9876 58.0636 28.1772 58.2532C28.3668 58.4428 28.6239 58.5493 28.892 58.5493H40.0115C40.2796 58.5493 40.5368 58.4428 40.7263 58.2532C40.9159 58.0636 41.0224 57.8065 41.0224 57.5384C41.0224 57.2703 40.9159 57.0132 40.7263 56.8236C40.5368 56.634 40.2796 56.5275 40.0115 56.5275Z" fill="white" fill-opacity="0.16"/>
<path d="M53.1528 44.3971H28.892C28.6239 44.3971 28.3668 44.5036 28.1772 44.6932C27.9876 44.8827 27.8811 45.1399 27.8811 45.408C27.8811 45.6761 27.9876 45.9332 28.1772 46.1228C28.3668 46.3123 28.6239 46.4188 28.892 46.4188H53.1528C53.4209 46.4188 53.6781 46.3123 53.8676 46.1228C54.0572 45.9332 54.1637 45.6761 54.1637 45.408C54.1637 45.1399 54.0572 44.8827 53.8676 44.6932C53.6781 44.5036 53.4209 44.3971 53.1528 44.3971Z" fill="white" fill-opacity="0.16"/>
</g>
<path d="M53.1537 38.3314H52.1428V32.2662H50.1211V38.3314H48.0994V32.2662H46.0776V38.3314H44.0559V32.2662H42.0342V38.3314H40.0124V32.2662H37.9907V38.3314H36.9798C36.7117 38.3314 36.4546 38.4379 36.265 38.6275C36.0754 38.817 35.9689 39.0742 35.9689 39.3423C35.9689 39.6104 36.0754 39.8675 36.265 40.057C36.4546 40.2466 36.7117 40.3531 36.9798 40.3531H53.1537C53.4218 40.3531 53.6789 40.2466 53.8685 40.057C54.0581 39.8675 54.1646 39.6104 54.1646 39.3423C54.1646 39.0742 54.0581 38.817 53.8685 38.6275C53.6789 38.4379 53.4218 38.3314 53.1537 38.3314Z" fill="#7E37F9"/>
<path d="M53.6056 27.3179L45.5186 23.2745C45.3783 23.2043 45.2236 23.1678 45.0668 23.1678C44.9099 23.1678 44.7552 23.2043 44.6149 23.2745L36.5279 27.3179C36.3599 27.4019 36.2186 27.531 36.1198 27.6908C36.0211 27.8507 35.9688 28.0348 35.9689 28.2227V29.2335C35.9689 29.5016 36.0754 29.7588 36.265 29.9483C36.4546 30.1379 36.7117 30.2444 36.9798 30.2444H53.1537C53.4218 30.2444 53.6789 30.1379 53.8685 29.9483C54.0581 29.7588 54.1646 29.5016 54.1646 29.2335V28.2227C54.1647 28.0348 54.1124 27.8507 54.0137 27.6908C53.9149 27.531 53.7736 27.4019 53.6056 27.3179Z" fill="#7E37F9"/>
</g>
<defs>
<filter id="filter0_bi_1778_4008" x="5.86201" y="2.07953" width="70.4021" height="78.569" filterUnits="userSpaceOnUse" color-interpolation-filters="sRGB">
<feFlood flood-opacity="0" result="BackgroundImageFix"/>
<feGaussianBlur in="BackgroundImageFix" stdDeviation="8.01724"/>
<feComposite in2="SourceAlpha" operator="in" result="effect1_backgroundBlur_1778_4008"/>
<feBlend mode="normal" in="SourceGraphic" in2="effect1_backgroundBlur_1778_4008" result="shape"/>
<feColorMatrix in="SourceAlpha" type="matrix" values="0 0 0 0 0 0 0 0 0 0 0 0 0 0 0 0 0 0 127 0" result="hardAlpha"/>
<feOffset dy="5.34483"/>
<feGaussianBlur stdDeviation="4.00862"/>
<feComposite in2="hardAlpha" operator="arithmetic" k2="-1" k3="1"/>
<feColorMatrix type="matrix" values="0 0 0 0 1 0 0 0 0 1 0 0 0 0 1 0 0 0 0.4 0"/>
<feBlend mode="normal" in2="shape" result="effect2_innerShadow_1778_4008"/>
</filter>
<filter id="filter1_i_1778_4008" x="27.8811" y="44.3971" width="26.2826" height="19.497" filterUnits="userSpaceOnUse" color-interpolation-filters="sRGB">
<feFlood flood-opacity="0" result="BackgroundImageFix"/>
<feBlend mode="normal" in="SourceGraphic" in2="BackgroundImageFix" result="shape"/>
<feColorMatrix in="SourceAlpha" type="matrix" values="0 0 0 0 0 0 0 0 0 0 0 0 0 0 0 0 0 0 127 0" result="hardAlpha"/>
<feOffset dy="5.34483"/>
<feGaussianBlur stdDeviation="2.67241"/>
<feComposite in2="hardAlpha" operator="arithmetic" k2="-1" k3="1"/>
<feColorMatrix type="matrix" values="0 0 0 0 1 0 0 0 0 1 0 0 0 0 1 0 0 0 0.4 0"/>
<feBlend mode="normal" in2="shape" result="effect1_innerShadow_1778_4008"/>
</filter>
<linearGradient id="paint0_linear_1778_4008" x1="21.8965" y1="18.114" x2="67.9455" y2="27.7531" gradientUnits="userSpaceOnUse">
<stop stop-color="#D4BCFD"/>
<stop offset="1" stop-color="#B790FC"/>
</linearGradient>
<linearGradient id="paint1_linear_1778_4008" x1="23.0944" y1="20.2277" x2="60.2297" y2="20.2277" gradientUnits="userSpaceOnUse">
<stop stop-color="#7F31FF"/>
<stop offset="1" stop-color="#B790FC"/>
</linearGradient>
<clipPath id="clip0_1778_4008">
<rect x="17.814" y="18.114" width="46.5" height="46.5" fill="white"/>
</clipPath>
</defs>
</svg>
