<svg width="82" height="83" viewBox="0 0 82 83" fill="none" xmlns="http://www.w3.org/2000/svg">
<rect x="0.957203" y="1.25728" width="80.2134" height="80.2134" rx="40.1067" fill="#F5F5F9"/>
<rect x="0.957203" y="1.25728" width="80.2134" height="80.2134" rx="40.1067" stroke="#E9E9EE" stroke-width="1.16251"/>
<g clip-path="url(#clip0_1701_2204)">
<rect x="27.4975" y="45.2389" width="27.131" height="15.5002" fill="#C6C6D0"/>
<g filter="url(#filter0_bi_1701_2204)">
<path d="M57.1972 18.1135H24.9289C23.254 18.1135 21.8962 19.4713 21.8962 21.1462V61.5814C21.8962 63.2563 23.254 64.6141 24.9289 64.6141H57.1972C58.8721 64.6141 60.2298 63.2563 60.2298 61.5814V21.1462C60.2298 19.4713 58.8721 18.1135 57.1972 18.1135Z" fill="url(#paint0_linear_1701_2204)" fill-opacity="0.2"/>
<path d="M24.9289 18.5144H57.1972C58.6507 18.5144 59.829 19.6927 59.829 21.1462V61.5814C59.829 63.0349 58.6507 64.2132 57.1972 64.2132H24.9289C23.4754 64.2132 22.2971 63.0349 22.2971 61.5814V21.1462C22.2971 19.6927 23.4754 18.5144 24.9289 18.5144Z" stroke="url(#paint1_linear_1701_2204)" stroke-opacity="0.1" stroke-width="0.801733"/>
</g>
<g filter="url(#filter1_i_1701_2204)">
<path d="M53.153 50.4621H28.8918C28.6237 50.4621 28.3666 50.5686 28.177 50.7582C27.9875 50.9478 27.881 51.2049 27.881 51.473C27.881 51.7411 27.9875 51.9982 28.177 52.1878C28.3666 52.3774 28.6237 52.4839 28.8918 52.4839H53.153C53.4211 52.4839 53.6782 52.3774 53.8678 52.1878C54.0574 51.9982 54.1639 51.7411 54.1639 51.473C54.1639 51.2049 54.0574 50.9478 53.8678 50.7582C53.6782 50.5686 53.4211 50.4621 53.153 50.4621Z" fill="white" fill-opacity="0.16"/>
<path d="M40.0115 56.5274H28.8918C28.6237 56.5274 28.3666 56.6339 28.177 56.8235C27.9875 57.0131 27.881 57.2702 27.881 57.5383C27.881 57.8064 27.9875 58.0635 28.177 58.2531C28.3666 58.4427 28.6237 58.5492 28.8918 58.5492H40.0115C40.2796 58.5492 40.5368 58.4427 40.7263 58.2531C40.9159 58.0635 41.0224 57.8064 41.0224 57.5383C41.0224 57.2702 40.9159 57.0131 40.7263 56.8235C40.5368 56.6339 40.2796 56.5274 40.0115 56.5274Z" fill="white" fill-opacity="0.16"/>
<path d="M53.153 44.3969H28.8918C28.6237 44.3969 28.3666 44.5034 28.177 44.6929C27.9875 44.8825 27.881 45.1396 27.881 45.4077C27.881 45.6758 27.9875 45.933 28.177 46.1225C28.3666 46.3121 28.6237 46.4186 28.8918 46.4186H53.153C53.4211 46.4186 53.6782 46.3121 53.8678 46.1225C54.0574 45.933 54.1639 45.6758 54.1639 45.4077C54.1639 45.1396 54.0574 44.8825 53.8678 44.6929C53.6782 44.5034 53.4211 44.3969 53.153 44.3969Z" fill="white" fill-opacity="0.16"/>
</g>
<path d="M53.1538 38.3312H52.1429V32.2659H50.1212V38.3312H48.0994V32.2659H46.0777V38.3312H44.0559V32.2659H42.0341V38.3312H40.0124V32.2659H37.9906V38.3312H36.9797C36.7116 38.3312 36.4545 38.4377 36.2649 38.6273C36.0753 38.8168 35.9688 39.074 35.9688 39.3421C35.9688 39.6102 36.0753 39.8673 36.2649 40.0569C36.4545 40.2465 36.7116 40.353 36.9797 40.353H53.1538C53.4219 40.353 53.679 40.2465 53.8686 40.0569C54.0582 39.8673 54.1647 39.6102 54.1647 39.3421C54.1647 39.074 54.0582 38.8168 53.8686 38.6273C53.679 38.4377 53.4219 38.3312 53.1538 38.3312Z" fill="#C6C6D0"/>
<path d="M53.6057 27.3176L45.5186 23.2741C45.3783 23.204 45.2236 23.1675 45.0668 23.1675C44.9099 23.1675 44.7552 23.204 44.6149 23.2741L36.5279 27.3176C36.3598 27.4016 36.2185 27.5307 36.1198 27.6905C36.021 27.8503 35.9688 28.0345 35.9688 28.2224V29.2332C35.9688 29.5013 36.0753 29.7585 36.2649 29.948C36.4545 30.1376 36.7116 30.2441 36.9797 30.2441H53.1538C53.4219 30.2441 53.679 30.1376 53.8686 29.948C54.0582 29.7585 54.1647 29.5013 54.1647 29.2332V28.2224C54.1648 28.0345 54.1125 27.8503 54.0138 27.6905C53.915 27.5307 53.7737 27.4016 53.6057 27.3176Z" fill="#C6C6D0"/>
</g>
<defs>
<filter id="filter0_bi_1701_2204" x="5.86155" y="2.07886" width="70.4029" height="78.5698" filterUnits="userSpaceOnUse" color-interpolation-filters="sRGB">
<feFlood flood-opacity="0" result="BackgroundImageFix"/>
<feGaussianBlur in="BackgroundImageFix" stdDeviation="8.01733"/>
<feComposite in2="SourceAlpha" operator="in" result="effect1_backgroundBlur_1701_2204"/>
<feBlend mode="normal" in="SourceGraphic" in2="effect1_backgroundBlur_1701_2204" result="shape"/>
<feColorMatrix in="SourceAlpha" type="matrix" values="0 0 0 0 0 0 0 0 0 0 0 0 0 0 0 0 0 0 127 0" result="hardAlpha"/>
<feOffset dy="5.34489"/>
<feGaussianBlur stdDeviation="4.00867"/>
<feComposite in2="hardAlpha" operator="arithmetic" k2="-1" k3="1"/>
<feColorMatrix type="matrix" values="0 0 0 0 1 0 0 0 0 1 0 0 0 0 1 0 0 0 0.4 0"/>
<feBlend mode="normal" in2="shape" result="effect2_innerShadow_1701_2204"/>
</filter>
<filter id="filter1_i_1701_2204" x="27.881" y="44.3969" width="26.2829" height="19.4972" filterUnits="userSpaceOnUse" color-interpolation-filters="sRGB">
<feFlood flood-opacity="0" result="BackgroundImageFix"/>
<feBlend mode="normal" in="SourceGraphic" in2="BackgroundImageFix" result="shape"/>
<feColorMatrix in="SourceAlpha" type="matrix" values="0 0 0 0 0 0 0 0 0 0 0 0 0 0 0 0 0 0 127 0" result="hardAlpha"/>
<feOffset dy="5.34489"/>
<feGaussianBlur stdDeviation="2.67244"/>
<feComposite in2="hardAlpha" operator="arithmetic" k2="-1" k3="1"/>
<feColorMatrix type="matrix" values="0 0 0 0 1 0 0 0 0 1 0 0 0 0 1 0 0 0 0.4 0"/>
<feBlend mode="normal" in2="shape" result="effect1_innerShadow_1701_2204"/>
</filter>
<linearGradient id="paint0_linear_1701_2204" x1="21.8962" y1="18.1135" x2="67.9457" y2="27.7527" gradientUnits="userSpaceOnUse">
<stop stop-color="#D1D2D3"/>
<stop offset="1" stop-color="#AFAFAF"/>
</linearGradient>
<linearGradient id="paint1_linear_1701_2204" x1="23.0941" y1="20.2272" x2="60.2298" y2="20.2272" gradientUnits="userSpaceOnUse">
<stop stop-color="#DBDBDB"/>
<stop offset="1" stop-color="#A6A6A6"/>
</linearGradient>
<clipPath id="clip0_1701_2204">
<rect x="17.8137" y="18.1136" width="46.5005" height="46.5005" fill="white"/>
</clipPath>
</defs>
</svg>
