<svg width="24" height="24" viewBox="0 0 24 24" fill="none" xmlns="http://www.w3.org/2000/svg">
<path d="M22.8 11.95C22.8 15.7884 19.6884 18.9 15.85 18.9C12.0116 18.9 8.90002 15.7884 8.90002 11.95C8.90002 8.11162 12.0116 5 15.85 5C19.6884 5 22.8 8.11162 22.8 11.95Z" fill="#464656"/>
<g filter="url(#filter0_b_589_484)">
<path d="M15.2 11.95C15.2 15.7884 12.0884 18.9 8.25005 18.9C4.41167 18.9 1.30005 15.7884 1.30005 11.95C1.30005 8.11162 4.41167 5 8.25005 5C12.0884 5 15.2 8.11162 15.2 11.95Z" fill="url(#paint0_linear_589_484)" fill-opacity="0.3"/>
<path d="M15.15 11.95C15.15 15.7608 12.0608 18.85 8.25005 18.85C4.43928 18.85 1.35005 15.7608 1.35005 11.95C1.35005 8.13924 4.43928 5.05 8.25005 5.05C12.0608 5.05 15.15 8.13924 15.15 11.95Z" stroke="url(#paint1_linear_589_484)" stroke-width="0.1"/>
<path d="M15.15 11.95C15.15 15.7608 12.0608 18.85 8.25005 18.85C4.43928 18.85 1.35005 15.7608 1.35005 11.95C1.35005 8.13924 4.43928 5.05 8.25005 5.05C12.0608 5.05 15.15 8.13924 15.15 11.95Z" stroke="url(#paint2_radial_589_484)" stroke-width="0.1"/>
</g>
<path d="M5.40001 11.45C5.40001 11.9194 5.01945 12.3 4.55001 12.3C4.08057 12.3 3.70001 11.9194 3.70001 11.45C3.70001 10.9806 4.08057 10.6 4.55001 10.6C5.01945 10.6 5.40001 10.9806 5.40001 11.45Z" fill="white"/>
<path d="M10.3 11.45C10.3 11.9194 9.91948 12.3 9.45004 12.3C8.98059 12.3 8.60004 11.9194 8.60004 11.45C8.60004 10.9806 8.98059 10.6 9.45004 10.6C9.91948 10.6 10.3 10.9806 10.3 11.45Z" fill="white"/>
<path d="M15.5 11.45C15.5 11.9194 15.1194 12.3 14.65 12.3C14.1805 12.3 13.8 11.9194 13.8 11.45C13.8 10.9806 14.1805 10.6 14.65 10.6C15.1194 10.6 15.5 10.9806 15.5 11.45Z" fill="white"/>
<path d="M20.4 11.45C20.4 11.9194 20.0195 12.3 19.55 12.3C19.0806 12.3 18.7 11.9194 18.7 11.45C18.7 10.9806 19.0806 10.6 19.55 10.6C20.0195 10.6 20.4 10.9806 20.4 11.45Z" fill="white"/>
<defs>
<filter id="filter0_b_589_484" x="-1.69995" y="2" width="19.9" height="19.9" filterUnits="userSpaceOnUse" color-interpolation-filters="sRGB">
<feFlood flood-opacity="0" result="BackgroundImageFix"/>
<feGaussianBlur in="BackgroundImageFix" stdDeviation="1.5"/>
<feComposite in2="SourceAlpha" operator="in" result="effect1_backgroundBlur_589_484"/>
<feBlend mode="normal" in="SourceGraphic" in2="effect1_backgroundBlur_589_484" result="shape"/>
</filter>
<linearGradient id="paint0_linear_589_484" x1="2.7875" y1="6.28244" x2="17.7907" y2="14.0509" gradientUnits="userSpaceOnUse">
<stop stop-color="#B4B4B4" stop-opacity="0.9"/>
<stop offset="0.447036" stop-color="#B3B3B3" stop-opacity="0.955296"/>
<stop offset="1" stop-color="#666666" stop-opacity="0.9"/>
</linearGradient>
<linearGradient id="paint1_linear_589_484" x1="3.30042" y1="4.50357" x2="16.3293" y2="12.1107" gradientUnits="userSpaceOnUse">
<stop offset="0.188941" stop-color="#EAE7FF" stop-opacity="0.523483"/>
<stop offset="0.526042" stop-color="#C5C5C5"/>
<stop offset="1" stop-color="#C7B4FF" stop-opacity="0.1"/>
</linearGradient>
<radialGradient id="paint2_radial_589_484" cx="0" cy="0" r="1" gradientUnits="userSpaceOnUse" gradientTransform="translate(3.37735 18.4449) rotate(-50.9773) scale(10.9161 17.849)">
<stop stop-color="white"/>
<stop offset="1" stop-color="white" stop-opacity="0"/>
</radialGradient>
</defs>
</svg>
