<svg width="82" height="82" viewBox="0 0 82 82" fill="none" xmlns="http://www.w3.org/2000/svg">
<rect x="0.581257" y="0.581257" width="80.2134" height="80.2134" rx="40.1067" fill="#F5F5F9"/>
<rect x="0.581257" y="0.581257" width="80.2134" height="80.2134" rx="40.1067" stroke="#E9E9EE" stroke-width="1.16251"/>
<path d="M60.7412 52.8954H25.866V50.2798C25.8661 50.1155 25.8197 49.9545 25.7323 49.8155C25.6448 49.6764 25.5199 49.5648 25.3718 49.4936C25.2237 49.4225 25.0586 49.3946 24.8953 49.4132C24.7321 49.4318 24.5774 49.4962 24.4492 49.5989L20.0898 53.0864C19.9858 53.1701 19.9023 53.2764 19.8456 53.3973C19.789 53.5182 19.7607 53.6504 19.7628 53.7839C19.7663 53.9495 19.8168 54.1107 19.9084 54.2486C19.934 54.2876 19.9632 54.3241 19.9956 54.3576C20.0296 54.3944 20.0666 54.4282 20.1064 54.4587L24.4501 57.9349C24.5783 58.0373 24.7328 58.1014 24.8958 58.1199C25.0588 58.1384 25.2237 58.1106 25.3716 58.0395C25.5195 57.9685 25.6443 57.8572 25.7318 57.7184C25.8192 57.5796 25.8658 57.4189 25.866 57.2548V54.6392H60.7412C60.9724 54.6392 61.1942 54.5473 61.3577 54.3838C61.5212 54.2203 61.6131 53.9986 61.6131 53.7673C61.6131 53.5361 61.5212 53.3143 61.3577 53.1508C61.1942 52.9873 60.9724 52.8954 60.7412 52.8954Z" fill="#C6C6D0"/>
<path d="M61.5929 27.4251C61.5502 27.2296 61.4419 27.0545 61.286 26.929L56.9266 23.4415C56.7984 23.3388 56.6437 23.2745 56.4805 23.2559C56.3172 23.2372 56.1521 23.2651 56.004 23.3363C55.8559 23.4075 55.731 23.519 55.6435 23.6581C55.5561 23.7972 55.5097 23.9582 55.5098 24.1225V26.7381H20.6346C20.4034 26.7381 20.1816 26.83 20.0181 26.9935C19.8546 27.157 19.7627 27.3787 19.7627 27.61C19.7627 27.8412 19.8546 28.063 20.0181 28.2265C20.1816 28.39 20.4034 28.4819 20.6346 28.4819H55.5098V31.0975C55.5096 31.2619 55.5558 31.4229 55.6432 31.5622C55.7306 31.7014 55.8555 31.8131 56.0036 31.8843C56.1517 31.9556 56.3169 31.9836 56.4803 31.965C56.6436 31.9464 56.7983 31.882 56.9266 31.7793L61.2703 28.3075C61.375 28.2275 61.4603 28.1249 61.5196 28.0072C61.579 27.8896 61.6109 27.76 61.613 27.6283C61.6142 27.56 61.6074 27.4918 61.5929 27.4251Z" fill="#C6C6D0"/>
<path d="M40.6883 49.4075C45.5038 49.4075 49.4075 45.5038 49.4075 40.6883C49.4075 35.8728 45.5038 31.9691 40.6883 31.9691C35.8728 31.9691 31.9691 35.8728 31.9691 40.6883C31.9691 45.5038 35.8728 49.4075 40.6883 49.4075Z" fill="#C6C6D0"/>
<g filter="url(#filter0_bi_1701_2193)">
<path d="M40.688 56.3819C49.3555 56.3819 56.3819 49.3555 56.3819 40.6879C56.3819 32.0204 49.3555 24.994 40.688 24.994C32.0204 24.994 24.994 32.0204 24.994 40.6879C24.994 49.3555 32.0204 56.3819 40.688 56.3819Z" fill="url(#paint0_linear_1701_2193)" fill-opacity="0.2"/>
<path d="M55.981 40.6879C55.981 49.1341 49.1341 55.981 40.688 55.981C32.2418 55.981 25.3949 49.1341 25.3949 40.6879C25.3949 32.2418 32.2418 25.3949 40.688 25.3949C49.1341 25.3949 55.981 32.2418 55.981 40.6879Z" stroke="url(#paint1_linear_1701_2193)" stroke-opacity="0.1" stroke-width="0.801733"/>
</g>
<g filter="url(#filter1_i_1701_2193)">
<path d="M40.6867 52.7615C47.354 52.7615 52.7589 47.3565 52.7589 40.6892C52.7589 34.0219 47.354 28.6169 40.6867 28.6169C34.0193 28.6169 28.6144 34.0219 28.6144 40.6892C28.6144 47.3565 34.0193 52.7615 40.6867 52.7615Z" fill="white" fill-opacity="0.16"/>
</g>
<g filter="url(#filter2_i_1701_2193)">
<path d="M40.6879 47.6631C40.4236 47.663 40.1702 47.558 39.9834 47.3711L34.0046 41.3924C33.8178 41.2055 33.7129 40.9521 33.7129 40.6879C33.7129 40.4236 33.8178 40.1702 34.0046 39.9834L39.9834 34.0046C40.1702 33.8178 40.4236 33.7129 40.6879 33.7129C40.9521 33.7129 41.2055 33.8178 41.3924 34.0046L47.3711 39.9834C47.5579 40.1702 47.6628 40.4236 47.6628 40.6879C47.6628 40.9521 47.5579 41.2055 47.3711 41.3924L41.3924 47.3711C41.2055 47.558 40.9521 47.663 40.6879 47.6631Z" fill="#C6C6D0"/>
</g>
<defs>
<filter id="filter0_bi_1701_2193" x="8.95937" y="8.95935" width="63.4572" height="63.4572" filterUnits="userSpaceOnUse" color-interpolation-filters="sRGB">
<feFlood flood-opacity="0" result="BackgroundImageFix"/>
<feGaussianBlur in="BackgroundImageFix" stdDeviation="8.01733"/>
<feComposite in2="SourceAlpha" operator="in" result="effect1_backgroundBlur_1701_2193"/>
<feBlend mode="normal" in="SourceGraphic" in2="effect1_backgroundBlur_1701_2193" result="shape"/>
<feColorMatrix in="SourceAlpha" type="matrix" values="0 0 0 0 0 0 0 0 0 0 0 0 0 0 0 0 0 0 127 0" result="hardAlpha"/>
<feOffset dy="5.34489"/>
<feGaussianBlur stdDeviation="4.00867"/>
<feComposite in2="hardAlpha" operator="arithmetic" k2="-1" k3="1"/>
<feColorMatrix type="matrix" values="0 0 0 0 1 0 0 0 0 1 0 0 0 0 1 0 0 0 0.4 0"/>
<feBlend mode="normal" in2="shape" result="effect2_innerShadow_1701_2193"/>
</filter>
<filter id="filter1_i_1701_2193" x="28.6144" y="28.6169" width="24.1445" height="29.4894" filterUnits="userSpaceOnUse" color-interpolation-filters="sRGB">
<feFlood flood-opacity="0" result="BackgroundImageFix"/>
<feBlend mode="normal" in="SourceGraphic" in2="BackgroundImageFix" result="shape"/>
<feColorMatrix in="SourceAlpha" type="matrix" values="0 0 0 0 0 0 0 0 0 0 0 0 0 0 0 0 0 0 127 0" result="hardAlpha"/>
<feOffset dy="5.34489"/>
<feGaussianBlur stdDeviation="2.67244"/>
<feComposite in2="hardAlpha" operator="arithmetic" k2="-1" k3="1"/>
<feColorMatrix type="matrix" values="0 0 0 0 1 0 0 0 0 1 0 0 0 0 1 0 0 0 0.4 0"/>
<feBlend mode="normal" in2="shape" result="effect1_innerShadow_1701_2193"/>
</filter>
<filter id="filter2_i_1701_2193" x="33.7129" y="33.7129" width="13.95" height="19.2951" filterUnits="userSpaceOnUse" color-interpolation-filters="sRGB">
<feFlood flood-opacity="0" result="BackgroundImageFix"/>
<feBlend mode="normal" in="SourceGraphic" in2="BackgroundImageFix" result="shape"/>
<feColorMatrix in="SourceAlpha" type="matrix" values="0 0 0 0 0 0 0 0 0 0 0 0 0 0 0 0 0 0 127 0" result="hardAlpha"/>
<feOffset dy="5.34489"/>
<feGaussianBlur stdDeviation="2.67244"/>
<feComposite in2="hardAlpha" operator="arithmetic" k2="-1" k3="1"/>
<feColorMatrix type="matrix" values="0 0 0 0 1 0 0 0 0 1 0 0 0 0 1 0 0 0 0.1 0"/>
<feBlend mode="normal" in2="shape" result="effect1_innerShadow_1701_2193"/>
</filter>
<linearGradient id="paint0_linear_1701_2193" x1="24.994" y1="24.994" x2="61.968" y2="34.3824" gradientUnits="userSpaceOnUse">
<stop stop-color="#BFBFBF"/>
<stop offset="1" stop-color="#9C9C9C"/>
</linearGradient>
<linearGradient id="paint1_linear_1701_2193" x1="25.9749" y1="26.4207" x2="56.3819" y2="26.4207" gradientUnits="userSpaceOnUse">
<stop stop-color="#CCCCCC"/>
<stop offset="1" stop-color="#808080"/>
</linearGradient>
</defs>
</svg>
