<svg width="82" height="82" viewBox="0 0 82 82" fill="none" xmlns="http://www.w3.org/2000/svg">
<rect x="0.581257" y="0.581257" width="80.2134" height="80.2134" rx="40.1067" fill="#F1E9FE"/>
<rect x="0.581257" y="0.581257" width="80.2134" height="80.2134" rx="40.1067" stroke="#B790FC" stroke-width="1.16251"/>
<path d="M60.7409 52.8953H25.8661V50.2797C25.8662 50.1154 25.8198 49.9544 25.7324 49.8153C25.645 49.6762 25.52 49.5647 25.372 49.4935C25.2239 49.4224 25.0587 49.3945 24.8955 49.4131C24.7323 49.4317 24.5776 49.4961 24.4494 49.5987L20.09 53.0862C19.986 53.1699 19.9025 53.2763 19.8459 53.3972C19.7892 53.518 19.7609 53.6502 19.7631 53.7837C19.7665 53.9493 19.817 54.1105 19.9087 54.2484C19.9343 54.2874 19.9634 54.3239 19.9958 54.3574C20.0298 54.3942 20.0668 54.4281 20.1066 54.4585L24.4502 57.9347C24.5784 58.0371 24.7329 58.1012 24.8959 58.1197C25.0589 58.1382 25.2239 58.1103 25.3717 58.0393C25.5196 57.9683 25.6445 57.857 25.7319 57.7182C25.8194 57.5793 25.8659 57.4187 25.8661 57.2546V54.639H60.7409C60.9722 54.639 61.1939 54.5472 61.3574 54.3837C61.5209 54.2201 61.6128 53.9984 61.6128 53.7671C61.6128 53.5359 61.5209 53.3141 61.3574 53.1506C61.1939 52.9871 60.9722 52.8953 60.7409 52.8953Z" fill="#7E37F9"/>
<path d="M61.5926 27.4253C61.5499 27.2298 61.4416 27.0547 61.2857 26.9292L56.9264 23.4418C56.7981 23.3391 56.6435 23.2747 56.4803 23.2561C56.317 23.2375 56.1519 23.2654 56.0038 23.3365C55.8557 23.4077 55.7308 23.5193 55.6433 23.6583C55.5559 23.7974 55.5095 23.9584 55.5096 24.1227V26.7383H20.6348C20.4036 26.7383 20.1818 26.8302 20.0183 26.9937C19.8548 27.1572 19.7629 27.3789 19.7629 27.6102C19.7629 27.8414 19.8548 28.0632 20.0183 28.2267C20.1818 28.3902 20.4036 28.482 20.6348 28.482H55.5096V31.0976C55.5094 31.262 55.5556 31.4231 55.643 31.5623C55.7304 31.7015 55.8553 31.8132 56.0034 31.8845C56.1515 31.9557 56.3167 31.9837 56.48 31.9651C56.6434 31.9465 56.7981 31.8822 56.9264 31.7794L61.27 28.3077C61.3748 28.2277 61.46 28.125 61.5193 28.0074C61.5787 27.8898 61.6106 27.7602 61.6127 27.6285C61.6139 27.5602 61.6072 27.492 61.5926 27.4253Z" fill="#7E37F9"/>
<path d="M40.6855 49.4067C45.5009 49.4067 49.4046 45.503 49.4046 40.6876C49.4046 35.8722 45.5009 31.9685 40.6855 31.9685C35.8701 31.9685 31.9664 35.8722 31.9664 40.6876C31.9664 45.503 35.8701 49.4067 40.6855 49.4067Z" fill="#7E37F9"/>
<g filter="url(#filter0_bi_1778_3955)">
<path d="M40.6879 56.3815C49.3553 56.3815 56.3816 49.3552 56.3816 40.6878C56.3816 32.0203 49.3553 24.994 40.6879 24.994C32.0205 24.994 24.9941 32.0203 24.9941 40.6878C24.9941 49.3552 32.0205 56.3815 40.6879 56.3815Z" fill="url(#paint0_linear_1778_3955)" fill-opacity="0.2"/>
<path d="M56.0209 40.6878C56.0209 49.1559 49.1561 56.0207 40.6879 56.0207C32.2197 56.0207 25.3549 49.1559 25.3549 40.6878C25.3549 32.2196 32.2197 25.3548 40.6879 25.3548C49.1561 25.3548 56.0209 32.2196 56.0209 40.6878Z" stroke="url(#paint1_linear_1778_3955)" stroke-opacity="0.1" stroke-width="0.721552"/>
</g>
<g filter="url(#filter1_i_1778_3955)">
<path d="M40.6873 52.7614C47.3545 52.7614 52.7594 47.3565 52.7594 40.6893C52.7594 34.0221 47.3545 28.6172 40.6873 28.6172C34.02 28.6172 28.6152 34.0221 28.6152 40.6893C28.6152 47.3565 34.02 52.7614 40.6873 52.7614Z" fill="white" fill-opacity="0.16"/>
</g>
<g filter="url(#filter2_i_1778_3955)">
<path d="M40.6885 47.6623C40.4242 47.6622 40.1708 47.5572 39.984 47.3703L34.0053 41.3917C33.8185 41.2048 33.7136 40.9514 33.7136 40.6872C33.7136 40.423 33.8185 40.1695 34.0053 39.9827L39.984 34.004C40.1708 33.8172 40.4242 33.7123 40.6885 33.7123C40.9527 33.7123 41.2061 33.8172 41.3929 34.004L47.3716 39.9827C47.5584 40.1695 47.6633 40.423 47.6633 40.6872C47.6633 40.9514 47.5584 41.2048 47.3716 41.3917L41.3929 47.3703C41.2061 47.5572 40.9527 47.6622 40.6885 47.6623Z" fill="#7E37F9"/>
</g>
<defs>
<filter id="filter0_bi_1778_3955" x="10.5631" y="10.563" width="60.2496" height="60.2495" filterUnits="userSpaceOnUse" color-interpolation-filters="sRGB">
<feFlood flood-opacity="0" result="BackgroundImageFix"/>
<feGaussianBlur in="BackgroundImageFix" stdDeviation="7.21552"/>
<feComposite in2="SourceAlpha" operator="in" result="effect1_backgroundBlur_1778_3955"/>
<feBlend mode="normal" in="SourceGraphic" in2="effect1_backgroundBlur_1778_3955" result="shape"/>
<feColorMatrix in="SourceAlpha" type="matrix" values="0 0 0 0 0 0 0 0 0 0 0 0 0 0 0 0 0 0 127 0" result="hardAlpha"/>
<feOffset dy="4.81034"/>
<feGaussianBlur stdDeviation="3.60776"/>
<feComposite in2="hardAlpha" operator="arithmetic" k2="-1" k3="1"/>
<feColorMatrix type="matrix" values="0 0 0 0 1 0 0 0 0 1 0 0 0 0 1 0 0 0 0.4 0"/>
<feBlend mode="normal" in2="shape" result="effect2_innerShadow_1778_3955"/>
</filter>
<filter id="filter1_i_1778_3955" x="28.6152" y="28.6172" width="24.1442" height="28.9546" filterUnits="userSpaceOnUse" color-interpolation-filters="sRGB">
<feFlood flood-opacity="0" result="BackgroundImageFix"/>
<feBlend mode="normal" in="SourceGraphic" in2="BackgroundImageFix" result="shape"/>
<feColorMatrix in="SourceAlpha" type="matrix" values="0 0 0 0 0 0 0 0 0 0 0 0 0 0 0 0 0 0 127 0" result="hardAlpha"/>
<feOffset dy="4.81034"/>
<feGaussianBlur stdDeviation="2.40517"/>
<feComposite in2="hardAlpha" operator="arithmetic" k2="-1" k3="1"/>
<feColorMatrix type="matrix" values="0 0 0 0 1 0 0 0 0 1 0 0 0 0 1 0 0 0 0.4 0"/>
<feBlend mode="normal" in2="shape" result="effect1_innerShadow_1778_3955"/>
</filter>
<filter id="filter2_i_1778_3955" x="33.7136" y="33.7123" width="13.9498" height="18.7603" filterUnits="userSpaceOnUse" color-interpolation-filters="sRGB">
<feFlood flood-opacity="0" result="BackgroundImageFix"/>
<feBlend mode="normal" in="SourceGraphic" in2="BackgroundImageFix" result="shape"/>
<feColorMatrix in="SourceAlpha" type="matrix" values="0 0 0 0 0 0 0 0 0 0 0 0 0 0 0 0 0 0 127 0" result="hardAlpha"/>
<feOffset dy="4.81034"/>
<feGaussianBlur stdDeviation="2.40517"/>
<feComposite in2="hardAlpha" operator="arithmetic" k2="-1" k3="1"/>
<feColorMatrix type="matrix" values="0 0 0 0 1 0 0 0 0 1 0 0 0 0 1 0 0 0 0.1 0"/>
<feBlend mode="normal" in2="shape" result="effect1_innerShadow_1778_3955"/>
</filter>
<linearGradient id="paint0_linear_1778_3955" x1="24.9941" y1="24.994" x2="61.9677" y2="34.3823" gradientUnits="userSpaceOnUse">
<stop stop-color="#9B63FA"/>
<stop offset="1" stop-color="#7E37F9"/>
</linearGradient>
<linearGradient id="paint1_linear_1778_3955" x1="25.975" y1="26.4207" x2="56.3816" y2="26.4207" gradientUnits="userSpaceOnUse">
<stop stop-color="#CCCCCC"/>
<stop offset="1" stop-color="#808080"/>
</linearGradient>
</defs>
</svg>
